  0
SECTION
  2
HEADER
  9
$ANGBASE
  50
0.0
  9
$ANGDIR
  70
1
  9
$MEASUREMENT
  70
1
  0
ENDSEC
  0
SECTION
  2
TABLES
  0
TABLE
  2
LTYPE
  70
4
  0
LTYPE
  5
40F
  2
CONTINUOUS
  70
0
  3
Solid line
  72
65
  73
0
  40
0.0
  0
LTYPE
  5
410
  2
DASHDOT
 70
0
  3
Dash Dot ____ _ ____ _
 72
65
 73
4
 40
2.0
 49
1.25
 49
-0.25
 49
0.25
 49
-0.25
  0
LTYPE
  5
411
  2
DASHED
 70
0
  3
Dashed __ __ __ __ __
 72
65
 73
2
 40
0.75
 49
0.5
 49
-0.25
  0
LTYPE
  5
43B
  2
DOTTED
 70
0
  3
Dotted .  .  .  .
 72
65
 73
2
 40
0.2
 49
0.0
 49
-0.2
  0
ENDTAB
  0
TABLE
  2
STYLE
  70
4
  0
STYLE
  2
KICAD
  70
0
  40
0
  41
1
  42
1
  50
0
  71
0
  3
isocp.shx
  0
STYLE
  2
KICADB
  70
0
  40
0
  41
1
  42
1
  50
0
  71
0
  3
isocp.shx
  0
STYLE
  2
KICADI
  70
0
  40
0
  41
1
  42
1
  50
15
  71
0
  3
isocp.shx
  0
STYLE
  2
KICADBI
  70
0
  40
0
  41
1
  42
1
  50
15
  71
0
  3
isocp.shx
  0
ENDTAB
  0
TABLE
  2
LAYER
  70
1
  0
LAYER
  2
BLACK
  70
0
  62
7
  6
CONTINUOUS
  0
ENDTAB
  0
ENDSEC
  0
SECTION
  2
ENTITIES
0
LINE
8
BLACK
6
CONTINUOUS
10
119.57
20
-116.275
11
119.742
21
-116.351
0
LINE
8
BLACK
6
CONTINUOUS
10
119.742
20
-116.351
11
119.894
21
-116.462
0
LINE
8
BLACK
6
CONTINUOUS
10
119.894
20
-116.462
11
120.021
21
-116.602
0
LINE
8
BLACK
6
CONTINUOUS
10
120.021
20
-116.602
11
120.115
21
-116.765
0
LINE
8
BLACK
6
CONTINUOUS
10
120.115
20
-116.765
11
120.173
21
-116.945
0
LINE
8
BLACK
6
CONTINUOUS
10
120.173
20
-116.945
11
120.193
21
-117.132
0
LINE
8
BLACK
6
CONTINUOUS
10
120.193
20
-117.132
11
120.173
21
-117.32
0
LINE
8
BLACK
6
CONTINUOUS
10
120.173
20
-117.32
11
120.115
21
-117.499
0
LINE
8
BLACK
6
CONTINUOUS
10
120.115
20
-117.499
11
120.021
21
-117.662
0
LINE
8
BLACK
6
CONTINUOUS
10
120.021
20
-117.662
11
119.894
21
-117.802
0
LINE
8
BLACK
6
CONTINUOUS
10
119.894
20
-117.802
11
119.742
21
-117.913
0
LINE
8
BLACK
6
CONTINUOUS
10
119.742
20
-117.913
11
119.57
21
-117.99
0
LINE
8
BLACK
6
CONTINUOUS
10
119.57
20
-117.99
11
119.385
21
-118.029
0
LINE
8
BLACK
6
CONTINUOUS
10
119.385
20
-118.029
11
119.197
21
-118.029
0
LINE
8
BLACK
6
CONTINUOUS
10
119.197
20
-118.029
11
119.012
21
-117.99
0
LINE
8
BLACK
6
CONTINUOUS
10
119.012
20
-117.99
11
118.84
21
-117.913
0
LINE
8
BLACK
6
CONTINUOUS
10
118.84
20
-117.913
11
118.688
21
-117.802
0
LINE
8
BLACK
6
CONTINUOUS
10
118.688
20
-117.802
11
118.562
21
-117.662
0
LINE
8
BLACK
6
CONTINUOUS
10
118.562
20
-117.662
11
118.467
21
-117.499
0
LINE
8
BLACK
6
CONTINUOUS
10
118.467
20
-117.499
11
118.409
21
-117.32
0
LINE
8
BLACK
6
CONTINUOUS
10
118.409
20
-117.32
11
118.389
21
-117.132
0
LINE
8
BLACK
6
CONTINUOUS
10
118.389
20
-117.132
11
118.409
21
-116.945
0
LINE
8
BLACK
6
CONTINUOUS
10
118.409
20
-116.945
11
118.467
21
-116.765
0
LINE
8
BLACK
6
CONTINUOUS
10
118.467
20
-116.765
11
118.562
21
-116.602
0
LINE
8
BLACK
6
CONTINUOUS
10
118.562
20
-116.602
11
118.688
21
-116.462
0
LINE
8
BLACK
6
CONTINUOUS
10
118.688
20
-116.462
11
118.84
21
-116.351
0
LINE
8
BLACK
6
CONTINUOUS
10
118.84
20
-116.351
11
119.012
21
-116.275
0
LINE
8
BLACK
6
CONTINUOUS
10
119.012
20
-116.275
11
119.197
21
-116.235
0
LINE
8
BLACK
6
CONTINUOUS
10
119.197
20
-116.235
11
119.385
21
-116.235
0
LINE
8
BLACK
6
CONTINUOUS
10
119.385
20
-116.235
11
119.57
21
-116.275
0
LINE
8
BLACK
6
CONTINUOUS
10
182.276
20
-115.614
11
182.447
21
-115.656
0
LINE
8
BLACK
6
CONTINUOUS
10
182.447
20
-115.656
11
182.604
21
-115.736
0
LINE
8
BLACK
6
CONTINUOUS
10
182.604
20
-115.736
11
182.739
21
-115.85
0
LINE
8
BLACK
6
CONTINUOUS
10
182.739
20
-115.85
11
182.843
21
-115.993
0
LINE
8
BLACK
6
CONTINUOUS
10
182.843
20
-115.993
11
182.912
21
-116.155
0
LINE
8
BLACK
6
CONTINUOUS
10
182.912
20
-116.155
11
182.942
21
-116.329
0
LINE
8
BLACK
6
CONTINUOUS
10
182.942
20
-116.329
11
182.931
21
-116.505
0
LINE
8
BLACK
6
CONTINUOUS
10
182.931
20
-116.505
11
182.88
21
-116.674
0
LINE
8
BLACK
6
CONTINUOUS
10
182.88
20
-116.674
11
182.792
21
-116.827
0
LINE
8
BLACK
6
CONTINUOUS
10
182.792
20
-116.827
11
182.67
21
-116.955
0
LINE
8
BLACK
6
CONTINUOUS
10
182.67
20
-116.955
11
182.523
21
-117.051
0
LINE
8
BLACK
6
CONTINUOUS
10
182.523
20
-117.051
11
182.357
21
-117.112
0
LINE
8
BLACK
6
CONTINUOUS
10
182.357
20
-117.112
11
182.181
21
-117.132
0
LINE
8
BLACK
6
CONTINUOUS
10
182.181
20
-117.132
11
180.861
21
-117.132
0
LINE
8
BLACK
6
CONTINUOUS
10
180.861
20
-117.132
11
180.767
21
-117.126
0
LINE
8
BLACK
6
CONTINUOUS
10
180.767
20
-117.126
11
180.595
21
-117.084
0
LINE
8
BLACK
6
CONTINUOUS
10
180.595
20
-117.084
11
180.438
21
-117.004
0
LINE
8
BLACK
6
CONTINUOUS
10
180.438
20
-117.004
11
180.303
21
-116.89
0
LINE
8
BLACK
6
CONTINUOUS
10
180.303
20
-116.89
11
180.199
21
-116.748
0
LINE
8
BLACK
6
CONTINUOUS
10
180.199
20
-116.748
11
180.13
21
-116.585
0
LINE
8
BLACK
6
CONTINUOUS
10
180.13
20
-116.585
11
180.1
21
-116.411
0
LINE
8
BLACK
6
CONTINUOUS
10
180.1
20
-116.411
11
180.111
21
-116.235
0
LINE
8
BLACK
6
CONTINUOUS
10
180.111
20
-116.235
11
180.162
21
-116.066
0
LINE
8
BLACK
6
CONTINUOUS
10
180.162
20
-116.066
11
180.251
21
-115.914
0
LINE
8
BLACK
6
CONTINUOUS
10
180.251
20
-115.914
11
180.372
21
-115.786
0
LINE
8
BLACK
6
CONTINUOUS
10
180.372
20
-115.786
11
180.52
21
-115.689
0
LINE
8
BLACK
6
CONTINUOUS
10
180.52
20
-115.689
11
180.685
21
-115.629
0
LINE
8
BLACK
6
CONTINUOUS
10
180.685
20
-115.629
11
180.861
21
-115.608
0
LINE
8
BLACK
6
CONTINUOUS
10
180.861
20
-115.608
11
182.181
21
-115.608
0
LINE
8
BLACK
6
CONTINUOUS
10
182.181
20
-115.608
11
182.276
21
-115.614
0
LINE
8
BLACK
6
CONTINUOUS
10
182.276
20
-113.074
11
182.447
21
-113.116
0
LINE
8
BLACK
6
CONTINUOUS
10
182.447
20
-113.116
11
182.604
21
-113.196
0
LINE
8
BLACK
6
CONTINUOUS
10
182.604
20
-113.196
11
182.739
21
-113.31
0
LINE
8
BLACK
6
CONTINUOUS
10
182.739
20
-113.31
11
182.843
21
-113.453
0
LINE
8
BLACK
6
CONTINUOUS
10
182.843
20
-113.453
11
182.912
21
-113.615
0
LINE
8
BLACK
6
CONTINUOUS
10
182.912
20
-113.615
11
182.942
21
-113.789
0
LINE
8
BLACK
6
CONTINUOUS
10
182.942
20
-113.789
11
182.931
21
-113.965
0
LINE
8
BLACK
6
CONTINUOUS
10
182.931
20
-113.965
11
182.88
21
-114.134
0
LINE
8
BLACK
6
CONTINUOUS
10
182.88
20
-114.134
11
182.792
21
-114.287
0
LINE
8
BLACK
6
CONTINUOUS
10
182.792
20
-114.287
11
182.67
21
-114.415
0
LINE
8
BLACK
6
CONTINUOUS
10
182.67
20
-114.415
11
182.523
21
-114.511
0
LINE
8
BLACK
6
CONTINUOUS
10
182.523
20
-114.511
11
182.357
21
-114.572
0
LINE
8
BLACK
6
CONTINUOUS
10
182.357
20
-114.572
11
182.181
21
-114.592
0
LINE
8
BLACK
6
CONTINUOUS
10
182.181
20
-114.592
11
180.861
21
-114.592
0
LINE
8
BLACK
6
CONTINUOUS
10
180.861
20
-114.592
11
180.767
21
-114.586
0
LINE
8
BLACK
6
CONTINUOUS
10
180.767
20
-114.586
11
180.595
21
-114.544
0
LINE
8
BLACK
6
CONTINUOUS
10
180.595
20
-114.544
11
180.438
21
-114.464
0
LINE
8
BLACK
6
CONTINUOUS
10
180.438
20
-114.464
11
180.303
21
-114.35
0
LINE
8
BLACK
6
CONTINUOUS
10
180.303
20
-114.35
11
180.199
21
-114.208
0
LINE
8
BLACK
6
CONTINUOUS
10
180.199
20
-114.208
11
180.13
21
-114.045
0
LINE
8
BLACK
6
CONTINUOUS
10
180.13
20
-114.045
11
180.1
21
-113.871
0
LINE
8
BLACK
6
CONTINUOUS
10
180.1
20
-113.871
11
180.111
21
-113.695
0
LINE
8
BLACK
6
CONTINUOUS
10
180.111
20
-113.695
11
180.162
21
-113.526
0
LINE
8
BLACK
6
CONTINUOUS
10
180.162
20
-113.526
11
180.251
21
-113.374
0
LINE
8
BLACK
6
CONTINUOUS
10
180.251
20
-113.374
11
180.372
21
-113.246
0
LINE
8
BLACK
6
CONTINUOUS
10
180.372
20
-113.246
11
180.52
21
-113.149
0
LINE
8
BLACK
6
CONTINUOUS
10
180.52
20
-113.149
11
180.685
21
-113.089
0
LINE
8
BLACK
6
CONTINUOUS
10
180.685
20
-113.089
11
180.861
21
-113.068
0
LINE
8
BLACK
6
CONTINUOUS
10
180.861
20
-113.068
11
182.181
21
-113.068
0
LINE
8
BLACK
6
CONTINUOUS
10
182.181
20
-113.068
11
182.276
21
-113.074
0
LINE
8
BLACK
6
CONTINUOUS
10
182.276
20
-110.534
11
182.447
21
-110.576
0
LINE
8
BLACK
6
CONTINUOUS
10
182.447
20
-110.576
11
182.604
21
-110.656
0
LINE
8
BLACK
6
CONTINUOUS
10
182.604
20
-110.656
11
182.739
21
-110.77
0
LINE
8
BLACK
6
CONTINUOUS
10
182.739
20
-110.77
11
182.843
21
-110.913
0
LINE
8
BLACK
6
CONTINUOUS
10
182.843
20
-110.913
11
182.912
21
-111.075
0
LINE
8
BLACK
6
CONTINUOUS
10
182.912
20
-111.075
11
182.942
21
-111.249
0
LINE
8
BLACK
6
CONTINUOUS
10
182.942
20
-111.249
11
182.931
21
-111.425
0
LINE
8
BLACK
6
CONTINUOUS
10
182.931
20
-111.425
11
182.88
21
-111.594
0
LINE
8
BLACK
6
CONTINUOUS
10
182.88
20
-111.594
11
182.792
21
-111.747
0
LINE
8
BLACK
6
CONTINUOUS
10
182.792
20
-111.747
11
182.67
21
-111.875
0
LINE
8
BLACK
6
CONTINUOUS
10
182.67
20
-111.875
11
182.523
21
-111.971
0
LINE
8
BLACK
6
CONTINUOUS
10
182.523
20
-111.971
11
182.357
21
-112.032
0
LINE
8
BLACK
6
CONTINUOUS
10
182.357
20
-112.032
11
182.181
21
-112.052
0
LINE
8
BLACK
6
CONTINUOUS
10
182.181
20
-112.052
11
180.861
21
-112.052
0
LINE
8
BLACK
6
CONTINUOUS
10
180.861
20
-112.052
11
180.767
21
-112.046
0
LINE
8
BLACK
6
CONTINUOUS
10
180.767
20
-112.046
11
180.595
21
-112.004
0
LINE
8
BLACK
6
CONTINUOUS
10
180.595
20
-112.004
11
180.438
21
-111.924
0
LINE
8
BLACK
6
CONTINUOUS
10
180.438
20
-111.924
11
180.303
21
-111.81
0
LINE
8
BLACK
6
CONTINUOUS
10
180.303
20
-111.81
11
180.199
21
-111.668
0
LINE
8
BLACK
6
CONTINUOUS
10
180.199
20
-111.668
11
180.13
21
-111.505
0
LINE
8
BLACK
6
CONTINUOUS
10
180.13
20
-111.505
11
180.1
21
-111.331
0
LINE
8
BLACK
6
CONTINUOUS
10
180.1
20
-111.331
11
180.111
21
-111.155
0
LINE
8
BLACK
6
CONTINUOUS
10
180.111
20
-111.155
11
180.162
21
-110.986
0
LINE
8
BLACK
6
CONTINUOUS
10
180.162
20
-110.986
11
180.251
21
-110.834
0
LINE
8
BLACK
6
CONTINUOUS
10
180.251
20
-110.834
11
180.372
21
-110.706
0
LINE
8
BLACK
6
CONTINUOUS
10
180.372
20
-110.706
11
180.52
21
-110.609
0
LINE
8
BLACK
6
CONTINUOUS
10
180.52
20
-110.609
11
180.685
21
-110.549
0
LINE
8
BLACK
6
CONTINUOUS
10
180.685
20
-110.549
11
180.861
21
-110.528
0
LINE
8
BLACK
6
CONTINUOUS
10
180.861
20
-110.528
11
182.181
21
-110.528
0
LINE
8
BLACK
6
CONTINUOUS
10
182.181
20
-110.528
11
182.276
21
-110.534
0
LINE
8
BLACK
6
CONTINUOUS
10
186.761
20
-108.452
11
187.003
21
-108.51
0
LINE
8
BLACK
6
CONTINUOUS
10
187.003
20
-108.51
11
187.233
21
-108.606
0
LINE
8
BLACK
6
CONTINUOUS
10
187.233
20
-108.606
11
187.445
21
-108.736
0
LINE
8
BLACK
6
CONTINUOUS
10
187.445
20
-108.736
11
187.635
21
-108.898
0
LINE
8
BLACK
6
CONTINUOUS
10
187.635
20
-108.898
11
187.797
21
-109.087
0
LINE
8
BLACK
6
CONTINUOUS
10
187.797
20
-109.087
11
187.927
21
-109.299
0
LINE
8
BLACK
6
CONTINUOUS
10
187.927
20
-109.299
11
188.022
21
-109.53
0
LINE
8
BLACK
6
CONTINUOUS
10
188.022
20
-109.53
11
188.08
21
-109.772
0
LINE
8
BLACK
6
CONTINUOUS
10
188.08
20
-109.772
11
188.1
21
-110.02
0
LINE
8
BLACK
6
CONTINUOUS
10
188.1
20
-110.02
11
188.08
21
-110.268
0
LINE
8
BLACK
6
CONTINUOUS
10
188.08
20
-110.268
11
188.022
21
-110.511
0
LINE
8
BLACK
6
CONTINUOUS
10
188.022
20
-110.511
11
187.927
21
-110.741
0
LINE
8
BLACK
6
CONTINUOUS
10
187.927
20
-110.741
11
187.797
21
-110.953
0
LINE
8
BLACK
6
CONTINUOUS
10
187.797
20
-110.953
11
187.635
21
-111.143
0
LINE
8
BLACK
6
CONTINUOUS
10
187.635
20
-111.143
11
187.445
21
-111.304
0
LINE
8
BLACK
6
CONTINUOUS
10
187.445
20
-111.304
11
187.233
21
-111.435
0
LINE
8
BLACK
6
CONTINUOUS
10
187.233
20
-111.435
11
187.003
21
-111.53
0
LINE
8
BLACK
6
CONTINUOUS
10
187.003
20
-111.53
11
186.761
21
-111.588
0
LINE
8
BLACK
6
CONTINUOUS
10
186.761
20
-111.588
11
186.512
21
-111.608
0
LINE
8
BLACK
6
CONTINUOUS
10
186.512
20
-111.608
11
186.264
21
-111.588
0
LINE
8
BLACK
6
CONTINUOUS
10
186.264
20
-111.588
11
186.022
21
-111.53
0
LINE
8
BLACK
6
CONTINUOUS
10
186.022
20
-111.53
11
185.791
21
-111.435
0
LINE
8
BLACK
6
CONTINUOUS
10
185.791
20
-111.435
11
185.579
21
-111.304
0
LINE
8
BLACK
6
CONTINUOUS
10
185.579
20
-111.304
11
185.39
21
-111.143
0
LINE
8
BLACK
6
CONTINUOUS
10
185.39
20
-111.143
11
185.228
21
-110.953
0
LINE
8
BLACK
6
CONTINUOUS
10
185.228
20
-110.953
11
185.098
21
-110.741
0
LINE
8
BLACK
6
CONTINUOUS
10
185.098
20
-110.741
11
185.002
21
-110.511
0
LINE
8
BLACK
6
CONTINUOUS
10
185.002
20
-110.511
11
184.944
21
-110.268
0
LINE
8
BLACK
6
CONTINUOUS
10
184.944
20
-110.268
11
184.925
21
-110.02
0
LINE
8
BLACK
6
CONTINUOUS
10
184.925
20
-110.02
11
184.944
21
-109.772
0
LINE
8
BLACK
6
CONTINUOUS
10
184.944
20
-109.772
11
185.002
21
-109.53
0
LINE
8
BLACK
6
CONTINUOUS
10
185.002
20
-109.53
11
185.098
21
-109.299
0
LINE
8
BLACK
6
CONTINUOUS
10
185.098
20
-109.299
11
185.228
21
-109.087
0
LINE
8
BLACK
6
CONTINUOUS
10
185.228
20
-109.087
11
185.39
21
-108.898
0
LINE
8
BLACK
6
CONTINUOUS
10
185.39
20
-108.898
11
185.579
21
-108.736
0
LINE
8
BLACK
6
CONTINUOUS
10
185.579
20
-108.736
11
185.791
21
-108.606
0
LINE
8
BLACK
6
CONTINUOUS
10
185.791
20
-108.606
11
186.022
21
-108.51
0
LINE
8
BLACK
6
CONTINUOUS
10
186.022
20
-108.51
11
186.264
21
-108.452
0
LINE
8
BLACK
6
CONTINUOUS
10
186.264
20
-108.452
11
186.512
21
-108.433
0
LINE
8
BLACK
6
CONTINUOUS
10
186.512
20
-108.433
11
186.761
21
-108.452
0
LINE
8
BLACK
6
CONTINUOUS
10
110.561
20
-108.452
11
110.803
21
-108.51
0
LINE
8
BLACK
6
CONTINUOUS
10
110.803
20
-108.51
11
111.033
21
-108.606
0
LINE
8
BLACK
6
CONTINUOUS
10
111.033
20
-108.606
11
111.245
21
-108.736
0
LINE
8
BLACK
6
CONTINUOUS
10
111.245
20
-108.736
11
111.435
21
-108.898
0
LINE
8
BLACK
6
CONTINUOUS
10
111.435
20
-108.898
11
111.597
21
-109.087
0
LINE
8
BLACK
6
CONTINUOUS
10
111.597
20
-109.087
11
111.727
21
-109.299
0
LINE
8
BLACK
6
CONTINUOUS
10
111.727
20
-109.299
11
111.822
21
-109.53
0
LINE
8
BLACK
6
CONTINUOUS
10
111.822
20
-109.53
11
111.88
21
-109.772
0
LINE
8
BLACK
6
CONTINUOUS
10
111.88
20
-109.772
11
111.9
21
-110.02
0
LINE
8
BLACK
6
CONTINUOUS
10
111.9
20
-110.02
11
111.88
21
-110.268
0
LINE
8
BLACK
6
CONTINUOUS
10
111.88
20
-110.268
11
111.822
21
-110.511
0
LINE
8
BLACK
6
CONTINUOUS
10
111.822
20
-110.511
11
111.727
21
-110.741
0
LINE
8
BLACK
6
CONTINUOUS
10
111.727
20
-110.741
11
111.597
21
-110.953
0
LINE
8
BLACK
6
CONTINUOUS
10
111.597
20
-110.953
11
111.435
21
-111.143
0
LINE
8
BLACK
6
CONTINUOUS
10
111.435
20
-111.143
11
111.245
21
-111.304
0
LINE
8
BLACK
6
CONTINUOUS
10
111.245
20
-111.304
11
111.033
21
-111.435
0
LINE
8
BLACK
6
CONTINUOUS
10
111.033
20
-111.435
11
110.803
21
-111.53
0
LINE
8
BLACK
6
CONTINUOUS
10
110.803
20
-111.53
11
110.561
21
-111.588
0
LINE
8
BLACK
6
CONTINUOUS
10
110.561
20
-111.588
11
110.312
21
-111.608
0
LINE
8
BLACK
6
CONTINUOUS
10
110.312
20
-111.608
11
110.064
21
-111.588
0
LINE
8
BLACK
6
CONTINUOUS
10
110.064
20
-111.588
11
109.822
21
-111.53
0
LINE
8
BLACK
6
CONTINUOUS
10
109.822
20
-111.53
11
109.591
21
-111.435
0
LINE
8
BLACK
6
CONTINUOUS
10
109.591
20
-111.435
11
109.379
21
-111.304
0
LINE
8
BLACK
6
CONTINUOUS
10
109.379
20
-111.304
11
109.19
21
-111.143
0
LINE
8
BLACK
6
CONTINUOUS
10
109.19
20
-111.143
11
109.028
21
-110.953
0
LINE
8
BLACK
6
CONTINUOUS
10
109.028
20
-110.953
11
108.898
21
-110.741
0
LINE
8
BLACK
6
CONTINUOUS
10
108.898
20
-110.741
11
108.802
21
-110.511
0
LINE
8
BLACK
6
CONTINUOUS
10
108.802
20
-110.511
11
108.744
21
-110.268
0
LINE
8
BLACK
6
CONTINUOUS
10
108.744
20
-110.268
11
108.725
21
-110.02
0
LINE
8
BLACK
6
CONTINUOUS
10
108.725
20
-110.02
11
108.744
21
-109.772
0
LINE
8
BLACK
6
CONTINUOUS
10
108.744
20
-109.772
11
108.802
21
-109.53
0
LINE
8
BLACK
6
CONTINUOUS
10
108.802
20
-109.53
11
108.898
21
-109.299
0
LINE
8
BLACK
6
CONTINUOUS
10
108.898
20
-109.299
11
109.028
21
-109.087
0
LINE
8
BLACK
6
CONTINUOUS
10
109.028
20
-109.087
11
109.19
21
-108.898
0
LINE
8
BLACK
6
CONTINUOUS
10
109.19
20
-108.898
11
109.379
21
-108.736
0
LINE
8
BLACK
6
CONTINUOUS
10
109.379
20
-108.736
11
109.591
21
-108.606
0
LINE
8
BLACK
6
CONTINUOUS
10
109.591
20
-108.606
11
109.822
21
-108.51
0
LINE
8
BLACK
6
CONTINUOUS
10
109.822
20
-108.51
11
110.064
21
-108.452
0
LINE
8
BLACK
6
CONTINUOUS
10
110.064
20
-108.452
11
110.312
21
-108.433
0
LINE
8
BLACK
6
CONTINUOUS
10
110.312
20
-108.433
11
110.561
21
-108.452
0
LINE
8
BLACK
6
CONTINUOUS
10
182.276
20
-107.994
11
182.447
21
-108.036
0
LINE
8
BLACK
6
CONTINUOUS
10
182.447
20
-108.036
11
182.604
21
-108.116
0
LINE
8
BLACK
6
CONTINUOUS
10
182.604
20
-108.116
11
182.739
21
-108.23
0
LINE
8
BLACK
6
CONTINUOUS
10
182.739
20
-108.23
11
182.843
21
-108.373
0
LINE
8
BLACK
6
CONTINUOUS
10
182.843
20
-108.373
11
182.912
21
-108.535
0
LINE
8
BLACK
6
CONTINUOUS
10
182.912
20
-108.535
11
182.942
21
-108.709
0
LINE
8
BLACK
6
CONTINUOUS
10
182.942
20
-108.709
11
182.931
21
-108.885
0
LINE
8
BLACK
6
CONTINUOUS
10
182.931
20
-108.885
11
182.88
21
-109.054
0
LINE
8
BLACK
6
CONTINUOUS
10
182.88
20
-109.054
11
182.792
21
-109.207
0
LINE
8
BLACK
6
CONTINUOUS
10
182.792
20
-109.207
11
182.67
21
-109.335
0
LINE
8
BLACK
6
CONTINUOUS
10
182.67
20
-109.335
11
182.523
21
-109.431
0
LINE
8
BLACK
6
CONTINUOUS
10
182.523
20
-109.431
11
182.357
21
-109.492
0
LINE
8
BLACK
6
CONTINUOUS
10
182.357
20
-109.492
11
182.181
21
-109.512
0
LINE
8
BLACK
6
CONTINUOUS
10
182.181
20
-109.512
11
180.861
21
-109.512
0
LINE
8
BLACK
6
CONTINUOUS
10
180.861
20
-109.512
11
180.767
21
-109.506
0
LINE
8
BLACK
6
CONTINUOUS
10
180.767
20
-109.506
11
180.595
21
-109.464
0
LINE
8
BLACK
6
CONTINUOUS
10
180.595
20
-109.464
11
180.438
21
-109.384
0
LINE
8
BLACK
6
CONTINUOUS
10
180.438
20
-109.384
11
180.303
21
-109.27
0
LINE
8
BLACK
6
CONTINUOUS
10
180.303
20
-109.27
11
180.199
21
-109.128
0
LINE
8
BLACK
6
CONTINUOUS
10
180.199
20
-109.128
11
180.13
21
-108.965
0
LINE
8
BLACK
6
CONTINUOUS
10
180.13
20
-108.965
11
180.1
21
-108.791
0
LINE
8
BLACK
6
CONTINUOUS
10
180.1
20
-108.791
11
180.111
21
-108.615
0
LINE
8
BLACK
6
CONTINUOUS
10
180.111
20
-108.615
11
180.162
21
-108.446
0
LINE
8
BLACK
6
CONTINUOUS
10
180.162
20
-108.446
11
180.251
21
-108.294
0
LINE
8
BLACK
6
CONTINUOUS
10
180.251
20
-108.294
11
180.372
21
-108.166
0
LINE
8
BLACK
6
CONTINUOUS
10
180.372
20
-108.166
11
180.52
21
-108.069
0
LINE
8
BLACK
6
CONTINUOUS
10
180.52
20
-108.069
11
180.685
21
-108.009
0
LINE
8
BLACK
6
CONTINUOUS
10
180.685
20
-108.009
11
180.861
21
-107.988
0
LINE
8
BLACK
6
CONTINUOUS
10
180.861
20
-107.988
11
182.181
21
-107.988
0
LINE
8
BLACK
6
CONTINUOUS
10
182.181
20
-107.988
11
182.276
21
-107.994
0
LINE
8
BLACK
6
CONTINUOUS
10
182.276
20
-105.454
11
182.447
21
-105.496
0
LINE
8
BLACK
6
CONTINUOUS
10
182.447
20
-105.496
11
182.604
21
-105.576
0
LINE
8
BLACK
6
CONTINUOUS
10
182.604
20
-105.576
11
182.739
21
-105.69
0
LINE
8
BLACK
6
CONTINUOUS
10
182.739
20
-105.69
11
182.843
21
-105.833
0
LINE
8
BLACK
6
CONTINUOUS
10
182.843
20
-105.833
11
182.912
21
-105.995
0
LINE
8
BLACK
6
CONTINUOUS
10
182.912
20
-105.995
11
182.942
21
-106.169
0
LINE
8
BLACK
6
CONTINUOUS
10
182.942
20
-106.169
11
182.931
21
-106.345
0
LINE
8
BLACK
6
CONTINUOUS
10
182.931
20
-106.345
11
182.88
21
-106.514
0
LINE
8
BLACK
6
CONTINUOUS
10
182.88
20
-106.514
11
182.792
21
-106.667
0
LINE
8
BLACK
6
CONTINUOUS
10
182.792
20
-106.667
11
182.67
21
-106.795
0
LINE
8
BLACK
6
CONTINUOUS
10
182.67
20
-106.795
11
182.523
21
-106.891
0
LINE
8
BLACK
6
CONTINUOUS
10
182.523
20
-106.891
11
182.357
21
-106.952
0
LINE
8
BLACK
6
CONTINUOUS
10
182.357
20
-106.952
11
182.181
21
-106.972
0
LINE
8
BLACK
6
CONTINUOUS
10
182.181
20
-106.972
11
180.861
21
-106.972
0
LINE
8
BLACK
6
CONTINUOUS
10
180.861
20
-106.972
11
180.767
21
-106.966
0
LINE
8
BLACK
6
CONTINUOUS
10
180.767
20
-106.966
11
180.595
21
-106.924
0
LINE
8
BLACK
6
CONTINUOUS
10
180.595
20
-106.924
11
180.438
21
-106.844
0
LINE
8
BLACK
6
CONTINUOUS
10
180.438
20
-106.844
11
180.303
21
-106.73
0
LINE
8
BLACK
6
CONTINUOUS
10
180.303
20
-106.73
11
180.199
21
-106.588
0
LINE
8
BLACK
6
CONTINUOUS
10
180.199
20
-106.588
11
180.13
21
-106.425
0
LINE
8
BLACK
6
CONTINUOUS
10
180.13
20
-106.425
11
180.1
21
-106.251
0
LINE
8
BLACK
6
CONTINUOUS
10
180.1
20
-106.251
11
180.111
21
-106.075
0
LINE
8
BLACK
6
CONTINUOUS
10
180.111
20
-106.075
11
180.162
21
-105.906
0
LINE
8
BLACK
6
CONTINUOUS
10
180.162
20
-105.906
11
180.251
21
-105.754
0
LINE
8
BLACK
6
CONTINUOUS
10
180.251
20
-105.754
11
180.372
21
-105.626
0
LINE
8
BLACK
6
CONTINUOUS
10
180.372
20
-105.626
11
180.52
21
-105.529
0
LINE
8
BLACK
6
CONTINUOUS
10
180.52
20
-105.529
11
180.685
21
-105.469
0
LINE
8
BLACK
6
CONTINUOUS
10
180.685
20
-105.469
11
180.861
21
-105.448
0
LINE
8
BLACK
6
CONTINUOUS
10
180.861
20
-105.448
11
182.181
21
-105.448
0
LINE
8
BLACK
6
CONTINUOUS
10
182.181
20
-105.448
11
182.276
21
-105.454
0
LINE
8
BLACK
6
CONTINUOUS
10
140.825
20
-102.447
11
140.992
21
-102.498
0
LINE
8
BLACK
6
CONTINUOUS
10
140.992
20
-102.498
11
141.144
21
-102.586
0
LINE
8
BLACK
6
CONTINUOUS
10
141.144
20
-102.586
11
141.271
21
-102.706
0
LINE
8
BLACK
6
CONTINUOUS
10
141.271
20
-102.706
11
141.367
21
-102.852
0
LINE
8
BLACK
6
CONTINUOUS
10
141.367
20
-102.852
11
141.426
21
-103.017
0
LINE
8
BLACK
6
CONTINUOUS
10
141.426
20
-103.017
11
141.447
21
-103.191
0
LINE
8
BLACK
6
CONTINUOUS
10
141.447
20
-103.191
11
141.447
21
-104.499
0
LINE
8
BLACK
6
CONTINUOUS
10
141.447
20
-104.499
11
141.441
21
-104.592
0
LINE
8
BLACK
6
CONTINUOUS
10
141.441
20
-104.592
11
141.399
21
-104.762
0
LINE
8
BLACK
6
CONTINUOUS
10
141.399
20
-104.762
11
141.32
21
-104.918
0
LINE
8
BLACK
6
CONTINUOUS
10
141.32
20
-104.918
11
141.206
21
-105.051
0
LINE
8
BLACK
6
CONTINUOUS
10
141.206
20
-105.051
11
141.065
21
-105.155
0
LINE
8
BLACK
6
CONTINUOUS
10
141.065
20
-105.155
11
140.904
21
-105.223
0
LINE
8
BLACK
6
CONTINUOUS
10
140.904
20
-105.223
11
140.732
21
-105.253
0
LINE
8
BLACK
6
CONTINUOUS
10
140.732
20
-105.253
11
140.557
21
-105.242
0
LINE
8
BLACK
6
CONTINUOUS
10
140.557
20
-105.242
11
140.39
21
-105.192
0
LINE
8
BLACK
6
CONTINUOUS
10
140.39
20
-105.192
11
140.238
21
-105.104
0
LINE
8
BLACK
6
CONTINUOUS
10
140.238
20
-105.104
11
140.111
21
-104.983
0
LINE
8
BLACK
6
CONTINUOUS
10
140.111
20
-104.983
11
140.015
21
-104.837
0
LINE
8
BLACK
6
CONTINUOUS
10
140.015
20
-104.837
11
139.956
21
-104.672
0
LINE
8
BLACK
6
CONTINUOUS
10
139.956
20
-104.672
11
139.935
21
-104.499
0
LINE
8
BLACK
6
CONTINUOUS
10
139.935
20
-104.499
11
139.935
21
-103.191
0
LINE
8
BLACK
6
CONTINUOUS
10
139.935
20
-103.191
11
139.941
21
-103.097
0
LINE
8
BLACK
6
CONTINUOUS
10
139.941
20
-103.097
11
139.983
21
-102.927
0
LINE
8
BLACK
6
CONTINUOUS
10
139.983
20
-102.927
11
140.062
21
-102.771
0
LINE
8
BLACK
6
CONTINUOUS
10
140.062
20
-102.771
11
140.176
21
-102.638
0
LINE
8
BLACK
6
CONTINUOUS
10
140.176
20
-102.638
11
140.317
21
-102.534
0
LINE
8
BLACK
6
CONTINUOUS
10
140.317
20
-102.534
11
140.478
21
-102.466
0
LINE
8
BLACK
6
CONTINUOUS
10
140.478
20
-102.466
11
140.65
21
-102.436
0
LINE
8
BLACK
6
CONTINUOUS
10
140.65
20
-102.436
11
140.825
21
-102.447
0
LINE
8
BLACK
6
CONTINUOUS
10
142.825
20
-102.447
11
142.992
21
-102.498
0
LINE
8
BLACK
6
CONTINUOUS
10
142.992
20
-102.498
11
143.144
21
-102.586
0
LINE
8
BLACK
6
CONTINUOUS
10
143.144
20
-102.586
11
143.271
21
-102.706
0
LINE
8
BLACK
6
CONTINUOUS
10
143.271
20
-102.706
11
143.367
21
-102.852
0
LINE
8
BLACK
6
CONTINUOUS
10
143.367
20
-102.852
11
143.426
21
-103.017
0
LINE
8
BLACK
6
CONTINUOUS
10
143.426
20
-103.017
11
143.447
21
-103.191
0
LINE
8
BLACK
6
CONTINUOUS
10
143.447
20
-103.191
11
143.447
21
-104.499
0
LINE
8
BLACK
6
CONTINUOUS
10
143.447
20
-104.499
11
143.441
21
-104.592
0
LINE
8
BLACK
6
CONTINUOUS
10
143.441
20
-104.592
11
143.399
21
-104.762
0
LINE
8
BLACK
6
CONTINUOUS
10
143.399
20
-104.762
11
143.32
21
-104.918
0
LINE
8
BLACK
6
CONTINUOUS
10
143.32
20
-104.918
11
143.206
21
-105.051
0
LINE
8
BLACK
6
CONTINUOUS
10
143.206
20
-105.051
11
143.065
21
-105.155
0
LINE
8
BLACK
6
CONTINUOUS
10
143.065
20
-105.155
11
142.904
21
-105.223
0
LINE
8
BLACK
6
CONTINUOUS
10
142.904
20
-105.223
11
142.732
21
-105.253
0
LINE
8
BLACK
6
CONTINUOUS
10
142.732
20
-105.253
11
142.557
21
-105.242
0
LINE
8
BLACK
6
CONTINUOUS
10
142.557
20
-105.242
11
142.39
21
-105.192
0
LINE
8
BLACK
6
CONTINUOUS
10
142.39
20
-105.192
11
142.238
21
-105.104
0
LINE
8
BLACK
6
CONTINUOUS
10
142.238
20
-105.104
11
142.111
21
-104.983
0
LINE
8
BLACK
6
CONTINUOUS
10
142.111
20
-104.983
11
142.015
21
-104.837
0
LINE
8
BLACK
6
CONTINUOUS
10
142.015
20
-104.837
11
141.956
21
-104.672
0
LINE
8
BLACK
6
CONTINUOUS
10
141.956
20
-104.672
11
141.935
21
-104.499
0
LINE
8
BLACK
6
CONTINUOUS
10
141.935
20
-104.499
11
141.935
21
-103.191
0
LINE
8
BLACK
6
CONTINUOUS
10
141.935
20
-103.191
11
141.941
21
-103.097
0
LINE
8
BLACK
6
CONTINUOUS
10
141.941
20
-103.097
11
141.983
21
-102.927
0
LINE
8
BLACK
6
CONTINUOUS
10
141.983
20
-102.927
11
142.062
21
-102.771
0
LINE
8
BLACK
6
CONTINUOUS
10
142.062
20
-102.771
11
142.176
21
-102.638
0
LINE
8
BLACK
6
CONTINUOUS
10
142.176
20
-102.638
11
142.317
21
-102.534
0
LINE
8
BLACK
6
CONTINUOUS
10
142.317
20
-102.534
11
142.478
21
-102.466
0
LINE
8
BLACK
6
CONTINUOUS
10
142.478
20
-102.466
11
142.65
21
-102.436
0
LINE
8
BLACK
6
CONTINUOUS
10
142.65
20
-102.436
11
142.825
21
-102.447
0
LINE
8
BLACK
6
CONTINUOUS
10
144.825
20
-102.447
11
144.992
21
-102.498
0
LINE
8
BLACK
6
CONTINUOUS
10
144.992
20
-102.498
11
145.144
21
-102.586
0
LINE
8
BLACK
6
CONTINUOUS
10
145.144
20
-102.586
11
145.271
21
-102.706
0
LINE
8
BLACK
6
CONTINUOUS
10
145.271
20
-102.706
11
145.367
21
-102.852
0
LINE
8
BLACK
6
CONTINUOUS
10
145.367
20
-102.852
11
145.426
21
-103.017
0
LINE
8
BLACK
6
CONTINUOUS
10
145.426
20
-103.017
11
145.447
21
-103.191
0
LINE
8
BLACK
6
CONTINUOUS
10
145.447
20
-103.191
11
145.447
21
-104.499
0
LINE
8
BLACK
6
CONTINUOUS
10
145.447
20
-104.499
11
145.441
21
-104.592
0
LINE
8
BLACK
6
CONTINUOUS
10
145.441
20
-104.592
11
145.399
21
-104.762
0
LINE
8
BLACK
6
CONTINUOUS
10
145.399
20
-104.762
11
145.32
21
-104.918
0
LINE
8
BLACK
6
CONTINUOUS
10
145.32
20
-104.918
11
145.206
21
-105.051
0
LINE
8
BLACK
6
CONTINUOUS
10
145.206
20
-105.051
11
145.065
21
-105.155
0
LINE
8
BLACK
6
CONTINUOUS
10
145.065
20
-105.155
11
144.904
21
-105.223
0
LINE
8
BLACK
6
CONTINUOUS
10
144.904
20
-105.223
11
144.732
21
-105.253
0
LINE
8
BLACK
6
CONTINUOUS
10
144.732
20
-105.253
11
144.557
21
-105.242
0
LINE
8
BLACK
6
CONTINUOUS
10
144.557
20
-105.242
11
144.39
21
-105.192
0
LINE
8
BLACK
6
CONTINUOUS
10
144.39
20
-105.192
11
144.238
21
-105.104
0
LINE
8
BLACK
6
CONTINUOUS
10
144.238
20
-105.104
11
144.111
21
-104.983
0
LINE
8
BLACK
6
CONTINUOUS
10
144.111
20
-104.983
11
144.015
21
-104.837
0
LINE
8
BLACK
6
CONTINUOUS
10
144.015
20
-104.837
11
143.956
21
-104.672
0
LINE
8
BLACK
6
CONTINUOUS
10
143.956
20
-104.672
11
143.935
21
-104.499
0
LINE
8
BLACK
6
CONTINUOUS
10
143.935
20
-104.499
11
143.935
21
-103.191
0
LINE
8
BLACK
6
CONTINUOUS
10
143.935
20
-103.191
11
143.941
21
-103.097
0
LINE
8
BLACK
6
CONTINUOUS
10
143.941
20
-103.097
11
143.983
21
-102.927
0
LINE
8
BLACK
6
CONTINUOUS
10
143.983
20
-102.927
11
144.062
21
-102.771
0
LINE
8
BLACK
6
CONTINUOUS
10
144.062
20
-102.771
11
144.176
21
-102.638
0
LINE
8
BLACK
6
CONTINUOUS
10
144.176
20
-102.638
11
144.317
21
-102.534
0
LINE
8
BLACK
6
CONTINUOUS
10
144.317
20
-102.534
11
144.478
21
-102.466
0
LINE
8
BLACK
6
CONTINUOUS
10
144.478
20
-102.466
11
144.65
21
-102.436
0
LINE
8
BLACK
6
CONTINUOUS
10
144.65
20
-102.436
11
144.825
21
-102.447
0
LINE
8
BLACK
6
CONTINUOUS
10
146.825
20
-102.447
11
146.992
21
-102.498
0
LINE
8
BLACK
6
CONTINUOUS
10
146.992
20
-102.498
11
147.144
21
-102.586
0
LINE
8
BLACK
6
CONTINUOUS
10
147.144
20
-102.586
11
147.271
21
-102.706
0
LINE
8
BLACK
6
CONTINUOUS
10
147.271
20
-102.706
11
147.367
21
-102.852
0
LINE
8
BLACK
6
CONTINUOUS
10
147.367
20
-102.852
11
147.426
21
-103.017
0
LINE
8
BLACK
6
CONTINUOUS
10
147.426
20
-103.017
11
147.447
21
-103.191
0
LINE
8
BLACK
6
CONTINUOUS
10
147.447
20
-103.191
11
147.447
21
-104.499
0
LINE
8
BLACK
6
CONTINUOUS
10
147.447
20
-104.499
11
147.441
21
-104.592
0
LINE
8
BLACK
6
CONTINUOUS
10
147.441
20
-104.592
11
147.399
21
-104.762
0
LINE
8
BLACK
6
CONTINUOUS
10
147.399
20
-104.762
11
147.32
21
-104.918
0
LINE
8
BLACK
6
CONTINUOUS
10
147.32
20
-104.918
11
147.206
21
-105.051
0
LINE
8
BLACK
6
CONTINUOUS
10
147.206
20
-105.051
11
147.065
21
-105.155
0
LINE
8
BLACK
6
CONTINUOUS
10
147.065
20
-105.155
11
146.904
21
-105.223
0
LINE
8
BLACK
6
CONTINUOUS
10
146.904
20
-105.223
11
146.732
21
-105.253
0
LINE
8
BLACK
6
CONTINUOUS
10
146.732
20
-105.253
11
146.557
21
-105.242
0
LINE
8
BLACK
6
CONTINUOUS
10
146.557
20
-105.242
11
146.39
21
-105.192
0
LINE
8
BLACK
6
CONTINUOUS
10
146.39
20
-105.192
11
146.238
21
-105.104
0
LINE
8
BLACK
6
CONTINUOUS
10
146.238
20
-105.104
11
146.111
21
-104.983
0
LINE
8
BLACK
6
CONTINUOUS
10
146.111
20
-104.983
11
146.015
21
-104.837
0
LINE
8
BLACK
6
CONTINUOUS
10
146.015
20
-104.837
11
145.956
21
-104.672
0
LINE
8
BLACK
6
CONTINUOUS
10
145.956
20
-104.672
11
145.935
21
-104.499
0
LINE
8
BLACK
6
CONTINUOUS
10
145.935
20
-104.499
11
145.935
21
-103.191
0
LINE
8
BLACK
6
CONTINUOUS
10
145.935
20
-103.191
11
145.941
21
-103.097
0
LINE
8
BLACK
6
CONTINUOUS
10
145.941
20
-103.097
11
145.983
21
-102.927
0
LINE
8
BLACK
6
CONTINUOUS
10
145.983
20
-102.927
11
146.062
21
-102.771
0
LINE
8
BLACK
6
CONTINUOUS
10
146.062
20
-102.771
11
146.176
21
-102.638
0
LINE
8
BLACK
6
CONTINUOUS
10
146.176
20
-102.638
11
146.317
21
-102.534
0
LINE
8
BLACK
6
CONTINUOUS
10
146.317
20
-102.534
11
146.478
21
-102.466
0
LINE
8
BLACK
6
CONTINUOUS
10
146.478
20
-102.466
11
146.65
21
-102.436
0
LINE
8
BLACK
6
CONTINUOUS
10
146.65
20
-102.436
11
146.825
21
-102.447
0
LINE
8
BLACK
6
CONTINUOUS
10
148.825
20
-102.447
11
148.992
21
-102.498
0
LINE
8
BLACK
6
CONTINUOUS
10
148.992
20
-102.498
11
149.144
21
-102.586
0
LINE
8
BLACK
6
CONTINUOUS
10
149.144
20
-102.586
11
149.271
21
-102.706
0
LINE
8
BLACK
6
CONTINUOUS
10
149.271
20
-102.706
11
149.367
21
-102.852
0
LINE
8
BLACK
6
CONTINUOUS
10
149.367
20
-102.852
11
149.426
21
-103.017
0
LINE
8
BLACK
6
CONTINUOUS
10
149.426
20
-103.017
11
149.447
21
-103.191
0
LINE
8
BLACK
6
CONTINUOUS
10
149.447
20
-103.191
11
149.447
21
-104.499
0
LINE
8
BLACK
6
CONTINUOUS
10
149.447
20
-104.499
11
149.441
21
-104.592
0
LINE
8
BLACK
6
CONTINUOUS
10
149.441
20
-104.592
11
149.399
21
-104.762
0
LINE
8
BLACK
6
CONTINUOUS
10
149.399
20
-104.762
11
149.32
21
-104.918
0
LINE
8
BLACK
6
CONTINUOUS
10
149.32
20
-104.918
11
149.206
21
-105.051
0
LINE
8
BLACK
6
CONTINUOUS
10
149.206
20
-105.051
11
149.065
21
-105.155
0
LINE
8
BLACK
6
CONTINUOUS
10
149.065
20
-105.155
11
148.904
21
-105.223
0
LINE
8
BLACK
6
CONTINUOUS
10
148.904
20
-105.223
11
148.732
21
-105.253
0
LINE
8
BLACK
6
CONTINUOUS
10
148.732
20
-105.253
11
148.557
21
-105.242
0
LINE
8
BLACK
6
CONTINUOUS
10
148.557
20
-105.242
11
148.39
21
-105.192
0
LINE
8
BLACK
6
CONTINUOUS
10
148.39
20
-105.192
11
148.238
21
-105.104
0
LINE
8
BLACK
6
CONTINUOUS
10
148.238
20
-105.104
11
148.111
21
-104.983
0
LINE
8
BLACK
6
CONTINUOUS
10
148.111
20
-104.983
11
148.015
21
-104.837
0
LINE
8
BLACK
6
CONTINUOUS
10
148.015
20
-104.837
11
147.956
21
-104.672
0
LINE
8
BLACK
6
CONTINUOUS
10
147.956
20
-104.672
11
147.935
21
-104.499
0
LINE
8
BLACK
6
CONTINUOUS
10
147.935
20
-104.499
11
147.935
21
-103.191
0
LINE
8
BLACK
6
CONTINUOUS
10
147.935
20
-103.191
11
147.941
21
-103.097
0
LINE
8
BLACK
6
CONTINUOUS
10
147.941
20
-103.097
11
147.983
21
-102.927
0
LINE
8
BLACK
6
CONTINUOUS
10
147.983
20
-102.927
11
148.062
21
-102.771
0
LINE
8
BLACK
6
CONTINUOUS
10
148.062
20
-102.771
11
148.176
21
-102.638
0
LINE
8
BLACK
6
CONTINUOUS
10
148.176
20
-102.638
11
148.317
21
-102.534
0
LINE
8
BLACK
6
CONTINUOUS
10
148.317
20
-102.534
11
148.478
21
-102.466
0
LINE
8
BLACK
6
CONTINUOUS
10
148.478
20
-102.466
11
148.65
21
-102.436
0
LINE
8
BLACK
6
CONTINUOUS
10
148.65
20
-102.436
11
148.825
21
-102.447
0
LINE
8
BLACK
6
CONTINUOUS
10
150.825
20
-102.447
11
150.992
21
-102.498
0
LINE
8
BLACK
6
CONTINUOUS
10
150.992
20
-102.498
11
151.144
21
-102.586
0
LINE
8
BLACK
6
CONTINUOUS
10
151.144
20
-102.586
11
151.271
21
-102.706
0
LINE
8
BLACK
6
CONTINUOUS
10
151.271
20
-102.706
11
151.367
21
-102.852
0
LINE
8
BLACK
6
CONTINUOUS
10
151.367
20
-102.852
11
151.426
21
-103.017
0
LINE
8
BLACK
6
CONTINUOUS
10
151.426
20
-103.017
11
151.447
21
-103.191
0
LINE
8
BLACK
6
CONTINUOUS
10
151.447
20
-103.191
11
151.447
21
-104.499
0
LINE
8
BLACK
6
CONTINUOUS
10
151.447
20
-104.499
11
151.441
21
-104.592
0
LINE
8
BLACK
6
CONTINUOUS
10
151.441
20
-104.592
11
151.399
21
-104.762
0
LINE
8
BLACK
6
CONTINUOUS
10
151.399
20
-104.762
11
151.32
21
-104.918
0
LINE
8
BLACK
6
CONTINUOUS
10
151.32
20
-104.918
11
151.206
21
-105.051
0
LINE
8
BLACK
6
CONTINUOUS
10
151.206
20
-105.051
11
151.065
21
-105.155
0
LINE
8
BLACK
6
CONTINUOUS
10
151.065
20
-105.155
11
150.904
21
-105.223
0
LINE
8
BLACK
6
CONTINUOUS
10
150.904
20
-105.223
11
150.732
21
-105.253
0
LINE
8
BLACK
6
CONTINUOUS
10
150.732
20
-105.253
11
150.557
21
-105.242
0
LINE
8
BLACK
6
CONTINUOUS
10
150.557
20
-105.242
11
150.39
21
-105.192
0
LINE
8
BLACK
6
CONTINUOUS
10
150.39
20
-105.192
11
150.238
21
-105.104
0
LINE
8
BLACK
6
CONTINUOUS
10
150.238
20
-105.104
11
150.111
21
-104.983
0
LINE
8
BLACK
6
CONTINUOUS
10
150.111
20
-104.983
11
150.015
21
-104.837
0
LINE
8
BLACK
6
CONTINUOUS
10
150.015
20
-104.837
11
149.956
21
-104.672
0
LINE
8
BLACK
6
CONTINUOUS
10
149.956
20
-104.672
11
149.935
21
-104.499
0
LINE
8
BLACK
6
CONTINUOUS
10
149.935
20
-104.499
11
149.935
21
-103.191
0
LINE
8
BLACK
6
CONTINUOUS
10
149.935
20
-103.191
11
149.941
21
-103.097
0
LINE
8
BLACK
6
CONTINUOUS
10
149.941
20
-103.097
11
149.983
21
-102.927
0
LINE
8
BLACK
6
CONTINUOUS
10
149.983
20
-102.927
11
150.062
21
-102.771
0
LINE
8
BLACK
6
CONTINUOUS
10
150.062
20
-102.771
11
150.176
21
-102.638
0
LINE
8
BLACK
6
CONTINUOUS
10
150.176
20
-102.638
11
150.317
21
-102.534
0
LINE
8
BLACK
6
CONTINUOUS
10
150.317
20
-102.534
11
150.478
21
-102.466
0
LINE
8
BLACK
6
CONTINUOUS
10
150.478
20
-102.466
11
150.65
21
-102.436
0
LINE
8
BLACK
6
CONTINUOUS
10
150.65
20
-102.436
11
150.825
21
-102.447
0
LINE
8
BLACK
6
CONTINUOUS
10
152.825
20
-102.447
11
152.992
21
-102.498
0
LINE
8
BLACK
6
CONTINUOUS
10
152.992
20
-102.498
11
153.144
21
-102.586
0
LINE
8
BLACK
6
CONTINUOUS
10
153.144
20
-102.586
11
153.271
21
-102.706
0
LINE
8
BLACK
6
CONTINUOUS
10
153.271
20
-102.706
11
153.367
21
-102.852
0
LINE
8
BLACK
6
CONTINUOUS
10
153.367
20
-102.852
11
153.426
21
-103.017
0
LINE
8
BLACK
6
CONTINUOUS
10
153.426
20
-103.017
11
153.447
21
-103.191
0
LINE
8
BLACK
6
CONTINUOUS
10
153.447
20
-103.191
11
153.447
21
-104.499
0
LINE
8
BLACK
6
CONTINUOUS
10
153.447
20
-104.499
11
153.441
21
-104.592
0
LINE
8
BLACK
6
CONTINUOUS
10
153.441
20
-104.592
11
153.399
21
-104.762
0
LINE
8
BLACK
6
CONTINUOUS
10
153.399
20
-104.762
11
153.32
21
-104.918
0
LINE
8
BLACK
6
CONTINUOUS
10
153.32
20
-104.918
11
153.206
21
-105.051
0
LINE
8
BLACK
6
CONTINUOUS
10
153.206
20
-105.051
11
153.065
21
-105.155
0
LINE
8
BLACK
6
CONTINUOUS
10
153.065
20
-105.155
11
152.904
21
-105.223
0
LINE
8
BLACK
6
CONTINUOUS
10
152.904
20
-105.223
11
152.732
21
-105.253
0
LINE
8
BLACK
6
CONTINUOUS
10
152.732
20
-105.253
11
152.557
21
-105.242
0
LINE
8
BLACK
6
CONTINUOUS
10
152.557
20
-105.242
11
152.39
21
-105.192
0
LINE
8
BLACK
6
CONTINUOUS
10
152.39
20
-105.192
11
152.238
21
-105.104
0
LINE
8
BLACK
6
CONTINUOUS
10
152.238
20
-105.104
11
152.111
21
-104.983
0
LINE
8
BLACK
6
CONTINUOUS
10
152.111
20
-104.983
11
152.015
21
-104.837
0
LINE
8
BLACK
6
CONTINUOUS
10
152.015
20
-104.837
11
151.956
21
-104.672
0
LINE
8
BLACK
6
CONTINUOUS
10
151.956
20
-104.672
11
151.935
21
-104.499
0
LINE
8
BLACK
6
CONTINUOUS
10
151.935
20
-104.499
11
151.935
21
-103.191
0
LINE
8
BLACK
6
CONTINUOUS
10
151.935
20
-103.191
11
151.941
21
-103.097
0
LINE
8
BLACK
6
CONTINUOUS
10
151.941
20
-103.097
11
151.983
21
-102.927
0
LINE
8
BLACK
6
CONTINUOUS
10
151.983
20
-102.927
11
152.062
21
-102.771
0
LINE
8
BLACK
6
CONTINUOUS
10
152.062
20
-102.771
11
152.176
21
-102.638
0
LINE
8
BLACK
6
CONTINUOUS
10
152.176
20
-102.638
11
152.317
21
-102.534
0
LINE
8
BLACK
6
CONTINUOUS
10
152.317
20
-102.534
11
152.478
21
-102.466
0
LINE
8
BLACK
6
CONTINUOUS
10
152.478
20
-102.466
11
152.65
21
-102.436
0
LINE
8
BLACK
6
CONTINUOUS
10
152.65
20
-102.436
11
152.825
21
-102.447
0
LINE
8
BLACK
6
CONTINUOUS
10
154.825
20
-102.447
11
154.992
21
-102.498
0
LINE
8
BLACK
6
CONTINUOUS
10
154.992
20
-102.498
11
155.144
21
-102.586
0
LINE
8
BLACK
6
CONTINUOUS
10
155.144
20
-102.586
11
155.271
21
-102.706
0
LINE
8
BLACK
6
CONTINUOUS
10
155.271
20
-102.706
11
155.367
21
-102.852
0
LINE
8
BLACK
6
CONTINUOUS
10
155.367
20
-102.852
11
155.426
21
-103.017
0
LINE
8
BLACK
6
CONTINUOUS
10
155.426
20
-103.017
11
155.447
21
-103.191
0
LINE
8
BLACK
6
CONTINUOUS
10
155.447
20
-103.191
11
155.447
21
-104.499
0
LINE
8
BLACK
6
CONTINUOUS
10
155.447
20
-104.499
11
155.441
21
-104.592
0
LINE
8
BLACK
6
CONTINUOUS
10
155.441
20
-104.592
11
155.399
21
-104.762
0
LINE
8
BLACK
6
CONTINUOUS
10
155.399
20
-104.762
11
155.32
21
-104.918
0
LINE
8
BLACK
6
CONTINUOUS
10
155.32
20
-104.918
11
155.206
21
-105.051
0
LINE
8
BLACK
6
CONTINUOUS
10
155.206
20
-105.051
11
155.065
21
-105.155
0
LINE
8
BLACK
6
CONTINUOUS
10
155.065
20
-105.155
11
154.904
21
-105.223
0
LINE
8
BLACK
6
CONTINUOUS
10
154.904
20
-105.223
11
154.732
21
-105.253
0
LINE
8
BLACK
6
CONTINUOUS
10
154.732
20
-105.253
11
154.557
21
-105.242
0
LINE
8
BLACK
6
CONTINUOUS
10
154.557
20
-105.242
11
154.39
21
-105.192
0
LINE
8
BLACK
6
CONTINUOUS
10
154.39
20
-105.192
11
154.238
21
-105.104
0
LINE
8
BLACK
6
CONTINUOUS
10
154.238
20
-105.104
11
154.111
21
-104.983
0
LINE
8
BLACK
6
CONTINUOUS
10
154.111
20
-104.983
11
154.015
21
-104.837
0
LINE
8
BLACK
6
CONTINUOUS
10
154.015
20
-104.837
11
153.956
21
-104.672
0
LINE
8
BLACK
6
CONTINUOUS
10
153.956
20
-104.672
11
153.935
21
-104.499
0
LINE
8
BLACK
6
CONTINUOUS
10
153.935
20
-104.499
11
153.935
21
-103.191
0
LINE
8
BLACK
6
CONTINUOUS
10
153.935
20
-103.191
11
153.941
21
-103.097
0
LINE
8
BLACK
6
CONTINUOUS
10
153.941
20
-103.097
11
153.983
21
-102.927
0
LINE
8
BLACK
6
CONTINUOUS
10
153.983
20
-102.927
11
154.062
21
-102.771
0
LINE
8
BLACK
6
CONTINUOUS
10
154.062
20
-102.771
11
154.176
21
-102.638
0
LINE
8
BLACK
6
CONTINUOUS
10
154.176
20
-102.638
11
154.317
21
-102.534
0
LINE
8
BLACK
6
CONTINUOUS
10
154.317
20
-102.534
11
154.478
21
-102.466
0
LINE
8
BLACK
6
CONTINUOUS
10
154.478
20
-102.466
11
154.65
21
-102.436
0
LINE
8
BLACK
6
CONTINUOUS
10
154.65
20
-102.436
11
154.825
21
-102.447
0
LINE
8
BLACK
6
CONTINUOUS
10
156.825
20
-102.447
11
156.992
21
-102.498
0
LINE
8
BLACK
6
CONTINUOUS
10
156.992
20
-102.498
11
157.144
21
-102.586
0
LINE
8
BLACK
6
CONTINUOUS
10
157.144
20
-102.586
11
157.271
21
-102.706
0
LINE
8
BLACK
6
CONTINUOUS
10
157.271
20
-102.706
11
157.367
21
-102.852
0
LINE
8
BLACK
6
CONTINUOUS
10
157.367
20
-102.852
11
157.426
21
-103.017
0
LINE
8
BLACK
6
CONTINUOUS
10
157.426
20
-103.017
11
157.447
21
-103.191
0
LINE
8
BLACK
6
CONTINUOUS
10
157.447
20
-103.191
11
157.447
21
-104.499
0
LINE
8
BLACK
6
CONTINUOUS
10
157.447
20
-104.499
11
157.441
21
-104.592
0
LINE
8
BLACK
6
CONTINUOUS
10
157.441
20
-104.592
11
157.399
21
-104.762
0
LINE
8
BLACK
6
CONTINUOUS
10
157.399
20
-104.762
11
157.32
21
-104.918
0
LINE
8
BLACK
6
CONTINUOUS
10
157.32
20
-104.918
11
157.206
21
-105.051
0
LINE
8
BLACK
6
CONTINUOUS
10
157.206
20
-105.051
11
157.065
21
-105.155
0
LINE
8
BLACK
6
CONTINUOUS
10
157.065
20
-105.155
11
156.904
21
-105.223
0
LINE
8
BLACK
6
CONTINUOUS
10
156.904
20
-105.223
11
156.732
21
-105.253
0
LINE
8
BLACK
6
CONTINUOUS
10
156.732
20
-105.253
11
156.557
21
-105.242
0
LINE
8
BLACK
6
CONTINUOUS
10
156.557
20
-105.242
11
156.39
21
-105.192
0
LINE
8
BLACK
6
CONTINUOUS
10
156.39
20
-105.192
11
156.238
21
-105.104
0
LINE
8
BLACK
6
CONTINUOUS
10
156.238
20
-105.104
11
156.111
21
-104.983
0
LINE
8
BLACK
6
CONTINUOUS
10
156.111
20
-104.983
11
156.015
21
-104.837
0
LINE
8
BLACK
6
CONTINUOUS
10
156.015
20
-104.837
11
155.956
21
-104.672
0
LINE
8
BLACK
6
CONTINUOUS
10
155.956
20
-104.672
11
155.935
21
-104.499
0
LINE
8
BLACK
6
CONTINUOUS
10
155.935
20
-104.499
11
155.935
21
-103.191
0
LINE
8
BLACK
6
CONTINUOUS
10
155.935
20
-103.191
11
155.941
21
-103.097
0
LINE
8
BLACK
6
CONTINUOUS
10
155.941
20
-103.097
11
155.983
21
-102.927
0
LINE
8
BLACK
6
CONTINUOUS
10
155.983
20
-102.927
11
156.062
21
-102.771
0
LINE
8
BLACK
6
CONTINUOUS
10
156.062
20
-102.771
11
156.176
21
-102.638
0
LINE
8
BLACK
6
CONTINUOUS
10
156.176
20
-102.638
11
156.317
21
-102.534
0
LINE
8
BLACK
6
CONTINUOUS
10
156.317
20
-102.534
11
156.478
21
-102.466
0
LINE
8
BLACK
6
CONTINUOUS
10
156.478
20
-102.466
11
156.65
21
-102.436
0
LINE
8
BLACK
6
CONTINUOUS
10
156.65
20
-102.436
11
156.825
21
-102.447
0
LINE
8
BLACK
6
CONTINUOUS
10
158.825
20
-102.447
11
158.992
21
-102.498
0
LINE
8
BLACK
6
CONTINUOUS
10
158.992
20
-102.498
11
159.144
21
-102.586
0
LINE
8
BLACK
6
CONTINUOUS
10
159.144
20
-102.586
11
159.271
21
-102.706
0
LINE
8
BLACK
6
CONTINUOUS
10
159.271
20
-102.706
11
159.367
21
-102.852
0
LINE
8
BLACK
6
CONTINUOUS
10
159.367
20
-102.852
11
159.426
21
-103.017
0
LINE
8
BLACK
6
CONTINUOUS
10
159.426
20
-103.017
11
159.447
21
-103.191
0
LINE
8
BLACK
6
CONTINUOUS
10
159.447
20
-103.191
11
159.447
21
-104.499
0
LINE
8
BLACK
6
CONTINUOUS
10
159.447
20
-104.499
11
159.441
21
-104.592
0
LINE
8
BLACK
6
CONTINUOUS
10
159.441
20
-104.592
11
159.399
21
-104.762
0
LINE
8
BLACK
6
CONTINUOUS
10
159.399
20
-104.762
11
159.32
21
-104.918
0
LINE
8
BLACK
6
CONTINUOUS
10
159.32
20
-104.918
11
159.206
21
-105.051
0
LINE
8
BLACK
6
CONTINUOUS
10
159.206
20
-105.051
11
159.065
21
-105.155
0
LINE
8
BLACK
6
CONTINUOUS
10
159.065
20
-105.155
11
158.904
21
-105.223
0
LINE
8
BLACK
6
CONTINUOUS
10
158.904
20
-105.223
11
158.732
21
-105.253
0
LINE
8
BLACK
6
CONTINUOUS
10
158.732
20
-105.253
11
158.557
21
-105.242
0
LINE
8
BLACK
6
CONTINUOUS
10
158.557
20
-105.242
11
158.39
21
-105.192
0
LINE
8
BLACK
6
CONTINUOUS
10
158.39
20
-105.192
11
158.238
21
-105.104
0
LINE
8
BLACK
6
CONTINUOUS
10
158.238
20
-105.104
11
158.111
21
-104.983
0
LINE
8
BLACK
6
CONTINUOUS
10
158.111
20
-104.983
11
158.015
21
-104.837
0
LINE
8
BLACK
6
CONTINUOUS
10
158.015
20
-104.837
11
157.956
21
-104.672
0
LINE
8
BLACK
6
CONTINUOUS
10
157.956
20
-104.672
11
157.935
21
-104.499
0
LINE
8
BLACK
6
CONTINUOUS
10
157.935
20
-104.499
11
157.935
21
-103.191
0
LINE
8
BLACK
6
CONTINUOUS
10
157.935
20
-103.191
11
157.941
21
-103.097
0
LINE
8
BLACK
6
CONTINUOUS
10
157.941
20
-103.097
11
157.983
21
-102.927
0
LINE
8
BLACK
6
CONTINUOUS
10
157.983
20
-102.927
11
158.062
21
-102.771
0
LINE
8
BLACK
6
CONTINUOUS
10
158.062
20
-102.771
11
158.176
21
-102.638
0
LINE
8
BLACK
6
CONTINUOUS
10
158.176
20
-102.638
11
158.317
21
-102.534
0
LINE
8
BLACK
6
CONTINUOUS
10
158.317
20
-102.534
11
158.478
21
-102.466
0
LINE
8
BLACK
6
CONTINUOUS
10
158.478
20
-102.466
11
158.65
21
-102.436
0
LINE
8
BLACK
6
CONTINUOUS
10
158.65
20
-102.436
11
158.825
21
-102.447
0
LINE
8
BLACK
6
CONTINUOUS
10
182.276
20
-102.914
11
182.447
21
-102.956
0
LINE
8
BLACK
6
CONTINUOUS
10
182.447
20
-102.956
11
182.604
21
-103.036
0
LINE
8
BLACK
6
CONTINUOUS
10
182.604
20
-103.036
11
182.739
21
-103.15
0
LINE
8
BLACK
6
CONTINUOUS
10
182.739
20
-103.15
11
182.843
21
-103.293
0
LINE
8
BLACK
6
CONTINUOUS
10
182.843
20
-103.293
11
182.912
21
-103.455
0
LINE
8
BLACK
6
CONTINUOUS
10
182.912
20
-103.455
11
182.942
21
-103.629
0
LINE
8
BLACK
6
CONTINUOUS
10
182.942
20
-103.629
11
182.931
21
-103.805
0
LINE
8
BLACK
6
CONTINUOUS
10
182.931
20
-103.805
11
182.88
21
-103.974
0
LINE
8
BLACK
6
CONTINUOUS
10
182.88
20
-103.974
11
182.792
21
-104.127
0
LINE
8
BLACK
6
CONTINUOUS
10
182.792
20
-104.127
11
182.67
21
-104.255
0
LINE
8
BLACK
6
CONTINUOUS
10
182.67
20
-104.255
11
182.523
21
-104.351
0
LINE
8
BLACK
6
CONTINUOUS
10
182.523
20
-104.351
11
182.357
21
-104.412
0
LINE
8
BLACK
6
CONTINUOUS
10
182.357
20
-104.412
11
182.181
21
-104.432
0
LINE
8
BLACK
6
CONTINUOUS
10
182.181
20
-104.432
11
180.861
21
-104.432
0
LINE
8
BLACK
6
CONTINUOUS
10
180.861
20
-104.432
11
180.767
21
-104.426
0
LINE
8
BLACK
6
CONTINUOUS
10
180.767
20
-104.426
11
180.595
21
-104.384
0
LINE
8
BLACK
6
CONTINUOUS
10
180.595
20
-104.384
11
180.438
21
-104.304
0
LINE
8
BLACK
6
CONTINUOUS
10
180.438
20
-104.304
11
180.303
21
-104.19
0
LINE
8
BLACK
6
CONTINUOUS
10
180.303
20
-104.19
11
180.199
21
-104.048
0
LINE
8
BLACK
6
CONTINUOUS
10
180.199
20
-104.048
11
180.13
21
-103.885
0
LINE
8
BLACK
6
CONTINUOUS
10
180.13
20
-103.885
11
180.1
21
-103.711
0
LINE
8
BLACK
6
CONTINUOUS
10
180.1
20
-103.711
11
180.111
21
-103.535
0
LINE
8
BLACK
6
CONTINUOUS
10
180.111
20
-103.535
11
180.162
21
-103.366
0
LINE
8
BLACK
6
CONTINUOUS
10
180.162
20
-103.366
11
180.251
21
-103.214
0
LINE
8
BLACK
6
CONTINUOUS
10
180.251
20
-103.214
11
180.372
21
-103.086
0
LINE
8
BLACK
6
CONTINUOUS
10
180.372
20
-103.086
11
180.52
21
-102.989
0
LINE
8
BLACK
6
CONTINUOUS
10
180.52
20
-102.989
11
180.685
21
-102.929
0
LINE
8
BLACK
6
CONTINUOUS
10
180.685
20
-102.929
11
180.861
21
-102.908
0
LINE
8
BLACK
6
CONTINUOUS
10
180.861
20
-102.908
11
182.181
21
-102.908
0
LINE
8
BLACK
6
CONTINUOUS
10
182.181
20
-102.908
11
182.276
21
-102.914
0
LINE
8
BLACK
6
CONTINUOUS
10
182.276
20
-100.374
11
182.447
21
-100.416
0
LINE
8
BLACK
6
CONTINUOUS
10
182.447
20
-100.416
11
182.604
21
-100.496
0
LINE
8
BLACK
6
CONTINUOUS
10
182.604
20
-100.496
11
182.739
21
-100.61
0
LINE
8
BLACK
6
CONTINUOUS
10
182.739
20
-100.61
11
182.843
21
-100.753
0
LINE
8
BLACK
6
CONTINUOUS
10
182.843
20
-100.753
11
182.912
21
-100.915
0
LINE
8
BLACK
6
CONTINUOUS
10
182.912
20
-100.915
11
182.942
21
-101.089
0
LINE
8
BLACK
6
CONTINUOUS
10
182.942
20
-101.089
11
182.931
21
-101.265
0
LINE
8
BLACK
6
CONTINUOUS
10
182.931
20
-101.265
11
182.88
21
-101.434
0
LINE
8
BLACK
6
CONTINUOUS
10
182.88
20
-101.434
11
182.792
21
-101.587
0
LINE
8
BLACK
6
CONTINUOUS
10
182.792
20
-101.587
11
182.67
21
-101.715
0
LINE
8
BLACK
6
CONTINUOUS
10
182.67
20
-101.715
11
182.523
21
-101.811
0
LINE
8
BLACK
6
CONTINUOUS
10
182.523
20
-101.811
11
182.357
21
-101.872
0
LINE
8
BLACK
6
CONTINUOUS
10
182.357
20
-101.872
11
182.181
21
-101.892
0
LINE
8
BLACK
6
CONTINUOUS
10
182.181
20
-101.892
11
180.861
21
-101.892
0
LINE
8
BLACK
6
CONTINUOUS
10
180.861
20
-101.892
11
180.767
21
-101.886
0
LINE
8
BLACK
6
CONTINUOUS
10
180.767
20
-101.886
11
180.595
21
-101.844
0
LINE
8
BLACK
6
CONTINUOUS
10
180.595
20
-101.844
11
180.438
21
-101.764
0
LINE
8
BLACK
6
CONTINUOUS
10
180.438
20
-101.764
11
180.303
21
-101.65
0
LINE
8
BLACK
6
CONTINUOUS
10
180.303
20
-101.65
11
180.199
21
-101.508
0
LINE
8
BLACK
6
CONTINUOUS
10
180.199
20
-101.508
11
180.13
21
-101.345
0
LINE
8
BLACK
6
CONTINUOUS
10
180.13
20
-101.345
11
180.1
21
-101.171
0
LINE
8
BLACK
6
CONTINUOUS
10
180.1
20
-101.171
11
180.111
21
-100.995
0
LINE
8
BLACK
6
CONTINUOUS
10
180.111
20
-100.995
11
180.162
21
-100.826
0
LINE
8
BLACK
6
CONTINUOUS
10
180.162
20
-100.826
11
180.251
21
-100.674
0
LINE
8
BLACK
6
CONTINUOUS
10
180.251
20
-100.674
11
180.372
21
-100.546
0
LINE
8
BLACK
6
CONTINUOUS
10
180.372
20
-100.546
11
180.52
21
-100.449
0
LINE
8
BLACK
6
CONTINUOUS
10
180.52
20
-100.449
11
180.685
21
-100.389
0
LINE
8
BLACK
6
CONTINUOUS
10
180.685
20
-100.389
11
180.861
21
-100.368
0
LINE
8
BLACK
6
CONTINUOUS
10
180.861
20
-100.368
11
182.181
21
-100.368
0
LINE
8
BLACK
6
CONTINUOUS
10
182.181
20
-100.368
11
182.276
21
-100.374
0
LINE
8
BLACK
6
CONTINUOUS
10
170.873
20
-98.8192
11
170.906
21
-98.8413
0
LINE
8
BLACK
6
CONTINUOUS
10
170.906
20
-98.8413
11
170.928
21
-98.8742
0
LINE
8
BLACK
6
CONTINUOUS
10
170.928
20
-98.8742
11
170.936
21
-98.9131
0
LINE
8
BLACK
6
CONTINUOUS
10
170.936
20
-98.9131
11
170.936
21
-99.9131
0
LINE
8
BLACK
6
CONTINUOUS
10
170.936
20
-99.9131
11
170.928
21
-99.952
0
LINE
8
BLACK
6
CONTINUOUS
10
170.928
20
-99.952
11
170.906
21
-99.9849
0
LINE
8
BLACK
6
CONTINUOUS
10
170.906
20
-99.9849
11
170.873
21
-100.007
0
LINE
8
BLACK
6
CONTINUOUS
10
170.873
20
-100.007
11
170.834
21
-100.015
0
LINE
8
BLACK
6
CONTINUOUS
10
170.834
20
-100.015
11
169.434
21
-100.015
0
LINE
8
BLACK
6
CONTINUOUS
10
169.434
20
-100.015
11
169.395
21
-100.007
0
LINE
8
BLACK
6
CONTINUOUS
10
169.395
20
-100.007
11
169.362
21
-99.9849
0
LINE
8
BLACK
6
CONTINUOUS
10
169.362
20
-99.9849
11
169.34
21
-99.952
0
LINE
8
BLACK
6
CONTINUOUS
10
169.34
20
-99.952
11
169.332
21
-99.9131
0
LINE
8
BLACK
6
CONTINUOUS
10
169.332
20
-99.9131
11
169.332
21
-98.9131
0
LINE
8
BLACK
6
CONTINUOUS
10
169.332
20
-98.9131
11
169.34
21
-98.8742
0
LINE
8
BLACK
6
CONTINUOUS
10
169.34
20
-98.8742
11
169.362
21
-98.8413
0
LINE
8
BLACK
6
CONTINUOUS
10
169.362
20
-98.8413
11
169.395
21
-98.8192
0
LINE
8
BLACK
6
CONTINUOUS
10
169.395
20
-98.8192
11
169.434
21
-98.8115
0
LINE
8
BLACK
6
CONTINUOUS
10
169.434
20
-98.8115
11
170.834
21
-98.8115
0
LINE
8
BLACK
6
CONTINUOUS
10
170.834
20
-98.8115
11
170.873
21
-98.8192
0
LINE
8
BLACK
6
CONTINUOUS
10
182.276
20
-97.8339
11
182.447
21
-97.8759
0
LINE
8
BLACK
6
CONTINUOUS
10
182.447
20
-97.8759
11
182.604
21
-97.9561
0
LINE
8
BLACK
6
CONTINUOUS
10
182.604
20
-97.9561
11
182.739
21
-98.0704
0
LINE
8
BLACK
6
CONTINUOUS
10
182.739
20
-98.0704
11
182.843
21
-98.2126
0
LINE
8
BLACK
6
CONTINUOUS
10
182.843
20
-98.2126
11
182.912
21
-98.375
0
LINE
8
BLACK
6
CONTINUOUS
10
182.912
20
-98.375
11
182.942
21
-98.5489
0
LINE
8
BLACK
6
CONTINUOUS
10
182.942
20
-98.5489
11
182.931
21
-98.725
0
LINE
8
BLACK
6
CONTINUOUS
10
182.931
20
-98.725
11
182.88
21
-98.8939
0
LINE
8
BLACK
6
CONTINUOUS
10
182.88
20
-98.8939
11
182.792
21
-99.0466
0
LINE
8
BLACK
6
CONTINUOUS
10
182.792
20
-99.0466
11
182.67
21
-99.1747
0
LINE
8
BLACK
6
CONTINUOUS
10
182.67
20
-99.1747
11
182.523
21
-99.2714
0
LINE
8
BLACK
6
CONTINUOUS
10
182.523
20
-99.2714
11
182.357
21
-99.3317
0
LINE
8
BLACK
6
CONTINUOUS
10
182.357
20
-99.3317
11
182.181
21
-99.3521
0
LINE
8
BLACK
6
CONTINUOUS
10
182.181
20
-99.3521
11
180.861
21
-99.3521
0
LINE
8
BLACK
6
CONTINUOUS
10
180.861
20
-99.3521
11
180.767
21
-99.3463
0
LINE
8
BLACK
6
CONTINUOUS
10
180.767
20
-99.3463
11
180.595
21
-99.3043
0
LINE
8
BLACK
6
CONTINUOUS
10
180.595
20
-99.3043
11
180.438
21
-99.224
0
LINE
8
BLACK
6
CONTINUOUS
10
180.438
20
-99.224
11
180.303
21
-99.1098
0
LINE
8
BLACK
6
CONTINUOUS
10
180.303
20
-99.1098
11
180.199
21
-98.9676
0
LINE
8
BLACK
6
CONTINUOUS
10
180.199
20
-98.9676
11
180.13
21
-98.8052
0
LINE
8
BLACK
6
CONTINUOUS
10
180.13
20
-98.8052
11
180.1
21
-98.6313
0
LINE
8
BLACK
6
CONTINUOUS
10
180.1
20
-98.6313
11
180.111
21
-98.4552
0
LINE
8
BLACK
6
CONTINUOUS
10
180.111
20
-98.4552
11
180.162
21
-98.2863
0
LINE
8
BLACK
6
CONTINUOUS
10
180.162
20
-98.2863
11
180.251
21
-98.1336
0
LINE
8
BLACK
6
CONTINUOUS
10
180.251
20
-98.1336
11
180.372
21
-98.0055
0
LINE
8
BLACK
6
CONTINUOUS
10
180.372
20
-98.0055
11
180.52
21
-97.9088
0
LINE
8
BLACK
6
CONTINUOUS
10
180.52
20
-97.9088
11
180.685
21
-97.8485
0
LINE
8
BLACK
6
CONTINUOUS
10
180.685
20
-97.8485
11
180.861
21
-97.8281
0
LINE
8
BLACK
6
CONTINUOUS
10
180.861
20
-97.8281
11
182.181
21
-97.8281
0
LINE
8
BLACK
6
CONTINUOUS
10
182.181
20
-97.8281
11
182.276
21
-97.8339
0
LINE
8
BLACK
6
CONTINUOUS
10
173.073
20
-97.8692
11
173.106
21
-97.8913
0
LINE
8
BLACK
6
CONTINUOUS
10
173.106
20
-97.8913
11
173.128
21
-97.9242
0
LINE
8
BLACK
6
CONTINUOUS
10
173.128
20
-97.9242
11
173.136
21
-97.9631
0
LINE
8
BLACK
6
CONTINUOUS
10
173.136
20
-97.9631
11
173.136
21
-98.9631
0
LINE
8
BLACK
6
CONTINUOUS
10
173.136
20
-98.9631
11
173.128
21
-99.002
0
LINE
8
BLACK
6
CONTINUOUS
10
173.128
20
-99.002
11
173.106
21
-99.0349
0
LINE
8
BLACK
6
CONTINUOUS
10
173.106
20
-99.0349
11
173.073
21
-99.057
0
LINE
8
BLACK
6
CONTINUOUS
10
173.073
20
-99.057
11
173.034
21
-99.0647
0
LINE
8
BLACK
6
CONTINUOUS
10
173.034
20
-99.0647
11
171.634
21
-99.0647
0
LINE
8
BLACK
6
CONTINUOUS
10
171.634
20
-99.0647
11
171.595
21
-99.057
0
LINE
8
BLACK
6
CONTINUOUS
10
171.595
20
-99.057
11
171.562
21
-99.0349
0
LINE
8
BLACK
6
CONTINUOUS
10
171.562
20
-99.0349
11
171.54
21
-99.002
0
LINE
8
BLACK
6
CONTINUOUS
10
171.54
20
-99.002
11
171.532
21
-98.9631
0
LINE
8
BLACK
6
CONTINUOUS
10
171.532
20
-98.9631
11
171.532
21
-97.9631
0
LINE
8
BLACK
6
CONTINUOUS
10
171.532
20
-97.9631
11
171.54
21
-97.9242
0
LINE
8
BLACK
6
CONTINUOUS
10
171.54
20
-97.9242
11
171.562
21
-97.8913
0
LINE
8
BLACK
6
CONTINUOUS
10
171.562
20
-97.8913
11
171.595
21
-97.8692
0
LINE
8
BLACK
6
CONTINUOUS
10
171.595
20
-97.8692
11
171.634
21
-97.8615
0
LINE
8
BLACK
6
CONTINUOUS
10
171.634
20
-97.8615
11
173.034
21
-97.8615
0
LINE
8
BLACK
6
CONTINUOUS
10
173.034
20
-97.8615
11
173.073
21
-97.8692
0
LINE
8
BLACK
6
CONTINUOUS
10
170.873
20
-96.9192
11
170.906
21
-96.9413
0
LINE
8
BLACK
6
CONTINUOUS
10
170.906
20
-96.9413
11
170.928
21
-96.9742
0
LINE
8
BLACK
6
CONTINUOUS
10
170.928
20
-96.9742
11
170.936
21
-97.0131
0
LINE
8
BLACK
6
CONTINUOUS
10
170.936
20
-97.0131
11
170.936
21
-98.0131
0
LINE
8
BLACK
6
CONTINUOUS
10
170.936
20
-98.0131
11
170.928
21
-98.052
0
LINE
8
BLACK
6
CONTINUOUS
10
170.928
20
-98.052
11
170.906
21
-98.0849
0
LINE
8
BLACK
6
CONTINUOUS
10
170.906
20
-98.0849
11
170.873
21
-98.107
0
LINE
8
BLACK
6
CONTINUOUS
10
170.873
20
-98.107
11
170.834
21
-98.1147
0
LINE
8
BLACK
6
CONTINUOUS
10
170.834
20
-98.1147
11
169.434
21
-98.1147
0
LINE
8
BLACK
6
CONTINUOUS
10
169.434
20
-98.1147
11
169.395
21
-98.107
0
LINE
8
BLACK
6
CONTINUOUS
10
169.395
20
-98.107
11
169.362
21
-98.0849
0
LINE
8
BLACK
6
CONTINUOUS
10
169.362
20
-98.0849
11
169.34
21
-98.052
0
LINE
8
BLACK
6
CONTINUOUS
10
169.34
20
-98.052
11
169.332
21
-98.0131
0
LINE
8
BLACK
6
CONTINUOUS
10
169.332
20
-98.0131
11
169.332
21
-97.0131
0
LINE
8
BLACK
6
CONTINUOUS
10
169.332
20
-97.0131
11
169.34
21
-96.9742
0
LINE
8
BLACK
6
CONTINUOUS
10
169.34
20
-96.9742
11
169.362
21
-96.9413
0
LINE
8
BLACK
6
CONTINUOUS
10
169.362
20
-96.9413
11
169.395
21
-96.9192
0
LINE
8
BLACK
6
CONTINUOUS
10
169.395
20
-96.9192
11
169.434
21
-96.9115
0
LINE
8
BLACK
6
CONTINUOUS
10
169.434
20
-96.9115
11
170.834
21
-96.9115
0
LINE
8
BLACK
6
CONTINUOUS
10
170.834
20
-96.9115
11
170.873
21
-96.9192
0
LINE
8
BLACK
6
CONTINUOUS
10
119.57
20
-95.9545
11
119.742
21
-96.0312
0
LINE
8
BLACK
6
CONTINUOUS
10
119.742
20
-96.0312
11
119.894
21
-96.142
0
LINE
8
BLACK
6
CONTINUOUS
10
119.894
20
-96.142
11
120.021
21
-96.2821
0
LINE
8
BLACK
6
CONTINUOUS
10
120.021
20
-96.2821
11
120.115
21
-96.4453
0
LINE
8
BLACK
6
CONTINUOUS
10
120.115
20
-96.4453
11
120.173
21
-96.6246
0
LINE
8
BLACK
6
CONTINUOUS
10
120.173
20
-96.6246
11
120.193
21
-96.8121
0
LINE
8
BLACK
6
CONTINUOUS
10
120.193
20
-96.8121
11
120.173
21
-96.9996
0
LINE
8
BLACK
6
CONTINUOUS
10
120.173
20
-96.9996
11
120.115
21
-97.1789
0
LINE
8
BLACK
6
CONTINUOUS
10
120.115
20
-97.1789
11
120.021
21
-97.3421
0
LINE
8
BLACK
6
CONTINUOUS
10
120.021
20
-97.3421
11
119.894
21
-97.4822
0
LINE
8
BLACK
6
CONTINUOUS
10
119.894
20
-97.4822
11
119.742
21
-97.593
0
LINE
8
BLACK
6
CONTINUOUS
10
119.742
20
-97.593
11
119.57
21
-97.6697
0
LINE
8
BLACK
6
CONTINUOUS
10
119.57
20
-97.6697
11
119.385
21
-97.7089
0
LINE
8
BLACK
6
CONTINUOUS
10
119.385
20
-97.7089
11
119.197
21
-97.7089
0
LINE
8
BLACK
6
CONTINUOUS
10
119.197
20
-97.7089
11
119.012
21
-97.6697
0
LINE
8
BLACK
6
CONTINUOUS
10
119.012
20
-97.6697
11
118.84
21
-97.593
0
LINE
8
BLACK
6
CONTINUOUS
10
118.84
20
-97.593
11
118.688
21
-97.4822
0
LINE
8
BLACK
6
CONTINUOUS
10
118.688
20
-97.4822
11
118.562
21
-97.3421
0
LINE
8
BLACK
6
CONTINUOUS
10
118.562
20
-97.3421
11
118.467
21
-97.1789
0
LINE
8
BLACK
6
CONTINUOUS
10
118.467
20
-97.1789
11
118.409
21
-96.9996
0
LINE
8
BLACK
6
CONTINUOUS
10
118.409
20
-96.9996
11
118.389
21
-96.8121
0
LINE
8
BLACK
6
CONTINUOUS
10
118.389
20
-96.8121
11
118.409
21
-96.6246
0
LINE
8
BLACK
6
CONTINUOUS
10
118.409
20
-96.6246
11
118.467
21
-96.4453
0
LINE
8
BLACK
6
CONTINUOUS
10
118.467
20
-96.4453
11
118.562
21
-96.2821
0
LINE
8
BLACK
6
CONTINUOUS
10
118.562
20
-96.2821
11
118.688
21
-96.142
0
LINE
8
BLACK
6
CONTINUOUS
10
118.688
20
-96.142
11
118.84
21
-96.0312
0
LINE
8
BLACK
6
CONTINUOUS
10
118.84
20
-96.0312
11
119.012
21
-95.9545
0
LINE
8
BLACK
6
CONTINUOUS
10
119.012
20
-95.9545
11
119.197
21
-95.9153
0
LINE
8
BLACK
6
CONTINUOUS
10
119.197
20
-95.9153
11
119.385
21
-95.9153
0
LINE
8
BLACK
6
CONTINUOUS
10
119.385
20
-95.9153
11
119.57
21
-95.9545
0
LINE
8
BLACK
6
CONTINUOUS
10
173.848
20
-94.9562
11
173.881
21
-94.9783
0
LINE
8
BLACK
6
CONTINUOUS
10
173.881
20
-94.9783
11
173.903
21
-95.0112
0
LINE
8
BLACK
6
CONTINUOUS
10
173.903
20
-95.0112
11
173.911
21
-95.0501
0
LINE
8
BLACK
6
CONTINUOUS
10
173.911
20
-95.0501
11
173.911
21
-97.0501
0
LINE
8
BLACK
6
CONTINUOUS
10
173.911
20
-97.0501
11
173.903
21
-97.089
0
LINE
8
BLACK
6
CONTINUOUS
10
173.903
20
-97.089
11
173.881
21
-97.1219
0
LINE
8
BLACK
6
CONTINUOUS
10
173.881
20
-97.1219
11
173.848
21
-97.144
0
LINE
8
BLACK
6
CONTINUOUS
10
173.848
20
-97.144
11
173.809
21
-97.1517
0
LINE
8
BLACK
6
CONTINUOUS
10
173.809
20
-97.1517
11
172.209
21
-97.1517
0
LINE
8
BLACK
6
CONTINUOUS
10
172.209
20
-97.1517
11
172.17
21
-97.144
0
LINE
8
BLACK
6
CONTINUOUS
10
172.17
20
-97.144
11
172.137
21
-97.1219
0
LINE
8
BLACK
6
CONTINUOUS
10
172.137
20
-97.1219
11
172.115
21
-97.089
0
LINE
8
BLACK
6
CONTINUOUS
10
172.115
20
-97.089
11
172.107
21
-97.0501
0
LINE
8
BLACK
6
CONTINUOUS
10
172.107
20
-97.0501
11
172.107
21
-95.0501
0
LINE
8
BLACK
6
CONTINUOUS
10
172.107
20
-95.0501
11
172.115
21
-95.0112
0
LINE
8
BLACK
6
CONTINUOUS
10
172.115
20
-95.0112
11
172.137
21
-94.9783
0
LINE
8
BLACK
6
CONTINUOUS
10
172.137
20
-94.9783
11
172.17
21
-94.9562
0
LINE
8
BLACK
6
CONTINUOUS
10
172.17
20
-94.9562
11
172.209
21
-94.9485
0
LINE
8
BLACK
6
CONTINUOUS
10
172.209
20
-94.9485
11
173.809
21
-94.9485
0
LINE
8
BLACK
6
CONTINUOUS
10
173.809
20
-94.9485
11
173.848
21
-94.9562
0
LINE
8
BLACK
6
CONTINUOUS
10
176.648
20
-94.9562
11
176.681
21
-94.9783
0
LINE
8
BLACK
6
CONTINUOUS
10
176.681
20
-94.9783
11
176.703
21
-95.0112
0
LINE
8
BLACK
6
CONTINUOUS
10
176.703
20
-95.0112
11
176.711
21
-95.0501
0
LINE
8
BLACK
6
CONTINUOUS
10
176.711
20
-95.0501
11
176.711
21
-97.0501
0
LINE
8
BLACK
6
CONTINUOUS
10
176.711
20
-97.0501
11
176.703
21
-97.089
0
LINE
8
BLACK
6
CONTINUOUS
10
176.703
20
-97.089
11
176.681
21
-97.1219
0
LINE
8
BLACK
6
CONTINUOUS
10
176.681
20
-97.1219
11
176.648
21
-97.144
0
LINE
8
BLACK
6
CONTINUOUS
10
176.648
20
-97.144
11
176.609
21
-97.1517
0
LINE
8
BLACK
6
CONTINUOUS
10
176.609
20
-97.1517
11
175.009
21
-97.1517
0
LINE
8
BLACK
6
CONTINUOUS
10
175.009
20
-97.1517
11
174.97
21
-97.144
0
LINE
8
BLACK
6
CONTINUOUS
10
174.97
20
-97.144
11
174.937
21
-97.1219
0
LINE
8
BLACK
6
CONTINUOUS
10
174.937
20
-97.1219
11
174.915
21
-97.089
0
LINE
8
BLACK
6
CONTINUOUS
10
174.915
20
-97.089
11
174.907
21
-97.0501
0
LINE
8
BLACK
6
CONTINUOUS
10
174.907
20
-97.0501
11
174.907
21
-95.0501
0
LINE
8
BLACK
6
CONTINUOUS
10
174.907
20
-95.0501
11
174.915
21
-95.0112
0
LINE
8
BLACK
6
CONTINUOUS
10
174.915
20
-95.0112
11
174.937
21
-94.9783
0
LINE
8
BLACK
6
CONTINUOUS
10
174.937
20
-94.9783
11
174.97
21
-94.9562
0
LINE
8
BLACK
6
CONTINUOUS
10
174.97
20
-94.9562
11
175.009
21
-94.9485
0
LINE
8
BLACK
6
CONTINUOUS
10
175.009
20
-94.9485
11
176.609
21
-94.9485
0
LINE
8
BLACK
6
CONTINUOUS
10
176.609
20
-94.9485
11
176.648
21
-94.9562
0
LINE
8
BLACK
6
CONTINUOUS
10
182.276
20
-95.2939
11
182.447
21
-95.3359
0
LINE
8
BLACK
6
CONTINUOUS
10
182.447
20
-95.3359
11
182.604
21
-95.4162
0
LINE
8
BLACK
6
CONTINUOUS
10
182.604
20
-95.4162
11
182.739
21
-95.5304
0
LINE
8
BLACK
6
CONTINUOUS
10
182.739
20
-95.5304
11
182.843
21
-95.6726
0
LINE
8
BLACK
6
CONTINUOUS
10
182.843
20
-95.6726
11
182.912
21
-95.835
0
LINE
8
BLACK
6
CONTINUOUS
10
182.912
20
-95.835
11
182.942
21
-96.0089
0
LINE
8
BLACK
6
CONTINUOUS
10
182.942
20
-96.0089
11
182.931
21
-96.185
0
LINE
8
BLACK
6
CONTINUOUS
10
182.931
20
-96.185
11
182.88
21
-96.3539
0
LINE
8
BLACK
6
CONTINUOUS
10
182.88
20
-96.3539
11
182.792
21
-96.5066
0
LINE
8
BLACK
6
CONTINUOUS
10
182.792
20
-96.5066
11
182.67
21
-96.6347
0
LINE
8
BLACK
6
CONTINUOUS
10
182.67
20
-96.6347
11
182.523
21
-96.7314
0
LINE
8
BLACK
6
CONTINUOUS
10
182.523
20
-96.7314
11
182.357
21
-96.7917
0
LINE
8
BLACK
6
CONTINUOUS
10
182.357
20
-96.7917
11
182.181
21
-96.8121
0
LINE
8
BLACK
6
CONTINUOUS
10
182.181
20
-96.8121
11
180.861
21
-96.8121
0
LINE
8
BLACK
6
CONTINUOUS
10
180.861
20
-96.8121
11
180.767
21
-96.8063
0
LINE
8
BLACK
6
CONTINUOUS
10
180.767
20
-96.8063
11
180.595
21
-96.7643
0
LINE
8
BLACK
6
CONTINUOUS
10
180.595
20
-96.7643
11
180.438
21
-96.684
0
LINE
8
BLACK
6
CONTINUOUS
10
180.438
20
-96.684
11
180.303
21
-96.5698
0
LINE
8
BLACK
6
CONTINUOUS
10
180.303
20
-96.5698
11
180.199
21
-96.4276
0
LINE
8
BLACK
6
CONTINUOUS
10
180.199
20
-96.4276
11
180.13
21
-96.2652
0
LINE
8
BLACK
6
CONTINUOUS
10
180.13
20
-96.2652
11
180.1
21
-96.0913
0
LINE
8
BLACK
6
CONTINUOUS
10
180.1
20
-96.0913
11
180.111
21
-95.9152
0
LINE
8
BLACK
6
CONTINUOUS
10
180.111
20
-95.9152
11
180.162
21
-95.7463
0
LINE
8
BLACK
6
CONTINUOUS
10
180.162
20
-95.7463
11
180.251
21
-95.5936
0
LINE
8
BLACK
6
CONTINUOUS
10
180.251
20
-95.5936
11
180.372
21
-95.4655
0
LINE
8
BLACK
6
CONTINUOUS
10
180.372
20
-95.4655
11
180.52
21
-95.3688
0
LINE
8
BLACK
6
CONTINUOUS
10
180.52
20
-95.3688
11
180.685
21
-95.3085
0
LINE
8
BLACK
6
CONTINUOUS
10
180.685
20
-95.3085
11
180.861
21
-95.2881
0
LINE
8
BLACK
6
CONTINUOUS
10
180.861
20
-95.2881
11
182.181
21
-95.2881
0
LINE
8
BLACK
6
CONTINUOUS
10
182.181
20
-95.2881
11
182.276
21
-95.2939
0
LINE
8
BLACK
6
CONTINUOUS
10
186.761
20
-93.2121
11
187.003
21
-93.2703
0
LINE
8
BLACK
6
CONTINUOUS
10
187.003
20
-93.2703
11
187.233
21
-93.3656
0
LINE
8
BLACK
6
CONTINUOUS
10
187.233
20
-93.3656
11
187.445
21
-93.4958
0
LINE
8
BLACK
6
CONTINUOUS
10
187.445
20
-93.4958
11
187.635
21
-93.6576
0
LINE
8
BLACK
6
CONTINUOUS
10
187.635
20
-93.6576
11
187.797
21
-93.847
0
LINE
8
BLACK
6
CONTINUOUS
10
187.797
20
-93.847
11
187.927
21
-94.0594
0
LINE
8
BLACK
6
CONTINUOUS
10
187.927
20
-94.0594
11
188.022
21
-94.2895
0
LINE
8
BLACK
6
CONTINUOUS
10
188.022
20
-94.2895
11
188.08
21
-94.5318
0
LINE
8
BLACK
6
CONTINUOUS
10
188.08
20
-94.5318
11
188.1
21
-94.7801
0
LINE
8
BLACK
6
CONTINUOUS
10
188.1
20
-94.7801
11
188.08
21
-95.0284
0
LINE
8
BLACK
6
CONTINUOUS
10
188.08
20
-95.0284
11
188.022
21
-95.2707
0
LINE
8
BLACK
6
CONTINUOUS
10
188.022
20
-95.2707
11
187.927
21
-95.5008
0
LINE
8
BLACK
6
CONTINUOUS
10
187.927
20
-95.5008
11
187.797
21
-95.7132
0
LINE
8
BLACK
6
CONTINUOUS
10
187.797
20
-95.7132
11
187.635
21
-95.9026
0
LINE
8
BLACK
6
CONTINUOUS
10
187.635
20
-95.9026
11
187.445
21
-96.0644
0
LINE
8
BLACK
6
CONTINUOUS
10
187.445
20
-96.0644
11
187.233
21
-96.1946
0
LINE
8
BLACK
6
CONTINUOUS
10
187.233
20
-96.1946
11
187.003
21
-96.2899
0
LINE
8
BLACK
6
CONTINUOUS
10
187.003
20
-96.2899
11
186.761
21
-96.3481
0
LINE
8
BLACK
6
CONTINUOUS
10
186.761
20
-96.3481
11
186.512
21
-96.3676
0
LINE
8
BLACK
6
CONTINUOUS
10
186.512
20
-96.3676
11
186.264
21
-96.3481
0
LINE
8
BLACK
6
CONTINUOUS
10
186.264
20
-96.3481
11
186.022
21
-96.2899
0
LINE
8
BLACK
6
CONTINUOUS
10
186.022
20
-96.2899
11
185.791
21
-96.1946
0
LINE
8
BLACK
6
CONTINUOUS
10
185.791
20
-96.1946
11
185.579
21
-96.0644
0
LINE
8
BLACK
6
CONTINUOUS
10
185.579
20
-96.0644
11
185.39
21
-95.9026
0
LINE
8
BLACK
6
CONTINUOUS
10
185.39
20
-95.9026
11
185.228
21
-95.7132
0
LINE
8
BLACK
6
CONTINUOUS
10
185.228
20
-95.7132
11
185.098
21
-95.5008
0
LINE
8
BLACK
6
CONTINUOUS
10
185.098
20
-95.5008
11
185.002
21
-95.2707
0
LINE
8
BLACK
6
CONTINUOUS
10
185.002
20
-95.2707
11
184.944
21
-95.0284
0
LINE
8
BLACK
6
CONTINUOUS
10
184.944
20
-95.0284
11
184.925
21
-94.7801
0
LINE
8
BLACK
6
CONTINUOUS
10
184.925
20
-94.7801
11
184.944
21
-94.5318
0
LINE
8
BLACK
6
CONTINUOUS
10
184.944
20
-94.5318
11
185.002
21
-94.2895
0
LINE
8
BLACK
6
CONTINUOUS
10
185.002
20
-94.2895
11
185.098
21
-94.0594
0
LINE
8
BLACK
6
CONTINUOUS
10
185.098
20
-94.0594
11
185.228
21
-93.847
0
LINE
8
BLACK
6
CONTINUOUS
10
185.228
20
-93.847
11
185.39
21
-93.6576
0
LINE
8
BLACK
6
CONTINUOUS
10
185.39
20
-93.6576
11
185.579
21
-93.4958
0
LINE
8
BLACK
6
CONTINUOUS
10
185.579
20
-93.4958
11
185.791
21
-93.3656
0
LINE
8
BLACK
6
CONTINUOUS
10
185.791
20
-93.3656
11
186.022
21
-93.2703
0
LINE
8
BLACK
6
CONTINUOUS
10
186.022
20
-93.2703
11
186.264
21
-93.2121
0
LINE
8
BLACK
6
CONTINUOUS
10
186.264
20
-93.2121
11
186.512
21
-93.1926
0
LINE
8
BLACK
6
CONTINUOUS
10
186.512
20
-93.1926
11
186.761
21
-93.2121
0
LINE
8
BLACK
6
CONTINUOUS
10
110.561
20
-93.2121
11
110.803
21
-93.2703
0
LINE
8
BLACK
6
CONTINUOUS
10
110.803
20
-93.2703
11
111.033
21
-93.3656
0
LINE
8
BLACK
6
CONTINUOUS
10
111.033
20
-93.3656
11
111.245
21
-93.4958
0
LINE
8
BLACK
6
CONTINUOUS
10
111.245
20
-93.4958
11
111.435
21
-93.6576
0
LINE
8
BLACK
6
CONTINUOUS
10
111.435
20
-93.6576
11
111.597
21
-93.847
0
LINE
8
BLACK
6
CONTINUOUS
10
111.597
20
-93.847
11
111.727
21
-94.0594
0
LINE
8
BLACK
6
CONTINUOUS
10
111.727
20
-94.0594
11
111.822
21
-94.2895
0
LINE
8
BLACK
6
CONTINUOUS
10
111.822
20
-94.2895
11
111.88
21
-94.5318
0
LINE
8
BLACK
6
CONTINUOUS
10
111.88
20
-94.5318
11
111.9
21
-94.7801
0
LINE
8
BLACK
6
CONTINUOUS
10
111.9
20
-94.7801
11
111.88
21
-95.0284
0
LINE
8
BLACK
6
CONTINUOUS
10
111.88
20
-95.0284
11
111.822
21
-95.2707
0
LINE
8
BLACK
6
CONTINUOUS
10
111.822
20
-95.2707
11
111.727
21
-95.5008
0
LINE
8
BLACK
6
CONTINUOUS
10
111.727
20
-95.5008
11
111.597
21
-95.7132
0
LINE
8
BLACK
6
CONTINUOUS
10
111.597
20
-95.7132
11
111.435
21
-95.9026
0
LINE
8
BLACK
6
CONTINUOUS
10
111.435
20
-95.9026
11
111.245
21
-96.0644
0
LINE
8
BLACK
6
CONTINUOUS
10
111.245
20
-96.0644
11
111.033
21
-96.1946
0
LINE
8
BLACK
6
CONTINUOUS
10
111.033
20
-96.1946
11
110.803
21
-96.2899
0
LINE
8
BLACK
6
CONTINUOUS
10
110.803
20
-96.2899
11
110.561
21
-96.3481
0
LINE
8
BLACK
6
CONTINUOUS
10
110.561
20
-96.3481
11
110.312
21
-96.3676
0
LINE
8
BLACK
6
CONTINUOUS
10
110.312
20
-96.3676
11
110.064
21
-96.3481
0
LINE
8
BLACK
6
CONTINUOUS
10
110.064
20
-96.3481
11
109.822
21
-96.2899
0
LINE
8
BLACK
6
CONTINUOUS
10
109.822
20
-96.2899
11
109.591
21
-96.1946
0
LINE
8
BLACK
6
CONTINUOUS
10
109.591
20
-96.1946
11
109.379
21
-96.0644
0
LINE
8
BLACK
6
CONTINUOUS
10
109.379
20
-96.0644
11
109.19
21
-95.9026
0
LINE
8
BLACK
6
CONTINUOUS
10
109.19
20
-95.9026
11
109.028
21
-95.7132
0
LINE
8
BLACK
6
CONTINUOUS
10
109.028
20
-95.7132
11
108.898
21
-95.5008
0
LINE
8
BLACK
6
CONTINUOUS
10
108.898
20
-95.5008
11
108.802
21
-95.2707
0
LINE
8
BLACK
6
CONTINUOUS
10
108.802
20
-95.2707
11
108.744
21
-95.0284
0
LINE
8
BLACK
6
CONTINUOUS
10
108.744
20
-95.0284
11
108.725
21
-94.7801
0
LINE
8
BLACK
6
CONTINUOUS
10
108.725
20
-94.7801
11
108.744
21
-94.5318
0
LINE
8
BLACK
6
CONTINUOUS
10
108.744
20
-94.5318
11
108.802
21
-94.2895
0
LINE
8
BLACK
6
CONTINUOUS
10
108.802
20
-94.2895
11
108.898
21
-94.0594
0
LINE
8
BLACK
6
CONTINUOUS
10
108.898
20
-94.0594
11
109.028
21
-93.847
0
LINE
8
BLACK
6
CONTINUOUS
10
109.028
20
-93.847
11
109.19
21
-93.6576
0
LINE
8
BLACK
6
CONTINUOUS
10
109.19
20
-93.6576
11
109.379
21
-93.4958
0
LINE
8
BLACK
6
CONTINUOUS
10
109.379
20
-93.4958
11
109.591
21
-93.3656
0
LINE
8
BLACK
6
CONTINUOUS
10
109.591
20
-93.3656
11
109.822
21
-93.2703
0
LINE
8
BLACK
6
CONTINUOUS
10
109.822
20
-93.2703
11
110.064
21
-93.2121
0
LINE
8
BLACK
6
CONTINUOUS
10
110.064
20
-93.2121
11
110.312
21
-93.1926
0
LINE
8
BLACK
6
CONTINUOUS
10
110.312
20
-93.1926
11
110.561
21
-93.2121
  0
ENDSEC
  0
EOF
