  0
SECTION
  2
HEADER
  9
$ANGBASE
  50
0.0
  9
$ANGDIR
  70
1
  9
$MEASUREMENT
  70
1
  0
ENDSEC
  0
SECTION
  2
TABLES
  0
TABLE
  2
LTYPE
  70
4
  0
LTYPE
  5
40F
  2
CONTINUOUS
  70
0
  3
Solid line
  72
65
  73
0
  40
0.0
  0
LTYPE
  5
410
  2
DASHDOT
 70
0
  3
Dash Dot ____ _ ____ _
 72
65
 73
4
 40
2.0
 49
1.25
 49
-0.25
 49
0.25
 49
-0.25
  0
LTYPE
  5
411
  2
DASHED
 70
0
  3
Dashed __ __ __ __ __
 72
65
 73
2
 40
0.75
 49
0.5
 49
-0.25
  0
LTYPE
  5
43B
  2
DOTTED
 70
0
  3
Dotted .  .  .  .
 72
65
 73
2
 40
0.2
 49
0.0
 49
-0.2
  0
ENDTAB
  0
TABLE
  2
STYLE
  70
4
  0
STYLE
  2
KICAD
  70
0
  40
0
  41
1
  42
1
  50
0
  71
0
  3
isocp.shx
  0
STYLE
  2
KICADB
  70
0
  40
0
  41
1
  42
1
  50
0
  71
0
  3
isocp.shx
  0
STYLE
  2
KICADI
  70
0
  40
0
  41
1
  42
1
  50
15
  71
0
  3
isocp.shx
  0
STYLE
  2
KICADBI
  70
0
  40
0
  41
1
  42
1
  50
15
  71
0
  3
isocp.shx
  0
ENDTAB
  0
TABLE
  2
LAYER
  70
1
  0
LAYER
  2
BLACK
  70
0
  62
7
  6
CONTINUOUS
  0
ENDTAB
  0
ENDSEC
  0
SECTION
  2
ENTITIES
0
LINE
8
BLACK
6
CONTINUOUS
10
119.474
20
-116.353
11
119.642
21
-116.413
0
LINE
8
BLACK
6
CONTINUOUS
10
119.642
20
-116.413
11
119.792
21
-116.509
0
LINE
8
BLACK
6
CONTINUOUS
10
119.792
20
-116.509
11
119.918
21
-116.635
0
LINE
8
BLACK
6
CONTINUOUS
10
119.918
20
-116.635
11
120.013
21
-116.786
0
LINE
8
BLACK
6
CONTINUOUS
10
120.013
20
-116.786
11
120.071
21
-116.955
0
LINE
8
BLACK
6
CONTINUOUS
10
120.071
20
-116.955
11
120.091
21
-117.132
0
LINE
8
BLACK
6
CONTINUOUS
10
120.091
20
-117.132
11
120.091
21
-117.154
0
LINE
8
BLACK
6
CONTINUOUS
10
120.091
20
-117.154
11
120.066
21
-117.331
0
LINE
8
BLACK
6
CONTINUOUS
10
120.066
20
-117.331
11
120.003
21
-117.498
0
LINE
8
BLACK
6
CONTINUOUS
10
120.003
20
-117.498
11
119.904
21
-117.646
0
LINE
8
BLACK
6
CONTINUOUS
10
119.904
20
-117.646
11
119.775
21
-117.769
0
LINE
8
BLACK
6
CONTINUOUS
10
119.775
20
-117.769
11
119.622
21
-117.861
0
LINE
8
BLACK
6
CONTINUOUS
10
119.622
20
-117.861
11
119.452
21
-117.916
0
LINE
8
BLACK
6
CONTINUOUS
10
119.452
20
-117.916
11
119.274
21
-117.932
0
LINE
8
BLACK
6
CONTINUOUS
10
119.274
20
-117.932
11
119.098
21
-117.908
0
LINE
8
BLACK
6
CONTINUOUS
10
119.098
20
-117.908
11
118.93
21
-117.846
0
LINE
8
BLACK
6
CONTINUOUS
10
118.93
20
-117.846
11
118.781
21
-117.749
0
LINE
8
BLACK
6
CONTINUOUS
10
118.781
20
-117.749
11
118.657
21
-117.62
0
LINE
8
BLACK
6
CONTINUOUS
10
118.657
20
-117.62
11
118.565
21
-117.468
0
LINE
8
BLACK
6
CONTINUOUS
10
118.565
20
-117.468
11
118.508
21
-117.298
0
LINE
8
BLACK
6
CONTINUOUS
10
118.508
20
-117.298
11
118.491
21
-117.121
0
LINE
8
BLACK
6
CONTINUOUS
10
118.491
20
-117.121
11
118.513
21
-116.944
0
LINE
8
BLACK
6
CONTINUOUS
10
118.513
20
-116.944
11
118.574
21
-116.776
0
LINE
8
BLACK
6
CONTINUOUS
10
118.574
20
-116.776
11
118.671
21
-116.626
0
LINE
8
BLACK
6
CONTINUOUS
10
118.671
20
-116.626
11
118.799
21
-116.502
0
LINE
8
BLACK
6
CONTINUOUS
10
118.799
20
-116.502
11
118.95
21
-116.408
0
LINE
8
BLACK
6
CONTINUOUS
10
118.95
20
-116.408
11
119.119
21
-116.351
0
LINE
8
BLACK
6
CONTINUOUS
10
119.119
20
-116.351
11
119.297
21
-116.332
0
LINE
8
BLACK
6
CONTINUOUS
10
119.297
20
-116.332
11
119.474
21
-116.353
0
LINE
8
BLACK
6
CONTINUOUS
10
150.893
20
-102.569
11
151.042
21
-102.638
0
LINE
8
BLACK
6
CONTINUOUS
10
151.042
20
-102.638
11
151.168
21
-102.743
0
LINE
8
BLACK
6
CONTINUOUS
10
151.168
20
-102.743
11
151.264
21
-102.876
0
LINE
8
BLACK
6
CONTINUOUS
10
151.264
20
-102.876
11
151.325
21
-103.028
0
LINE
8
BLACK
6
CONTINUOUS
10
151.325
20
-103.028
11
151.345
21
-103.191
0
LINE
8
BLACK
6
CONTINUOUS
10
151.345
20
-103.191
11
151.345
21
-104.499
0
LINE
8
BLACK
6
CONTINUOUS
10
151.345
20
-104.499
11
151.34
21
-104.581
0
LINE
8
BLACK
6
CONTINUOUS
10
151.34
20
-104.581
11
151.299
21
-104.739
0
LINE
8
BLACK
6
CONTINUOUS
10
151.299
20
-104.739
11
151.22
21
-104.883
0
LINE
8
BLACK
6
CONTINUOUS
10
151.22
20
-104.883
11
151.108
21
-105.003
0
LINE
8
BLACK
6
CONTINUOUS
10
151.108
20
-105.003
11
150.97
21
-105.09
0
LINE
8
BLACK
6
CONTINUOUS
10
150.97
20
-105.09
11
150.894
21
-105.115
0
LINE
8
BLACK
6
CONTINUOUS
10
150.894
20
-105.115
11
150.894
21
-112.253
0
LINE
8
BLACK
6
CONTINUOUS
10
150.894
20
-112.253
11
154.808
21
-116.167
0
LINE
8
BLACK
6
CONTINUOUS
10
154.808
20
-116.167
11
180.236
21
-116.167
0
LINE
8
BLACK
6
CONTINUOUS
10
180.236
20
-116.167
11
180.244
21
-116.133
0
LINE
8
BLACK
6
CONTINUOUS
10
180.244
20
-116.133
11
180.318
21
-115.993
0
LINE
8
BLACK
6
CONTINUOUS
10
180.318
20
-115.993
11
180.424
21
-115.875
0
LINE
8
BLACK
6
CONTINUOUS
10
180.424
20
-115.875
11
180.555
21
-115.785
0
LINE
8
BLACK
6
CONTINUOUS
10
180.555
20
-115.785
11
180.703
21
-115.729
0
LINE
8
BLACK
6
CONTINUOUS
10
180.703
20
-115.729
11
180.861
21
-115.71
0
LINE
8
BLACK
6
CONTINUOUS
10
180.861
20
-115.71
11
182.181
21
-115.71
0
LINE
8
BLACK
6
CONTINUOUS
10
182.181
20
-115.71
11
182.188
21
-115.71
0
LINE
8
BLACK
6
CONTINUOUS
10
182.188
20
-115.71
11
182.346
21
-115.73
0
LINE
8
BLACK
6
CONTINUOUS
10
182.346
20
-115.73
11
182.494
21
-115.788
0
LINE
8
BLACK
6
CONTINUOUS
10
182.494
20
-115.788
11
182.623
21
-115.879
0
LINE
8
BLACK
6
CONTINUOUS
10
182.623
20
-115.879
11
182.728
21
-115.999
0
LINE
8
BLACK
6
CONTINUOUS
10
182.728
20
-115.999
11
182.8
21
-116.14
0
LINE
8
BLACK
6
CONTINUOUS
10
182.8
20
-116.14
11
182.838
21
-116.294
0
LINE
8
BLACK
6
CONTINUOUS
10
182.838
20
-116.294
11
182.837
21
-116.453
0
LINE
8
BLACK
6
CONTINUOUS
10
182.837
20
-116.453
11
182.798
21
-116.607
0
LINE
8
BLACK
6
CONTINUOUS
10
182.798
20
-116.607
11
182.724
21
-116.747
0
LINE
8
BLACK
6
CONTINUOUS
10
182.724
20
-116.747
11
182.618
21
-116.865
0
LINE
8
BLACK
6
CONTINUOUS
10
182.618
20
-116.865
11
182.487
21
-116.955
0
LINE
8
BLACK
6
CONTINUOUS
10
182.487
20
-116.955
11
182.339
21
-117.011
0
LINE
8
BLACK
6
CONTINUOUS
10
182.339
20
-117.011
11
182.181
21
-117.03
0
LINE
8
BLACK
6
CONTINUOUS
10
182.181
20
-117.03
11
180.861
21
-117.03
0
LINE
8
BLACK
6
CONTINUOUS
10
180.861
20
-117.03
11
180.854
21
-117.03
0
LINE
8
BLACK
6
CONTINUOUS
10
180.854
20
-117.03
11
180.696
21
-117.01
0
LINE
8
BLACK
6
CONTINUOUS
10
180.696
20
-117.01
11
180.549
21
-116.952
0
LINE
8
BLACK
6
CONTINUOUS
10
180.549
20
-116.952
11
180.419
21
-116.861
0
LINE
8
BLACK
6
CONTINUOUS
10
180.419
20
-116.861
11
180.314
21
-116.741
0
LINE
8
BLACK
6
CONTINUOUS
10
180.314
20
-116.741
11
180.242
21
-116.6
0
LINE
8
BLACK
6
CONTINUOUS
10
180.242
20
-116.6
11
180.235
21
-116.573
0
LINE
8
BLACK
6
CONTINUOUS
10
180.235
20
-116.573
11
154.724
21
-116.573
0
LINE
8
BLACK
6
CONTINUOUS
10
154.724
20
-116.573
11
154.691
21
-116.566
0
LINE
8
BLACK
6
CONTINUOUS
10
154.691
20
-116.566
11
154.657
21
-116.562
0
LINE
8
BLACK
6
CONTINUOUS
10
154.657
20
-116.562
11
154.647
21
-116.556
0
LINE
8
BLACK
6
CONTINUOUS
10
154.647
20
-116.556
11
154.636
21
-116.553
0
LINE
8
BLACK
6
CONTINUOUS
10
154.636
20
-116.553
11
154.609
21
-116.532
0
LINE
8
BLACK
6
CONTINUOUS
10
154.609
20
-116.532
11
154.58
21
-116.514
0
LINE
8
BLACK
6
CONTINUOUS
10
154.58
20
-116.514
11
150.547
21
-112.481
0
LINE
8
BLACK
6
CONTINUOUS
10
150.547
20
-112.481
11
150.529
21
-112.452
0
LINE
8
BLACK
6
CONTINUOUS
10
150.529
20
-112.452
11
150.508
21
-112.425
0
LINE
8
BLACK
6
CONTINUOUS
10
150.508
20
-112.425
11
150.505
21
-112.414
0
LINE
8
BLACK
6
CONTINUOUS
10
150.505
20
-112.414
11
150.499
21
-112.404
0
LINE
8
BLACK
6
CONTINUOUS
10
150.499
20
-112.404
11
150.495
21
-112.37
0
LINE
8
BLACK
6
CONTINUOUS
10
150.495
20
-112.37
11
150.488
21
-112.337
0
LINE
8
BLACK
6
CONTINUOUS
10
150.488
20
-112.337
11
150.488
21
-105.12
0
LINE
8
BLACK
6
CONTINUOUS
10
150.488
20
-105.12
11
150.341
21
-105.051
0
LINE
8
BLACK
6
CONTINUOUS
10
150.341
20
-105.051
11
150.214
21
-104.946
0
LINE
8
BLACK
6
CONTINUOUS
10
150.214
20
-104.946
11
150.118
21
-104.814
0
LINE
8
BLACK
6
CONTINUOUS
10
150.118
20
-104.814
11
150.058
21
-104.661
0
LINE
8
BLACK
6
CONTINUOUS
10
150.058
20
-104.661
11
150.037
21
-104.499
0
LINE
8
BLACK
6
CONTINUOUS
10
150.037
20
-104.499
11
150.037
21
-103.191
0
LINE
8
BLACK
6
CONTINUOUS
10
150.037
20
-103.191
11
150.042
21
-103.109
0
LINE
8
BLACK
6
CONTINUOUS
10
150.042
20
-103.109
11
150.083
21
-102.95
0
LINE
8
BLACK
6
CONTINUOUS
10
150.083
20
-102.95
11
150.162
21
-102.806
0
LINE
8
BLACK
6
CONTINUOUS
10
150.162
20
-102.806
11
150.274
21
-102.687
0
LINE
8
BLACK
6
CONTINUOUS
10
150.274
20
-102.687
11
150.413
21
-102.599
0
LINE
8
BLACK
6
CONTINUOUS
10
150.413
20
-102.599
11
150.569
21
-102.548
0
LINE
8
BLACK
6
CONTINUOUS
10
150.569
20
-102.548
11
150.732
21
-102.538
0
LINE
8
BLACK
6
CONTINUOUS
10
150.732
20
-102.538
11
150.893
21
-102.569
0
LINE
8
BLACK
6
CONTINUOUS
10
154.893
20
-102.569
11
155.042
21
-102.638
0
LINE
8
BLACK
6
CONTINUOUS
10
155.042
20
-102.638
11
155.168
21
-102.743
0
LINE
8
BLACK
6
CONTINUOUS
10
155.168
20
-102.743
11
155.264
21
-102.876
0
LINE
8
BLACK
6
CONTINUOUS
10
155.264
20
-102.876
11
155.325
21
-103.028
0
LINE
8
BLACK
6
CONTINUOUS
10
155.325
20
-103.028
11
155.345
21
-103.191
0
LINE
8
BLACK
6
CONTINUOUS
10
155.345
20
-103.191
11
155.345
21
-104.499
0
LINE
8
BLACK
6
CONTINUOUS
10
155.345
20
-104.499
11
155.34
21
-104.581
0
LINE
8
BLACK
6
CONTINUOUS
10
155.34
20
-104.581
11
155.299
21
-104.739
0
LINE
8
BLACK
6
CONTINUOUS
10
155.299
20
-104.739
11
155.22
21
-104.883
0
LINE
8
BLACK
6
CONTINUOUS
10
155.22
20
-104.883
11
155.108
21
-105.003
0
LINE
8
BLACK
6
CONTINUOUS
10
155.108
20
-105.003
11
154.97
21
-105.09
0
LINE
8
BLACK
6
CONTINUOUS
10
154.97
20
-105.09
11
154.894
21
-105.115
0
LINE
8
BLACK
6
CONTINUOUS
10
154.894
20
-105.115
11
154.894
21
-107.363
0
LINE
8
BLACK
6
CONTINUOUS
10
154.894
20
-107.363
11
161.158
21
-113.627
0
LINE
8
BLACK
6
CONTINUOUS
10
161.158
20
-113.627
11
180.236
21
-113.627
0
LINE
8
BLACK
6
CONTINUOUS
10
180.236
20
-113.627
11
180.244
21
-113.593
0
LINE
8
BLACK
6
CONTINUOUS
10
180.244
20
-113.593
11
180.318
21
-113.453
0
LINE
8
BLACK
6
CONTINUOUS
10
180.318
20
-113.453
11
180.424
21
-113.335
0
LINE
8
BLACK
6
CONTINUOUS
10
180.424
20
-113.335
11
180.555
21
-113.245
0
LINE
8
BLACK
6
CONTINUOUS
10
180.555
20
-113.245
11
180.703
21
-113.189
0
LINE
8
BLACK
6
CONTINUOUS
10
180.703
20
-113.189
11
180.861
21
-113.17
0
LINE
8
BLACK
6
CONTINUOUS
10
180.861
20
-113.17
11
182.181
21
-113.17
0
LINE
8
BLACK
6
CONTINUOUS
10
182.181
20
-113.17
11
182.188
21
-113.17
0
LINE
8
BLACK
6
CONTINUOUS
10
182.188
20
-113.17
11
182.346
21
-113.19
0
LINE
8
BLACK
6
CONTINUOUS
10
182.346
20
-113.19
11
182.494
21
-113.248
0
LINE
8
BLACK
6
CONTINUOUS
10
182.494
20
-113.248
11
182.623
21
-113.339
0
LINE
8
BLACK
6
CONTINUOUS
10
182.623
20
-113.339
11
182.728
21
-113.459
0
LINE
8
BLACK
6
CONTINUOUS
10
182.728
20
-113.459
11
182.8
21
-113.6
0
LINE
8
BLACK
6
CONTINUOUS
10
182.8
20
-113.6
11
182.838
21
-113.754
0
LINE
8
BLACK
6
CONTINUOUS
10
182.838
20
-113.754
11
182.837
21
-113.913
0
LINE
8
BLACK
6
CONTINUOUS
10
182.837
20
-113.913
11
182.798
21
-114.067
0
LINE
8
BLACK
6
CONTINUOUS
10
182.798
20
-114.067
11
182.724
21
-114.207
0
LINE
8
BLACK
6
CONTINUOUS
10
182.724
20
-114.207
11
182.618
21
-114.325
0
LINE
8
BLACK
6
CONTINUOUS
10
182.618
20
-114.325
11
182.487
21
-114.415
0
LINE
8
BLACK
6
CONTINUOUS
10
182.487
20
-114.415
11
182.339
21
-114.471
0
LINE
8
BLACK
6
CONTINUOUS
10
182.339
20
-114.471
11
182.181
21
-114.49
0
LINE
8
BLACK
6
CONTINUOUS
10
182.181
20
-114.49
11
180.861
21
-114.49
0
LINE
8
BLACK
6
CONTINUOUS
10
180.861
20
-114.49
11
180.854
21
-114.49
0
LINE
8
BLACK
6
CONTINUOUS
10
180.854
20
-114.49
11
180.696
21
-114.47
0
LINE
8
BLACK
6
CONTINUOUS
10
180.696
20
-114.47
11
180.549
21
-114.412
0
LINE
8
BLACK
6
CONTINUOUS
10
180.549
20
-114.412
11
180.419
21
-114.321
0
LINE
8
BLACK
6
CONTINUOUS
10
180.419
20
-114.321
11
180.314
21
-114.201
0
LINE
8
BLACK
6
CONTINUOUS
10
180.314
20
-114.201
11
180.242
21
-114.06
0
LINE
8
BLACK
6
CONTINUOUS
10
180.242
20
-114.06
11
180.235
21
-114.033
0
LINE
8
BLACK
6
CONTINUOUS
10
180.235
20
-114.033
11
161.074
21
-114.033
0
LINE
8
BLACK
6
CONTINUOUS
10
161.074
20
-114.033
11
161.041
21
-114.026
0
LINE
8
BLACK
6
CONTINUOUS
10
161.041
20
-114.026
11
161.007
21
-114.022
0
LINE
8
BLACK
6
CONTINUOUS
10
161.007
20
-114.022
11
160.997
21
-114.016
0
LINE
8
BLACK
6
CONTINUOUS
10
160.997
20
-114.016
11
160.986
21
-114.013
0
LINE
8
BLACK
6
CONTINUOUS
10
160.986
20
-114.013
11
160.959
21
-113.992
0
LINE
8
BLACK
6
CONTINUOUS
10
160.959
20
-113.992
11
160.93
21
-113.974
0
LINE
8
BLACK
6
CONTINUOUS
10
160.93
20
-113.974
11
154.547
21
-107.591
0
LINE
8
BLACK
6
CONTINUOUS
10
154.547
20
-107.591
11
154.529
21
-107.562
0
LINE
8
BLACK
6
CONTINUOUS
10
154.529
20
-107.562
11
154.508
21
-107.535
0
LINE
8
BLACK
6
CONTINUOUS
10
154.508
20
-107.535
11
154.505
21
-107.524
0
LINE
8
BLACK
6
CONTINUOUS
10
154.505
20
-107.524
11
154.499
21
-107.514
0
LINE
8
BLACK
6
CONTINUOUS
10
154.499
20
-107.514
11
154.495
21
-107.48
0
LINE
8
BLACK
6
CONTINUOUS
10
154.495
20
-107.48
11
154.488
21
-107.447
0
LINE
8
BLACK
6
CONTINUOUS
10
154.488
20
-107.447
11
154.488
21
-105.12
0
LINE
8
BLACK
6
CONTINUOUS
10
154.488
20
-105.12
11
154.341
21
-105.051
0
LINE
8
BLACK
6
CONTINUOUS
10
154.341
20
-105.051
11
154.214
21
-104.946
0
LINE
8
BLACK
6
CONTINUOUS
10
154.214
20
-104.946
11
154.118
21
-104.814
0
LINE
8
BLACK
6
CONTINUOUS
10
154.118
20
-104.814
11
154.058
21
-104.661
0
LINE
8
BLACK
6
CONTINUOUS
10
154.058
20
-104.661
11
154.037
21
-104.499
0
LINE
8
BLACK
6
CONTINUOUS
10
154.037
20
-104.499
11
154.037
21
-103.191
0
LINE
8
BLACK
6
CONTINUOUS
10
154.037
20
-103.191
11
154.042
21
-103.109
0
LINE
8
BLACK
6
CONTINUOUS
10
154.042
20
-103.109
11
154.083
21
-102.95
0
LINE
8
BLACK
6
CONTINUOUS
10
154.083
20
-102.95
11
154.162
21
-102.806
0
LINE
8
BLACK
6
CONTINUOUS
10
154.162
20
-102.806
11
154.274
21
-102.687
0
LINE
8
BLACK
6
CONTINUOUS
10
154.274
20
-102.687
11
154.413
21
-102.599
0
LINE
8
BLACK
6
CONTINUOUS
10
154.413
20
-102.599
11
154.569
21
-102.548
0
LINE
8
BLACK
6
CONTINUOUS
10
154.569
20
-102.548
11
154.732
21
-102.538
0
LINE
8
BLACK
6
CONTINUOUS
10
154.732
20
-102.538
11
154.893
21
-102.569
0
LINE
8
BLACK
6
CONTINUOUS
10
182.188
20
-110.63
11
182.346
21
-110.65
0
LINE
8
BLACK
6
CONTINUOUS
10
182.346
20
-110.65
11
182.494
21
-110.708
0
LINE
8
BLACK
6
CONTINUOUS
10
182.494
20
-110.708
11
182.623
21
-110.799
0
LINE
8
BLACK
6
CONTINUOUS
10
182.623
20
-110.799
11
182.728
21
-110.919
0
LINE
8
BLACK
6
CONTINUOUS
10
182.728
20
-110.919
11
182.8
21
-111.06
0
LINE
8
BLACK
6
CONTINUOUS
10
182.8
20
-111.06
11
182.838
21
-111.214
0
LINE
8
BLACK
6
CONTINUOUS
10
182.838
20
-111.214
11
182.837
21
-111.373
0
LINE
8
BLACK
6
CONTINUOUS
10
182.837
20
-111.373
11
182.798
21
-111.527
0
LINE
8
BLACK
6
CONTINUOUS
10
182.798
20
-111.527
11
182.724
21
-111.667
0
LINE
8
BLACK
6
CONTINUOUS
10
182.724
20
-111.667
11
182.618
21
-111.785
0
LINE
8
BLACK
6
CONTINUOUS
10
182.618
20
-111.785
11
182.487
21
-111.875
0
LINE
8
BLACK
6
CONTINUOUS
10
182.487
20
-111.875
11
182.339
21
-111.931
0
LINE
8
BLACK
6
CONTINUOUS
10
182.339
20
-111.931
11
182.181
21
-111.95
0
LINE
8
BLACK
6
CONTINUOUS
10
182.181
20
-111.95
11
180.861
21
-111.95
0
LINE
8
BLACK
6
CONTINUOUS
10
180.861
20
-111.95
11
180.854
21
-111.95
0
LINE
8
BLACK
6
CONTINUOUS
10
180.854
20
-111.95
11
180.696
21
-111.93
0
LINE
8
BLACK
6
CONTINUOUS
10
180.696
20
-111.93
11
180.549
21
-111.872
0
LINE
8
BLACK
6
CONTINUOUS
10
180.549
20
-111.872
11
180.419
21
-111.781
0
LINE
8
BLACK
6
CONTINUOUS
10
180.419
20
-111.781
11
180.314
21
-111.661
0
LINE
8
BLACK
6
CONTINUOUS
10
180.314
20
-111.661
11
180.242
21
-111.52
0
LINE
8
BLACK
6
CONTINUOUS
10
180.242
20
-111.52
11
180.205
21
-111.366
0
LINE
8
BLACK
6
CONTINUOUS
10
180.205
20
-111.366
11
180.206
21
-111.207
0
LINE
8
BLACK
6
CONTINUOUS
10
180.206
20
-111.207
11
180.244
21
-111.053
0
LINE
8
BLACK
6
CONTINUOUS
10
180.244
20
-111.053
11
180.318
21
-110.913
0
LINE
8
BLACK
6
CONTINUOUS
10
180.318
20
-110.913
11
180.424
21
-110.795
0
LINE
8
BLACK
6
CONTINUOUS
10
180.424
20
-110.795
11
180.555
21
-110.705
0
LINE
8
BLACK
6
CONTINUOUS
10
180.555
20
-110.705
11
180.703
21
-110.649
0
LINE
8
BLACK
6
CONTINUOUS
10
180.703
20
-110.649
11
180.861
21
-110.63
0
LINE
8
BLACK
6
CONTINUOUS
10
180.861
20
-110.63
11
182.181
21
-110.63
0
LINE
8
BLACK
6
CONTINUOUS
10
182.181
20
-110.63
11
182.188
21
-110.63
0
LINE
8
BLACK
6
CONTINUOUS
10
152.893
20
-102.569
11
153.042
21
-102.638
0
LINE
8
BLACK
6
CONTINUOUS
10
153.042
20
-102.638
11
153.168
21
-102.743
0
LINE
8
BLACK
6
CONTINUOUS
10
153.168
20
-102.743
11
153.264
21
-102.876
0
LINE
8
BLACK
6
CONTINUOUS
10
153.264
20
-102.876
11
153.325
21
-103.028
0
LINE
8
BLACK
6
CONTINUOUS
10
153.325
20
-103.028
11
153.345
21
-103.191
0
LINE
8
BLACK
6
CONTINUOUS
10
153.345
20
-103.191
11
153.345
21
-104.499
0
LINE
8
BLACK
6
CONTINUOUS
10
153.345
20
-104.499
11
153.34
21
-104.581
0
LINE
8
BLACK
6
CONTINUOUS
10
153.34
20
-104.581
11
153.299
21
-104.739
0
LINE
8
BLACK
6
CONTINUOUS
10
153.299
20
-104.739
11
153.22
21
-104.883
0
LINE
8
BLACK
6
CONTINUOUS
10
153.22
20
-104.883
11
153.108
21
-105.003
0
LINE
8
BLACK
6
CONTINUOUS
10
153.108
20
-105.003
11
152.97
21
-105.09
0
LINE
8
BLACK
6
CONTINUOUS
10
152.97
20
-105.09
11
152.894
21
-105.115
0
LINE
8
BLACK
6
CONTINUOUS
10
152.894
20
-105.115
11
152.894
21
-109.173
0
LINE
8
BLACK
6
CONTINUOUS
10
152.894
20
-109.173
11
154.672
21
-110.95
0
LINE
8
BLACK
6
CONTINUOUS
10
154.672
20
-110.95
11
154.783
21
-110.919
0
LINE
8
BLACK
6
CONTINUOUS
10
154.783
20
-110.919
11
154.925
21
-110.919
0
LINE
8
BLACK
6
CONTINUOUS
10
154.925
20
-110.919
11
155.062
21
-110.96
0
LINE
8
BLACK
6
CONTINUOUS
10
155.062
20
-110.96
11
155.182
21
-111.038
0
LINE
8
BLACK
6
CONTINUOUS
10
155.182
20
-111.038
11
155.275
21
-111.146
0
LINE
8
BLACK
6
CONTINUOUS
10
155.275
20
-111.146
11
155.334
21
-111.276
0
LINE
8
BLACK
6
CONTINUOUS
10
155.334
20
-111.276
11
155.354
21
-111.417
0
LINE
8
BLACK
6
CONTINUOUS
10
155.354
20
-111.417
11
155.354
21
-111.429
0
LINE
8
BLACK
6
CONTINUOUS
10
155.354
20
-111.429
11
155.33
21
-111.57
0
LINE
8
BLACK
6
CONTINUOUS
10
155.33
20
-111.57
11
155.268
21
-111.698
0
LINE
8
BLACK
6
CONTINUOUS
10
155.268
20
-111.698
11
155.173
21
-111.804
0
LINE
8
BLACK
6
CONTINUOUS
10
155.173
20
-111.804
11
155.051
21
-111.879
0
LINE
8
BLACK
6
CONTINUOUS
10
155.051
20
-111.879
11
154.913
21
-111.916
0
LINE
8
BLACK
6
CONTINUOUS
10
154.913
20
-111.916
11
154.771
21
-111.914
0
LINE
8
BLACK
6
CONTINUOUS
10
154.771
20
-111.914
11
154.634
21
-111.871
0
LINE
8
BLACK
6
CONTINUOUS
10
154.634
20
-111.871
11
154.516
21
-111.792
0
LINE
8
BLACK
6
CONTINUOUS
10
154.516
20
-111.792
11
154.424
21
-111.683
0
LINE
8
BLACK
6
CONTINUOUS
10
154.424
20
-111.683
11
154.366
21
-111.552
0
LINE
8
BLACK
6
CONTINUOUS
10
154.366
20
-111.552
11
154.348
21
-111.411
0
LINE
8
BLACK
6
CONTINUOUS
10
154.348
20
-111.411
11
154.37
21
-111.27
0
LINE
8
BLACK
6
CONTINUOUS
10
154.37
20
-111.27
11
154.385
21
-111.238
0
LINE
8
BLACK
6
CONTINUOUS
10
154.385
20
-111.238
11
152.547
21
-109.401
0
LINE
8
BLACK
6
CONTINUOUS
10
152.547
20
-109.401
11
152.529
21
-109.372
0
LINE
8
BLACK
6
CONTINUOUS
10
152.529
20
-109.372
11
152.508
21
-109.345
0
LINE
8
BLACK
6
CONTINUOUS
10
152.508
20
-109.345
11
152.505
21
-109.334
0
LINE
8
BLACK
6
CONTINUOUS
10
152.505
20
-109.334
11
152.499
21
-109.324
0
LINE
8
BLACK
6
CONTINUOUS
10
152.499
20
-109.324
11
152.495
21
-109.29
0
LINE
8
BLACK
6
CONTINUOUS
10
152.495
20
-109.29
11
152.488
21
-109.257
0
LINE
8
BLACK
6
CONTINUOUS
10
152.488
20
-109.257
11
152.488
21
-105.12
0
LINE
8
BLACK
6
CONTINUOUS
10
152.488
20
-105.12
11
152.341
21
-105.051
0
LINE
8
BLACK
6
CONTINUOUS
10
152.341
20
-105.051
11
152.214
21
-104.946
0
LINE
8
BLACK
6
CONTINUOUS
10
152.214
20
-104.946
11
152.118
21
-104.814
0
LINE
8
BLACK
6
CONTINUOUS
10
152.118
20
-104.814
11
152.058
21
-104.661
0
LINE
8
BLACK
6
CONTINUOUS
10
152.058
20
-104.661
11
152.037
21
-104.499
0
LINE
8
BLACK
6
CONTINUOUS
10
152.037
20
-104.499
11
152.037
21
-103.191
0
LINE
8
BLACK
6
CONTINUOUS
10
152.037
20
-103.191
11
152.042
21
-103.109
0
LINE
8
BLACK
6
CONTINUOUS
10
152.042
20
-103.109
11
152.083
21
-102.95
0
LINE
8
BLACK
6
CONTINUOUS
10
152.083
20
-102.95
11
152.162
21
-102.806
0
LINE
8
BLACK
6
CONTINUOUS
10
152.162
20
-102.806
11
152.274
21
-102.687
0
LINE
8
BLACK
6
CONTINUOUS
10
152.274
20
-102.687
11
152.413
21
-102.599
0
LINE
8
BLACK
6
CONTINUOUS
10
152.413
20
-102.599
11
152.569
21
-102.548
0
LINE
8
BLACK
6
CONTINUOUS
10
152.569
20
-102.548
11
152.732
21
-102.538
0
LINE
8
BLACK
6
CONTINUOUS
10
152.732
20
-102.538
11
152.893
21
-102.569
0
LINE
8
BLACK
6
CONTINUOUS
10
182.188
20
-108.09
11
182.346
21
-108.11
0
LINE
8
BLACK
6
CONTINUOUS
10
182.346
20
-108.11
11
182.494
21
-108.168
0
LINE
8
BLACK
6
CONTINUOUS
10
182.494
20
-108.168
11
182.623
21
-108.259
0
LINE
8
BLACK
6
CONTINUOUS
10
182.623
20
-108.259
11
182.728
21
-108.379
0
LINE
8
BLACK
6
CONTINUOUS
10
182.728
20
-108.379
11
182.8
21
-108.52
0
LINE
8
BLACK
6
CONTINUOUS
10
182.8
20
-108.52
11
182.838
21
-108.674
0
LINE
8
BLACK
6
CONTINUOUS
10
182.838
20
-108.674
11
182.837
21
-108.833
0
LINE
8
BLACK
6
CONTINUOUS
10
182.837
20
-108.833
11
182.798
21
-108.987
0
LINE
8
BLACK
6
CONTINUOUS
10
182.798
20
-108.987
11
182.724
21
-109.127
0
LINE
8
BLACK
6
CONTINUOUS
10
182.724
20
-109.127
11
182.618
21
-109.245
0
LINE
8
BLACK
6
CONTINUOUS
10
182.618
20
-109.245
11
182.487
21
-109.335
0
LINE
8
BLACK
6
CONTINUOUS
10
182.487
20
-109.335
11
182.339
21
-109.391
0
LINE
8
BLACK
6
CONTINUOUS
10
182.339
20
-109.391
11
182.181
21
-109.41
0
LINE
8
BLACK
6
CONTINUOUS
10
182.181
20
-109.41
11
180.861
21
-109.41
0
LINE
8
BLACK
6
CONTINUOUS
10
180.861
20
-109.41
11
180.854
21
-109.41
0
LINE
8
BLACK
6
CONTINUOUS
10
180.854
20
-109.41
11
180.696
21
-109.39
0
LINE
8
BLACK
6
CONTINUOUS
10
180.696
20
-109.39
11
180.549
21
-109.332
0
LINE
8
BLACK
6
CONTINUOUS
10
180.549
20
-109.332
11
180.419
21
-109.241
0
LINE
8
BLACK
6
CONTINUOUS
10
180.419
20
-109.241
11
180.314
21
-109.121
0
LINE
8
BLACK
6
CONTINUOUS
10
180.314
20
-109.121
11
180.242
21
-108.98
0
LINE
8
BLACK
6
CONTINUOUS
10
180.242
20
-108.98
11
180.205
21
-108.826
0
LINE
8
BLACK
6
CONTINUOUS
10
180.205
20
-108.826
11
180.206
21
-108.667
0
LINE
8
BLACK
6
CONTINUOUS
10
180.206
20
-108.667
11
180.244
21
-108.513
0
LINE
8
BLACK
6
CONTINUOUS
10
180.244
20
-108.513
11
180.318
21
-108.373
0
LINE
8
BLACK
6
CONTINUOUS
10
180.318
20
-108.373
11
180.424
21
-108.255
0
LINE
8
BLACK
6
CONTINUOUS
10
180.424
20
-108.255
11
180.555
21
-108.165
0
LINE
8
BLACK
6
CONTINUOUS
10
180.555
20
-108.165
11
180.703
21
-108.109
0
LINE
8
BLACK
6
CONTINUOUS
10
180.703
20
-108.109
11
180.861
21
-108.09
0
LINE
8
BLACK
6
CONTINUOUS
10
180.861
20
-108.09
11
182.181
21
-108.09
0
LINE
8
BLACK
6
CONTINUOUS
10
182.181
20
-108.09
11
182.188
21
-108.09
0
LINE
8
BLACK
6
CONTINUOUS
10
146.893
20
-102.569
11
147.042
21
-102.638
0
LINE
8
BLACK
6
CONTINUOUS
10
147.042
20
-102.638
11
147.168
21
-102.743
0
LINE
8
BLACK
6
CONTINUOUS
10
147.168
20
-102.743
11
147.264
21
-102.876
0
LINE
8
BLACK
6
CONTINUOUS
10
147.264
20
-102.876
11
147.325
21
-103.028
0
LINE
8
BLACK
6
CONTINUOUS
10
147.325
20
-103.028
11
147.345
21
-103.191
0
LINE
8
BLACK
6
CONTINUOUS
10
147.345
20
-103.191
11
147.345
21
-104.499
0
LINE
8
BLACK
6
CONTINUOUS
10
147.345
20
-104.499
11
147.34
21
-104.581
0
LINE
8
BLACK
6
CONTINUOUS
10
147.34
20
-104.581
11
147.299
21
-104.739
0
LINE
8
BLACK
6
CONTINUOUS
10
147.299
20
-104.739
11
147.22
21
-104.883
0
LINE
8
BLACK
6
CONTINUOUS
10
147.22
20
-104.883
11
147.108
21
-105.003
0
LINE
8
BLACK
6
CONTINUOUS
10
147.108
20
-105.003
11
146.97
21
-105.09
0
LINE
8
BLACK
6
CONTINUOUS
10
146.97
20
-105.09
11
146.894
21
-105.115
0
LINE
8
BLACK
6
CONTINUOUS
10
146.894
20
-105.115
11
146.894
21
-105.713
0
LINE
8
BLACK
6
CONTINUOUS
10
146.894
20
-105.713
11
147.375
21
-106.194
0
LINE
8
BLACK
6
CONTINUOUS
10
147.375
20
-106.194
11
147.393
21
-106.222
0
LINE
8
BLACK
6
CONTINUOUS
10
147.393
20
-106.222
11
147.414
21
-106.249
0
LINE
8
BLACK
6
CONTINUOUS
10
147.414
20
-106.249
11
147.417
21
-106.26
0
LINE
8
BLACK
6
CONTINUOUS
10
147.417
20
-106.26
11
147.423
21
-106.27
0
LINE
8
BLACK
6
CONTINUOUS
10
147.423
20
-106.27
11
147.427
21
-106.304
0
LINE
8
BLACK
6
CONTINUOUS
10
147.427
20
-106.304
11
147.434
21
-106.337
0
LINE
8
BLACK
6
CONTINUOUS
10
147.434
20
-106.337
11
147.434
21
-108.418
0
LINE
8
BLACK
6
CONTINUOUS
10
147.434
20
-108.418
11
147.442
21
-108.42
0
LINE
8
BLACK
6
CONTINUOUS
10
147.442
20
-108.42
11
147.562
21
-108.498
0
LINE
8
BLACK
6
CONTINUOUS
10
147.562
20
-108.498
11
147.655
21
-108.606
0
LINE
8
BLACK
6
CONTINUOUS
10
147.655
20
-108.606
11
147.714
21
-108.736
0
LINE
8
BLACK
6
CONTINUOUS
10
147.714
20
-108.736
11
147.734
21
-108.877
0
LINE
8
BLACK
6
CONTINUOUS
10
147.734
20
-108.877
11
147.734
21
-108.889
0
LINE
8
BLACK
6
CONTINUOUS
10
147.734
20
-108.889
11
147.71
21
-109.03
0
LINE
8
BLACK
6
CONTINUOUS
10
147.71
20
-109.03
11
147.648
21
-109.158
0
LINE
8
BLACK
6
CONTINUOUS
10
147.648
20
-109.158
11
147.553
21
-109.264
0
LINE
8
BLACK
6
CONTINUOUS
10
147.553
20
-109.264
11
147.431
21
-109.339
0
LINE
8
BLACK
6
CONTINUOUS
10
147.431
20
-109.339
11
147.293
21
-109.376
0
LINE
8
BLACK
6
CONTINUOUS
10
147.293
20
-109.376
11
147.151
21
-109.374
0
LINE
8
BLACK
6
CONTINUOUS
10
147.151
20
-109.374
11
147.014
21
-109.331
0
LINE
8
BLACK
6
CONTINUOUS
10
147.014
20
-109.331
11
146.896
21
-109.252
0
LINE
8
BLACK
6
CONTINUOUS
10
146.896
20
-109.252
11
146.804
21
-109.143
0
LINE
8
BLACK
6
CONTINUOUS
10
146.804
20
-109.143
11
146.746
21
-109.012
0
LINE
8
BLACK
6
CONTINUOUS
10
146.746
20
-109.012
11
146.728
21
-108.871
0
LINE
8
BLACK
6
CONTINUOUS
10
146.728
20
-108.871
11
146.75
21
-108.73
0
LINE
8
BLACK
6
CONTINUOUS
10
146.75
20
-108.73
11
146.811
21
-108.601
0
LINE
8
BLACK
6
CONTINUOUS
10
146.811
20
-108.601
11
146.905
21
-108.494
0
LINE
8
BLACK
6
CONTINUOUS
10
146.905
20
-108.494
11
147.026
21
-108.418
0
LINE
8
BLACK
6
CONTINUOUS
10
147.026
20
-108.418
11
147.028
21
-108.417
0
LINE
8
BLACK
6
CONTINUOUS
10
147.028
20
-108.417
11
147.028
21
-106.421
0
LINE
8
BLACK
6
CONTINUOUS
10
147.028
20
-106.421
11
146.547
21
-105.941
0
LINE
8
BLACK
6
CONTINUOUS
10
146.547
20
-105.941
11
146.529
21
-105.912
0
LINE
8
BLACK
6
CONTINUOUS
10
146.529
20
-105.912
11
146.508
21
-105.885
0
LINE
8
BLACK
6
CONTINUOUS
10
146.508
20
-105.885
11
146.505
21
-105.874
0
LINE
8
BLACK
6
CONTINUOUS
10
146.505
20
-105.874
11
146.499
21
-105.864
0
LINE
8
BLACK
6
CONTINUOUS
10
146.499
20
-105.864
11
146.495
21
-105.83
0
LINE
8
BLACK
6
CONTINUOUS
10
146.495
20
-105.83
11
146.488
21
-105.797
0
LINE
8
BLACK
6
CONTINUOUS
10
146.488
20
-105.797
11
146.488
21
-105.12
0
LINE
8
BLACK
6
CONTINUOUS
10
146.488
20
-105.12
11
146.341
21
-105.051
0
LINE
8
BLACK
6
CONTINUOUS
10
146.341
20
-105.051
11
146.214
21
-104.946
0
LINE
8
BLACK
6
CONTINUOUS
10
146.214
20
-104.946
11
146.118
21
-104.814
0
LINE
8
BLACK
6
CONTINUOUS
10
146.118
20
-104.814
11
146.058
21
-104.661
0
LINE
8
BLACK
6
CONTINUOUS
10
146.058
20
-104.661
11
146.037
21
-104.499
0
LINE
8
BLACK
6
CONTINUOUS
10
146.037
20
-104.499
11
146.037
21
-103.191
0
LINE
8
BLACK
6
CONTINUOUS
10
146.037
20
-103.191
11
146.042
21
-103.109
0
LINE
8
BLACK
6
CONTINUOUS
10
146.042
20
-103.109
11
146.083
21
-102.95
0
LINE
8
BLACK
6
CONTINUOUS
10
146.083
20
-102.95
11
146.162
21
-102.806
0
LINE
8
BLACK
6
CONTINUOUS
10
146.162
20
-102.806
11
146.274
21
-102.687
0
LINE
8
BLACK
6
CONTINUOUS
10
146.274
20
-102.687
11
146.413
21
-102.599
0
LINE
8
BLACK
6
CONTINUOUS
10
146.413
20
-102.599
11
146.569
21
-102.548
0
LINE
8
BLACK
6
CONTINUOUS
10
146.569
20
-102.548
11
146.732
21
-102.538
0
LINE
8
BLACK
6
CONTINUOUS
10
146.732
20
-102.538
11
146.893
21
-102.569
0
LINE
8
BLACK
6
CONTINUOUS
10
144.893
20
-102.569
11
145.042
21
-102.638
0
LINE
8
BLACK
6
CONTINUOUS
10
145.042
20
-102.638
11
145.168
21
-102.743
0
LINE
8
BLACK
6
CONTINUOUS
10
145.168
20
-102.743
11
145.264
21
-102.876
0
LINE
8
BLACK
6
CONTINUOUS
10
145.264
20
-102.876
11
145.325
21
-103.028
0
LINE
8
BLACK
6
CONTINUOUS
10
145.325
20
-103.028
11
145.345
21
-103.191
0
LINE
8
BLACK
6
CONTINUOUS
10
145.345
20
-103.191
11
145.345
21
-104.499
0
LINE
8
BLACK
6
CONTINUOUS
10
145.345
20
-104.499
11
145.34
21
-104.581
0
LINE
8
BLACK
6
CONTINUOUS
10
145.34
20
-104.581
11
145.299
21
-104.739
0
LINE
8
BLACK
6
CONTINUOUS
10
145.299
20
-104.739
11
145.22
21
-104.883
0
LINE
8
BLACK
6
CONTINUOUS
10
145.22
20
-104.883
11
145.108
21
-105.003
0
LINE
8
BLACK
6
CONTINUOUS
10
145.108
20
-105.003
11
144.97
21
-105.09
0
LINE
8
BLACK
6
CONTINUOUS
10
144.97
20
-105.09
11
144.894
21
-105.115
0
LINE
8
BLACK
6
CONTINUOUS
10
144.894
20
-105.115
11
144.894
21
-106.253
0
LINE
8
BLACK
6
CONTINUOUS
10
144.894
20
-106.253
11
145.782
21
-107.14
0
LINE
8
BLACK
6
CONTINUOUS
10
145.782
20
-107.14
11
145.893
21
-107.109
0
LINE
8
BLACK
6
CONTINUOUS
10
145.893
20
-107.109
11
146.035
21
-107.109
0
LINE
8
BLACK
6
CONTINUOUS
10
146.035
20
-107.109
11
146.172
21
-107.15
0
LINE
8
BLACK
6
CONTINUOUS
10
146.172
20
-107.15
11
146.292
21
-107.228
0
LINE
8
BLACK
6
CONTINUOUS
10
146.292
20
-107.228
11
146.385
21
-107.336
0
LINE
8
BLACK
6
CONTINUOUS
10
146.385
20
-107.336
11
146.444
21
-107.466
0
LINE
8
BLACK
6
CONTINUOUS
10
146.444
20
-107.466
11
146.464
21
-107.607
0
LINE
8
BLACK
6
CONTINUOUS
10
146.464
20
-107.607
11
146.464
21
-107.619
0
LINE
8
BLACK
6
CONTINUOUS
10
146.464
20
-107.619
11
146.44
21
-107.76
0
LINE
8
BLACK
6
CONTINUOUS
10
146.44
20
-107.76
11
146.378
21
-107.888
0
LINE
8
BLACK
6
CONTINUOUS
10
146.378
20
-107.888
11
146.283
21
-107.994
0
LINE
8
BLACK
6
CONTINUOUS
10
146.283
20
-107.994
11
146.161
21
-108.069
0
LINE
8
BLACK
6
CONTINUOUS
10
146.161
20
-108.069
11
146.023
21
-108.106
0
LINE
8
BLACK
6
CONTINUOUS
10
146.023
20
-108.106
11
145.881
21
-108.104
0
LINE
8
BLACK
6
CONTINUOUS
10
145.881
20
-108.104
11
145.744
21
-108.061
0
LINE
8
BLACK
6
CONTINUOUS
10
145.744
20
-108.061
11
145.626
21
-107.982
0
LINE
8
BLACK
6
CONTINUOUS
10
145.626
20
-107.982
11
145.534
21
-107.873
0
LINE
8
BLACK
6
CONTINUOUS
10
145.534
20
-107.873
11
145.476
21
-107.742
0
LINE
8
BLACK
6
CONTINUOUS
10
145.476
20
-107.742
11
145.458
21
-107.601
0
LINE
8
BLACK
6
CONTINUOUS
10
145.458
20
-107.601
11
145.48
21
-107.46
0
LINE
8
BLACK
6
CONTINUOUS
10
145.48
20
-107.46
11
145.495
21
-107.428
0
LINE
8
BLACK
6
CONTINUOUS
10
145.495
20
-107.428
11
144.547
21
-106.481
0
LINE
8
BLACK
6
CONTINUOUS
10
144.547
20
-106.481
11
144.529
21
-106.452
0
LINE
8
BLACK
6
CONTINUOUS
10
144.529
20
-106.452
11
144.508
21
-106.425
0
LINE
8
BLACK
6
CONTINUOUS
10
144.508
20
-106.425
11
144.505
21
-106.414
0
LINE
8
BLACK
6
CONTINUOUS
10
144.505
20
-106.414
11
144.499
21
-106.404
0
LINE
8
BLACK
6
CONTINUOUS
10
144.499
20
-106.404
11
144.495
21
-106.37
0
LINE
8
BLACK
6
CONTINUOUS
10
144.495
20
-106.37
11
144.488
21
-106.337
0
LINE
8
BLACK
6
CONTINUOUS
10
144.488
20
-106.337
11
144.488
21
-105.12
0
LINE
8
BLACK
6
CONTINUOUS
10
144.488
20
-105.12
11
144.341
21
-105.051
0
LINE
8
BLACK
6
CONTINUOUS
10
144.341
20
-105.051
11
144.214
21
-104.946
0
LINE
8
BLACK
6
CONTINUOUS
10
144.214
20
-104.946
11
144.118
21
-104.814
0
LINE
8
BLACK
6
CONTINUOUS
10
144.118
20
-104.814
11
144.058
21
-104.661
0
LINE
8
BLACK
6
CONTINUOUS
10
144.058
20
-104.661
11
144.037
21
-104.499
0
LINE
8
BLACK
6
CONTINUOUS
10
144.037
20
-104.499
11
144.037
21
-103.191
0
LINE
8
BLACK
6
CONTINUOUS
10
144.037
20
-103.191
11
144.042
21
-103.109
0
LINE
8
BLACK
6
CONTINUOUS
10
144.042
20
-103.109
11
144.083
21
-102.95
0
LINE
8
BLACK
6
CONTINUOUS
10
144.083
20
-102.95
11
144.162
21
-102.806
0
LINE
8
BLACK
6
CONTINUOUS
10
144.162
20
-102.806
11
144.274
21
-102.687
0
LINE
8
BLACK
6
CONTINUOUS
10
144.274
20
-102.687
11
144.413
21
-102.599
0
LINE
8
BLACK
6
CONTINUOUS
10
144.413
20
-102.599
11
144.569
21
-102.548
0
LINE
8
BLACK
6
CONTINUOUS
10
144.569
20
-102.548
11
144.732
21
-102.538
0
LINE
8
BLACK
6
CONTINUOUS
10
144.732
20
-102.538
11
144.893
21
-102.569
0
LINE
8
BLACK
6
CONTINUOUS
10
182.188
20
-105.55
11
182.346
21
-105.57
0
LINE
8
BLACK
6
CONTINUOUS
10
182.346
20
-105.57
11
182.494
21
-105.628
0
LINE
8
BLACK
6
CONTINUOUS
10
182.494
20
-105.628
11
182.623
21
-105.719
0
LINE
8
BLACK
6
CONTINUOUS
10
182.623
20
-105.719
11
182.728
21
-105.839
0
LINE
8
BLACK
6
CONTINUOUS
10
182.728
20
-105.839
11
182.8
21
-105.98
0
LINE
8
BLACK
6
CONTINUOUS
10
182.8
20
-105.98
11
182.838
21
-106.134
0
LINE
8
BLACK
6
CONTINUOUS
10
182.838
20
-106.134
11
182.837
21
-106.293
0
LINE
8
BLACK
6
CONTINUOUS
10
182.837
20
-106.293
11
182.798
21
-106.447
0
LINE
8
BLACK
6
CONTINUOUS
10
182.798
20
-106.447
11
182.724
21
-106.587
0
LINE
8
BLACK
6
CONTINUOUS
10
182.724
20
-106.587
11
182.618
21
-106.705
0
LINE
8
BLACK
6
CONTINUOUS
10
182.618
20
-106.705
11
182.487
21
-106.795
0
LINE
8
BLACK
6
CONTINUOUS
10
182.487
20
-106.795
11
182.339
21
-106.851
0
LINE
8
BLACK
6
CONTINUOUS
10
182.339
20
-106.851
11
182.181
21
-106.87
0
LINE
8
BLACK
6
CONTINUOUS
10
182.181
20
-106.87
11
180.861
21
-106.87
0
LINE
8
BLACK
6
CONTINUOUS
10
180.861
20
-106.87
11
180.854
21
-106.87
0
LINE
8
BLACK
6
CONTINUOUS
10
180.854
20
-106.87
11
180.696
21
-106.85
0
LINE
8
BLACK
6
CONTINUOUS
10
180.696
20
-106.85
11
180.549
21
-106.792
0
LINE
8
BLACK
6
CONTINUOUS
10
180.549
20
-106.792
11
180.419
21
-106.701
0
LINE
8
BLACK
6
CONTINUOUS
10
180.419
20
-106.701
11
180.314
21
-106.581
0
LINE
8
BLACK
6
CONTINUOUS
10
180.314
20
-106.581
11
180.242
21
-106.44
0
LINE
8
BLACK
6
CONTINUOUS
10
180.242
20
-106.44
11
180.205
21
-106.286
0
LINE
8
BLACK
6
CONTINUOUS
10
180.205
20
-106.286
11
180.206
21
-106.127
0
LINE
8
BLACK
6
CONTINUOUS
10
180.206
20
-106.127
11
180.244
21
-105.973
0
LINE
8
BLACK
6
CONTINUOUS
10
180.244
20
-105.973
11
180.318
21
-105.833
0
LINE
8
BLACK
6
CONTINUOUS
10
180.318
20
-105.833
11
180.424
21
-105.715
0
LINE
8
BLACK
6
CONTINUOUS
10
180.424
20
-105.715
11
180.555
21
-105.625
0
LINE
8
BLACK
6
CONTINUOUS
10
180.555
20
-105.625
11
180.703
21
-105.569
0
LINE
8
BLACK
6
CONTINUOUS
10
180.703
20
-105.569
11
180.861
21
-105.55
0
LINE
8
BLACK
6
CONTINUOUS
10
180.861
20
-105.55
11
182.181
21
-105.55
0
LINE
8
BLACK
6
CONTINUOUS
10
182.181
20
-105.55
11
182.188
21
-105.55
0
LINE
8
BLACK
6
CONTINUOUS
10
182.188
20
-97.9297
11
182.346
21
-97.9504
0
LINE
8
BLACK
6
CONTINUOUS
10
182.346
20
-97.9504
11
182.494
21
-98.0081
0
LINE
8
BLACK
6
CONTINUOUS
10
182.494
20
-98.0081
11
182.623
21
-98.0993
0
LINE
8
BLACK
6
CONTINUOUS
10
182.623
20
-98.0993
11
182.728
21
-98.2189
0
LINE
8
BLACK
6
CONTINUOUS
10
182.728
20
-98.2189
11
182.8
21
-98.3599
0
LINE
8
BLACK
6
CONTINUOUS
10
182.8
20
-98.3599
11
182.838
21
-98.5142
0
LINE
8
BLACK
6
CONTINUOUS
10
182.838
20
-98.5142
11
182.837
21
-98.6729
0
LINE
8
BLACK
6
CONTINUOUS
10
182.837
20
-98.6729
11
182.798
21
-98.8268
0
LINE
8
BLACK
6
CONTINUOUS
10
182.798
20
-98.8268
11
182.724
21
-98.967
0
LINE
8
BLACK
6
CONTINUOUS
10
182.724
20
-98.967
11
182.618
21
-99.0855
0
LINE
8
BLACK
6
CONTINUOUS
10
182.618
20
-99.0855
11
182.487
21
-99.1753
0
LINE
8
BLACK
6
CONTINUOUS
10
182.487
20
-99.1753
11
182.339
21
-99.2314
0
LINE
8
BLACK
6
CONTINUOUS
10
182.339
20
-99.2314
11
182.181
21
-99.2505
0
LINE
8
BLACK
6
CONTINUOUS
10
182.181
20
-99.2505
11
180.861
21
-99.2505
0
LINE
8
BLACK
6
CONTINUOUS
10
180.861
20
-99.2505
11
180.854
21
-99.2505
0
LINE
8
BLACK
6
CONTINUOUS
10
180.854
20
-99.2505
11
180.696
21
-99.2298
0
LINE
8
BLACK
6
CONTINUOUS
10
180.696
20
-99.2298
11
180.549
21
-99.1721
0
LINE
8
BLACK
6
CONTINUOUS
10
180.549
20
-99.1721
11
180.419
21
-99.0809
0
LINE
8
BLACK
6
CONTINUOUS
10
180.419
20
-99.0809
11
180.314
21
-98.9613
0
LINE
8
BLACK
6
CONTINUOUS
10
180.314
20
-98.9613
11
180.28
21
-98.8949
0
LINE
8
BLACK
6
CONTINUOUS
10
180.28
20
-98.8949
11
178.016
21
-98.8949
0
LINE
8
BLACK
6
CONTINUOUS
10
178.016
20
-98.8949
11
178.016
21
-100.724
0
LINE
8
BLACK
6
CONTINUOUS
10
178.016
20
-100.724
11
180.345
21
-100.724
0
LINE
8
BLACK
6
CONTINUOUS
10
180.345
20
-100.724
11
180.424
21
-100.635
0
LINE
8
BLACK
6
CONTINUOUS
10
180.424
20
-100.635
11
180.555
21
-100.545
0
LINE
8
BLACK
6
CONTINUOUS
10
180.555
20
-100.545
11
180.703
21
-100.489
0
LINE
8
BLACK
6
CONTINUOUS
10
180.703
20
-100.489
11
180.861
21
-100.47
0
LINE
8
BLACK
6
CONTINUOUS
10
180.861
20
-100.47
11
182.181
21
-100.47
0
LINE
8
BLACK
6
CONTINUOUS
10
182.181
20
-100.47
11
182.188
21
-100.47
0
LINE
8
BLACK
6
CONTINUOUS
10
182.188
20
-100.47
11
182.346
21
-100.49
0
LINE
8
BLACK
6
CONTINUOUS
10
182.346
20
-100.49
11
182.494
21
-100.548
0
LINE
8
BLACK
6
CONTINUOUS
10
182.494
20
-100.548
11
182.623
21
-100.639
0
LINE
8
BLACK
6
CONTINUOUS
10
182.623
20
-100.639
11
182.728
21
-100.759
0
LINE
8
BLACK
6
CONTINUOUS
10
182.728
20
-100.759
11
182.8
21
-100.9
0
LINE
8
BLACK
6
CONTINUOUS
10
182.8
20
-100.9
11
182.838
21
-101.054
0
LINE
8
BLACK
6
CONTINUOUS
10
182.838
20
-101.054
11
182.837
21
-101.213
0
LINE
8
BLACK
6
CONTINUOUS
10
182.837
20
-101.213
11
182.798
21
-101.367
0
LINE
8
BLACK
6
CONTINUOUS
10
182.798
20
-101.367
11
182.724
21
-101.507
0
LINE
8
BLACK
6
CONTINUOUS
10
182.724
20
-101.507
11
182.618
21
-101.625
0
LINE
8
BLACK
6
CONTINUOUS
10
182.618
20
-101.625
11
182.487
21
-101.715
0
LINE
8
BLACK
6
CONTINUOUS
10
182.487
20
-101.715
11
182.339
21
-101.771
0
LINE
8
BLACK
6
CONTINUOUS
10
182.339
20
-101.771
11
182.181
21
-101.79
0
LINE
8
BLACK
6
CONTINUOUS
10
182.181
20
-101.79
11
180.861
21
-101.79
0
LINE
8
BLACK
6
CONTINUOUS
10
180.861
20
-101.79
11
180.854
21
-101.79
0
LINE
8
BLACK
6
CONTINUOUS
10
180.854
20
-101.79
11
180.696
21
-101.77
0
LINE
8
BLACK
6
CONTINUOUS
10
180.696
20
-101.77
11
180.549
21
-101.712
0
LINE
8
BLACK
6
CONTINUOUS
10
180.549
20
-101.712
11
180.419
21
-101.621
0
LINE
8
BLACK
6
CONTINUOUS
10
180.419
20
-101.621
11
180.345
21
-101.536
0
LINE
8
BLACK
6
CONTINUOUS
10
180.345
20
-101.536
11
178.016
21
-101.536
0
LINE
8
BLACK
6
CONTINUOUS
10
178.016
20
-101.536
11
178.016
21
-103.37
0
LINE
8
BLACK
6
CONTINUOUS
10
178.016
20
-103.37
11
178.024
21
-103.371
0
LINE
8
BLACK
6
CONTINUOUS
10
178.024
20
-103.371
11
178.128
21
-103.412
0
LINE
8
BLACK
6
CONTINUOUS
10
178.128
20
-103.412
11
178.21
21
-103.488
0
LINE
8
BLACK
6
CONTINUOUS
10
178.21
20
-103.488
11
178.259
21
-103.589
0
LINE
8
BLACK
6
CONTINUOUS
10
178.259
20
-103.589
11
178.268
21
-103.7
0
LINE
8
BLACK
6
CONTINUOUS
10
178.268
20
-103.7
11
178.237
21
-103.807
0
LINE
8
BLACK
6
CONTINUOUS
10
178.237
20
-103.807
11
178.17
21
-103.896
0
LINE
8
BLACK
6
CONTINUOUS
10
178.17
20
-103.896
11
178.075
21
-103.954
0
LINE
8
BLACK
6
CONTINUOUS
10
178.075
20
-103.954
11
177.965
21
-103.975
0
LINE
8
BLACK
6
CONTINUOUS
10
177.965
20
-103.975
11
177.711
21
-103.975
0
LINE
8
BLACK
6
CONTINUOUS
10
177.711
20
-103.975
11
177.689
21
-103.973
0
LINE
8
BLACK
6
CONTINUOUS
10
177.689
20
-103.973
11
177.681
21
-103.973
0
LINE
8
BLACK
6
CONTINUOUS
10
177.681
20
-103.973
11
177.674
21
-103.971
0
LINE
8
BLACK
6
CONTINUOUS
10
177.674
20
-103.971
11
177.652
21
-103.969
0
LINE
8
BLACK
6
CONTINUOUS
10
177.652
20
-103.969
11
177.614
21
-103.954
0
LINE
8
BLACK
6
CONTINUOUS
10
177.614
20
-103.954
11
177.574
21
-103.942
0
LINE
8
BLACK
6
CONTINUOUS
10
177.574
20
-103.942
11
177.562
21
-103.933
0
LINE
8
BLACK
6
CONTINUOUS
10
177.562
20
-103.933
11
177.548
21
-103.928
0
LINE
8
BLACK
6
CONTINUOUS
10
177.548
20
-103.928
11
177.518
21
-103.9
0
LINE
8
BLACK
6
CONTINUOUS
10
177.518
20
-103.9
11
177.485
21
-103.875
0
LINE
8
BLACK
6
CONTINUOUS
10
177.485
20
-103.875
11
177.477
21
-103.862
0
LINE
8
BLACK
6
CONTINUOUS
10
177.477
20
-103.862
11
177.466
21
-103.852
0
LINE
8
BLACK
6
CONTINUOUS
10
177.466
20
-103.852
11
177.448
21
-103.815
0
LINE
8
BLACK
6
CONTINUOUS
10
177.448
20
-103.815
11
177.427
21
-103.78
0
LINE
8
BLACK
6
CONTINUOUS
10
177.427
20
-103.78
11
177.424
21
-103.765
0
LINE
8
BLACK
6
CONTINUOUS
10
177.424
20
-103.765
11
177.417
21
-103.752
0
LINE
8
BLACK
6
CONTINUOUS
10
177.417
20
-103.752
11
177.414
21
-103.711
0
LINE
8
BLACK
6
CONTINUOUS
10
177.414
20
-103.711
11
177.406
21
-103.67
0
LINE
8
BLACK
6
CONTINUOUS
10
177.406
20
-103.67
11
177.406
21
-101.536
0
LINE
8
BLACK
6
CONTINUOUS
10
177.406
20
-101.536
11
141.034
21
-101.536
0
LINE
8
BLACK
6
CONTINUOUS
10
141.034
20
-101.536
11
141.034
21
-102.635
0
LINE
8
BLACK
6
CONTINUOUS
10
141.034
20
-102.635
11
141.042
21
-102.638
0
LINE
8
BLACK
6
CONTINUOUS
10
141.042
20
-102.638
11
141.168
21
-102.743
0
LINE
8
BLACK
6
CONTINUOUS
10
141.168
20
-102.743
11
141.264
21
-102.876
0
LINE
8
BLACK
6
CONTINUOUS
10
141.264
20
-102.876
11
141.325
21
-103.028
0
LINE
8
BLACK
6
CONTINUOUS
10
141.325
20
-103.028
11
141.345
21
-103.191
0
LINE
8
BLACK
6
CONTINUOUS
10
141.345
20
-103.191
11
141.345
21
-104.499
0
LINE
8
BLACK
6
CONTINUOUS
10
141.345
20
-104.499
11
141.34
21
-104.581
0
LINE
8
BLACK
6
CONTINUOUS
10
141.34
20
-104.581
11
141.299
21
-104.739
0
LINE
8
BLACK
6
CONTINUOUS
10
141.299
20
-104.739
11
141.22
21
-104.883
0
LINE
8
BLACK
6
CONTINUOUS
10
141.22
20
-104.883
11
141.108
21
-105.003
0
LINE
8
BLACK
6
CONTINUOUS
10
141.108
20
-105.003
11
140.97
21
-105.09
0
LINE
8
BLACK
6
CONTINUOUS
10
140.97
20
-105.09
11
140.814
21
-105.141
0
LINE
8
BLACK
6
CONTINUOUS
10
140.814
20
-105.141
11
140.65
21
-105.151
0
LINE
8
BLACK
6
CONTINUOUS
10
140.65
20
-105.151
11
140.489
21
-105.121
0
LINE
8
BLACK
6
CONTINUOUS
10
140.489
20
-105.121
11
140.341
21
-105.051
0
LINE
8
BLACK
6
CONTINUOUS
10
140.341
20
-105.051
11
140.214
21
-104.946
0
LINE
8
BLACK
6
CONTINUOUS
10
140.214
20
-104.946
11
140.118
21
-104.814
0
LINE
8
BLACK
6
CONTINUOUS
10
140.118
20
-104.814
11
140.058
21
-104.661
0
LINE
8
BLACK
6
CONTINUOUS
10
140.058
20
-104.661
11
140.037
21
-104.499
0
LINE
8
BLACK
6
CONTINUOUS
10
140.037
20
-104.499
11
140.037
21
-103.191
0
LINE
8
BLACK
6
CONTINUOUS
10
140.037
20
-103.191
11
140.042
21
-103.109
0
LINE
8
BLACK
6
CONTINUOUS
10
140.042
20
-103.109
11
140.083
21
-102.95
0
LINE
8
BLACK
6
CONTINUOUS
10
140.083
20
-102.95
11
140.162
21
-102.806
0
LINE
8
BLACK
6
CONTINUOUS
10
140.162
20
-102.806
11
140.221
21
-102.744
0
LINE
8
BLACK
6
CONTINUOUS
10
140.221
20
-102.744
11
140.221
21
-101.13
0
LINE
8
BLACK
6
CONTINUOUS
10
140.221
20
-101.13
11
140.241
21
-101.005
0
LINE
8
BLACK
6
CONTINUOUS
10
140.241
20
-101.005
11
140.298
21
-100.891
0
LINE
8
BLACK
6
CONTINUOUS
10
140.298
20
-100.891
11
140.388
21
-100.801
0
LINE
8
BLACK
6
CONTINUOUS
10
140.388
20
-100.801
11
140.502
21
-100.744
0
LINE
8
BLACK
6
CONTINUOUS
10
140.502
20
-100.744
11
140.627
21
-100.724
0
LINE
8
BLACK
6
CONTINUOUS
10
140.627
20
-100.724
11
177.406
21
-100.724
0
LINE
8
BLACK
6
CONTINUOUS
10
177.406
20
-100.724
11
177.406
21
-98.5901
0
LINE
8
BLACK
6
CONTINUOUS
10
177.406
20
-98.5901
11
177.408
21
-98.5683
0
LINE
8
BLACK
6
CONTINUOUS
10
177.408
20
-98.5683
11
177.408
21
-98.5604
0
LINE
8
BLACK
6
CONTINUOUS
10
177.408
20
-98.5604
11
177.41
21
-98.5527
0
LINE
8
BLACK
6
CONTINUOUS
10
177.41
20
-98.5527
11
177.412
21
-98.5309
0
LINE
8
BLACK
6
CONTINUOUS
10
177.412
20
-98.5309
11
177.427
21
-98.4927
0
LINE
8
BLACK
6
CONTINUOUS
10
177.427
20
-98.4927
11
177.439
21
-98.4531
0
LINE
8
BLACK
6
CONTINUOUS
10
177.439
20
-98.4531
11
177.448
21
-98.4412
0
LINE
8
BLACK
6
CONTINUOUS
10
177.448
20
-98.4412
11
177.453
21
-98.4272
0
LINE
8
BLACK
6
CONTINUOUS
10
177.453
20
-98.4272
11
177.481
21
-98.3971
0
LINE
8
BLACK
6
CONTINUOUS
10
177.481
20
-98.3971
11
177.506
21
-98.3643
0
LINE
8
BLACK
6
CONTINUOUS
10
177.506
20
-98.3643
11
177.519
21
-98.3564
0
LINE
8
BLACK
6
CONTINUOUS
10
177.519
20
-98.3564
11
177.529
21
-98.3454
0
LINE
8
BLACK
6
CONTINUOUS
10
177.529
20
-98.3454
11
177.566
21
-98.3273
0
LINE
8
BLACK
6
CONTINUOUS
10
177.566
20
-98.3273
11
177.601
21
-98.3057
0
LINE
8
BLACK
6
CONTINUOUS
10
177.601
20
-98.3057
11
177.616
21
-98.303
0
LINE
8
BLACK
6
CONTINUOUS
10
177.616
20
-98.303
11
177.63
21
-98.2964
0
LINE
8
BLACK
6
CONTINUOUS
10
177.63
20
-98.2964
11
177.671
21
-98.2928
0
LINE
8
BLACK
6
CONTINUOUS
10
177.671
20
-98.2928
11
177.711
21
-98.2853
0
LINE
8
BLACK
6
CONTINUOUS
10
177.711
20
-98.2853
11
180.28
21
-98.2853
0
LINE
8
BLACK
6
CONTINUOUS
10
180.28
20
-98.2853
11
180.318
21
-98.2132
0
LINE
8
BLACK
6
CONTINUOUS
10
180.318
20
-98.2132
11
180.424
21
-98.0947
0
LINE
8
BLACK
6
CONTINUOUS
10
180.424
20
-98.0947
11
180.555
21
-98.0048
0
LINE
8
BLACK
6
CONTINUOUS
10
180.555
20
-98.0048
11
180.703
21
-97.9488
0
LINE
8
BLACK
6
CONTINUOUS
10
180.703
20
-97.9488
11
180.861
21
-97.9297
0
LINE
8
BLACK
6
CONTINUOUS
10
180.861
20
-97.9297
11
182.181
21
-97.9297
0
LINE
8
BLACK
6
CONTINUOUS
10
182.181
20
-97.9297
11
182.188
21
-97.9297
0
LINE
8
BLACK
6
CONTINUOUS
10
142.893
20
-102.569
11
143.042
21
-102.638
0
LINE
8
BLACK
6
CONTINUOUS
10
143.042
20
-102.638
11
143.168
21
-102.743
0
LINE
8
BLACK
6
CONTINUOUS
10
143.168
20
-102.743
11
143.264
21
-102.876
0
LINE
8
BLACK
6
CONTINUOUS
10
143.264
20
-102.876
11
143.325
21
-103.028
0
LINE
8
BLACK
6
CONTINUOUS
10
143.325
20
-103.028
11
143.345
21
-103.191
0
LINE
8
BLACK
6
CONTINUOUS
10
143.345
20
-103.191
11
143.345
21
-104.499
0
LINE
8
BLACK
6
CONTINUOUS
10
143.345
20
-104.499
11
143.34
21
-104.581
0
LINE
8
BLACK
6
CONTINUOUS
10
143.34
20
-104.581
11
143.299
21
-104.739
0
LINE
8
BLACK
6
CONTINUOUS
10
143.299
20
-104.739
11
143.22
21
-104.883
0
LINE
8
BLACK
6
CONTINUOUS
10
143.22
20
-104.883
11
143.108
21
-105.003
0
LINE
8
BLACK
6
CONTINUOUS
10
143.108
20
-105.003
11
142.97
21
-105.09
0
LINE
8
BLACK
6
CONTINUOUS
10
142.97
20
-105.09
11
142.814
21
-105.141
0
LINE
8
BLACK
6
CONTINUOUS
10
142.814
20
-105.141
11
142.65
21
-105.151
0
LINE
8
BLACK
6
CONTINUOUS
10
142.65
20
-105.151
11
142.489
21
-105.121
0
LINE
8
BLACK
6
CONTINUOUS
10
142.489
20
-105.121
11
142.341
21
-105.051
0
LINE
8
BLACK
6
CONTINUOUS
10
142.341
20
-105.051
11
142.214
21
-104.946
0
LINE
8
BLACK
6
CONTINUOUS
10
142.214
20
-104.946
11
142.118
21
-104.814
0
LINE
8
BLACK
6
CONTINUOUS
10
142.118
20
-104.814
11
142.058
21
-104.661
0
LINE
8
BLACK
6
CONTINUOUS
10
142.058
20
-104.661
11
142.037
21
-104.499
0
LINE
8
BLACK
6
CONTINUOUS
10
142.037
20
-104.499
11
142.037
21
-103.191
0
LINE
8
BLACK
6
CONTINUOUS
10
142.037
20
-103.191
11
142.042
21
-103.109
0
LINE
8
BLACK
6
CONTINUOUS
10
142.042
20
-103.109
11
142.083
21
-102.95
0
LINE
8
BLACK
6
CONTINUOUS
10
142.083
20
-102.95
11
142.162
21
-102.806
0
LINE
8
BLACK
6
CONTINUOUS
10
142.162
20
-102.806
11
142.274
21
-102.687
0
LINE
8
BLACK
6
CONTINUOUS
10
142.274
20
-102.687
11
142.413
21
-102.599
0
LINE
8
BLACK
6
CONTINUOUS
10
142.413
20
-102.599
11
142.569
21
-102.548
0
LINE
8
BLACK
6
CONTINUOUS
10
142.569
20
-102.548
11
142.732
21
-102.538
0
LINE
8
BLACK
6
CONTINUOUS
10
142.732
20
-102.538
11
142.893
21
-102.569
0
LINE
8
BLACK
6
CONTINUOUS
10
148.893
20
-102.569
11
149.042
21
-102.638
0
LINE
8
BLACK
6
CONTINUOUS
10
149.042
20
-102.638
11
149.168
21
-102.743
0
LINE
8
BLACK
6
CONTINUOUS
10
149.168
20
-102.743
11
149.264
21
-102.876
0
LINE
8
BLACK
6
CONTINUOUS
10
149.264
20
-102.876
11
149.325
21
-103.028
0
LINE
8
BLACK
6
CONTINUOUS
10
149.325
20
-103.028
11
149.345
21
-103.191
0
LINE
8
BLACK
6
CONTINUOUS
10
149.345
20
-103.191
11
149.345
21
-104.499
0
LINE
8
BLACK
6
CONTINUOUS
10
149.345
20
-104.499
11
149.34
21
-104.581
0
LINE
8
BLACK
6
CONTINUOUS
10
149.34
20
-104.581
11
149.299
21
-104.739
0
LINE
8
BLACK
6
CONTINUOUS
10
149.299
20
-104.739
11
149.22
21
-104.883
0
LINE
8
BLACK
6
CONTINUOUS
10
149.22
20
-104.883
11
149.108
21
-105.003
0
LINE
8
BLACK
6
CONTINUOUS
10
149.108
20
-105.003
11
148.97
21
-105.09
0
LINE
8
BLACK
6
CONTINUOUS
10
148.97
20
-105.09
11
148.814
21
-105.141
0
LINE
8
BLACK
6
CONTINUOUS
10
148.814
20
-105.141
11
148.65
21
-105.151
0
LINE
8
BLACK
6
CONTINUOUS
10
148.65
20
-105.151
11
148.489
21
-105.121
0
LINE
8
BLACK
6
CONTINUOUS
10
148.489
20
-105.121
11
148.341
21
-105.051
0
LINE
8
BLACK
6
CONTINUOUS
10
148.341
20
-105.051
11
148.214
21
-104.946
0
LINE
8
BLACK
6
CONTINUOUS
10
148.214
20
-104.946
11
148.118
21
-104.814
0
LINE
8
BLACK
6
CONTINUOUS
10
148.118
20
-104.814
11
148.058
21
-104.661
0
LINE
8
BLACK
6
CONTINUOUS
10
148.058
20
-104.661
11
148.037
21
-104.499
0
LINE
8
BLACK
6
CONTINUOUS
10
148.037
20
-104.499
11
148.037
21
-103.191
0
LINE
8
BLACK
6
CONTINUOUS
10
148.037
20
-103.191
11
148.042
21
-103.109
0
LINE
8
BLACK
6
CONTINUOUS
10
148.042
20
-103.109
11
148.083
21
-102.95
0
LINE
8
BLACK
6
CONTINUOUS
10
148.083
20
-102.95
11
148.162
21
-102.806
0
LINE
8
BLACK
6
CONTINUOUS
10
148.162
20
-102.806
11
148.274
21
-102.687
0
LINE
8
BLACK
6
CONTINUOUS
10
148.274
20
-102.687
11
148.413
21
-102.599
0
LINE
8
BLACK
6
CONTINUOUS
10
148.413
20
-102.599
11
148.569
21
-102.548
0
LINE
8
BLACK
6
CONTINUOUS
10
148.569
20
-102.548
11
148.732
21
-102.538
0
LINE
8
BLACK
6
CONTINUOUS
10
148.732
20
-102.538
11
148.893
21
-102.569
0
LINE
8
BLACK
6
CONTINUOUS
10
156.893
20
-102.569
11
157.042
21
-102.638
0
LINE
8
BLACK
6
CONTINUOUS
10
157.042
20
-102.638
11
157.168
21
-102.743
0
LINE
8
BLACK
6
CONTINUOUS
10
157.168
20
-102.743
11
157.264
21
-102.876
0
LINE
8
BLACK
6
CONTINUOUS
10
157.264
20
-102.876
11
157.325
21
-103.028
0
LINE
8
BLACK
6
CONTINUOUS
10
157.325
20
-103.028
11
157.345
21
-103.191
0
LINE
8
BLACK
6
CONTINUOUS
10
157.345
20
-103.191
11
157.345
21
-104.499
0
LINE
8
BLACK
6
CONTINUOUS
10
157.345
20
-104.499
11
157.34
21
-104.581
0
LINE
8
BLACK
6
CONTINUOUS
10
157.34
20
-104.581
11
157.299
21
-104.739
0
LINE
8
BLACK
6
CONTINUOUS
10
157.299
20
-104.739
11
157.22
21
-104.883
0
LINE
8
BLACK
6
CONTINUOUS
10
157.22
20
-104.883
11
157.108
21
-105.003
0
LINE
8
BLACK
6
CONTINUOUS
10
157.108
20
-105.003
11
156.97
21
-105.09
0
LINE
8
BLACK
6
CONTINUOUS
10
156.97
20
-105.09
11
156.814
21
-105.141
0
LINE
8
BLACK
6
CONTINUOUS
10
156.814
20
-105.141
11
156.65
21
-105.151
0
LINE
8
BLACK
6
CONTINUOUS
10
156.65
20
-105.151
11
156.489
21
-105.121
0
LINE
8
BLACK
6
CONTINUOUS
10
156.489
20
-105.121
11
156.341
21
-105.051
0
LINE
8
BLACK
6
CONTINUOUS
10
156.341
20
-105.051
11
156.214
21
-104.946
0
LINE
8
BLACK
6
CONTINUOUS
10
156.214
20
-104.946
11
156.118
21
-104.814
0
LINE
8
BLACK
6
CONTINUOUS
10
156.118
20
-104.814
11
156.058
21
-104.661
0
LINE
8
BLACK
6
CONTINUOUS
10
156.058
20
-104.661
11
156.037
21
-104.499
0
LINE
8
BLACK
6
CONTINUOUS
10
156.037
20
-104.499
11
156.037
21
-103.191
0
LINE
8
BLACK
6
CONTINUOUS
10
156.037
20
-103.191
11
156.042
21
-103.109
0
LINE
8
BLACK
6
CONTINUOUS
10
156.042
20
-103.109
11
156.083
21
-102.95
0
LINE
8
BLACK
6
CONTINUOUS
10
156.083
20
-102.95
11
156.162
21
-102.806
0
LINE
8
BLACK
6
CONTINUOUS
10
156.162
20
-102.806
11
156.274
21
-102.687
0
LINE
8
BLACK
6
CONTINUOUS
10
156.274
20
-102.687
11
156.413
21
-102.599
0
LINE
8
BLACK
6
CONTINUOUS
10
156.413
20
-102.599
11
156.569
21
-102.548
0
LINE
8
BLACK
6
CONTINUOUS
10
156.569
20
-102.548
11
156.732
21
-102.538
0
LINE
8
BLACK
6
CONTINUOUS
10
156.732
20
-102.538
11
156.893
21
-102.569
0
LINE
8
BLACK
6
CONTINUOUS
10
158.893
20
-102.569
11
159.042
21
-102.638
0
LINE
8
BLACK
6
CONTINUOUS
10
159.042
20
-102.638
11
159.168
21
-102.743
0
LINE
8
BLACK
6
CONTINUOUS
10
159.168
20
-102.743
11
159.264
21
-102.876
0
LINE
8
BLACK
6
CONTINUOUS
10
159.264
20
-102.876
11
159.325
21
-103.028
0
LINE
8
BLACK
6
CONTINUOUS
10
159.325
20
-103.028
11
159.345
21
-103.191
0
LINE
8
BLACK
6
CONTINUOUS
10
159.345
20
-103.191
11
159.345
21
-104.499
0
LINE
8
BLACK
6
CONTINUOUS
10
159.345
20
-104.499
11
159.34
21
-104.581
0
LINE
8
BLACK
6
CONTINUOUS
10
159.34
20
-104.581
11
159.299
21
-104.739
0
LINE
8
BLACK
6
CONTINUOUS
10
159.299
20
-104.739
11
159.22
21
-104.883
0
LINE
8
BLACK
6
CONTINUOUS
10
159.22
20
-104.883
11
159.108
21
-105.003
0
LINE
8
BLACK
6
CONTINUOUS
10
159.108
20
-105.003
11
158.97
21
-105.09
0
LINE
8
BLACK
6
CONTINUOUS
10
158.97
20
-105.09
11
158.814
21
-105.141
0
LINE
8
BLACK
6
CONTINUOUS
10
158.814
20
-105.141
11
158.65
21
-105.151
0
LINE
8
BLACK
6
CONTINUOUS
10
158.65
20
-105.151
11
158.489
21
-105.121
0
LINE
8
BLACK
6
CONTINUOUS
10
158.489
20
-105.121
11
158.341
21
-105.051
0
LINE
8
BLACK
6
CONTINUOUS
10
158.341
20
-105.051
11
158.214
21
-104.946
0
LINE
8
BLACK
6
CONTINUOUS
10
158.214
20
-104.946
11
158.118
21
-104.814
0
LINE
8
BLACK
6
CONTINUOUS
10
158.118
20
-104.814
11
158.058
21
-104.661
0
LINE
8
BLACK
6
CONTINUOUS
10
158.058
20
-104.661
11
158.037
21
-104.499
0
LINE
8
BLACK
6
CONTINUOUS
10
158.037
20
-104.499
11
158.037
21
-103.191
0
LINE
8
BLACK
6
CONTINUOUS
10
158.037
20
-103.191
11
158.042
21
-103.109
0
LINE
8
BLACK
6
CONTINUOUS
10
158.042
20
-103.109
11
158.083
21
-102.95
0
LINE
8
BLACK
6
CONTINUOUS
10
158.083
20
-102.95
11
158.162
21
-102.806
0
LINE
8
BLACK
6
CONTINUOUS
10
158.162
20
-102.806
11
158.274
21
-102.687
0
LINE
8
BLACK
6
CONTINUOUS
10
158.274
20
-102.687
11
158.413
21
-102.599
0
LINE
8
BLACK
6
CONTINUOUS
10
158.413
20
-102.599
11
158.569
21
-102.548
0
LINE
8
BLACK
6
CONTINUOUS
10
158.569
20
-102.548
11
158.732
21
-102.538
0
LINE
8
BLACK
6
CONTINUOUS
10
158.732
20
-102.538
11
158.893
21
-102.569
0
LINE
8
BLACK
6
CONTINUOUS
10
182.188
20
-103.01
11
182.346
21
-103.03
0
LINE
8
BLACK
6
CONTINUOUS
10
182.346
20
-103.03
11
182.494
21
-103.088
0
LINE
8
BLACK
6
CONTINUOUS
10
182.494
20
-103.088
11
182.623
21
-103.179
0
LINE
8
BLACK
6
CONTINUOUS
10
182.623
20
-103.179
11
182.728
21
-103.299
0
LINE
8
BLACK
6
CONTINUOUS
10
182.728
20
-103.299
11
182.8
21
-103.44
0
LINE
8
BLACK
6
CONTINUOUS
10
182.8
20
-103.44
11
182.838
21
-103.594
0
LINE
8
BLACK
6
CONTINUOUS
10
182.838
20
-103.594
11
182.837
21
-103.753
0
LINE
8
BLACK
6
CONTINUOUS
10
182.837
20
-103.753
11
182.798
21
-103.907
0
LINE
8
BLACK
6
CONTINUOUS
10
182.798
20
-103.907
11
182.724
21
-104.047
0
LINE
8
BLACK
6
CONTINUOUS
10
182.724
20
-104.047
11
182.618
21
-104.165
0
LINE
8
BLACK
6
CONTINUOUS
10
182.618
20
-104.165
11
182.487
21
-104.255
0
LINE
8
BLACK
6
CONTINUOUS
10
182.487
20
-104.255
11
182.339
21
-104.311
0
LINE
8
BLACK
6
CONTINUOUS
10
182.339
20
-104.311
11
182.181
21
-104.33
0
LINE
8
BLACK
6
CONTINUOUS
10
182.181
20
-104.33
11
180.861
21
-104.33
0
LINE
8
BLACK
6
CONTINUOUS
10
180.861
20
-104.33
11
180.854
21
-104.33
0
LINE
8
BLACK
6
CONTINUOUS
10
180.854
20
-104.33
11
180.696
21
-104.31
0
LINE
8
BLACK
6
CONTINUOUS
10
180.696
20
-104.31
11
180.549
21
-104.252
0
LINE
8
BLACK
6
CONTINUOUS
10
180.549
20
-104.252
11
180.419
21
-104.161
0
LINE
8
BLACK
6
CONTINUOUS
10
180.419
20
-104.161
11
180.314
21
-104.041
0
LINE
8
BLACK
6
CONTINUOUS
10
180.314
20
-104.041
11
180.242
21
-103.9
0
LINE
8
BLACK
6
CONTINUOUS
10
180.242
20
-103.9
11
180.205
21
-103.746
0
LINE
8
BLACK
6
CONTINUOUS
10
180.205
20
-103.746
11
180.206
21
-103.587
0
LINE
8
BLACK
6
CONTINUOUS
10
180.206
20
-103.587
11
180.244
21
-103.433
0
LINE
8
BLACK
6
CONTINUOUS
10
180.244
20
-103.433
11
180.318
21
-103.293
0
LINE
8
BLACK
6
CONTINUOUS
10
180.318
20
-103.293
11
180.424
21
-103.175
0
LINE
8
BLACK
6
CONTINUOUS
10
180.424
20
-103.175
11
180.555
21
-103.085
0
LINE
8
BLACK
6
CONTINUOUS
10
180.555
20
-103.085
11
180.703
21
-103.029
0
LINE
8
BLACK
6
CONTINUOUS
10
180.703
20
-103.029
11
180.861
21
-103.01
0
LINE
8
BLACK
6
CONTINUOUS
10
180.861
20
-103.01
11
182.181
21
-103.01
0
LINE
8
BLACK
6
CONTINUOUS
10
182.181
20
-103.01
11
182.188
21
-103.01
0
LINE
8
BLACK
6
CONTINUOUS
10
119.474
20
-96.0331
11
119.642
21
-96.093
0
LINE
8
BLACK
6
CONTINUOUS
10
119.642
20
-96.093
11
119.792
21
-96.1886
0
LINE
8
BLACK
6
CONTINUOUS
10
119.792
20
-96.1886
11
119.918
21
-96.3151
0
LINE
8
BLACK
6
CONTINUOUS
10
119.918
20
-96.3151
11
120.013
21
-96.4664
0
LINE
8
BLACK
6
CONTINUOUS
10
120.013
20
-96.4664
11
120.071
21
-96.6348
0
LINE
8
BLACK
6
CONTINUOUS
10
120.071
20
-96.6348
11
120.091
21
-96.8121
0
LINE
8
BLACK
6
CONTINUOUS
10
120.091
20
-96.8121
11
120.091
21
-96.8344
0
LINE
8
BLACK
6
CONTINUOUS
10
120.091
20
-96.8344
11
120.066
21
-97.0111
0
LINE
8
BLACK
6
CONTINUOUS
10
120.066
20
-97.0111
11
120.003
21
-97.1778
0
LINE
8
BLACK
6
CONTINUOUS
10
120.003
20
-97.1778
11
119.904
21
-97.3264
0
LINE
8
BLACK
6
CONTINUOUS
10
119.904
20
-97.3264
11
119.775
21
-97.4494
0
LINE
8
BLACK
6
CONTINUOUS
10
119.775
20
-97.4494
11
119.622
21
-97.5407
0
LINE
8
BLACK
6
CONTINUOUS
10
119.622
20
-97.5407
11
119.452
21
-97.5959
0
LINE
8
BLACK
6
CONTINUOUS
10
119.452
20
-97.5959
11
119.274
21
-97.612
0
LINE
8
BLACK
6
CONTINUOUS
10
119.274
20
-97.612
11
119.098
21
-97.5884
0
LINE
8
BLACK
6
CONTINUOUS
10
119.098
20
-97.5884
11
118.93
21
-97.5263
0
LINE
8
BLACK
6
CONTINUOUS
10
118.93
20
-97.5263
11
118.781
21
-97.4286
0
LINE
8
BLACK
6
CONTINUOUS
10
118.781
20
-97.4286
11
118.657
21
-97.3003
0
LINE
8
BLACK
6
CONTINUOUS
10
118.657
20
-97.3003
11
118.565
21
-97.1477
0
LINE
8
BLACK
6
CONTINUOUS
10
118.565
20
-97.1477
11
118.508
21
-96.9784
0
LINE
8
BLACK
6
CONTINUOUS
10
118.508
20
-96.9784
11
118.491
21
-96.8009
0
LINE
8
BLACK
6
CONTINUOUS
10
118.491
20
-96.8009
11
118.513
21
-96.624
0
LINE
8
BLACK
6
CONTINUOUS
10
118.513
20
-96.624
11
118.574
21
-96.4563
0
LINE
8
BLACK
6
CONTINUOUS
10
118.574
20
-96.4563
11
118.671
21
-96.3064
0
LINE
8
BLACK
6
CONTINUOUS
10
118.671
20
-96.3064
11
118.799
21
-96.1816
0
LINE
8
BLACK
6
CONTINUOUS
10
118.799
20
-96.1816
11
118.95
21
-96.0881
0
LINE
8
BLACK
6
CONTINUOUS
10
118.95
20
-96.0881
11
119.119
21
-96.0307
0
LINE
8
BLACK
6
CONTINUOUS
10
119.119
20
-96.0307
11
119.297
21
-96.012
0
LINE
8
BLACK
6
CONTINUOUS
10
119.297
20
-96.012
11
119.474
21
-96.0331
0
LINE
8
BLACK
6
CONTINUOUS
10
182.188
20
-95.3897
11
182.346
21
-95.4104
0
LINE
8
BLACK
6
CONTINUOUS
10
182.346
20
-95.4104
11
182.494
21
-95.4681
0
LINE
8
BLACK
6
CONTINUOUS
10
182.494
20
-95.4681
11
182.623
21
-95.5593
0
LINE
8
BLACK
6
CONTINUOUS
10
182.623
20
-95.5593
11
182.728
21
-95.6789
0
LINE
8
BLACK
6
CONTINUOUS
10
182.728
20
-95.6789
11
182.8
21
-95.8199
0
LINE
8
BLACK
6
CONTINUOUS
10
182.8
20
-95.8199
11
182.838
21
-95.9742
0
LINE
8
BLACK
6
CONTINUOUS
10
182.838
20
-95.9742
11
182.837
21
-96.1329
0
LINE
8
BLACK
6
CONTINUOUS
10
182.837
20
-96.1329
11
182.798
21
-96.2868
0
LINE
8
BLACK
6
CONTINUOUS
10
182.798
20
-96.2868
11
182.724
21
-96.427
0
LINE
8
BLACK
6
CONTINUOUS
10
182.724
20
-96.427
11
182.618
21
-96.5455
0
LINE
8
BLACK
6
CONTINUOUS
10
182.618
20
-96.5455
11
182.487
21
-96.6353
0
LINE
8
BLACK
6
CONTINUOUS
10
182.487
20
-96.6353
11
182.339
21
-96.6914
0
LINE
8
BLACK
6
CONTINUOUS
10
182.339
20
-96.6914
11
182.181
21
-96.7105
0
LINE
8
BLACK
6
CONTINUOUS
10
182.181
20
-96.7105
11
180.861
21
-96.7105
0
LINE
8
BLACK
6
CONTINUOUS
10
180.861
20
-96.7105
11
180.854
21
-96.7105
0
LINE
8
BLACK
6
CONTINUOUS
10
180.854
20
-96.7105
11
180.696
21
-96.6898
0
LINE
8
BLACK
6
CONTINUOUS
10
180.696
20
-96.6898
11
180.549
21
-96.6321
0
LINE
8
BLACK
6
CONTINUOUS
10
180.549
20
-96.6321
11
180.419
21
-96.5409
0
LINE
8
BLACK
6
CONTINUOUS
10
180.419
20
-96.5409
11
180.314
21
-96.4213
0
LINE
8
BLACK
6
CONTINUOUS
10
180.314
20
-96.4213
11
180.242
21
-96.2803
0
LINE
8
BLACK
6
CONTINUOUS
10
180.242
20
-96.2803
11
180.205
21
-96.126
0
LINE
8
BLACK
6
CONTINUOUS
10
180.205
20
-96.126
11
180.206
21
-95.9673
0
LINE
8
BLACK
6
CONTINUOUS
10
180.206
20
-95.9673
11
180.244
21
-95.8134
0
LINE
8
BLACK
6
CONTINUOUS
10
180.244
20
-95.8134
11
180.318
21
-95.6732
0
LINE
8
BLACK
6
CONTINUOUS
10
180.318
20
-95.6732
11
180.424
21
-95.5547
0
LINE
8
BLACK
6
CONTINUOUS
10
180.424
20
-95.5547
11
180.555
21
-95.4648
0
LINE
8
BLACK
6
CONTINUOUS
10
180.555
20
-95.4648
11
180.703
21
-95.4088
0
LINE
8
BLACK
6
CONTINUOUS
10
180.703
20
-95.4088
11
180.861
21
-95.3897
0
LINE
8
BLACK
6
CONTINUOUS
10
180.861
20
-95.3897
11
182.181
21
-95.3897
0
LINE
8
BLACK
6
CONTINUOUS
10
182.181
20
-95.3897
11
182.188
21
-95.3897
0
CIRCLE
8
BLACK
10
145.961
20
-107.607
40
0.3
0
CIRCLE
8
BLACK
10
147.231
20
-108.877
40
0.3
0
CIRCLE
8
BLACK
10
154.851
20
-111.417
40
0.3
  0
ENDSEC
  0
EOF
