  0
SECTION
  2
HEADER
  9
$ANGBASE
  50
0.0
  9
$ANGDIR
  70
1
  9
$MEASUREMENT
  70
1
  0
ENDSEC
  0
SECTION
  2
TABLES
  0
TABLE
  2
LTYPE
  70
4
  0
LTYPE
  5
40F
  2
CONTINUOUS
  70
0
  3
Solid line
  72
65
  73
0
  40
0.0
  0
LTYPE
  5
410
  2
DASHDOT
 70
0
  3
Dash Dot ____ _ ____ _
 72
65
 73
4
 40
2.0
 49
1.25
 49
-0.25
 49
0.25
 49
-0.25
  0
LTYPE
  5
411
  2
DASHED
 70
0
  3
Dashed __ __ __ __ __
 72
65
 73
2
 40
0.75
 49
0.5
 49
-0.25
  0
LTYPE
  5
43B
  2
DOTTED
 70
0
  3
Dotted .  .  .  .
 72
65
 73
2
 40
0.2
 49
0.0
 49
-0.2
  0
ENDTAB
  0
TABLE
  2
STYLE
  70
4
  0
STYLE
  2
KICAD
  70
0
  40
0
  41
1
  42
1
  50
0
  71
0
  3
isocp.shx
  0
STYLE
  2
KICADB
  70
0
  40
0
  41
1
  42
1
  50
0
  71
0
  3
isocp.shx
  0
STYLE
  2
KICADI
  70
0
  40
0
  41
1
  42
1
  50
15
  71
0
  3
isocp.shx
  0
STYLE
  2
KICADBI
  70
0
  40
0
  41
1
  42
1
  50
15
  71
0
  3
isocp.shx
  0
ENDTAB
  0
TABLE
  2
LAYER
  70
1
  0
LAYER
  2
BLACK
  70
0
  62
7
  6
CONTINUOUS
  0
ENDTAB
  0
ENDSEC
  0
SECTION
  2
ENTITIES
0
LINE
8
BLACK
6
CONTINUOUS
10
182.801
20
-94.7056
11
182.804
21
-94.7051
0
LINE
8
BLACK
6
CONTINUOUS
10
182.804
20
-94.7051
11
182.807
21
-94.7067
0
LINE
8
BLACK
6
CONTINUOUS
10
182.807
20
-94.7067
11
182.817
21
-94.7085
0
LINE
8
BLACK
6
CONTINUOUS
10
182.817
20
-94.7085
11
182.832
21
-94.7212
0
LINE
8
BLACK
6
CONTINUOUS
10
182.832
20
-94.7212
11
182.849
21
-94.7311
0
LINE
8
BLACK
6
CONTINUOUS
10
182.849
20
-94.7311
11
182.852
21
-94.7376
0
LINE
8
BLACK
6
CONTINUOUS
10
182.852
20
-94.7376
11
182.857
21
-94.742
0
LINE
8
BLACK
6
CONTINUOUS
10
182.857
20
-94.742
11
182.861
21
-94.7615
0
LINE
8
BLACK
6
CONTINUOUS
10
182.861
20
-94.7615
11
182.867
21
-94.7801
0
LINE
8
BLACK
6
CONTINUOUS
10
182.867
20
-94.7801
11
182.867
21
-97.0661
0
LINE
8
BLACK
6
CONTINUOUS
10
182.867
20
-97.0661
11
182.866
21
-97.0708
0
LINE
8
BLACK
6
CONTINUOUS
10
182.866
20
-97.0708
11
182.867
21
-97.0727
0
LINE
8
BLACK
6
CONTINUOUS
10
182.867
20
-97.0727
11
182.866
21
-97.0758
0
LINE
8
BLACK
6
CONTINUOUS
10
182.866
20
-97.0758
11
182.863
21
-97.0922
0
LINE
8
BLACK
6
CONTINUOUS
10
182.863
20
-97.0922
11
182.852
21
-97.1049
0
LINE
8
BLACK
6
CONTINUOUS
10
182.852
20
-97.1049
11
182.845
21
-97.12
0
LINE
8
BLACK
6
CONTINUOUS
10
182.845
20
-97.12
11
182.645
21
-97.3201
0
LINE
8
BLACK
6
CONTINUOUS
10
182.645
20
-97.3201
11
182.845
21
-97.5202
0
LINE
8
BLACK
6
CONTINUOUS
10
182.845
20
-97.5202
11
182.848
21
-97.5241
0
LINE
8
BLACK
6
CONTINUOUS
10
182.848
20
-97.5241
11
182.849
21
-97.5251
0
LINE
8
BLACK
6
CONTINUOUS
10
182.849
20
-97.5251
11
182.851
21
-97.5283
0
LINE
8
BLACK
6
CONTINUOUS
10
182.851
20
-97.5283
11
182.86
21
-97.5419
0
LINE
8
BLACK
6
CONTINUOUS
10
182.86
20
-97.5419
11
182.862
21
-97.5585
0
LINE
8
BLACK
6
CONTINUOUS
10
182.862
20
-97.5585
11
182.867
21
-97.5741
0
LINE
8
BLACK
6
CONTINUOUS
10
182.867
20
-97.5741
11
182.867
21
-99.6061
0
LINE
8
BLACK
6
CONTINUOUS
10
182.867
20
-99.6061
11
182.866
21
-99.6108
0
LINE
8
BLACK
6
CONTINUOUS
10
182.866
20
-99.6108
11
182.867
21
-99.6127
0
LINE
8
BLACK
6
CONTINUOUS
10
182.867
20
-99.6127
11
182.866
21
-99.6158
0
LINE
8
BLACK
6
CONTINUOUS
10
182.866
20
-99.6158
11
182.863
21
-99.6322
0
LINE
8
BLACK
6
CONTINUOUS
10
182.863
20
-99.6322
11
182.852
21
-99.6449
0
LINE
8
BLACK
6
CONTINUOUS
10
182.852
20
-99.6449
11
182.845
21
-99.66
0
LINE
8
BLACK
6
CONTINUOUS
10
182.845
20
-99.66
11
182.645
21
-99.8601
0
LINE
8
BLACK
6
CONTINUOUS
10
182.645
20
-99.8601
11
182.845
21
-100.06
0
LINE
8
BLACK
6
CONTINUOUS
10
182.845
20
-100.06
11
182.848
21
-100.064
0
LINE
8
BLACK
6
CONTINUOUS
10
182.848
20
-100.064
11
182.849
21
-100.065
0
LINE
8
BLACK
6
CONTINUOUS
10
182.849
20
-100.065
11
182.851
21
-100.068
0
LINE
8
BLACK
6
CONTINUOUS
10
182.851
20
-100.068
11
182.86
21
-100.082
0
LINE
8
BLACK
6
CONTINUOUS
10
182.86
20
-100.082
11
182.862
21
-100.098
0
LINE
8
BLACK
6
CONTINUOUS
10
182.862
20
-100.098
11
182.867
21
-100.114
0
LINE
8
BLACK
6
CONTINUOUS
10
182.867
20
-100.114
11
182.867
21
-102.146
0
LINE
8
BLACK
6
CONTINUOUS
10
182.867
20
-102.146
11
182.866
21
-102.151
0
LINE
8
BLACK
6
CONTINUOUS
10
182.866
20
-102.151
11
182.867
21
-102.153
0
LINE
8
BLACK
6
CONTINUOUS
10
182.867
20
-102.153
11
182.866
21
-102.156
0
LINE
8
BLACK
6
CONTINUOUS
10
182.866
20
-102.156
11
182.863
21
-102.172
0
LINE
8
BLACK
6
CONTINUOUS
10
182.863
20
-102.172
11
182.852
21
-102.185
0
LINE
8
BLACK
6
CONTINUOUS
10
182.852
20
-102.185
11
182.845
21
-102.2
0
LINE
8
BLACK
6
CONTINUOUS
10
182.845
20
-102.2
11
182.645
21
-102.4
0
LINE
8
BLACK
6
CONTINUOUS
10
182.645
20
-102.4
11
182.845
21
-102.6
0
LINE
8
BLACK
6
CONTINUOUS
10
182.845
20
-102.6
11
182.848
21
-102.604
0
LINE
8
BLACK
6
CONTINUOUS
10
182.848
20
-102.604
11
182.849
21
-102.605
0
LINE
8
BLACK
6
CONTINUOUS
10
182.849
20
-102.605
11
182.851
21
-102.608
0
LINE
8
BLACK
6
CONTINUOUS
10
182.851
20
-102.608
11
182.86
21
-102.622
0
LINE
8
BLACK
6
CONTINUOUS
10
182.86
20
-102.622
11
182.862
21
-102.638
0
LINE
8
BLACK
6
CONTINUOUS
10
182.862
20
-102.638
11
182.867
21
-102.654
0
LINE
8
BLACK
6
CONTINUOUS
10
182.867
20
-102.654
11
182.867
21
-104.686
0
LINE
8
BLACK
6
CONTINUOUS
10
182.867
20
-104.686
11
182.866
21
-104.691
0
LINE
8
BLACK
6
CONTINUOUS
10
182.866
20
-104.691
11
182.867
21
-104.693
0
LINE
8
BLACK
6
CONTINUOUS
10
182.867
20
-104.693
11
182.866
21
-104.696
0
LINE
8
BLACK
6
CONTINUOUS
10
182.866
20
-104.696
11
182.863
21
-104.712
0
LINE
8
BLACK
6
CONTINUOUS
10
182.863
20
-104.712
11
182.852
21
-104.725
0
LINE
8
BLACK
6
CONTINUOUS
10
182.852
20
-104.725
11
182.845
21
-104.74
0
LINE
8
BLACK
6
CONTINUOUS
10
182.845
20
-104.74
11
182.645
21
-104.94
0
LINE
8
BLACK
6
CONTINUOUS
10
182.645
20
-104.94
11
182.845
21
-105.14
0
LINE
8
BLACK
6
CONTINUOUS
10
182.845
20
-105.14
11
182.848
21
-105.144
0
LINE
8
BLACK
6
CONTINUOUS
10
182.848
20
-105.144
11
182.849
21
-105.145
0
LINE
8
BLACK
6
CONTINUOUS
10
182.849
20
-105.145
11
182.851
21
-105.148
0
LINE
8
BLACK
6
CONTINUOUS
10
182.851
20
-105.148
11
182.86
21
-105.162
0
LINE
8
BLACK
6
CONTINUOUS
10
182.86
20
-105.162
11
182.862
21
-105.178
0
LINE
8
BLACK
6
CONTINUOUS
10
182.862
20
-105.178
11
182.867
21
-105.194
0
LINE
8
BLACK
6
CONTINUOUS
10
182.867
20
-105.194
11
182.867
21
-107.226
0
LINE
8
BLACK
6
CONTINUOUS
10
182.867
20
-107.226
11
182.866
21
-107.231
0
LINE
8
BLACK
6
CONTINUOUS
10
182.866
20
-107.231
11
182.867
21
-107.233
0
LINE
8
BLACK
6
CONTINUOUS
10
182.867
20
-107.233
11
182.866
21
-107.236
0
LINE
8
BLACK
6
CONTINUOUS
10
182.866
20
-107.236
11
182.863
21
-107.252
0
LINE
8
BLACK
6
CONTINUOUS
10
182.863
20
-107.252
11
182.852
21
-107.265
0
LINE
8
BLACK
6
CONTINUOUS
10
182.852
20
-107.265
11
182.845
21
-107.28
0
LINE
8
BLACK
6
CONTINUOUS
10
182.845
20
-107.28
11
182.645
21
-107.48
0
LINE
8
BLACK
6
CONTINUOUS
10
182.645
20
-107.48
11
182.845
21
-107.68
0
LINE
8
BLACK
6
CONTINUOUS
10
182.845
20
-107.68
11
182.848
21
-107.684
0
LINE
8
BLACK
6
CONTINUOUS
10
182.848
20
-107.684
11
182.849
21
-107.685
0
LINE
8
BLACK
6
CONTINUOUS
10
182.849
20
-107.685
11
182.851
21
-107.688
0
LINE
8
BLACK
6
CONTINUOUS
10
182.851
20
-107.688
11
182.86
21
-107.702
0
LINE
8
BLACK
6
CONTINUOUS
10
182.86
20
-107.702
11
182.862
21
-107.718
0
LINE
8
BLACK
6
CONTINUOUS
10
182.862
20
-107.718
11
182.867
21
-107.734
0
LINE
8
BLACK
6
CONTINUOUS
10
182.867
20
-107.734
11
182.867
21
-109.766
0
LINE
8
BLACK
6
CONTINUOUS
10
182.867
20
-109.766
11
182.866
21
-109.771
0
LINE
8
BLACK
6
CONTINUOUS
10
182.866
20
-109.771
11
182.867
21
-109.773
0
LINE
8
BLACK
6
CONTINUOUS
10
182.867
20
-109.773
11
182.866
21
-109.776
0
LINE
8
BLACK
6
CONTINUOUS
10
182.866
20
-109.776
11
182.863
21
-109.792
0
LINE
8
BLACK
6
CONTINUOUS
10
182.863
20
-109.792
11
182.852
21
-109.805
0
LINE
8
BLACK
6
CONTINUOUS
10
182.852
20
-109.805
11
182.845
21
-109.82
0
LINE
8
BLACK
6
CONTINUOUS
10
182.845
20
-109.82
11
182.645
21
-110.02
0
LINE
8
BLACK
6
CONTINUOUS
10
182.645
20
-110.02
11
182.845
21
-110.22
0
LINE
8
BLACK
6
CONTINUOUS
10
182.845
20
-110.22
11
182.848
21
-110.224
0
LINE
8
BLACK
6
CONTINUOUS
10
182.848
20
-110.224
11
182.849
21
-110.225
0
LINE
8
BLACK
6
CONTINUOUS
10
182.849
20
-110.225
11
182.851
21
-110.228
0
LINE
8
BLACK
6
CONTINUOUS
10
182.851
20
-110.228
11
182.86
21
-110.242
0
LINE
8
BLACK
6
CONTINUOUS
10
182.86
20
-110.242
11
182.862
21
-110.258
0
LINE
8
BLACK
6
CONTINUOUS
10
182.862
20
-110.258
11
182.867
21
-110.274
0
LINE
8
BLACK
6
CONTINUOUS
10
182.867
20
-110.274
11
182.867
21
-111.29
0
LINE
8
BLACK
6
CONTINUOUS
10
182.867
20
-111.29
11
182.87
21
-111.29
0
LINE
8
BLACK
6
CONTINUOUS
10
182.87
20
-111.29
11
182.962
21
-111.244
0
LINE
8
BLACK
6
CONTINUOUS
10
182.962
20
-111.244
11
183.005
21
-111.201
0
LINE
8
BLACK
6
CONTINUOUS
10
183.005
20
-111.201
11
183.051
21
-111.109
0
LINE
8
BLACK
6
CONTINUOUS
10
183.051
20
-111.109
11
183.051
21
-110.847
0
LINE
8
BLACK
6
CONTINUOUS
10
183.051
20
-110.847
11
182.997
21
-110.684
0
LINE
8
BLACK
6
CONTINUOUS
10
182.997
20
-110.684
11
183
21
-110.636
0
LINE
8
BLACK
6
CONTINUOUS
10
183
20
-110.636
11
183.037
21
-110.604
0
LINE
8
BLACK
6
CONTINUOUS
10
183.037
20
-110.604
11
183.086
21
-110.607
0
LINE
8
BLACK
6
CONTINUOUS
10
183.086
20
-110.607
11
183.117
21
-110.644
0
LINE
8
BLACK
6
CONTINUOUS
10
183.117
20
-110.644
11
183.175
21
-110.816
0
LINE
8
BLACK
6
CONTINUOUS
10
183.175
20
-110.816
11
183.174
21
-110.827
0
LINE
8
BLACK
6
CONTINUOUS
10
183.174
20
-110.827
11
183.178
21
-110.837
0
LINE
8
BLACK
6
CONTINUOUS
10
183.178
20
-110.837
11
183.178
21
-111.124
0
LINE
8
BLACK
6
CONTINUOUS
10
183.178
20
-111.124
11
183.172
21
-111.137
0
LINE
8
BLACK
6
CONTINUOUS
10
183.172
20
-111.137
11
183.171
21
-111.152
0
LINE
8
BLACK
6
CONTINUOUS
10
183.171
20
-111.152
11
183.114
21
-111.267
0
LINE
8
BLACK
6
CONTINUOUS
10
183.114
20
-111.267
11
183.106
21
-111.274
0
LINE
8
BLACK
6
CONTINUOUS
10
183.106
20
-111.274
11
183.102
21
-111.284
0
LINE
8
BLACK
6
CONTINUOUS
10
183.102
20
-111.284
11
183.045
21
-111.341
0
LINE
8
BLACK
6
CONTINUOUS
10
183.045
20
-111.341
11
183.035
21
-111.345
0
LINE
8
BLACK
6
CONTINUOUS
10
183.035
20
-111.345
11
183.028
21
-111.353
0
LINE
8
BLACK
6
CONTINUOUS
10
183.028
20
-111.353
11
182.913
21
-111.41
0
LINE
8
BLACK
6
CONTINUOUS
10
182.913
20
-111.41
11
182.898
21
-111.411
0
LINE
8
BLACK
6
CONTINUOUS
10
182.898
20
-111.411
11
182.885
21
-111.417
0
LINE
8
BLACK
6
CONTINUOUS
10
182.885
20
-111.417
11
182.867
21
-111.417
0
LINE
8
BLACK
6
CONTINUOUS
10
182.867
20
-111.417
11
182.867
21
-111.951
0
LINE
8
BLACK
6
CONTINUOUS
10
182.867
20
-111.951
11
183.135
21
-112.04
0
LINE
8
BLACK
6
CONTINUOUS
10
183.135
20
-112.04
11
183.138
21
-112.043
0
LINE
8
BLACK
6
CONTINUOUS
10
183.138
20
-112.043
11
183.143
21
-112.044
0
LINE
8
BLACK
6
CONTINUOUS
10
183.143
20
-112.044
11
183.156
21
-112.059
0
LINE
8
BLACK
6
CONTINUOUS
10
183.156
20
-112.059
11
183.171
21
-112.072
0
LINE
8
BLACK
6
CONTINUOUS
10
183.171
20
-112.072
11
183.172
21
-112.077
0
LINE
8
BLACK
6
CONTINUOUS
10
183.172
20
-112.077
11
183.175
21
-112.08
0
LINE
8
BLACK
6
CONTINUOUS
10
183.175
20
-112.08
11
183.173
21
-112.1
0
LINE
8
BLACK
6
CONTINUOUS
10
183.173
20
-112.1
11
183.175
21
-112.121
0
LINE
8
BLACK
6
CONTINUOUS
10
183.175
20
-112.121
11
183.172
21
-112.124
0
LINE
8
BLACK
6
CONTINUOUS
10
183.172
20
-112.124
11
183.171
21
-112.129
0
LINE
8
BLACK
6
CONTINUOUS
10
183.171
20
-112.129
11
183.156
21
-112.142
0
LINE
8
BLACK
6
CONTINUOUS
10
183.156
20
-112.142
11
183.143
21
-112.157
0
LINE
8
BLACK
6
CONTINUOUS
10
183.143
20
-112.157
11
183.138
21
-112.158
0
LINE
8
BLACK
6
CONTINUOUS
10
183.138
20
-112.158
11
183.135
21
-112.161
0
LINE
8
BLACK
6
CONTINUOUS
10
183.135
20
-112.161
11
182.867
21
-112.25
0
LINE
8
BLACK
6
CONTINUOUS
10
182.867
20
-112.25
11
182.867
21
-112.306
0
LINE
8
BLACK
6
CONTINUOUS
10
182.867
20
-112.306
11
182.866
21
-112.311
0
LINE
8
BLACK
6
CONTINUOUS
10
182.866
20
-112.311
11
182.867
21
-112.313
0
LINE
8
BLACK
6
CONTINUOUS
10
182.867
20
-112.313
11
182.866
21
-112.316
0
LINE
8
BLACK
6
CONTINUOUS
10
182.866
20
-112.316
11
182.863
21
-112.332
0
LINE
8
BLACK
6
CONTINUOUS
10
182.863
20
-112.332
11
182.852
21
-112.345
0
LINE
8
BLACK
6
CONTINUOUS
10
182.852
20
-112.345
11
182.845
21
-112.36
0
LINE
8
BLACK
6
CONTINUOUS
10
182.845
20
-112.36
11
182.645
21
-112.56
0
LINE
8
BLACK
6
CONTINUOUS
10
182.645
20
-112.56
11
182.845
21
-112.76
0
LINE
8
BLACK
6
CONTINUOUS
10
182.845
20
-112.76
11
182.848
21
-112.764
0
LINE
8
BLACK
6
CONTINUOUS
10
182.848
20
-112.764
11
182.849
21
-112.765
0
LINE
8
BLACK
6
CONTINUOUS
10
182.849
20
-112.765
11
182.851
21
-112.768
0
LINE
8
BLACK
6
CONTINUOUS
10
182.851
20
-112.768
11
182.86
21
-112.782
0
LINE
8
BLACK
6
CONTINUOUS
10
182.86
20
-112.782
11
182.862
21
-112.798
0
LINE
8
BLACK
6
CONTINUOUS
10
182.862
20
-112.798
11
182.867
21
-112.814
0
LINE
8
BLACK
6
CONTINUOUS
10
182.867
20
-112.814
11
182.867
21
-113.129
0
LINE
8
BLACK
6
CONTINUOUS
10
182.867
20
-113.129
11
183.051
21
-113.129
0
LINE
8
BLACK
6
CONTINUOUS
10
183.051
20
-113.129
11
183.051
21
-112.847
0
LINE
8
BLACK
6
CONTINUOUS
10
183.051
20
-112.847
11
183.07
21
-112.802
0
LINE
8
BLACK
6
CONTINUOUS
10
183.07
20
-112.802
11
183.115
21
-112.784
0
LINE
8
BLACK
6
CONTINUOUS
10
183.115
20
-112.784
11
183.16
21
-112.802
0
LINE
8
BLACK
6
CONTINUOUS
10
183.16
20
-112.802
11
183.178
21
-112.847
0
LINE
8
BLACK
6
CONTINUOUS
10
183.178
20
-112.847
11
183.178
21
-113.537
0
LINE
8
BLACK
6
CONTINUOUS
10
183.178
20
-113.537
11
183.16
21
-113.582
0
LINE
8
BLACK
6
CONTINUOUS
10
183.16
20
-113.582
11
183.115
21
-113.6
0
LINE
8
BLACK
6
CONTINUOUS
10
183.115
20
-113.6
11
183.07
21
-113.582
0
LINE
8
BLACK
6
CONTINUOUS
10
183.07
20
-113.582
11
183.051
21
-113.537
0
LINE
8
BLACK
6
CONTINUOUS
10
183.051
20
-113.537
11
183.051
21
-113.256
0
LINE
8
BLACK
6
CONTINUOUS
10
183.051
20
-113.256
11
182.867
21
-113.256
0
LINE
8
BLACK
6
CONTINUOUS
10
182.867
20
-113.256
11
182.867
21
-114.846
0
LINE
8
BLACK
6
CONTINUOUS
10
182.867
20
-114.846
11
182.866
21
-114.851
0
LINE
8
BLACK
6
CONTINUOUS
10
182.866
20
-114.851
11
182.867
21
-114.853
0
LINE
8
BLACK
6
CONTINUOUS
10
182.867
20
-114.853
11
182.866
21
-114.856
0
LINE
8
BLACK
6
CONTINUOUS
10
182.866
20
-114.856
11
182.863
21
-114.872
0
LINE
8
BLACK
6
CONTINUOUS
10
182.863
20
-114.872
11
182.852
21
-114.885
0
LINE
8
BLACK
6
CONTINUOUS
10
182.852
20
-114.885
11
182.845
21
-114.9
0
LINE
8
BLACK
6
CONTINUOUS
10
182.845
20
-114.9
11
182.645
21
-115.1
0
LINE
8
BLACK
6
CONTINUOUS
10
182.645
20
-115.1
11
182.845
21
-115.3
0
LINE
8
BLACK
6
CONTINUOUS
10
182.845
20
-115.3
11
182.848
21
-115.304
0
LINE
8
BLACK
6
CONTINUOUS
10
182.848
20
-115.304
11
182.849
21
-115.305
0
LINE
8
BLACK
6
CONTINUOUS
10
182.849
20
-115.305
11
182.851
21
-115.308
0
LINE
8
BLACK
6
CONTINUOUS
10
182.851
20
-115.308
11
182.86
21
-115.322
0
LINE
8
BLACK
6
CONTINUOUS
10
182.86
20
-115.322
11
182.862
21
-115.338
0
LINE
8
BLACK
6
CONTINUOUS
10
182.862
20
-115.338
11
182.867
21
-115.354
0
LINE
8
BLACK
6
CONTINUOUS
10
182.867
20
-115.354
11
182.867
21
-117.64
0
LINE
8
BLACK
6
CONTINUOUS
10
182.867
20
-117.64
11
182.866
21
-117.65
0
LINE
8
BLACK
6
CONTINUOUS
10
182.866
20
-117.65
11
182.866
21
-117.653
0
LINE
8
BLACK
6
CONTINUOUS
10
182.866
20
-117.653
11
182.864
21
-117.656
0
LINE
8
BLACK
6
CONTINUOUS
10
182.864
20
-117.656
11
182.863
21
-117.666
0
LINE
8
BLACK
6
CONTINUOUS
10
182.863
20
-117.666
11
182.85
21
-117.681
0
LINE
8
BLACK
6
CONTINUOUS
10
182.85
20
-117.681
11
182.84
21
-117.698
0
LINE
8
BLACK
6
CONTINUOUS
10
182.84
20
-117.698
11
182.834
21
-117.701
0
LINE
8
BLACK
6
CONTINUOUS
10
182.834
20
-117.701
11
182.829
21
-117.706
0
LINE
8
BLACK
6
CONTINUOUS
10
182.829
20
-117.706
11
182.81
21
-117.71
0
LINE
8
BLACK
6
CONTINUOUS
10
182.81
20
-117.71
11
182.791
21
-117.716
0
LINE
8
BLACK
6
CONTINUOUS
10
182.791
20
-117.716
11
180.251
21
-117.716
0
LINE
8
BLACK
6
CONTINUOUS
10
180.251
20
-117.716
11
180.241
21
-117.715
0
LINE
8
BLACK
6
CONTINUOUS
10
180.241
20
-117.715
11
180.238
21
-117.715
0
LINE
8
BLACK
6
CONTINUOUS
10
180.238
20
-117.715
11
180.235
21
-117.713
0
LINE
8
BLACK
6
CONTINUOUS
10
180.235
20
-117.713
11
180.225
21
-117.712
0
LINE
8
BLACK
6
CONTINUOUS
10
180.225
20
-117.712
11
180.21
21
-117.699
0
LINE
8
BLACK
6
CONTINUOUS
10
180.21
20
-117.699
11
180.193
21
-117.689
0
LINE
8
BLACK
6
CONTINUOUS
10
180.193
20
-117.689
11
180.19
21
-117.683
0
LINE
8
BLACK
6
CONTINUOUS
10
180.19
20
-117.683
11
180.185
21
-117.678
0
LINE
8
BLACK
6
CONTINUOUS
10
180.185
20
-117.678
11
180.182
21
-117.659
0
LINE
8
BLACK
6
CONTINUOUS
10
180.182
20
-117.659
11
180.175
21
-117.64
0
LINE
8
BLACK
6
CONTINUOUS
10
180.175
20
-117.64
11
180.175
21
-115.354
0
LINE
8
BLACK
6
CONTINUOUS
10
180.175
20
-115.354
11
180.176
21
-115.349
0
LINE
8
BLACK
6
CONTINUOUS
10
180.176
20
-115.349
11
180.175
21
-115.347
0
LINE
8
BLACK
6
CONTINUOUS
10
180.175
20
-115.347
11
180.177
21
-115.344
0
LINE
8
BLACK
6
CONTINUOUS
10
180.177
20
-115.344
11
180.179
21
-115.328
0
LINE
8
BLACK
6
CONTINUOUS
10
180.179
20
-115.328
11
180.19
21
-115.315
0
LINE
8
BLACK
6
CONTINUOUS
10
180.19
20
-115.315
11
180.197
21
-115.3
0
LINE
8
BLACK
6
CONTINUOUS
10
180.197
20
-115.3
11
180.397
21
-115.1
0
LINE
8
BLACK
6
CONTINUOUS
10
180.397
20
-115.1
11
180.197
21
-114.9
0
LINE
8
BLACK
6
CONTINUOUS
10
180.197
20
-114.9
11
180.195
21
-114.896
0
LINE
8
BLACK
6
CONTINUOUS
10
180.195
20
-114.896
11
180.193
21
-114.895
0
LINE
8
BLACK
6
CONTINUOUS
10
180.193
20
-114.895
11
180.192
21
-114.892
0
LINE
8
BLACK
6
CONTINUOUS
10
180.192
20
-114.892
11
180.182
21
-114.878
0
LINE
8
BLACK
6
CONTINUOUS
10
180.182
20
-114.878
11
180.181
21
-114.862
0
LINE
8
BLACK
6
CONTINUOUS
10
180.181
20
-114.862
11
180.175
21
-114.846
0
LINE
8
BLACK
6
CONTINUOUS
10
180.175
20
-114.846
11
180.175
21
-112.814
0
LINE
8
BLACK
6
CONTINUOUS
10
180.175
20
-112.814
11
180.176
21
-112.809
0
LINE
8
BLACK
6
CONTINUOUS
10
180.176
20
-112.809
11
180.175
21
-112.807
0
LINE
8
BLACK
6
CONTINUOUS
10
180.175
20
-112.807
11
180.177
21
-112.804
0
LINE
8
BLACK
6
CONTINUOUS
10
180.177
20
-112.804
11
180.179
21
-112.788
0
LINE
8
BLACK
6
CONTINUOUS
10
180.179
20
-112.788
11
180.19
21
-112.775
0
LINE
8
BLACK
6
CONTINUOUS
10
180.19
20
-112.775
11
180.197
21
-112.76
0
LINE
8
BLACK
6
CONTINUOUS
10
180.197
20
-112.76
11
180.397
21
-112.56
0
LINE
8
BLACK
6
CONTINUOUS
10
180.397
20
-112.56
11
180.197
21
-112.36
0
LINE
8
BLACK
6
CONTINUOUS
10
180.197
20
-112.36
11
180.195
21
-112.356
0
LINE
8
BLACK
6
CONTINUOUS
10
180.195
20
-112.356
11
180.193
21
-112.355
0
LINE
8
BLACK
6
CONTINUOUS
10
180.193
20
-112.355
11
180.192
21
-112.352
0
LINE
8
BLACK
6
CONTINUOUS
10
180.192
20
-112.352
11
180.182
21
-112.338
0
LINE
8
BLACK
6
CONTINUOUS
10
180.182
20
-112.338
11
180.181
21
-112.322
0
LINE
8
BLACK
6
CONTINUOUS
10
180.181
20
-112.322
11
180.175
21
-112.306
0
LINE
8
BLACK
6
CONTINUOUS
10
180.175
20
-112.306
11
180.175
21
-110.274
0
LINE
8
BLACK
6
CONTINUOUS
10
180.175
20
-110.274
11
180.176
21
-110.269
0
LINE
8
BLACK
6
CONTINUOUS
10
180.176
20
-110.269
11
180.175
21
-110.267
0
LINE
8
BLACK
6
CONTINUOUS
10
180.175
20
-110.267
11
180.177
21
-110.264
0
LINE
8
BLACK
6
CONTINUOUS
10
180.177
20
-110.264
11
180.179
21
-110.248
0
LINE
8
BLACK
6
CONTINUOUS
10
180.179
20
-110.248
11
180.19
21
-110.235
0
LINE
8
BLACK
6
CONTINUOUS
10
180.19
20
-110.235
11
180.197
21
-110.22
0
LINE
8
BLACK
6
CONTINUOUS
10
180.197
20
-110.22
11
180.397
21
-110.02
0
LINE
8
BLACK
6
CONTINUOUS
10
180.397
20
-110.02
11
180.197
21
-109.82
0
LINE
8
BLACK
6
CONTINUOUS
10
180.197
20
-109.82
11
180.195
21
-109.816
0
LINE
8
BLACK
6
CONTINUOUS
10
180.195
20
-109.816
11
180.193
21
-109.815
0
LINE
8
BLACK
6
CONTINUOUS
10
180.193
20
-109.815
11
180.192
21
-109.812
0
LINE
8
BLACK
6
CONTINUOUS
10
180.192
20
-109.812
11
180.182
21
-109.798
0
LINE
8
BLACK
6
CONTINUOUS
10
180.182
20
-109.798
11
180.181
21
-109.782
0
LINE
8
BLACK
6
CONTINUOUS
10
180.181
20
-109.782
11
180.175
21
-109.766
0
LINE
8
BLACK
6
CONTINUOUS
10
180.175
20
-109.766
11
180.175
21
-107.734
0
LINE
8
BLACK
6
CONTINUOUS
10
180.175
20
-107.734
11
180.176
21
-107.729
0
LINE
8
BLACK
6
CONTINUOUS
10
180.176
20
-107.729
11
180.175
21
-107.727
0
LINE
8
BLACK
6
CONTINUOUS
10
180.175
20
-107.727
11
180.177
21
-107.724
0
LINE
8
BLACK
6
CONTINUOUS
10
180.177
20
-107.724
11
180.179
21
-107.708
0
LINE
8
BLACK
6
CONTINUOUS
10
180.179
20
-107.708
11
180.19
21
-107.695
0
LINE
8
BLACK
6
CONTINUOUS
10
180.19
20
-107.695
11
180.197
21
-107.68
0
LINE
8
BLACK
6
CONTINUOUS
10
180.197
20
-107.68
11
180.397
21
-107.48
0
LINE
8
BLACK
6
CONTINUOUS
10
180.397
20
-107.48
11
180.197
21
-107.28
0
LINE
8
BLACK
6
CONTINUOUS
10
180.197
20
-107.28
11
180.195
21
-107.276
0
LINE
8
BLACK
6
CONTINUOUS
10
180.195
20
-107.276
11
180.193
21
-107.275
0
LINE
8
BLACK
6
CONTINUOUS
10
180.193
20
-107.275
11
180.192
21
-107.272
0
LINE
8
BLACK
6
CONTINUOUS
10
180.192
20
-107.272
11
180.182
21
-107.258
0
LINE
8
BLACK
6
CONTINUOUS
10
180.182
20
-107.258
11
180.181
21
-107.242
0
LINE
8
BLACK
6
CONTINUOUS
10
180.181
20
-107.242
11
180.175
21
-107.226
0
LINE
8
BLACK
6
CONTINUOUS
10
180.175
20
-107.226
11
180.175
21
-105.194
0
LINE
8
BLACK
6
CONTINUOUS
10
180.175
20
-105.194
11
180.176
21
-105.189
0
LINE
8
BLACK
6
CONTINUOUS
10
180.176
20
-105.189
11
180.175
21
-105.187
0
LINE
8
BLACK
6
CONTINUOUS
10
180.175
20
-105.187
11
180.177
21
-105.184
0
LINE
8
BLACK
6
CONTINUOUS
10
180.177
20
-105.184
11
180.179
21
-105.168
0
LINE
8
BLACK
6
CONTINUOUS
10
180.179
20
-105.168
11
180.19
21
-105.155
0
LINE
8
BLACK
6
CONTINUOUS
10
180.19
20
-105.155
11
180.197
21
-105.14
0
LINE
8
BLACK
6
CONTINUOUS
10
180.197
20
-105.14
11
180.397
21
-104.94
0
LINE
8
BLACK
6
CONTINUOUS
10
180.397
20
-104.94
11
180.197
21
-104.74
0
LINE
8
BLACK
6
CONTINUOUS
10
180.197
20
-104.74
11
180.195
21
-104.736
0
LINE
8
BLACK
6
CONTINUOUS
10
180.195
20
-104.736
11
180.193
21
-104.735
0
LINE
8
BLACK
6
CONTINUOUS
10
180.193
20
-104.735
11
180.192
21
-104.732
0
LINE
8
BLACK
6
CONTINUOUS
10
180.192
20
-104.732
11
180.182
21
-104.718
0
LINE
8
BLACK
6
CONTINUOUS
10
180.182
20
-104.718
11
180.181
21
-104.702
0
LINE
8
BLACK
6
CONTINUOUS
10
180.181
20
-104.702
11
180.175
21
-104.686
0
LINE
8
BLACK
6
CONTINUOUS
10
180.175
20
-104.686
11
180.175
21
-102.654
0
LINE
8
BLACK
6
CONTINUOUS
10
180.175
20
-102.654
11
180.176
21
-102.649
0
LINE
8
BLACK
6
CONTINUOUS
10
180.176
20
-102.649
11
180.175
21
-102.647
0
LINE
8
BLACK
6
CONTINUOUS
10
180.175
20
-102.647
11
180.177
21
-102.644
0
LINE
8
BLACK
6
CONTINUOUS
10
180.177
20
-102.644
11
180.179
21
-102.628
0
LINE
8
BLACK
6
CONTINUOUS
10
180.179
20
-102.628
11
180.19
21
-102.615
0
LINE
8
BLACK
6
CONTINUOUS
10
180.19
20
-102.615
11
180.197
21
-102.6
0
LINE
8
BLACK
6
CONTINUOUS
10
180.197
20
-102.6
11
180.397
21
-102.4
0
LINE
8
BLACK
6
CONTINUOUS
10
180.397
20
-102.4
11
180.197
21
-102.2
0
LINE
8
BLACK
6
CONTINUOUS
10
180.197
20
-102.2
11
180.195
21
-102.196
0
LINE
8
BLACK
6
CONTINUOUS
10
180.195
20
-102.196
11
180.193
21
-102.195
0
LINE
8
BLACK
6
CONTINUOUS
10
180.193
20
-102.195
11
180.192
21
-102.192
0
LINE
8
BLACK
6
CONTINUOUS
10
180.192
20
-102.192
11
180.182
21
-102.178
0
LINE
8
BLACK
6
CONTINUOUS
10
180.182
20
-102.178
11
180.181
21
-102.162
0
LINE
8
BLACK
6
CONTINUOUS
10
180.181
20
-102.162
11
180.175
21
-102.146
0
LINE
8
BLACK
6
CONTINUOUS
10
180.175
20
-102.146
11
180.175
21
-100.114
0
LINE
8
BLACK
6
CONTINUOUS
10
180.175
20
-100.114
11
180.176
21
-100.109
0
LINE
8
BLACK
6
CONTINUOUS
10
180.176
20
-100.109
11
180.175
21
-100.107
0
LINE
8
BLACK
6
CONTINUOUS
10
180.175
20
-100.107
11
180.177
21
-100.104
0
LINE
8
BLACK
6
CONTINUOUS
10
180.177
20
-100.104
11
180.179
21
-100.088
0
LINE
8
BLACK
6
CONTINUOUS
10
180.179
20
-100.088
11
180.19
21
-100.075
0
LINE
8
BLACK
6
CONTINUOUS
10
180.19
20
-100.075
11
180.197
21
-100.06
0
LINE
8
BLACK
6
CONTINUOUS
10
180.197
20
-100.06
11
180.397
21
-99.8601
0
LINE
8
BLACK
6
CONTINUOUS
10
180.397
20
-99.8601
11
180.197
21
-99.66
0
LINE
8
BLACK
6
CONTINUOUS
10
180.197
20
-99.66
11
180.195
21
-99.6561
0
LINE
8
BLACK
6
CONTINUOUS
10
180.195
20
-99.6561
11
180.193
21
-99.6551
0
LINE
8
BLACK
6
CONTINUOUS
10
180.193
20
-99.6551
11
180.192
21
-99.6519
0
LINE
8
BLACK
6
CONTINUOUS
10
180.192
20
-99.6519
11
180.182
21
-99.6383
0
LINE
8
BLACK
6
CONTINUOUS
10
180.182
20
-99.6383
11
180.181
21
-99.6217
0
LINE
8
BLACK
6
CONTINUOUS
10
180.181
20
-99.6217
11
180.175
21
-99.6061
0
LINE
8
BLACK
6
CONTINUOUS
10
180.175
20
-99.6061
11
180.175
21
-97.5741
0
LINE
8
BLACK
6
CONTINUOUS
10
180.175
20
-97.5741
11
180.176
21
-97.5694
0
LINE
8
BLACK
6
CONTINUOUS
10
180.176
20
-97.5694
11
180.175
21
-97.5675
0
LINE
8
BLACK
6
CONTINUOUS
10
180.175
20
-97.5675
11
180.177
21
-97.5644
0
LINE
8
BLACK
6
CONTINUOUS
10
180.177
20
-97.5644
11
180.179
21
-97.548
0
LINE
8
BLACK
6
CONTINUOUS
10
180.179
20
-97.548
11
180.19
21
-97.5353
0
LINE
8
BLACK
6
CONTINUOUS
10
180.19
20
-97.5353
11
180.197
21
-97.5202
0
LINE
8
BLACK
6
CONTINUOUS
10
180.197
20
-97.5202
11
180.397
21
-97.3201
0
LINE
8
BLACK
6
CONTINUOUS
10
180.397
20
-97.3201
11
180.197
21
-97.12
0
LINE
8
BLACK
6
CONTINUOUS
10
180.197
20
-97.12
11
180.195
21
-97.1161
0
LINE
8
BLACK
6
CONTINUOUS
10
180.195
20
-97.1161
11
180.193
21
-97.1151
0
LINE
8
BLACK
6
CONTINUOUS
10
180.193
20
-97.1151
11
180.192
21
-97.1119
0
LINE
8
BLACK
6
CONTINUOUS
10
180.192
20
-97.1119
11
180.182
21
-97.0983
0
LINE
8
BLACK
6
CONTINUOUS
10
180.182
20
-97.0983
11
180.181
21
-97.0817
0
LINE
8
BLACK
6
CONTINUOUS
10
180.181
20
-97.0817
11
180.175
21
-97.0661
0
LINE
8
BLACK
6
CONTINUOUS
10
180.175
20
-97.0661
11
180.175
21
-94.7801
0
LINE
8
BLACK
6
CONTINUOUS
10
180.175
20
-94.7801
11
180.177
21
-94.7702
0
LINE
8
BLACK
6
CONTINUOUS
10
180.177
20
-94.7702
11
180.176
21
-94.7669
0
LINE
8
BLACK
6
CONTINUOUS
10
180.176
20
-94.7669
11
180.178
21
-94.7639
0
LINE
8
BLACK
6
CONTINUOUS
10
180.178
20
-94.7639
11
180.179
21
-94.754
0
LINE
8
BLACK
6
CONTINUOUS
10
180.179
20
-94.754
11
180.192
21
-94.7389
0
LINE
8
BLACK
6
CONTINUOUS
10
180.192
20
-94.7389
11
180.202
21
-94.7217
0
LINE
8
BLACK
6
CONTINUOUS
10
180.202
20
-94.7217
11
180.209
21
-94.7194
0
LINE
8
BLACK
6
CONTINUOUS
10
180.209
20
-94.7194
11
180.213
21
-94.7141
0
LINE
8
BLACK
6
CONTINUOUS
10
180.213
20
-94.7141
11
180.232
21
-94.7107
0
LINE
8
BLACK
6
CONTINUOUS
10
180.232
20
-94.7107
11
180.251
21
-94.7039
0
LINE
8
BLACK
6
CONTINUOUS
10
180.251
20
-94.7039
11
182.791
21
-94.7039
0
LINE
8
BLACK
6
CONTINUOUS
10
182.791
20
-94.7039
11
182.801
21
-94.7056
0
LINE
8
BLACK
6
CONTINUOUS
10
180.327
20
-94.8563
11
180.327
21
-97.0345
0
LINE
8
BLACK
6
CONTINUOUS
10
180.327
20
-97.0345
11
180.559
21
-97.2662
0
LINE
8
BLACK
6
CONTINUOUS
10
180.559
20
-97.2662
11
180.565
21
-97.2745
0
LINE
8
BLACK
6
CONTINUOUS
10
180.565
20
-97.2745
11
180.568
21
-97.2764
0
LINE
8
BLACK
6
CONTINUOUS
10
180.568
20
-97.2764
11
180.568
21
-97.2797
0
LINE
8
BLACK
6
CONTINUOUS
10
180.568
20
-97.2797
11
180.574
21
-97.2879
0
LINE
8
BLACK
6
CONTINUOUS
10
180.574
20
-97.2879
11
180.576
21
-97.3076
0
LINE
8
BLACK
6
CONTINUOUS
10
180.576
20
-97.3076
11
180.581
21
-97.3267
0
LINE
8
BLACK
6
CONTINUOUS
10
180.581
20
-97.3267
11
180.578
21
-97.333
0
LINE
8
BLACK
6
CONTINUOUS
10
180.578
20
-97.333
11
180.579
21
-97.3398
0
LINE
8
BLACK
6
CONTINUOUS
10
180.579
20
-97.3398
11
180.567
21
-97.356
0
LINE
8
BLACK
6
CONTINUOUS
10
180.567
20
-97.356
11
180.559
21
-97.374
0
LINE
8
BLACK
6
CONTINUOUS
10
180.559
20
-97.374
11
180.327
21
-97.6057
0
LINE
8
BLACK
6
CONTINUOUS
10
180.327
20
-97.6057
11
180.327
21
-99.5745
0
LINE
8
BLACK
6
CONTINUOUS
10
180.327
20
-99.5745
11
180.559
21
-99.8062
0
LINE
8
BLACK
6
CONTINUOUS
10
180.559
20
-99.8062
11
180.565
21
-99.8145
0
LINE
8
BLACK
6
CONTINUOUS
10
180.565
20
-99.8145
11
180.568
21
-99.8164
0
LINE
8
BLACK
6
CONTINUOUS
10
180.568
20
-99.8164
11
180.568
21
-99.8197
0
LINE
8
BLACK
6
CONTINUOUS
10
180.568
20
-99.8197
11
180.574
21
-99.8279
0
LINE
8
BLACK
6
CONTINUOUS
10
180.574
20
-99.8279
11
180.576
21
-99.8476
0
LINE
8
BLACK
6
CONTINUOUS
10
180.576
20
-99.8476
11
180.581
21
-99.8667
0
LINE
8
BLACK
6
CONTINUOUS
10
180.581
20
-99.8667
11
180.578
21
-99.873
0
LINE
8
BLACK
6
CONTINUOUS
10
180.578
20
-99.873
11
180.579
21
-99.8798
0
LINE
8
BLACK
6
CONTINUOUS
10
180.579
20
-99.8798
11
180.567
21
-99.896
0
LINE
8
BLACK
6
CONTINUOUS
10
180.567
20
-99.896
11
180.559
21
-99.914
0
LINE
8
BLACK
6
CONTINUOUS
10
180.559
20
-99.914
11
180.327
21
-100.146
0
LINE
8
BLACK
6
CONTINUOUS
10
180.327
20
-100.146
11
180.327
21
-102.115
0
LINE
8
BLACK
6
CONTINUOUS
10
180.327
20
-102.115
11
180.559
21
-102.346
0
LINE
8
BLACK
6
CONTINUOUS
10
180.559
20
-102.346
11
180.565
21
-102.354
0
LINE
8
BLACK
6
CONTINUOUS
10
180.565
20
-102.354
11
180.568
21
-102.356
0
LINE
8
BLACK
6
CONTINUOUS
10
180.568
20
-102.356
11
180.568
21
-102.36
0
LINE
8
BLACK
6
CONTINUOUS
10
180.568
20
-102.36
11
180.574
21
-102.368
0
LINE
8
BLACK
6
CONTINUOUS
10
180.574
20
-102.368
11
180.576
21
-102.388
0
LINE
8
BLACK
6
CONTINUOUS
10
180.576
20
-102.388
11
180.581
21
-102.407
0
LINE
8
BLACK
6
CONTINUOUS
10
180.581
20
-102.407
11
180.578
21
-102.413
0
LINE
8
BLACK
6
CONTINUOUS
10
180.578
20
-102.413
11
180.579
21
-102.42
0
LINE
8
BLACK
6
CONTINUOUS
10
180.579
20
-102.42
11
180.567
21
-102.436
0
LINE
8
BLACK
6
CONTINUOUS
10
180.567
20
-102.436
11
180.559
21
-102.454
0
LINE
8
BLACK
6
CONTINUOUS
10
180.559
20
-102.454
11
180.327
21
-102.686
0
LINE
8
BLACK
6
CONTINUOUS
10
180.327
20
-102.686
11
180.327
21
-104.655
0
LINE
8
BLACK
6
CONTINUOUS
10
180.327
20
-104.655
11
180.559
21
-104.886
0
LINE
8
BLACK
6
CONTINUOUS
10
180.559
20
-104.886
11
180.565
21
-104.894
0
LINE
8
BLACK
6
CONTINUOUS
10
180.565
20
-104.894
11
180.568
21
-104.896
0
LINE
8
BLACK
6
CONTINUOUS
10
180.568
20
-104.896
11
180.568
21
-104.9
0
LINE
8
BLACK
6
CONTINUOUS
10
180.568
20
-104.9
11
180.574
21
-104.908
0
LINE
8
BLACK
6
CONTINUOUS
10
180.574
20
-104.908
11
180.576
21
-104.928
0
LINE
8
BLACK
6
CONTINUOUS
10
180.576
20
-104.928
11
180.581
21
-104.947
0
LINE
8
BLACK
6
CONTINUOUS
10
180.581
20
-104.947
11
180.578
21
-104.953
0
LINE
8
BLACK
6
CONTINUOUS
10
180.578
20
-104.953
11
180.579
21
-104.96
0
LINE
8
BLACK
6
CONTINUOUS
10
180.579
20
-104.96
11
180.567
21
-104.976
0
LINE
8
BLACK
6
CONTINUOUS
10
180.567
20
-104.976
11
180.559
21
-104.994
0
LINE
8
BLACK
6
CONTINUOUS
10
180.559
20
-104.994
11
180.327
21
-105.226
0
LINE
8
BLACK
6
CONTINUOUS
10
180.327
20
-105.226
11
180.327
21
-107.195
0
LINE
8
BLACK
6
CONTINUOUS
10
180.327
20
-107.195
11
180.559
21
-107.426
0
LINE
8
BLACK
6
CONTINUOUS
10
180.559
20
-107.426
11
180.565
21
-107.434
0
LINE
8
BLACK
6
CONTINUOUS
10
180.565
20
-107.434
11
180.568
21
-107.436
0
LINE
8
BLACK
6
CONTINUOUS
10
180.568
20
-107.436
11
180.568
21
-107.44
0
LINE
8
BLACK
6
CONTINUOUS
10
180.568
20
-107.44
11
180.574
21
-107.448
0
LINE
8
BLACK
6
CONTINUOUS
10
180.574
20
-107.448
11
180.576
21
-107.468
0
LINE
8
BLACK
6
CONTINUOUS
10
180.576
20
-107.468
11
180.581
21
-107.487
0
LINE
8
BLACK
6
CONTINUOUS
10
180.581
20
-107.487
11
180.578
21
-107.493
0
LINE
8
BLACK
6
CONTINUOUS
10
180.578
20
-107.493
11
180.579
21
-107.5
0
LINE
8
BLACK
6
CONTINUOUS
10
180.579
20
-107.5
11
180.567
21
-107.516
0
LINE
8
BLACK
6
CONTINUOUS
10
180.567
20
-107.516
11
180.559
21
-107.534
0
LINE
8
BLACK
6
CONTINUOUS
10
180.559
20
-107.534
11
180.327
21
-107.766
0
LINE
8
BLACK
6
CONTINUOUS
10
180.327
20
-107.766
11
180.327
21
-109.735
0
LINE
8
BLACK
6
CONTINUOUS
10
180.327
20
-109.735
11
180.559
21
-109.966
0
LINE
8
BLACK
6
CONTINUOUS
10
180.559
20
-109.966
11
180.565
21
-109.974
0
LINE
8
BLACK
6
CONTINUOUS
10
180.565
20
-109.974
11
180.568
21
-109.976
0
LINE
8
BLACK
6
CONTINUOUS
10
180.568
20
-109.976
11
180.568
21
-109.98
0
LINE
8
BLACK
6
CONTINUOUS
10
180.568
20
-109.98
11
180.574
21
-109.988
0
LINE
8
BLACK
6
CONTINUOUS
10
180.574
20
-109.988
11
180.576
21
-110.008
0
LINE
8
BLACK
6
CONTINUOUS
10
180.576
20
-110.008
11
180.581
21
-110.027
0
LINE
8
BLACK
6
CONTINUOUS
10
180.581
20
-110.027
11
180.578
21
-110.033
0
LINE
8
BLACK
6
CONTINUOUS
10
180.578
20
-110.033
11
180.579
21
-110.04
0
LINE
8
BLACK
6
CONTINUOUS
10
180.579
20
-110.04
11
180.567
21
-110.056
0
LINE
8
BLACK
6
CONTINUOUS
10
180.567
20
-110.056
11
180.559
21
-110.074
0
LINE
8
BLACK
6
CONTINUOUS
10
180.559
20
-110.074
11
180.327
21
-110.306
0
LINE
8
BLACK
6
CONTINUOUS
10
180.327
20
-110.306
11
180.327
21
-112.275
0
LINE
8
BLACK
6
CONTINUOUS
10
180.327
20
-112.275
11
180.559
21
-112.506
0
LINE
8
BLACK
6
CONTINUOUS
10
180.559
20
-112.506
11
180.565
21
-112.514
0
LINE
8
BLACK
6
CONTINUOUS
10
180.565
20
-112.514
11
180.568
21
-112.516
0
LINE
8
BLACK
6
CONTINUOUS
10
180.568
20
-112.516
11
180.568
21
-112.52
0
LINE
8
BLACK
6
CONTINUOUS
10
180.568
20
-112.52
11
180.574
21
-112.528
0
LINE
8
BLACK
6
CONTINUOUS
10
180.574
20
-112.528
11
180.576
21
-112.548
0
LINE
8
BLACK
6
CONTINUOUS
10
180.576
20
-112.548
11
180.581
21
-112.567
0
LINE
8
BLACK
6
CONTINUOUS
10
180.581
20
-112.567
11
180.578
21
-112.573
0
LINE
8
BLACK
6
CONTINUOUS
10
180.578
20
-112.573
11
180.579
21
-112.58
0
LINE
8
BLACK
6
CONTINUOUS
10
180.579
20
-112.58
11
180.567
21
-112.596
0
LINE
8
BLACK
6
CONTINUOUS
10
180.567
20
-112.596
11
180.559
21
-112.614
0
LINE
8
BLACK
6
CONTINUOUS
10
180.559
20
-112.614
11
180.327
21
-112.846
0
LINE
8
BLACK
6
CONTINUOUS
10
180.327
20
-112.846
11
180.327
21
-114.815
0
LINE
8
BLACK
6
CONTINUOUS
10
180.327
20
-114.815
11
180.559
21
-115.046
0
LINE
8
BLACK
6
CONTINUOUS
10
180.559
20
-115.046
11
180.565
21
-115.054
0
LINE
8
BLACK
6
CONTINUOUS
10
180.565
20
-115.054
11
180.568
21
-115.056
0
LINE
8
BLACK
6
CONTINUOUS
10
180.568
20
-115.056
11
180.568
21
-115.06
0
LINE
8
BLACK
6
CONTINUOUS
10
180.568
20
-115.06
11
180.574
21
-115.068
0
LINE
8
BLACK
6
CONTINUOUS
10
180.574
20
-115.068
11
180.576
21
-115.088
0
LINE
8
BLACK
6
CONTINUOUS
10
180.576
20
-115.088
11
180.581
21
-115.107
0
LINE
8
BLACK
6
CONTINUOUS
10
180.581
20
-115.107
11
180.578
21
-115.113
0
LINE
8
BLACK
6
CONTINUOUS
10
180.578
20
-115.113
11
180.579
21
-115.12
0
LINE
8
BLACK
6
CONTINUOUS
10
180.579
20
-115.12
11
180.567
21
-115.136
0
LINE
8
BLACK
6
CONTINUOUS
10
180.567
20
-115.136
11
180.559
21
-115.154
0
LINE
8
BLACK
6
CONTINUOUS
10
180.559
20
-115.154
11
180.327
21
-115.386
0
LINE
8
BLACK
6
CONTINUOUS
10
180.327
20
-115.386
11
180.327
21
-117.564
0
LINE
8
BLACK
6
CONTINUOUS
10
180.327
20
-117.564
11
182.715
21
-117.564
0
LINE
8
BLACK
6
CONTINUOUS
10
182.715
20
-117.564
11
182.715
21
-115.386
0
LINE
8
BLACK
6
CONTINUOUS
10
182.715
20
-115.386
11
182.483
21
-115.154
0
LINE
8
BLACK
6
CONTINUOUS
10
182.483
20
-115.154
11
182.477
21
-115.146
0
LINE
8
BLACK
6
CONTINUOUS
10
182.477
20
-115.146
11
182.475
21
-115.144
0
LINE
8
BLACK
6
CONTINUOUS
10
182.475
20
-115.144
11
182.474
21
-115.141
0
LINE
8
BLACK
6
CONTINUOUS
10
182.474
20
-115.141
11
182.468
21
-115.132
0
LINE
8
BLACK
6
CONTINUOUS
10
182.468
20
-115.132
11
182.466
21
-115.113
0
LINE
8
BLACK
6
CONTINUOUS
10
182.466
20
-115.113
11
182.461
21
-115.093
0
LINE
8
BLACK
6
CONTINUOUS
10
182.461
20
-115.093
11
182.464
21
-115.087
0
LINE
8
BLACK
6
CONTINUOUS
10
182.464
20
-115.087
11
182.463
21
-115.08
0
LINE
8
BLACK
6
CONTINUOUS
10
182.463
20
-115.08
11
182.475
21
-115.064
0
LINE
8
BLACK
6
CONTINUOUS
10
182.475
20
-115.064
11
182.483
21
-115.046
0
LINE
8
BLACK
6
CONTINUOUS
10
182.483
20
-115.046
11
182.715
21
-114.815
0
LINE
8
BLACK
6
CONTINUOUS
10
182.715
20
-114.815
11
182.715
21
-113.256
0
LINE
8
BLACK
6
CONTINUOUS
10
182.715
20
-113.256
11
181.908
21
-113.256
0
LINE
8
BLACK
6
CONTINUOUS
10
181.908
20
-113.256
11
181.902
21
-113.253
0
LINE
8
BLACK
6
CONTINUOUS
10
181.902
20
-113.253
11
181.896
21
-113.254
0
LINE
8
BLACK
6
CONTINUOUS
10
181.896
20
-113.254
11
181.88
21
-113.244
0
LINE
8
BLACK
6
CONTINUOUS
10
181.88
20
-113.244
11
181.863
21
-113.237
0
LINE
8
BLACK
6
CONTINUOUS
10
181.863
20
-113.237
11
181.861
21
-113.231
0
LINE
8
BLACK
6
CONTINUOUS
10
181.861
20
-113.231
11
181.855
21
-113.227
0
LINE
8
BLACK
6
CONTINUOUS
10
181.855
20
-113.227
11
181.852
21
-113.209
0
LINE
8
BLACK
6
CONTINUOUS
10
181.852
20
-113.209
11
181.845
21
-113.192
0
LINE
8
BLACK
6
CONTINUOUS
10
181.845
20
-113.192
11
181.847
21
-113.186
0
LINE
8
BLACK
6
CONTINUOUS
10
181.847
20
-113.186
11
181.846
21
-113.18
0
LINE
8
BLACK
6
CONTINUOUS
10
181.846
20
-113.18
11
181.856
21
-113.164
0
LINE
8
BLACK
6
CONTINUOUS
10
181.856
20
-113.164
11
181.863
21
-113.147
0
LINE
8
BLACK
6
CONTINUOUS
10
181.863
20
-113.147
11
181.869
21
-113.145
0
LINE
8
BLACK
6
CONTINUOUS
10
181.869
20
-113.145
11
181.873
21
-113.139
0
LINE
8
BLACK
6
CONTINUOUS
10
181.873
20
-113.139
11
182.04
21
-113.028
0
LINE
8
BLACK
6
CONTINUOUS
10
182.04
20
-113.028
11
182.143
21
-112.925
0
LINE
8
BLACK
6
CONTINUOUS
10
182.143
20
-112.925
11
182.196
21
-112.819
0
LINE
8
BLACK
6
CONTINUOUS
10
182.196
20
-112.819
11
182.233
21
-112.787
0
LINE
8
BLACK
6
CONTINUOUS
10
182.233
20
-112.787
11
182.281
21
-112.791
0
LINE
8
BLACK
6
CONTINUOUS
10
182.281
20
-112.791
11
182.313
21
-112.827
0
LINE
8
BLACK
6
CONTINUOUS
10
182.313
20
-112.827
11
182.31
21
-112.876
0
LINE
8
BLACK
6
CONTINUOUS
10
182.31
20
-112.876
11
182.252
21
-112.991
0
LINE
8
BLACK
6
CONTINUOUS
10
182.252
20
-112.991
11
182.244
21
-112.998
0
LINE
8
BLACK
6
CONTINUOUS
10
182.244
20
-112.998
11
182.24
21
-113.007
0
LINE
8
BLACK
6
CONTINUOUS
10
182.24
20
-113.007
11
182.125
21
-113.122
0
LINE
8
BLACK
6
CONTINUOUS
10
182.125
20
-113.122
11
182.119
21
-113.125
0
LINE
8
BLACK
6
CONTINUOUS
10
182.119
20
-113.125
11
182.117
21
-113.129
0
LINE
8
BLACK
6
CONTINUOUS
10
182.117
20
-113.129
11
182.715
21
-113.129
0
LINE
8
BLACK
6
CONTINUOUS
10
182.715
20
-113.129
11
182.715
21
-112.846
0
LINE
8
BLACK
6
CONTINUOUS
10
182.715
20
-112.846
11
182.483
21
-112.614
0
LINE
8
BLACK
6
CONTINUOUS
10
182.483
20
-112.614
11
182.477
21
-112.606
0
LINE
8
BLACK
6
CONTINUOUS
10
182.477
20
-112.606
11
182.475
21
-112.604
0
LINE
8
BLACK
6
CONTINUOUS
10
182.475
20
-112.604
11
182.474
21
-112.601
0
LINE
8
BLACK
6
CONTINUOUS
10
182.474
20
-112.601
11
182.468
21
-112.592
0
LINE
8
BLACK
6
CONTINUOUS
10
182.468
20
-112.592
11
182.466
21
-112.573
0
LINE
8
BLACK
6
CONTINUOUS
10
182.466
20
-112.573
11
182.461
21
-112.553
0
LINE
8
BLACK
6
CONTINUOUS
10
182.461
20
-112.553
11
182.464
21
-112.547
0
LINE
8
BLACK
6
CONTINUOUS
10
182.464
20
-112.547
11
182.463
21
-112.54
0
LINE
8
BLACK
6
CONTINUOUS
10
182.463
20
-112.54
11
182.475
21
-112.524
0
LINE
8
BLACK
6
CONTINUOUS
10
182.475
20
-112.524
11
182.483
21
-112.506
0
LINE
8
BLACK
6
CONTINUOUS
10
182.483
20
-112.506
11
182.676
21
-112.314
0
LINE
8
BLACK
6
CONTINUOUS
10
182.676
20
-112.314
11
181.928
21
-112.563
0
LINE
8
BLACK
6
CONTINUOUS
10
181.928
20
-112.563
11
181.88
21
-112.559
0
LINE
8
BLACK
6
CONTINUOUS
10
181.88
20
-112.559
11
181.848
21
-112.523
0
LINE
8
BLACK
6
CONTINUOUS
10
181.848
20
-112.523
11
181.851
21
-112.474
0
LINE
8
BLACK
6
CONTINUOUS
10
181.851
20
-112.474
11
181.888
21
-112.442
0
LINE
8
BLACK
6
CONTINUOUS
10
181.888
20
-112.442
11
182.715
21
-112.167
0
LINE
8
BLACK
6
CONTINUOUS
10
182.715
20
-112.167
11
182.715
21
-112.034
0
LINE
8
BLACK
6
CONTINUOUS
10
182.715
20
-112.034
11
181.888
21
-111.759
0
LINE
8
BLACK
6
CONTINUOUS
10
181.888
20
-111.759
11
181.851
21
-111.727
0
LINE
8
BLACK
6
CONTINUOUS
10
181.851
20
-111.727
11
181.848
21
-111.678
0
LINE
8
BLACK
6
CONTINUOUS
10
181.848
20
-111.678
11
181.88
21
-111.642
0
LINE
8
BLACK
6
CONTINUOUS
10
181.88
20
-111.642
11
181.928
21
-111.638
0
LINE
8
BLACK
6
CONTINUOUS
10
181.928
20
-111.638
11
182.715
21
-111.9
0
LINE
8
BLACK
6
CONTINUOUS
10
182.715
20
-111.9
11
182.715
21
-111.397
0
LINE
8
BLACK
6
CONTINUOUS
10
182.715
20
-111.397
11
182.627
21
-111.353
0
LINE
8
BLACK
6
CONTINUOUS
10
182.627
20
-111.353
11
182.62
21
-111.345
0
LINE
8
BLACK
6
CONTINUOUS
10
182.62
20
-111.345
11
182.61
21
-111.341
0
LINE
8
BLACK
6
CONTINUOUS
10
182.61
20
-111.341
11
182.553
21
-111.284
0
LINE
8
BLACK
6
CONTINUOUS
10
182.553
20
-111.284
11
182.549
21
-111.274
0
LINE
8
BLACK
6
CONTINUOUS
10
182.549
20
-111.274
11
182.541
21
-111.267
0
LINE
8
BLACK
6
CONTINUOUS
10
182.541
20
-111.267
11
182.483
21
-111.152
0
LINE
8
BLACK
6
CONTINUOUS
10
182.483
20
-111.152
11
182.483
21
-111.145
0
LINE
8
BLACK
6
CONTINUOUS
10
182.483
20
-111.145
11
182.479
21
-111.139
0
LINE
8
BLACK
6
CONTINUOUS
10
182.479
20
-111.139
11
182.423
21
-110.916
0
LINE
8
BLACK
6
CONTINUOUS
10
182.423
20
-110.916
11
182.373
21
-110.817
0
LINE
8
BLACK
6
CONTINUOUS
10
182.373
20
-110.817
11
182.33
21
-110.774
0
LINE
8
BLACK
6
CONTINUOUS
10
182.33
20
-110.774
11
182.238
21
-110.728
0
LINE
8
BLACK
6
CONTINUOUS
10
182.238
20
-110.728
11
182.153
21
-110.728
0
LINE
8
BLACK
6
CONTINUOUS
10
182.153
20
-110.728
11
182.061
21
-110.774
0
LINE
8
BLACK
6
CONTINUOUS
10
182.061
20
-110.774
11
182.018
21
-110.817
0
LINE
8
BLACK
6
CONTINUOUS
10
182.018
20
-110.817
11
181.972
21
-110.909
0
LINE
8
BLACK
6
CONTINUOUS
10
181.972
20
-110.909
11
181.972
21
-111.171
0
LINE
8
BLACK
6
CONTINUOUS
10
181.972
20
-111.171
11
182.026
21
-111.334
0
LINE
8
BLACK
6
CONTINUOUS
10
182.026
20
-111.334
11
182.022
21
-111.382
0
LINE
8
BLACK
6
CONTINUOUS
10
182.022
20
-111.382
11
181.986
21
-111.414
0
LINE
8
BLACK
6
CONTINUOUS
10
181.986
20
-111.414
11
181.937
21
-111.41
0
LINE
8
BLACK
6
CONTINUOUS
10
181.937
20
-111.41
11
181.905
21
-111.374
0
LINE
8
BLACK
6
CONTINUOUS
10
181.905
20
-111.374
11
181.848
21
-111.201
0
LINE
8
BLACK
6
CONTINUOUS
10
181.848
20
-111.201
11
181.849
21
-111.191
0
LINE
8
BLACK
6
CONTINUOUS
10
181.849
20
-111.191
11
181.845
21
-111.181
0
LINE
8
BLACK
6
CONTINUOUS
10
181.845
20
-111.181
11
181.845
21
-110.894
0
LINE
8
BLACK
6
CONTINUOUS
10
181.845
20
-110.894
11
181.85
21
-110.88
0
LINE
8
BLACK
6
CONTINUOUS
10
181.85
20
-110.88
11
181.851
21
-110.866
0
LINE
8
BLACK
6
CONTINUOUS
10
181.851
20
-110.866
11
181.909
21
-110.751
0
LINE
8
BLACK
6
CONTINUOUS
10
181.909
20
-110.751
11
181.917
21
-110.744
0
LINE
8
BLACK
6
CONTINUOUS
10
181.917
20
-110.744
11
181.921
21
-110.734
0
LINE
8
BLACK
6
CONTINUOUS
10
181.921
20
-110.734
11
181.978
21
-110.677
0
LINE
8
BLACK
6
CONTINUOUS
10
181.978
20
-110.677
11
181.988
21
-110.673
0
LINE
8
BLACK
6
CONTINUOUS
10
181.988
20
-110.673
11
181.995
21
-110.665
0
LINE
8
BLACK
6
CONTINUOUS
10
181.995
20
-110.665
11
182.11
21
-110.607
0
LINE
8
BLACK
6
CONTINUOUS
10
182.11
20
-110.607
11
182.124
21
-110.606
0
LINE
8
BLACK
6
CONTINUOUS
10
182.124
20
-110.606
11
182.138
21
-110.601
0
LINE
8
BLACK
6
CONTINUOUS
10
182.138
20
-110.601
11
182.253
21
-110.601
0
LINE
8
BLACK
6
CONTINUOUS
10
182.253
20
-110.601
11
182.267
21
-110.606
0
LINE
8
BLACK
6
CONTINUOUS
10
182.267
20
-110.606
11
182.281
21
-110.607
0
LINE
8
BLACK
6
CONTINUOUS
10
182.281
20
-110.607
11
182.396
21
-110.665
0
LINE
8
BLACK
6
CONTINUOUS
10
182.396
20
-110.665
11
182.403
21
-110.673
0
LINE
8
BLACK
6
CONTINUOUS
10
182.403
20
-110.673
11
182.413
21
-110.677
0
LINE
8
BLACK
6
CONTINUOUS
10
182.413
20
-110.677
11
182.47
21
-110.734
0
LINE
8
BLACK
6
CONTINUOUS
10
182.47
20
-110.734
11
182.474
21
-110.744
0
LINE
8
BLACK
6
CONTINUOUS
10
182.474
20
-110.744
11
182.482
21
-110.751
0
LINE
8
BLACK
6
CONTINUOUS
10
182.482
20
-110.751
11
182.539
21
-110.866
0
LINE
8
BLACK
6
CONTINUOUS
10
182.539
20
-110.866
11
182.54
21
-110.873
0
LINE
8
BLACK
6
CONTINUOUS
10
182.54
20
-110.873
11
182.544
21
-110.879
0
LINE
8
BLACK
6
CONTINUOUS
10
182.544
20
-110.879
11
182.6
21
-111.102
0
LINE
8
BLACK
6
CONTINUOUS
10
182.6
20
-111.102
11
182.65
21
-111.201
0
LINE
8
BLACK
6
CONTINUOUS
10
182.65
20
-111.201
11
182.693
21
-111.244
0
LINE
8
BLACK
6
CONTINUOUS
10
182.693
20
-111.244
11
182.715
21
-111.255
0
LINE
8
BLACK
6
CONTINUOUS
10
182.715
20
-111.255
11
182.715
21
-110.306
0
LINE
8
BLACK
6
CONTINUOUS
10
182.715
20
-110.306
11
182.483
21
-110.074
0
LINE
8
BLACK
6
CONTINUOUS
10
182.483
20
-110.074
11
182.477
21
-110.066
0
LINE
8
BLACK
6
CONTINUOUS
10
182.477
20
-110.066
11
182.475
21
-110.064
0
LINE
8
BLACK
6
CONTINUOUS
10
182.475
20
-110.064
11
182.474
21
-110.061
0
LINE
8
BLACK
6
CONTINUOUS
10
182.474
20
-110.061
11
182.468
21
-110.052
0
LINE
8
BLACK
6
CONTINUOUS
10
182.468
20
-110.052
11
182.466
21
-110.033
0
LINE
8
BLACK
6
CONTINUOUS
10
182.466
20
-110.033
11
182.461
21
-110.013
0
LINE
8
BLACK
6
CONTINUOUS
10
182.461
20
-110.013
11
182.464
21
-110.007
0
LINE
8
BLACK
6
CONTINUOUS
10
182.464
20
-110.007
11
182.463
21
-110
0
LINE
8
BLACK
6
CONTINUOUS
10
182.463
20
-110
11
182.475
21
-109.984
0
LINE
8
BLACK
6
CONTINUOUS
10
182.475
20
-109.984
11
182.483
21
-109.966
0
LINE
8
BLACK
6
CONTINUOUS
10
182.483
20
-109.966
11
182.715
21
-109.735
0
LINE
8
BLACK
6
CONTINUOUS
10
182.715
20
-109.735
11
182.715
21
-107.766
0
LINE
8
BLACK
6
CONTINUOUS
10
182.715
20
-107.766
11
182.483
21
-107.534
0
LINE
8
BLACK
6
CONTINUOUS
10
182.483
20
-107.534
11
182.477
21
-107.526
0
LINE
8
BLACK
6
CONTINUOUS
10
182.477
20
-107.526
11
182.475
21
-107.524
0
LINE
8
BLACK
6
CONTINUOUS
10
182.475
20
-107.524
11
182.474
21
-107.521
0
LINE
8
BLACK
6
CONTINUOUS
10
182.474
20
-107.521
11
182.468
21
-107.512
0
LINE
8
BLACK
6
CONTINUOUS
10
182.468
20
-107.512
11
182.466
21
-107.493
0
LINE
8
BLACK
6
CONTINUOUS
10
182.466
20
-107.493
11
182.461
21
-107.473
0
LINE
8
BLACK
6
CONTINUOUS
10
182.461
20
-107.473
11
182.464
21
-107.467
0
LINE
8
BLACK
6
CONTINUOUS
10
182.464
20
-107.467
11
182.463
21
-107.46
0
LINE
8
BLACK
6
CONTINUOUS
10
182.463
20
-107.46
11
182.475
21
-107.444
0
LINE
8
BLACK
6
CONTINUOUS
10
182.475
20
-107.444
11
182.483
21
-107.426
0
LINE
8
BLACK
6
CONTINUOUS
10
182.483
20
-107.426
11
182.715
21
-107.195
0
LINE
8
BLACK
6
CONTINUOUS
10
182.715
20
-107.195
11
182.715
21
-105.226
0
LINE
8
BLACK
6
CONTINUOUS
10
182.715
20
-105.226
11
182.483
21
-104.994
0
LINE
8
BLACK
6
CONTINUOUS
10
182.483
20
-104.994
11
182.477
21
-104.986
0
LINE
8
BLACK
6
CONTINUOUS
10
182.477
20
-104.986
11
182.475
21
-104.984
0
LINE
8
BLACK
6
CONTINUOUS
10
182.475
20
-104.984
11
182.474
21
-104.981
0
LINE
8
BLACK
6
CONTINUOUS
10
182.474
20
-104.981
11
182.468
21
-104.972
0
LINE
8
BLACK
6
CONTINUOUS
10
182.468
20
-104.972
11
182.466
21
-104.953
0
LINE
8
BLACK
6
CONTINUOUS
10
182.466
20
-104.953
11
182.461
21
-104.933
0
LINE
8
BLACK
6
CONTINUOUS
10
182.461
20
-104.933
11
182.464
21
-104.927
0
LINE
8
BLACK
6
CONTINUOUS
10
182.464
20
-104.927
11
182.463
21
-104.92
0
LINE
8
BLACK
6
CONTINUOUS
10
182.463
20
-104.92
11
182.475
21
-104.904
0
LINE
8
BLACK
6
CONTINUOUS
10
182.475
20
-104.904
11
182.483
21
-104.886
0
LINE
8
BLACK
6
CONTINUOUS
10
182.483
20
-104.886
11
182.715
21
-104.655
0
LINE
8
BLACK
6
CONTINUOUS
10
182.715
20
-104.655
11
182.715
21
-102.686
0
LINE
8
BLACK
6
CONTINUOUS
10
182.715
20
-102.686
11
182.483
21
-102.454
0
LINE
8
BLACK
6
CONTINUOUS
10
182.483
20
-102.454
11
182.477
21
-102.446
0
LINE
8
BLACK
6
CONTINUOUS
10
182.477
20
-102.446
11
182.475
21
-102.444
0
LINE
8
BLACK
6
CONTINUOUS
10
182.475
20
-102.444
11
182.474
21
-102.441
0
LINE
8
BLACK
6
CONTINUOUS
10
182.474
20
-102.441
11
182.468
21
-102.432
0
LINE
8
BLACK
6
CONTINUOUS
10
182.468
20
-102.432
11
182.466
21
-102.413
0
LINE
8
BLACK
6
CONTINUOUS
10
182.466
20
-102.413
11
182.461
21
-102.393
0
LINE
8
BLACK
6
CONTINUOUS
10
182.461
20
-102.393
11
182.464
21
-102.387
0
LINE
8
BLACK
6
CONTINUOUS
10
182.464
20
-102.387
11
182.463
21
-102.38
0
LINE
8
BLACK
6
CONTINUOUS
10
182.463
20
-102.38
11
182.475
21
-102.364
0
LINE
8
BLACK
6
CONTINUOUS
10
182.475
20
-102.364
11
182.483
21
-102.346
0
LINE
8
BLACK
6
CONTINUOUS
10
182.483
20
-102.346
11
182.715
21
-102.115
0
LINE
8
BLACK
6
CONTINUOUS
10
182.715
20
-102.115
11
182.715
21
-100.146
0
LINE
8
BLACK
6
CONTINUOUS
10
182.715
20
-100.146
11
182.483
21
-99.914
0
LINE
8
BLACK
6
CONTINUOUS
10
182.483
20
-99.914
11
182.477
21
-99.9057
0
LINE
8
BLACK
6
CONTINUOUS
10
182.477
20
-99.9057
11
182.475
21
-99.9038
0
LINE
8
BLACK
6
CONTINUOUS
10
182.475
20
-99.9038
11
182.474
21
-99.9005
0
LINE
8
BLACK
6
CONTINUOUS
10
182.474
20
-99.9005
11
182.468
21
-99.8923
0
LINE
8
BLACK
6
CONTINUOUS
10
182.468
20
-99.8923
11
182.466
21
-99.8726
0
LINE
8
BLACK
6
CONTINUOUS
10
182.466
20
-99.8726
11
182.461
21
-99.8535
0
LINE
8
BLACK
6
CONTINUOUS
10
182.461
20
-99.8535
11
182.464
21
-99.8472
0
LINE
8
BLACK
6
CONTINUOUS
10
182.464
20
-99.8472
11
182.463
21
-99.8404
0
LINE
8
BLACK
6
CONTINUOUS
10
182.463
20
-99.8404
11
182.475
21
-99.8242
0
LINE
8
BLACK
6
CONTINUOUS
10
182.475
20
-99.8242
11
182.483
21
-99.8062
0
LINE
8
BLACK
6
CONTINUOUS
10
182.483
20
-99.8062
11
182.715
21
-99.5745
0
LINE
8
BLACK
6
CONTINUOUS
10
182.715
20
-99.5745
11
182.715
21
-97.6057
0
LINE
8
BLACK
6
CONTINUOUS
10
182.715
20
-97.6057
11
182.483
21
-97.374
0
LINE
8
BLACK
6
CONTINUOUS
10
182.483
20
-97.374
11
182.477
21
-97.3657
0
LINE
8
BLACK
6
CONTINUOUS
10
182.477
20
-97.3657
11
182.475
21
-97.3638
0
LINE
8
BLACK
6
CONTINUOUS
10
182.475
20
-97.3638
11
182.474
21
-97.3605
0
LINE
8
BLACK
6
CONTINUOUS
10
182.474
20
-97.3605
11
182.468
21
-97.3523
0
LINE
8
BLACK
6
CONTINUOUS
10
182.468
20
-97.3523
11
182.466
21
-97.3326
0
LINE
8
BLACK
6
CONTINUOUS
10
182.466
20
-97.3326
11
182.461
21
-97.3135
0
LINE
8
BLACK
6
CONTINUOUS
10
182.461
20
-97.3135
11
182.464
21
-97.3072
0
LINE
8
BLACK
6
CONTINUOUS
10
182.464
20
-97.3072
11
182.463
21
-97.3004
0
LINE
8
BLACK
6
CONTINUOUS
10
182.463
20
-97.3004
11
182.475
21
-97.2842
0
LINE
8
BLACK
6
CONTINUOUS
10
182.475
20
-97.2842
11
182.483
21
-97.2662
0
LINE
8
BLACK
6
CONTINUOUS
10
182.483
20
-97.2662
11
182.715
21
-97.0345
0
LINE
8
BLACK
6
CONTINUOUS
10
182.715
20
-97.0345
11
182.715
21
-94.8563
0
LINE
8
BLACK
6
CONTINUOUS
10
182.715
20
-94.8563
11
180.327
21
-94.8563
0
LINE
8
BLACK
6
CONTINUOUS
10
182.867
20
-112.116
11
182.914
21
-112.1
0
LINE
8
BLACK
6
CONTINUOUS
10
182.914
20
-112.1
11
182.867
21
-112.085
0
LINE
8
BLACK
6
CONTINUOUS
10
182.867
20
-112.085
11
182.867
21
-112.116
0
LINE
8
BLACK
6
CONTINUOUS
10
126.87
20
-104.341
11
126.879
21
-104.341
0
LINE
8
BLACK
6
CONTINUOUS
10
126.879
20
-104.341
11
126.919
21
-104.361
0
LINE
8
BLACK
6
CONTINUOUS
10
126.919
20
-104.361
11
126.924
21
-104.349
0
LINE
8
BLACK
6
CONTINUOUS
10
126.924
20
-104.349
11
126.953
21
-104.337
0
LINE
8
BLACK
6
CONTINUOUS
10
126.953
20
-104.337
11
126.981
21
-104.349
0
LINE
8
BLACK
6
CONTINUOUS
10
126.981
20
-104.349
11
126.993
21
-104.378
0
LINE
8
BLACK
6
CONTINUOUS
10
126.993
20
-104.378
11
126.993
21
-105.343
0
LINE
8
BLACK
6
CONTINUOUS
10
126.993
20
-105.343
11
126.981
21
-105.372
0
LINE
8
BLACK
6
CONTINUOUS
10
126.981
20
-105.372
11
126.953
21
-105.384
0
LINE
8
BLACK
6
CONTINUOUS
10
126.953
20
-105.384
11
126.924
21
-105.372
0
LINE
8
BLACK
6
CONTINUOUS
10
126.924
20
-105.372
11
126.912
21
-105.343
0
LINE
8
BLACK
6
CONTINUOUS
10
126.912
20
-105.343
11
126.912
21
-105.041
0
LINE
8
BLACK
6
CONTINUOUS
10
126.912
20
-105.041
11
126.879
21
-105.057
0
LINE
8
BLACK
6
CONTINUOUS
10
126.879
20
-105.057
11
126.87
21
-105.058
0
LINE
8
BLACK
6
CONTINUOUS
10
126.87
20
-105.058
11
126.861
21
-105.062
0
LINE
8
BLACK
6
CONTINUOUS
10
126.861
20
-105.062
11
126.677
21
-105.062
0
LINE
8
BLACK
6
CONTINUOUS
10
126.677
20
-105.062
11
126.668
21
-105.058
0
LINE
8
BLACK
6
CONTINUOUS
10
126.668
20
-105.058
11
126.659
21
-105.057
0
LINE
8
BLACK
6
CONTINUOUS
10
126.659
20
-105.057
11
126.567
21
-105.012
0
LINE
8
BLACK
6
CONTINUOUS
10
126.567
20
-105.012
11
126.562
21
-105.006
0
LINE
8
BLACK
6
CONTINUOUS
10
126.562
20
-105.006
11
126.556
21
-105.004
0
LINE
8
BLACK
6
CONTINUOUS
10
126.556
20
-105.004
11
126.51
21
-104.958
0
LINE
8
BLACK
6
CONTINUOUS
10
126.51
20
-104.958
11
126.508
21
-104.952
0
LINE
8
BLACK
6
CONTINUOUS
10
126.508
20
-104.952
11
126.503
21
-104.947
0
LINE
8
BLACK
6
CONTINUOUS
10
126.503
20
-104.947
11
126.457
21
-104.855
0
LINE
8
BLACK
6
CONTINUOUS
10
126.457
20
-104.855
11
126.456
21
-104.846
0
LINE
8
BLACK
6
CONTINUOUS
10
126.456
20
-104.846
11
126.452
21
-104.837
0
LINE
8
BLACK
6
CONTINUOUS
10
126.452
20
-104.837
11
126.452
21
-104.562
0
LINE
8
BLACK
6
CONTINUOUS
10
126.452
20
-104.562
11
126.456
21
-104.553
0
LINE
8
BLACK
6
CONTINUOUS
10
126.456
20
-104.553
11
126.457
21
-104.543
0
LINE
8
BLACK
6
CONTINUOUS
10
126.457
20
-104.543
11
126.503
21
-104.451
0
LINE
8
BLACK
6
CONTINUOUS
10
126.503
20
-104.451
11
126.508
21
-104.447
0
LINE
8
BLACK
6
CONTINUOUS
10
126.508
20
-104.447
11
126.51
21
-104.441
0
LINE
8
BLACK
6
CONTINUOUS
10
126.51
20
-104.441
11
126.556
21
-104.395
0
LINE
8
BLACK
6
CONTINUOUS
10
126.556
20
-104.395
11
126.562
21
-104.392
0
LINE
8
BLACK
6
CONTINUOUS
10
126.562
20
-104.392
11
126.567
21
-104.387
0
LINE
8
BLACK
6
CONTINUOUS
10
126.567
20
-104.387
11
126.659
21
-104.341
0
LINE
8
BLACK
6
CONTINUOUS
10
126.659
20
-104.341
11
126.668
21
-104.341
0
LINE
8
BLACK
6
CONTINUOUS
10
126.668
20
-104.341
11
126.677
21
-104.337
0
LINE
8
BLACK
6
CONTINUOUS
10
126.677
20
-104.337
11
126.861
21
-104.337
0
LINE
8
BLACK
6
CONTINUOUS
10
126.861
20
-104.337
11
126.87
21
-104.341
0
LINE
8
BLACK
6
CONTINUOUS
10
126.687
20
-104.418
11
126.609
21
-104.457
0
LINE
8
BLACK
6
CONTINUOUS
10
126.609
20
-104.457
11
126.572
21
-104.494
0
LINE
8
BLACK
6
CONTINUOUS
10
126.572
20
-104.494
11
126.534
21
-104.571
0
LINE
8
BLACK
6
CONTINUOUS
10
126.534
20
-104.571
11
126.534
21
-104.828
0
LINE
8
BLACK
6
CONTINUOUS
10
126.534
20
-104.828
11
126.572
21
-104.905
0
LINE
8
BLACK
6
CONTINUOUS
10
126.572
20
-104.905
11
126.609
21
-104.942
0
LINE
8
BLACK
6
CONTINUOUS
10
126.609
20
-104.942
11
126.687
21
-104.98
0
LINE
8
BLACK
6
CONTINUOUS
10
126.687
20
-104.98
11
126.851
21
-104.98
0
LINE
8
BLACK
6
CONTINUOUS
10
126.851
20
-104.98
11
126.912
21
-104.95
0
LINE
8
BLACK
6
CONTINUOUS
10
126.912
20
-104.95
11
126.912
21
-104.449
0
LINE
8
BLACK
6
CONTINUOUS
10
126.912
20
-104.449
11
126.851
21
-104.418
0
LINE
8
BLACK
6
CONTINUOUS
10
126.851
20
-104.418
11
126.687
21
-104.418
0
LINE
8
BLACK
6
CONTINUOUS
10
124.829
20
-104.36
11
124.831
21
-104.391
0
LINE
8
BLACK
6
CONTINUOUS
10
124.831
20
-104.391
11
124.606
21
-105.02
0
LINE
8
BLACK
6
CONTINUOUS
10
124.606
20
-105.02
11
124.689
21
-105.228
0
LINE
8
BLACK
6
CONTINUOUS
10
124.689
20
-105.228
11
124.725
21
-105.264
0
LINE
8
BLACK
6
CONTINUOUS
10
124.725
20
-105.264
11
124.811
21
-105.307
0
LINE
8
BLACK
6
CONTINUOUS
10
124.811
20
-105.307
11
124.831
21
-105.33
0
LINE
8
BLACK
6
CONTINUOUS
10
124.831
20
-105.33
11
124.829
21
-105.361
0
LINE
8
BLACK
6
CONTINUOUS
10
124.829
20
-105.361
11
124.805
21
-105.381
0
LINE
8
BLACK
6
CONTINUOUS
10
124.805
20
-105.381
11
124.774
21
-105.379
0
LINE
8
BLACK
6
CONTINUOUS
10
124.774
20
-105.379
11
124.682
21
-105.333
0
LINE
8
BLACK
6
CONTINUOUS
10
124.682
20
-105.333
11
124.678
21
-105.328
0
LINE
8
BLACK
6
CONTINUOUS
10
124.678
20
-105.328
11
124.672
21
-105.326
0
LINE
8
BLACK
6
CONTINUOUS
10
124.672
20
-105.326
11
124.626
21
-105.28
0
LINE
8
BLACK
6
CONTINUOUS
10
124.626
20
-105.28
11
124.623
21
-105.272
0
LINE
8
BLACK
6
CONTINUOUS
10
124.623
20
-105.272
11
124.617
21
-105.266
0
LINE
8
BLACK
6
CONTINUOUS
10
124.617
20
-105.266
11
124.525
21
-105.036
0
LINE
8
BLACK
6
CONTINUOUS
10
124.525
20
-105.036
11
124.525
21
-105.035
0
LINE
8
BLACK
6
CONTINUOUS
10
124.525
20
-105.035
11
124.524
21
-105.035
0
LINE
8
BLACK
6
CONTINUOUS
10
124.524
20
-105.035
11
124.295
21
-104.391
0
LINE
8
BLACK
6
CONTINUOUS
10
124.295
20
-104.391
11
124.296
21
-104.36
0
LINE
8
BLACK
6
CONTINUOUS
10
124.296
20
-104.36
11
124.319
21
-104.339
0
LINE
8
BLACK
6
CONTINUOUS
10
124.319
20
-104.339
11
124.35
21
-104.341
0
LINE
8
BLACK
6
CONTINUOUS
10
124.35
20
-104.341
11
124.371
21
-104.364
0
LINE
8
BLACK
6
CONTINUOUS
10
124.371
20
-104.364
11
124.563
21
-104.9
0
LINE
8
BLACK
6
CONTINUOUS
10
124.563
20
-104.9
11
124.754
21
-104.364
0
LINE
8
BLACK
6
CONTINUOUS
10
124.754
20
-104.364
11
124.775
21
-104.341
0
LINE
8
BLACK
6
CONTINUOUS
10
124.775
20
-104.341
11
124.806
21
-104.339
0
LINE
8
BLACK
6
CONTINUOUS
10
124.806
20
-104.339
11
124.829
21
-104.36
0
LINE
8
BLACK
6
CONTINUOUS
10
119.745
20
-104.341
11
119.755
21
-104.341
0
LINE
8
BLACK
6
CONTINUOUS
10
119.755
20
-104.341
11
119.847
21
-104.387
0
LINE
8
BLACK
6
CONTINUOUS
10
119.847
20
-104.387
11
119.855
21
-104.397
0
LINE
8
BLACK
6
CONTINUOUS
10
119.855
20
-104.397
11
119.865
21
-104.405
0
LINE
8
BLACK
6
CONTINUOUS
10
119.865
20
-104.405
11
119.911
21
-104.497
0
LINE
8
BLACK
6
CONTINUOUS
10
119.911
20
-104.497
11
119.912
21
-104.507
0
LINE
8
BLACK
6
CONTINUOUS
10
119.912
20
-104.507
11
119.915
21
-104.516
0
LINE
8
BLACK
6
CONTINUOUS
10
119.915
20
-104.516
11
119.915
21
-104.562
0
LINE
8
BLACK
6
CONTINUOUS
10
119.915
20
-104.562
11
119.912
21
-104.57
0
LINE
8
BLACK
6
CONTINUOUS
10
119.912
20
-104.57
11
119.911
21
-104.58
0
LINE
8
BLACK
6
CONTINUOUS
10
119.911
20
-104.58
11
119.865
21
-104.672
0
LINE
8
BLACK
6
CONTINUOUS
10
119.865
20
-104.672
11
119.855
21
-104.68
0
LINE
8
BLACK
6
CONTINUOUS
10
119.855
20
-104.68
11
119.847
21
-104.69
0
LINE
8
BLACK
6
CONTINUOUS
10
119.847
20
-104.69
11
119.755
21
-104.736
0
LINE
8
BLACK
6
CONTINUOUS
10
119.755
20
-104.736
11
119.745
21
-104.736
0
LINE
8
BLACK
6
CONTINUOUS
10
119.745
20
-104.736
11
119.737
21
-104.74
0
LINE
8
BLACK
6
CONTINUOUS
10
119.737
20
-104.74
11
119.608
21
-104.74
0
LINE
8
BLACK
6
CONTINUOUS
10
119.608
20
-104.74
11
119.537
21
-104.776
0
LINE
8
BLACK
6
CONTINUOUS
10
119.537
20
-104.776
11
119.502
21
-104.847
0
LINE
8
BLACK
6
CONTINUOUS
10
119.502
20
-104.847
11
119.502
21
-104.874
0
LINE
8
BLACK
6
CONTINUOUS
10
119.502
20
-104.874
11
119.537
21
-104.945
0
LINE
8
BLACK
6
CONTINUOUS
10
119.537
20
-104.945
11
119.608
21
-104.98
0
LINE
8
BLACK
6
CONTINUOUS
10
119.608
20
-104.98
11
119.773
21
-104.98
0
LINE
8
BLACK
6
CONTINUOUS
10
119.773
20
-104.98
11
119.856
21
-104.939
0
LINE
8
BLACK
6
CONTINUOUS
10
119.856
20
-104.939
11
119.887
21
-104.937
0
LINE
8
BLACK
6
CONTINUOUS
10
119.887
20
-104.937
11
119.911
21
-104.957
0
LINE
8
BLACK
6
CONTINUOUS
10
119.911
20
-104.957
11
119.913
21
-104.988
0
LINE
8
BLACK
6
CONTINUOUS
10
119.913
20
-104.988
11
119.893
21
-105.012
0
LINE
8
BLACK
6
CONTINUOUS
10
119.893
20
-105.012
11
119.801
21
-105.057
0
LINE
8
BLACK
6
CONTINUOUS
10
119.801
20
-105.057
11
119.791
21
-105.058
0
LINE
8
BLACK
6
CONTINUOUS
10
119.791
20
-105.058
11
119.783
21
-105.062
0
LINE
8
BLACK
6
CONTINUOUS
10
119.783
20
-105.062
11
119.599
21
-105.062
0
LINE
8
BLACK
6
CONTINUOUS
10
119.599
20
-105.062
11
119.59
21
-105.058
0
LINE
8
BLACK
6
CONTINUOUS
10
119.59
20
-105.058
11
119.581
21
-105.057
0
LINE
8
BLACK
6
CONTINUOUS
10
119.581
20
-105.057
11
119.489
21
-105.012
0
LINE
8
BLACK
6
CONTINUOUS
10
119.489
20
-105.012
11
119.48
21
-105.002
0
LINE
8
BLACK
6
CONTINUOUS
10
119.48
20
-105.002
11
119.471
21
-104.993
0
LINE
8
BLACK
6
CONTINUOUS
10
119.471
20
-104.993
11
119.425
21
-104.901
0
LINE
8
BLACK
6
CONTINUOUS
10
119.425
20
-104.901
11
119.424
21
-104.892
0
LINE
8
BLACK
6
CONTINUOUS
10
119.424
20
-104.892
11
119.42
21
-104.883
0
LINE
8
BLACK
6
CONTINUOUS
10
119.42
20
-104.883
11
119.42
21
-104.837
0
LINE
8
BLACK
6
CONTINUOUS
10
119.42
20
-104.837
11
119.424
21
-104.829
0
LINE
8
BLACK
6
CONTINUOUS
10
119.424
20
-104.829
11
119.425
21
-104.819
0
LINE
8
BLACK
6
CONTINUOUS
10
119.425
20
-104.819
11
119.471
21
-104.727
0
LINE
8
BLACK
6
CONTINUOUS
10
119.471
20
-104.727
11
119.48
21
-104.719
0
LINE
8
BLACK
6
CONTINUOUS
10
119.48
20
-104.719
11
119.489
21
-104.709
0
LINE
8
BLACK
6
CONTINUOUS
10
119.489
20
-104.709
11
119.581
21
-104.663
0
LINE
8
BLACK
6
CONTINUOUS
10
119.581
20
-104.663
11
119.59
21
-104.662
0
LINE
8
BLACK
6
CONTINUOUS
10
119.59
20
-104.662
11
119.599
21
-104.659
0
LINE
8
BLACK
6
CONTINUOUS
10
119.599
20
-104.659
11
119.727
21
-104.659
0
LINE
8
BLACK
6
CONTINUOUS
10
119.727
20
-104.659
11
119.798
21
-104.623
0
LINE
8
BLACK
6
CONTINUOUS
10
119.798
20
-104.623
11
119.834
21
-104.552
0
LINE
8
BLACK
6
CONTINUOUS
10
119.834
20
-104.552
11
119.834
21
-104.525
0
LINE
8
BLACK
6
CONTINUOUS
10
119.834
20
-104.525
11
119.798
21
-104.454
0
LINE
8
BLACK
6
CONTINUOUS
10
119.798
20
-104.454
11
119.727
21
-104.418
0
LINE
8
BLACK
6
CONTINUOUS
10
119.727
20
-104.418
11
119.608
21
-104.418
0
LINE
8
BLACK
6
CONTINUOUS
10
119.608
20
-104.418
11
119.525
21
-104.46
0
LINE
8
BLACK
6
CONTINUOUS
10
119.525
20
-104.46
11
119.494
21
-104.462
0
LINE
8
BLACK
6
CONTINUOUS
10
119.494
20
-104.462
11
119.471
21
-104.442
0
LINE
8
BLACK
6
CONTINUOUS
10
119.471
20
-104.442
11
119.468
21
-104.411
0
LINE
8
BLACK
6
CONTINUOUS
10
119.468
20
-104.411
11
119.489
21
-104.387
0
LINE
8
BLACK
6
CONTINUOUS
10
119.489
20
-104.387
11
119.581
21
-104.341
0
LINE
8
BLACK
6
CONTINUOUS
10
119.581
20
-104.341
11
119.59
21
-104.341
0
LINE
8
BLACK
6
CONTINUOUS
10
119.59
20
-104.341
11
119.599
21
-104.337
0
LINE
8
BLACK
6
CONTINUOUS
10
119.599
20
-104.337
11
119.737
21
-104.337
0
LINE
8
BLACK
6
CONTINUOUS
10
119.737
20
-104.337
11
119.745
21
-104.341
0
LINE
8
BLACK
6
CONTINUOUS
10
119.076
20
-104.349
11
119.088
21
-104.378
0
LINE
8
BLACK
6
CONTINUOUS
10
119.088
20
-104.378
11
119.088
21
-105.021
0
LINE
8
BLACK
6
CONTINUOUS
10
119.088
20
-105.021
11
119.076
21
-105.05
0
LINE
8
BLACK
6
CONTINUOUS
10
119.076
20
-105.05
11
119.047
21
-105.062
0
LINE
8
BLACK
6
CONTINUOUS
10
119.047
20
-105.062
11
119.019
21
-105.05
0
LINE
8
BLACK
6
CONTINUOUS
10
119.019
20
-105.05
11
119.007
21
-105.021
0
LINE
8
BLACK
6
CONTINUOUS
10
119.007
20
-105.021
11
119.007
21
-104.378
0
LINE
8
BLACK
6
CONTINUOUS
10
119.007
20
-104.378
11
119.019
21
-104.349
0
LINE
8
BLACK
6
CONTINUOUS
10
119.019
20
-104.349
11
119.047
21
-104.337
0
LINE
8
BLACK
6
CONTINUOUS
10
119.047
20
-104.337
11
119.076
21
-104.349
0
LINE
8
BLACK
6
CONTINUOUS
10
132.845
20
-104.341
11
132.854
21
-104.341
0
LINE
8
BLACK
6
CONTINUOUS
10
132.854
20
-104.341
11
132.946
21
-104.387
0
LINE
8
BLACK
6
CONTINUOUS
10
132.946
20
-104.387
11
132.95
21
-104.392
0
LINE
8
BLACK
6
CONTINUOUS
10
132.95
20
-104.392
11
132.956
21
-104.395
0
LINE
8
BLACK
6
CONTINUOUS
10
132.956
20
-104.395
11
133.002
21
-104.441
0
LINE
8
BLACK
6
CONTINUOUS
10
133.002
20
-104.441
11
133.005
21
-104.447
0
LINE
8
BLACK
6
CONTINUOUS
10
133.005
20
-104.447
11
133.01
21
-104.451
0
LINE
8
BLACK
6
CONTINUOUS
10
133.01
20
-104.451
11
133.056
21
-104.543
0
LINE
8
BLACK
6
CONTINUOUS
10
133.056
20
-104.543
11
133.057
21
-104.553
0
LINE
8
BLACK
6
CONTINUOUS
10
133.057
20
-104.553
11
133.06
21
-104.562
0
LINE
8
BLACK
6
CONTINUOUS
10
133.06
20
-104.562
11
133.06
21
-104.837
0
LINE
8
BLACK
6
CONTINUOUS
10
133.06
20
-104.837
11
133.057
21
-104.846
0
LINE
8
BLACK
6
CONTINUOUS
10
133.057
20
-104.846
11
133.056
21
-104.855
0
LINE
8
BLACK
6
CONTINUOUS
10
133.056
20
-104.855
11
133.01
21
-104.947
0
LINE
8
BLACK
6
CONTINUOUS
10
133.01
20
-104.947
11
133.005
21
-104.952
0
LINE
8
BLACK
6
CONTINUOUS
10
133.005
20
-104.952
11
133.002
21
-104.958
0
LINE
8
BLACK
6
CONTINUOUS
10
133.002
20
-104.958
11
132.956
21
-105.004
0
LINE
8
BLACK
6
CONTINUOUS
10
132.956
20
-105.004
11
132.95
21
-105.006
0
LINE
8
BLACK
6
CONTINUOUS
10
132.95
20
-105.006
11
132.946
21
-105.012
0
LINE
8
BLACK
6
CONTINUOUS
10
132.946
20
-105.012
11
132.854
21
-105.057
0
LINE
8
BLACK
6
CONTINUOUS
10
132.854
20
-105.057
11
132.845
21
-105.058
0
LINE
8
BLACK
6
CONTINUOUS
10
132.845
20
-105.058
11
132.836
21
-105.062
0
LINE
8
BLACK
6
CONTINUOUS
10
132.836
20
-105.062
11
132.698
21
-105.062
0
LINE
8
BLACK
6
CONTINUOUS
10
132.698
20
-105.062
11
132.689
21
-105.058
0
LINE
8
BLACK
6
CONTINUOUS
10
132.689
20
-105.058
11
132.68
21
-105.057
0
LINE
8
BLACK
6
CONTINUOUS
10
132.68
20
-105.057
11
132.588
21
-105.012
0
LINE
8
BLACK
6
CONTINUOUS
10
132.588
20
-105.012
11
132.583
21
-105.006
0
LINE
8
BLACK
6
CONTINUOUS
10
132.583
20
-105.006
11
132.577
21
-105.004
0
LINE
8
BLACK
6
CONTINUOUS
10
132.577
20
-105.004
11
132.531
21
-104.958
0
LINE
8
BLACK
6
CONTINUOUS
10
132.531
20
-104.958
11
132.529
21
-104.952
0
LINE
8
BLACK
6
CONTINUOUS
10
132.529
20
-104.952
11
132.524
21
-104.947
0
LINE
8
BLACK
6
CONTINUOUS
10
132.524
20
-104.947
11
132.478
21
-104.855
0
LINE
8
BLACK
6
CONTINUOUS
10
132.478
20
-104.855
11
132.477
21
-104.846
0
LINE
8
BLACK
6
CONTINUOUS
10
132.477
20
-104.846
11
132.473
21
-104.837
0
LINE
8
BLACK
6
CONTINUOUS
10
132.473
20
-104.837
11
132.473
21
-104.562
0
LINE
8
BLACK
6
CONTINUOUS
10
132.473
20
-104.562
11
132.477
21
-104.553
0
LINE
8
BLACK
6
CONTINUOUS
10
132.477
20
-104.553
11
132.478
21
-104.543
0
LINE
8
BLACK
6
CONTINUOUS
10
132.478
20
-104.543
11
132.524
21
-104.451
0
LINE
8
BLACK
6
CONTINUOUS
10
132.524
20
-104.451
11
132.529
21
-104.447
0
LINE
8
BLACK
6
CONTINUOUS
10
132.529
20
-104.447
11
132.531
21
-104.441
0
LINE
8
BLACK
6
CONTINUOUS
10
132.531
20
-104.441
11
132.577
21
-104.395
0
LINE
8
BLACK
6
CONTINUOUS
10
132.577
20
-104.395
11
132.583
21
-104.392
0
LINE
8
BLACK
6
CONTINUOUS
10
132.583
20
-104.392
11
132.588
21
-104.387
0
LINE
8
BLACK
6
CONTINUOUS
10
132.588
20
-104.387
11
132.68
21
-104.341
0
LINE
8
BLACK
6
CONTINUOUS
10
132.68
20
-104.341
11
132.689
21
-104.341
0
LINE
8
BLACK
6
CONTINUOUS
10
132.689
20
-104.341
11
132.698
21
-104.337
0
LINE
8
BLACK
6
CONTINUOUS
10
132.698
20
-104.337
11
132.836
21
-104.337
0
LINE
8
BLACK
6
CONTINUOUS
10
132.836
20
-104.337
11
132.845
21
-104.341
0
LINE
8
BLACK
6
CONTINUOUS
10
132.708
20
-104.418
11
132.63
21
-104.457
0
LINE
8
BLACK
6
CONTINUOUS
10
132.63
20
-104.457
11
132.593
21
-104.494
0
LINE
8
BLACK
6
CONTINUOUS
10
132.593
20
-104.494
11
132.555
21
-104.571
0
LINE
8
BLACK
6
CONTINUOUS
10
132.555
20
-104.571
11
132.555
21
-104.828
0
LINE
8
BLACK
6
CONTINUOUS
10
132.555
20
-104.828
11
132.593
21
-104.905
0
LINE
8
BLACK
6
CONTINUOUS
10
132.593
20
-104.905
11
132.63
21
-104.942
0
LINE
8
BLACK
6
CONTINUOUS
10
132.63
20
-104.942
11
132.708
21
-104.98
0
LINE
8
BLACK
6
CONTINUOUS
10
132.708
20
-104.98
11
132.826
21
-104.98
0
LINE
8
BLACK
6
CONTINUOUS
10
132.826
20
-104.98
11
132.904
21
-104.942
0
LINE
8
BLACK
6
CONTINUOUS
10
132.904
20
-104.942
11
132.94
21
-104.905
0
LINE
8
BLACK
6
CONTINUOUS
10
132.94
20
-104.905
11
132.979
21
-104.828
0
LINE
8
BLACK
6
CONTINUOUS
10
132.979
20
-104.828
11
132.979
21
-104.571
0
LINE
8
BLACK
6
CONTINUOUS
10
132.979
20
-104.571
11
132.94
21
-104.494
0
LINE
8
BLACK
6
CONTINUOUS
10
132.94
20
-104.494
11
132.904
21
-104.457
0
LINE
8
BLACK
6
CONTINUOUS
10
132.904
20
-104.457
11
132.826
21
-104.418
0
LINE
8
BLACK
6
CONTINUOUS
10
132.826
20
-104.418
11
132.708
21
-104.418
0
LINE
8
BLACK
6
CONTINUOUS
10
118.203
20
-104.027
11
118.215
21
-104.056
0
LINE
8
BLACK
6
CONTINUOUS
10
118.215
20
-104.056
11
118.215
21
-104.358
0
LINE
8
BLACK
6
CONTINUOUS
10
118.215
20
-104.358
11
118.248
21
-104.341
0
LINE
8
BLACK
6
CONTINUOUS
10
118.248
20
-104.341
11
118.257
21
-104.341
0
LINE
8
BLACK
6
CONTINUOUS
10
118.257
20
-104.341
11
118.266
21
-104.337
0
LINE
8
BLACK
6
CONTINUOUS
10
118.266
20
-104.337
11
118.45
21
-104.337
0
LINE
8
BLACK
6
CONTINUOUS
10
118.45
20
-104.337
11
118.458
21
-104.341
0
LINE
8
BLACK
6
CONTINUOUS
10
118.458
20
-104.341
11
118.468
21
-104.341
0
LINE
8
BLACK
6
CONTINUOUS
10
118.468
20
-104.341
11
118.56
21
-104.387
0
LINE
8
BLACK
6
CONTINUOUS
10
118.56
20
-104.387
11
118.564
21
-104.392
0
LINE
8
BLACK
6
CONTINUOUS
10
118.564
20
-104.392
11
118.57
21
-104.395
0
LINE
8
BLACK
6
CONTINUOUS
10
118.57
20
-104.395
11
118.616
21
-104.441
0
LINE
8
BLACK
6
CONTINUOUS
10
118.616
20
-104.441
11
118.619
21
-104.447
0
LINE
8
BLACK
6
CONTINUOUS
10
118.619
20
-104.447
11
118.624
21
-104.451
0
LINE
8
BLACK
6
CONTINUOUS
10
118.624
20
-104.451
11
118.67
21
-104.543
0
LINE
8
BLACK
6
CONTINUOUS
10
118.67
20
-104.543
11
118.671
21
-104.553
0
LINE
8
BLACK
6
CONTINUOUS
10
118.671
20
-104.553
11
118.674
21
-104.562
0
LINE
8
BLACK
6
CONTINUOUS
10
118.674
20
-104.562
11
118.674
21
-104.837
0
LINE
8
BLACK
6
CONTINUOUS
10
118.674
20
-104.837
11
118.671
21
-104.846
0
LINE
8
BLACK
6
CONTINUOUS
10
118.671
20
-104.846
11
118.67
21
-104.855
0
LINE
8
BLACK
6
CONTINUOUS
10
118.67
20
-104.855
11
118.624
21
-104.947
0
LINE
8
BLACK
6
CONTINUOUS
10
118.624
20
-104.947
11
118.619
21
-104.952
0
LINE
8
BLACK
6
CONTINUOUS
10
118.619
20
-104.952
11
118.616
21
-104.958
0
LINE
8
BLACK
6
CONTINUOUS
10
118.616
20
-104.958
11
118.57
21
-105.004
0
LINE
8
BLACK
6
CONTINUOUS
10
118.57
20
-105.004
11
118.564
21
-105.006
0
LINE
8
BLACK
6
CONTINUOUS
10
118.564
20
-105.006
11
118.56
21
-105.012
0
LINE
8
BLACK
6
CONTINUOUS
10
118.56
20
-105.012
11
118.468
21
-105.057
0
LINE
8
BLACK
6
CONTINUOUS
10
118.468
20
-105.057
11
118.458
21
-105.058
0
LINE
8
BLACK
6
CONTINUOUS
10
118.458
20
-105.058
11
118.45
21
-105.062
0
LINE
8
BLACK
6
CONTINUOUS
10
118.45
20
-105.062
11
118.266
21
-105.062
0
LINE
8
BLACK
6
CONTINUOUS
10
118.266
20
-105.062
11
118.257
21
-105.058
0
LINE
8
BLACK
6
CONTINUOUS
10
118.257
20
-105.058
11
118.248
21
-105.057
0
LINE
8
BLACK
6
CONTINUOUS
10
118.248
20
-105.057
11
118.208
21
-105.038
0
LINE
8
BLACK
6
CONTINUOUS
10
118.208
20
-105.038
11
118.203
21
-105.05
0
LINE
8
BLACK
6
CONTINUOUS
10
118.203
20
-105.05
11
118.174
21
-105.062
0
LINE
8
BLACK
6
CONTINUOUS
10
118.174
20
-105.062
11
118.145
21
-105.05
0
LINE
8
BLACK
6
CONTINUOUS
10
118.145
20
-105.05
11
118.133
21
-105.021
0
LINE
8
BLACK
6
CONTINUOUS
10
118.133
20
-105.021
11
118.133
21
-104.056
0
LINE
8
BLACK
6
CONTINUOUS
10
118.133
20
-104.056
11
118.145
21
-104.027
0
LINE
8
BLACK
6
CONTINUOUS
10
118.145
20
-104.027
11
118.174
21
-104.015
0
LINE
8
BLACK
6
CONTINUOUS
10
118.174
20
-104.015
11
118.203
21
-104.027
0
LINE
8
BLACK
6
CONTINUOUS
10
118.276
20
-104.418
11
118.215
21
-104.449
0
LINE
8
BLACK
6
CONTINUOUS
10
118.215
20
-104.449
11
118.215
21
-104.95
0
LINE
8
BLACK
6
CONTINUOUS
10
118.215
20
-104.95
11
118.276
21
-104.98
0
LINE
8
BLACK
6
CONTINUOUS
10
118.276
20
-104.98
11
118.44
21
-104.98
0
LINE
8
BLACK
6
CONTINUOUS
10
118.44
20
-104.98
11
118.518
21
-104.942
0
LINE
8
BLACK
6
CONTINUOUS
10
118.518
20
-104.942
11
118.554
21
-104.905
0
LINE
8
BLACK
6
CONTINUOUS
10
118.554
20
-104.905
11
118.593
21
-104.828
0
LINE
8
BLACK
6
CONTINUOUS
10
118.593
20
-104.828
11
118.593
21
-104.571
0
LINE
8
BLACK
6
CONTINUOUS
10
118.593
20
-104.571
11
118.554
21
-104.494
0
LINE
8
BLACK
6
CONTINUOUS
10
118.554
20
-104.494
11
118.518
21
-104.457
0
LINE
8
BLACK
6
CONTINUOUS
10
118.518
20
-104.457
11
118.44
21
-104.418
0
LINE
8
BLACK
6
CONTINUOUS
10
118.44
20
-104.418
11
118.276
21
-104.418
0
LINE
8
BLACK
6
CONTINUOUS
10
131.098
20
-104.341
11
131.107
21
-104.341
0
LINE
8
BLACK
6
CONTINUOUS
10
131.107
20
-104.341
11
131.187
21
-104.381
0
LINE
8
BLACK
6
CONTINUOUS
10
131.187
20
-104.381
11
131.187
21
-104.378
0
LINE
8
BLACK
6
CONTINUOUS
10
131.187
20
-104.378
11
131.198
21
-104.349
0
LINE
8
BLACK
6
CONTINUOUS
10
131.198
20
-104.349
11
131.227
21
-104.337
0
LINE
8
BLACK
6
CONTINUOUS
10
131.227
20
-104.337
11
131.256
21
-104.349
0
LINE
8
BLACK
6
CONTINUOUS
10
131.256
20
-104.349
11
131.268
21
-104.378
0
LINE
8
BLACK
6
CONTINUOUS
10
131.268
20
-104.378
11
131.268
21
-105.021
0
LINE
8
BLACK
6
CONTINUOUS
10
131.268
20
-105.021
11
131.256
21
-105.05
0
LINE
8
BLACK
6
CONTINUOUS
10
131.256
20
-105.05
11
131.227
21
-105.062
0
LINE
8
BLACK
6
CONTINUOUS
10
131.227
20
-105.062
11
131.198
21
-105.05
0
LINE
8
BLACK
6
CONTINUOUS
10
131.198
20
-105.05
11
131.187
21
-105.021
0
LINE
8
BLACK
6
CONTINUOUS
10
131.187
20
-105.021
11
131.187
21
-104.486
0
LINE
8
BLACK
6
CONTINUOUS
10
131.187
20
-104.486
11
131.157
21
-104.457
0
LINE
8
BLACK
6
CONTINUOUS
10
131.157
20
-104.457
11
131.08
21
-104.418
0
LINE
8
BLACK
6
CONTINUOUS
10
131.08
20
-104.418
11
130.961
21
-104.418
0
LINE
8
BLACK
6
CONTINUOUS
10
130.961
20
-104.418
11
130.89
21
-104.454
0
LINE
8
BLACK
6
CONTINUOUS
10
130.89
20
-104.454
11
130.854
21
-104.525
0
LINE
8
BLACK
6
CONTINUOUS
10
130.854
20
-104.525
11
130.854
21
-105.021
0
LINE
8
BLACK
6
CONTINUOUS
10
130.854
20
-105.021
11
130.842
21
-105.05
0
LINE
8
BLACK
6
CONTINUOUS
10
130.842
20
-105.05
11
130.814
21
-105.062
0
LINE
8
BLACK
6
CONTINUOUS
10
130.814
20
-105.062
11
130.785
21
-105.05
0
LINE
8
BLACK
6
CONTINUOUS
10
130.785
20
-105.05
11
130.773
21
-105.021
0
LINE
8
BLACK
6
CONTINUOUS
10
130.773
20
-105.021
11
130.773
21
-104.516
0
LINE
8
BLACK
6
CONTINUOUS
10
130.773
20
-104.516
11
130.776
21
-104.507
0
LINE
8
BLACK
6
CONTINUOUS
10
130.776
20
-104.507
11
130.777
21
-104.497
0
LINE
8
BLACK
6
CONTINUOUS
10
130.777
20
-104.497
11
130.823
21
-104.405
0
LINE
8
BLACK
6
CONTINUOUS
10
130.823
20
-104.405
11
130.833
21
-104.397
0
LINE
8
BLACK
6
CONTINUOUS
10
130.833
20
-104.397
11
130.841
21
-104.387
0
LINE
8
BLACK
6
CONTINUOUS
10
130.841
20
-104.387
11
130.933
21
-104.341
0
LINE
8
BLACK
6
CONTINUOUS
10
130.933
20
-104.341
11
130.943
21
-104.341
0
LINE
8
BLACK
6
CONTINUOUS
10
130.943
20
-104.341
11
130.951
21
-104.337
0
LINE
8
BLACK
6
CONTINUOUS
10
130.951
20
-104.337
11
131.089
21
-104.337
0
LINE
8
BLACK
6
CONTINUOUS
10
131.089
20
-104.337
11
131.098
21
-104.341
0
LINE
8
BLACK
6
CONTINUOUS
10
132.129
20
-104.349
11
132.141
21
-104.378
0
LINE
8
BLACK
6
CONTINUOUS
10
132.141
20
-104.378
11
132.141
21
-104.883
0
LINE
8
BLACK
6
CONTINUOUS
10
132.141
20
-104.883
11
132.137
21
-104.892
0
LINE
8
BLACK
6
CONTINUOUS
10
132.137
20
-104.892
11
132.137
21
-104.901
0
LINE
8
BLACK
6
CONTINUOUS
10
132.137
20
-104.901
11
132.091
21
-104.993
0
LINE
8
BLACK
6
CONTINUOUS
10
132.091
20
-104.993
11
132.081
21
-105.002
0
LINE
8
BLACK
6
CONTINUOUS
10
132.081
20
-105.002
11
132.073
21
-105.012
0
LINE
8
BLACK
6
CONTINUOUS
10
132.073
20
-105.012
11
131.981
21
-105.057
0
LINE
8
BLACK
6
CONTINUOUS
10
131.981
20
-105.057
11
131.971
21
-105.058
0
LINE
8
BLACK
6
CONTINUOUS
10
131.971
20
-105.058
11
131.963
21
-105.062
0
LINE
8
BLACK
6
CONTINUOUS
10
131.963
20
-105.062
11
131.825
21
-105.062
0
LINE
8
BLACK
6
CONTINUOUS
10
131.825
20
-105.062
11
131.816
21
-105.058
0
LINE
8
BLACK
6
CONTINUOUS
10
131.816
20
-105.058
11
131.806
21
-105.057
0
LINE
8
BLACK
6
CONTINUOUS
10
131.806
20
-105.057
11
131.727
21
-105.018
0
LINE
8
BLACK
6
CONTINUOUS
10
131.727
20
-105.018
11
131.727
21
-105.021
0
LINE
8
BLACK
6
CONTINUOUS
10
131.727
20
-105.021
11
131.716
21
-105.05
0
LINE
8
BLACK
6
CONTINUOUS
10
131.716
20
-105.05
11
131.687
21
-105.062
0
LINE
8
BLACK
6
CONTINUOUS
10
131.687
20
-105.062
11
131.658
21
-105.05
0
LINE
8
BLACK
6
CONTINUOUS
10
131.658
20
-105.05
11
131.646
21
-105.021
0
LINE
8
BLACK
6
CONTINUOUS
10
131.646
20
-105.021
11
131.646
21
-104.378
0
LINE
8
BLACK
6
CONTINUOUS
10
131.646
20
-104.378
11
131.658
21
-104.349
0
LINE
8
BLACK
6
CONTINUOUS
10
131.658
20
-104.349
11
131.687
21
-104.337
0
LINE
8
BLACK
6
CONTINUOUS
10
131.687
20
-104.337
11
131.716
21
-104.349
0
LINE
8
BLACK
6
CONTINUOUS
10
131.716
20
-104.349
11
131.727
21
-104.378
0
LINE
8
BLACK
6
CONTINUOUS
10
131.727
20
-104.378
11
131.727
21
-104.912
0
LINE
8
BLACK
6
CONTINUOUS
10
131.727
20
-104.912
11
131.757
21
-104.942
0
LINE
8
BLACK
6
CONTINUOUS
10
131.757
20
-104.942
11
131.834
21
-104.98
0
LINE
8
BLACK
6
CONTINUOUS
10
131.834
20
-104.98
11
131.953
21
-104.98
0
LINE
8
BLACK
6
CONTINUOUS
10
131.953
20
-104.98
11
132.024
21
-104.945
0
LINE
8
BLACK
6
CONTINUOUS
10
132.024
20
-104.945
11
132.06
21
-104.874
0
LINE
8
BLACK
6
CONTINUOUS
10
132.06
20
-104.874
11
132.06
21
-104.378
0
LINE
8
BLACK
6
CONTINUOUS
10
132.06
20
-104.378
11
132.072
21
-104.349
0
LINE
8
BLACK
6
CONTINUOUS
10
132.072
20
-104.349
11
132.1
21
-104.337
0
LINE
8
BLACK
6
CONTINUOUS
10
132.1
20
-104.337
11
132.129
21
-104.349
0
LINE
8
BLACK
6
CONTINUOUS
10
130.383
20
-104.027
11
130.395
21
-104.056
0
LINE
8
BLACK
6
CONTINUOUS
10
130.395
20
-104.056
11
130.395
21
-104.337
0
LINE
8
BLACK
6
CONTINUOUS
10
130.395
20
-104.337
11
130.492
21
-104.337
0
LINE
8
BLACK
6
CONTINUOUS
10
130.492
20
-104.337
11
130.521
21
-104.349
0
LINE
8
BLACK
6
CONTINUOUS
10
130.521
20
-104.349
11
130.532
21
-104.378
0
LINE
8
BLACK
6
CONTINUOUS
10
130.532
20
-104.378
11
130.521
21
-104.406
0
LINE
8
BLACK
6
CONTINUOUS
10
130.521
20
-104.406
11
130.492
21
-104.418
0
LINE
8
BLACK
6
CONTINUOUS
10
130.492
20
-104.418
11
130.395
21
-104.418
0
LINE
8
BLACK
6
CONTINUOUS
10
130.395
20
-104.418
11
130.395
21
-104.883
0
LINE
8
BLACK
6
CONTINUOUS
10
130.395
20
-104.883
11
130.391
21
-104.892
0
LINE
8
BLACK
6
CONTINUOUS
10
130.391
20
-104.892
11
130.39
21
-104.901
0
LINE
8
BLACK
6
CONTINUOUS
10
130.39
20
-104.901
11
130.344
21
-104.993
0
LINE
8
BLACK
6
CONTINUOUS
10
130.344
20
-104.993
11
130.335
21
-105.002
0
LINE
8
BLACK
6
CONTINUOUS
10
130.335
20
-105.002
11
130.326
21
-105.012
0
LINE
8
BLACK
6
CONTINUOUS
10
130.326
20
-105.012
11
130.234
21
-105.057
0
LINE
8
BLACK
6
CONTINUOUS
10
130.234
20
-105.057
11
130.225
21
-105.058
0
LINE
8
BLACK
6
CONTINUOUS
10
130.225
20
-105.058
11
130.216
21
-105.062
0
LINE
8
BLACK
6
CONTINUOUS
10
130.216
20
-105.062
11
130.124
21
-105.062
0
LINE
8
BLACK
6
CONTINUOUS
10
130.124
20
-105.062
11
130.095
21
-105.05
0
LINE
8
BLACK
6
CONTINUOUS
10
130.095
20
-105.05
11
130.083
21
-105.021
0
LINE
8
BLACK
6
CONTINUOUS
10
130.083
20
-105.021
11
130.095
21
-104.992
0
LINE
8
BLACK
6
CONTINUOUS
10
130.095
20
-104.992
11
130.124
21
-104.98
0
LINE
8
BLACK
6
CONTINUOUS
10
130.124
20
-104.98
11
130.206
21
-104.98
0
LINE
8
BLACK
6
CONTINUOUS
10
130.206
20
-104.98
11
130.278
21
-104.945
0
LINE
8
BLACK
6
CONTINUOUS
10
130.278
20
-104.945
11
130.313
21
-104.874
0
LINE
8
BLACK
6
CONTINUOUS
10
130.313
20
-104.874
11
130.313
21
-104.418
0
LINE
8
BLACK
6
CONTINUOUS
10
130.313
20
-104.418
11
130.124
21
-104.418
0
LINE
8
BLACK
6
CONTINUOUS
10
130.124
20
-104.418
11
130.095
21
-104.406
0
LINE
8
BLACK
6
CONTINUOUS
10
130.095
20
-104.406
11
130.083
21
-104.378
0
LINE
8
BLACK
6
CONTINUOUS
10
130.083
20
-104.378
11
130.095
21
-104.349
0
LINE
8
BLACK
6
CONTINUOUS
10
130.095
20
-104.349
11
130.124
21
-104.337
0
LINE
8
BLACK
6
CONTINUOUS
10
130.124
20
-104.337
11
130.313
21
-104.337
0
LINE
8
BLACK
6
CONTINUOUS
10
130.313
20
-104.337
11
130.313
21
-104.056
0
LINE
8
BLACK
6
CONTINUOUS
10
130.313
20
-104.056
11
130.325
21
-104.027
0
LINE
8
BLACK
6
CONTINUOUS
10
130.325
20
-104.027
11
130.354
21
-104.015
0
LINE
8
BLACK
6
CONTINUOUS
10
130.354
20
-104.015
11
130.383
21
-104.027
0
LINE
8
BLACK
6
CONTINUOUS
10
128.682
20
-104.027
11
128.694
21
-104.056
0
LINE
8
BLACK
6
CONTINUOUS
10
128.694
20
-104.056
11
128.694
21
-104.358
0
LINE
8
BLACK
6
CONTINUOUS
10
128.694
20
-104.358
11
128.727
21
-104.341
0
LINE
8
BLACK
6
CONTINUOUS
10
128.727
20
-104.341
11
128.736
21
-104.341
0
LINE
8
BLACK
6
CONTINUOUS
10
128.736
20
-104.341
11
128.745
21
-104.337
0
LINE
8
BLACK
6
CONTINUOUS
10
128.745
20
-104.337
11
128.929
21
-104.337
0
LINE
8
BLACK
6
CONTINUOUS
10
128.929
20
-104.337
11
128.938
21
-104.341
0
LINE
8
BLACK
6
CONTINUOUS
10
128.938
20
-104.341
11
128.947
21
-104.341
0
LINE
8
BLACK
6
CONTINUOUS
10
128.947
20
-104.341
11
129.039
21
-104.387
0
LINE
8
BLACK
6
CONTINUOUS
10
129.039
20
-104.387
11
129.044
21
-104.392
0
LINE
8
BLACK
6
CONTINUOUS
10
129.044
20
-104.392
11
129.05
21
-104.395
0
LINE
8
BLACK
6
CONTINUOUS
10
129.05
20
-104.395
11
129.096
21
-104.441
0
LINE
8
BLACK
6
CONTINUOUS
10
129.096
20
-104.441
11
129.098
21
-104.447
0
LINE
8
BLACK
6
CONTINUOUS
10
129.098
20
-104.447
11
129.103
21
-104.451
0
LINE
8
BLACK
6
CONTINUOUS
10
129.103
20
-104.451
11
129.149
21
-104.543
0
LINE
8
BLACK
6
CONTINUOUS
10
129.149
20
-104.543
11
129.15
21
-104.553
0
LINE
8
BLACK
6
CONTINUOUS
10
129.15
20
-104.553
11
129.154
21
-104.562
0
LINE
8
BLACK
6
CONTINUOUS
10
129.154
20
-104.562
11
129.154
21
-104.837
0
LINE
8
BLACK
6
CONTINUOUS
10
129.154
20
-104.837
11
129.15
21
-104.846
0
LINE
8
BLACK
6
CONTINUOUS
10
129.15
20
-104.846
11
129.149
21
-104.855
0
LINE
8
BLACK
6
CONTINUOUS
10
129.149
20
-104.855
11
129.103
21
-104.947
0
LINE
8
BLACK
6
CONTINUOUS
10
129.103
20
-104.947
11
129.098
21
-104.952
0
LINE
8
BLACK
6
CONTINUOUS
10
129.098
20
-104.952
11
129.096
21
-104.958
0
LINE
8
BLACK
6
CONTINUOUS
10
129.096
20
-104.958
11
129.05
21
-105.004
0
LINE
8
BLACK
6
CONTINUOUS
10
129.05
20
-105.004
11
129.044
21
-105.006
0
LINE
8
BLACK
6
CONTINUOUS
10
129.044
20
-105.006
11
129.039
21
-105.012
0
LINE
8
BLACK
6
CONTINUOUS
10
129.039
20
-105.012
11
128.947
21
-105.057
0
LINE
8
BLACK
6
CONTINUOUS
10
128.947
20
-105.057
11
128.938
21
-105.058
0
LINE
8
BLACK
6
CONTINUOUS
10
128.938
20
-105.058
11
128.929
21
-105.062
0
LINE
8
BLACK
6
CONTINUOUS
10
128.929
20
-105.062
11
128.745
21
-105.062
0
LINE
8
BLACK
6
CONTINUOUS
10
128.745
20
-105.062
11
128.736
21
-105.058
0
LINE
8
BLACK
6
CONTINUOUS
10
128.736
20
-105.058
11
128.727
21
-105.057
0
LINE
8
BLACK
6
CONTINUOUS
10
128.727
20
-105.057
11
128.687
21
-105.038
0
LINE
8
BLACK
6
CONTINUOUS
10
128.687
20
-105.038
11
128.682
21
-105.05
0
LINE
8
BLACK
6
CONTINUOUS
10
128.682
20
-105.05
11
128.653
21
-105.062
0
LINE
8
BLACK
6
CONTINUOUS
10
128.653
20
-105.062
11
128.625
21
-105.05
0
LINE
8
BLACK
6
CONTINUOUS
10
128.625
20
-105.05
11
128.613
21
-105.021
0
LINE
8
BLACK
6
CONTINUOUS
10
128.613
20
-105.021
11
128.613
21
-104.056
0
LINE
8
BLACK
6
CONTINUOUS
10
128.613
20
-104.056
11
128.625
21
-104.027
0
LINE
8
BLACK
6
CONTINUOUS
10
128.625
20
-104.027
11
128.653
21
-104.015
0
LINE
8
BLACK
6
CONTINUOUS
10
128.653
20
-104.015
11
128.682
21
-104.027
0
LINE
8
BLACK
6
CONTINUOUS
10
128.755
20
-104.418
11
128.694
21
-104.449
0
LINE
8
BLACK
6
CONTINUOUS
10
128.694
20
-104.449
11
128.694
21
-104.95
0
LINE
8
BLACK
6
CONTINUOUS
10
128.694
20
-104.95
11
128.755
21
-104.98
0
LINE
8
BLACK
6
CONTINUOUS
10
128.755
20
-104.98
11
128.919
21
-104.98
0
LINE
8
BLACK
6
CONTINUOUS
10
128.919
20
-104.98
11
128.997
21
-104.942
0
LINE
8
BLACK
6
CONTINUOUS
10
128.997
20
-104.942
11
129.034
21
-104.905
0
LINE
8
BLACK
6
CONTINUOUS
10
129.034
20
-104.905
11
129.072
21
-104.828
0
LINE
8
BLACK
6
CONTINUOUS
10
129.072
20
-104.828
11
129.072
21
-104.571
0
LINE
8
BLACK
6
CONTINUOUS
10
129.072
20
-104.571
11
129.034
21
-104.494
0
LINE
8
BLACK
6
CONTINUOUS
10
129.034
20
-104.494
11
128.997
21
-104.457
0
LINE
8
BLACK
6
CONTINUOUS
10
128.997
20
-104.457
11
128.919
21
-104.418
0
LINE
8
BLACK
6
CONTINUOUS
10
128.919
20
-104.418
11
128.755
21
-104.418
0
LINE
8
BLACK
6
CONTINUOUS
10
127.651
20
-104.341
11
127.66
21
-104.341
0
LINE
8
BLACK
6
CONTINUOUS
10
127.66
20
-104.341
11
127.752
21
-104.387
0
LINE
8
BLACK
6
CONTINUOUS
10
127.752
20
-104.387
11
127.761
21
-104.397
0
LINE
8
BLACK
6
CONTINUOUS
10
127.761
20
-104.397
11
127.77
21
-104.405
0
LINE
8
BLACK
6
CONTINUOUS
10
127.77
20
-104.405
11
127.816
21
-104.497
0
LINE
8
BLACK
6
CONTINUOUS
10
127.816
20
-104.497
11
127.817
21
-104.507
0
LINE
8
BLACK
6
CONTINUOUS
10
127.817
20
-104.507
11
127.821
21
-104.516
0
LINE
8
BLACK
6
CONTINUOUS
10
127.821
20
-104.516
11
127.821
21
-104.562
0
LINE
8
BLACK
6
CONTINUOUS
10
127.821
20
-104.562
11
127.817
21
-104.57
0
LINE
8
BLACK
6
CONTINUOUS
10
127.817
20
-104.57
11
127.816
21
-104.58
0
LINE
8
BLACK
6
CONTINUOUS
10
127.816
20
-104.58
11
127.77
21
-104.672
0
LINE
8
BLACK
6
CONTINUOUS
10
127.77
20
-104.672
11
127.761
21
-104.68
0
LINE
8
BLACK
6
CONTINUOUS
10
127.761
20
-104.68
11
127.752
21
-104.69
0
LINE
8
BLACK
6
CONTINUOUS
10
127.752
20
-104.69
11
127.66
21
-104.736
0
LINE
8
BLACK
6
CONTINUOUS
10
127.66
20
-104.736
11
127.651
21
-104.736
0
LINE
8
BLACK
6
CONTINUOUS
10
127.651
20
-104.736
11
127.642
21
-104.74
0
LINE
8
BLACK
6
CONTINUOUS
10
127.642
20
-104.74
11
127.514
21
-104.74
0
LINE
8
BLACK
6
CONTINUOUS
10
127.514
20
-104.74
11
127.443
21
-104.776
0
LINE
8
BLACK
6
CONTINUOUS
10
127.443
20
-104.776
11
127.407
21
-104.847
0
LINE
8
BLACK
6
CONTINUOUS
10
127.407
20
-104.847
11
127.407
21
-104.874
0
LINE
8
BLACK
6
CONTINUOUS
10
127.407
20
-104.874
11
127.443
21
-104.945
0
LINE
8
BLACK
6
CONTINUOUS
10
127.443
20
-104.945
11
127.514
21
-104.98
0
LINE
8
BLACK
6
CONTINUOUS
10
127.514
20
-104.98
11
127.679
21
-104.98
0
LINE
8
BLACK
6
CONTINUOUS
10
127.679
20
-104.98
11
127.762
21
-104.939
0
LINE
8
BLACK
6
CONTINUOUS
10
127.762
20
-104.939
11
127.793
21
-104.937
0
LINE
8
BLACK
6
CONTINUOUS
10
127.793
20
-104.937
11
127.816
21
-104.957
0
LINE
8
BLACK
6
CONTINUOUS
10
127.816
20
-104.957
11
127.819
21
-104.988
0
LINE
8
BLACK
6
CONTINUOUS
10
127.819
20
-104.988
11
127.798
21
-105.012
0
LINE
8
BLACK
6
CONTINUOUS
10
127.798
20
-105.012
11
127.706
21
-105.057
0
LINE
8
BLACK
6
CONTINUOUS
10
127.706
20
-105.057
11
127.697
21
-105.058
0
LINE
8
BLACK
6
CONTINUOUS
10
127.697
20
-105.058
11
127.688
21
-105.062
0
LINE
8
BLACK
6
CONTINUOUS
10
127.688
20
-105.062
11
127.504
21
-105.062
0
LINE
8
BLACK
6
CONTINUOUS
10
127.504
20
-105.062
11
127.496
21
-105.058
0
LINE
8
BLACK
6
CONTINUOUS
10
127.496
20
-105.058
11
127.486
21
-105.057
0
LINE
8
BLACK
6
CONTINUOUS
10
127.486
20
-105.057
11
127.394
21
-105.012
0
LINE
8
BLACK
6
CONTINUOUS
10
127.394
20
-105.012
11
127.386
21
-105.002
0
LINE
8
BLACK
6
CONTINUOUS
10
127.386
20
-105.002
11
127.376
21
-104.993
0
LINE
8
BLACK
6
CONTINUOUS
10
127.376
20
-104.993
11
127.33
21
-104.901
0
LINE
8
BLACK
6
CONTINUOUS
10
127.33
20
-104.901
11
127.329
21
-104.892
0
LINE
8
BLACK
6
CONTINUOUS
10
127.329
20
-104.892
11
127.326
21
-104.883
0
LINE
8
BLACK
6
CONTINUOUS
10
127.326
20
-104.883
11
127.326
21
-104.837
0
LINE
8
BLACK
6
CONTINUOUS
10
127.326
20
-104.837
11
127.329
21
-104.829
0
LINE
8
BLACK
6
CONTINUOUS
10
127.329
20
-104.829
11
127.33
21
-104.819
0
LINE
8
BLACK
6
CONTINUOUS
10
127.33
20
-104.819
11
127.376
21
-104.727
0
LINE
8
BLACK
6
CONTINUOUS
10
127.376
20
-104.727
11
127.386
21
-104.719
0
LINE
8
BLACK
6
CONTINUOUS
10
127.386
20
-104.719
11
127.394
21
-104.709
0
LINE
8
BLACK
6
CONTINUOUS
10
127.394
20
-104.709
11
127.486
21
-104.663
0
LINE
8
BLACK
6
CONTINUOUS
10
127.486
20
-104.663
11
127.496
21
-104.662
0
LINE
8
BLACK
6
CONTINUOUS
10
127.496
20
-104.662
11
127.504
21
-104.659
0
LINE
8
BLACK
6
CONTINUOUS
10
127.504
20
-104.659
11
127.633
21
-104.659
0
LINE
8
BLACK
6
CONTINUOUS
10
127.633
20
-104.659
11
127.704
21
-104.623
0
LINE
8
BLACK
6
CONTINUOUS
10
127.704
20
-104.623
11
127.739
21
-104.552
0
LINE
8
BLACK
6
CONTINUOUS
10
127.739
20
-104.552
11
127.739
21
-104.525
0
LINE
8
BLACK
6
CONTINUOUS
10
127.739
20
-104.525
11
127.704
21
-104.454
0
LINE
8
BLACK
6
CONTINUOUS
10
127.704
20
-104.454
11
127.633
21
-104.418
0
LINE
8
BLACK
6
CONTINUOUS
10
127.633
20
-104.418
11
127.514
21
-104.418
0
LINE
8
BLACK
6
CONTINUOUS
10
127.514
20
-104.418
11
127.431
21
-104.46
0
LINE
8
BLACK
6
CONTINUOUS
10
127.431
20
-104.46
11
127.399
21
-104.462
0
LINE
8
BLACK
6
CONTINUOUS
10
127.399
20
-104.462
11
127.376
21
-104.442
0
LINE
8
BLACK
6
CONTINUOUS
10
127.376
20
-104.442
11
127.374
21
-104.411
0
LINE
8
BLACK
6
CONTINUOUS
10
127.374
20
-104.411
11
127.394
21
-104.387
0
LINE
8
BLACK
6
CONTINUOUS
10
127.394
20
-104.387
11
127.486
21
-104.341
0
LINE
8
BLACK
6
CONTINUOUS
10
127.486
20
-104.341
11
127.496
21
-104.341
0
LINE
8
BLACK
6
CONTINUOUS
10
127.496
20
-104.341
11
127.504
21
-104.337
0
LINE
8
BLACK
6
CONTINUOUS
10
127.504
20
-104.337
11
127.642
21
-104.337
0
LINE
8
BLACK
6
CONTINUOUS
10
127.642
20
-104.337
11
127.651
21
-104.341
0
LINE
8
BLACK
6
CONTINUOUS
10
123.259
20
-104.027
11
123.27
21
-104.056
0
LINE
8
BLACK
6
CONTINUOUS
10
123.27
20
-104.056
11
123.27
21
-104.337
0
LINE
8
BLACK
6
CONTINUOUS
10
123.27
20
-104.337
11
123.368
21
-104.337
0
LINE
8
BLACK
6
CONTINUOUS
10
123.368
20
-104.337
11
123.396
21
-104.349
0
LINE
8
BLACK
6
CONTINUOUS
10
123.396
20
-104.349
11
123.408
21
-104.378
0
LINE
8
BLACK
6
CONTINUOUS
10
123.408
20
-104.378
11
123.396
21
-104.406
0
LINE
8
BLACK
6
CONTINUOUS
10
123.396
20
-104.406
11
123.368
21
-104.418
0
LINE
8
BLACK
6
CONTINUOUS
10
123.368
20
-104.418
11
123.27
21
-104.418
0
LINE
8
BLACK
6
CONTINUOUS
10
123.27
20
-104.418
11
123.27
21
-104.883
0
LINE
8
BLACK
6
CONTINUOUS
10
123.27
20
-104.883
11
123.267
21
-104.892
0
LINE
8
BLACK
6
CONTINUOUS
10
123.267
20
-104.892
11
123.266
21
-104.901
0
LINE
8
BLACK
6
CONTINUOUS
10
123.266
20
-104.901
11
123.22
21
-104.993
0
LINE
8
BLACK
6
CONTINUOUS
10
123.22
20
-104.993
11
123.21
21
-105.002
0
LINE
8
BLACK
6
CONTINUOUS
10
123.21
20
-105.002
11
123.202
21
-105.012
0
LINE
8
BLACK
6
CONTINUOUS
10
123.202
20
-105.012
11
123.11
21
-105.057
0
LINE
8
BLACK
6
CONTINUOUS
10
123.11
20
-105.057
11
123.101
21
-105.058
0
LINE
8
BLACK
6
CONTINUOUS
10
123.101
20
-105.058
11
123.092
21
-105.062
0
LINE
8
BLACK
6
CONTINUOUS
10
123.092
20
-105.062
11
123
21
-105.062
0
LINE
8
BLACK
6
CONTINUOUS
10
123
20
-105.062
11
122.971
21
-105.05
0
LINE
8
BLACK
6
CONTINUOUS
10
122.971
20
-105.05
11
122.959
21
-105.021
0
LINE
8
BLACK
6
CONTINUOUS
10
122.959
20
-105.021
11
122.971
21
-104.992
0
LINE
8
BLACK
6
CONTINUOUS
10
122.971
20
-104.992
11
123
21
-104.98
0
LINE
8
BLACK
6
CONTINUOUS
10
123
20
-104.98
11
123.082
21
-104.98
0
LINE
8
BLACK
6
CONTINUOUS
10
123.082
20
-104.98
11
123.154
21
-104.945
0
LINE
8
BLACK
6
CONTINUOUS
10
123.154
20
-104.945
11
123.189
21
-104.874
0
LINE
8
BLACK
6
CONTINUOUS
10
123.189
20
-104.874
11
123.189
21
-104.418
0
LINE
8
BLACK
6
CONTINUOUS
10
123.189
20
-104.418
11
123
21
-104.418
0
LINE
8
BLACK
6
CONTINUOUS
10
123
20
-104.418
11
122.971
21
-104.406
0
LINE
8
BLACK
6
CONTINUOUS
10
122.971
20
-104.406
11
122.959
21
-104.378
0
LINE
8
BLACK
6
CONTINUOUS
10
122.959
20
-104.378
11
122.971
21
-104.349
0
LINE
8
BLACK
6
CONTINUOUS
10
122.971
20
-104.349
11
123
21
-104.337
0
LINE
8
BLACK
6
CONTINUOUS
10
123
20
-104.337
11
123.189
21
-104.337
0
LINE
8
BLACK
6
CONTINUOUS
10
123.189
20
-104.337
11
123.189
21
-104.056
0
LINE
8
BLACK
6
CONTINUOUS
10
123.189
20
-104.056
11
123.201
21
-104.027
0
LINE
8
BLACK
6
CONTINUOUS
10
123.201
20
-104.027
11
123.23
21
-104.015
0
LINE
8
BLACK
6
CONTINUOUS
10
123.23
20
-104.015
11
123.259
21
-104.027
0
LINE
8
BLACK
6
CONTINUOUS
10
117.631
20
-104.341
11
117.641
21
-104.341
0
LINE
8
BLACK
6
CONTINUOUS
10
117.641
20
-104.341
11
117.733
21
-104.387
0
LINE
8
BLACK
6
CONTINUOUS
10
117.733
20
-104.387
11
117.741
21
-104.397
0
LINE
8
BLACK
6
CONTINUOUS
10
117.741
20
-104.397
11
117.751
21
-104.405
0
LINE
8
BLACK
6
CONTINUOUS
10
117.751
20
-104.405
11
117.797
21
-104.497
0
LINE
8
BLACK
6
CONTINUOUS
10
117.797
20
-104.497
11
117.797
21
-104.507
0
LINE
8
BLACK
6
CONTINUOUS
10
117.797
20
-104.507
11
117.801
21
-104.516
0
LINE
8
BLACK
6
CONTINUOUS
10
117.801
20
-104.516
11
117.801
21
-104.883
0
LINE
8
BLACK
6
CONTINUOUS
10
117.801
20
-104.883
11
117.797
21
-104.892
0
LINE
8
BLACK
6
CONTINUOUS
10
117.797
20
-104.892
11
117.797
21
-104.901
0
LINE
8
BLACK
6
CONTINUOUS
10
117.797
20
-104.901
11
117.751
21
-104.993
0
LINE
8
BLACK
6
CONTINUOUS
10
117.751
20
-104.993
11
117.741
21
-105.002
0
LINE
8
BLACK
6
CONTINUOUS
10
117.741
20
-105.002
11
117.733
21
-105.012
0
LINE
8
BLACK
6
CONTINUOUS
10
117.733
20
-105.012
11
117.641
21
-105.057
0
LINE
8
BLACK
6
CONTINUOUS
10
117.641
20
-105.057
11
117.631
21
-105.058
0
LINE
8
BLACK
6
CONTINUOUS
10
117.631
20
-105.058
11
117.622
21
-105.062
0
LINE
8
BLACK
6
CONTINUOUS
10
117.622
20
-105.062
11
117.439
21
-105.062
0
LINE
8
BLACK
6
CONTINUOUS
10
117.439
20
-105.062
11
117.43
21
-105.058
0
LINE
8
BLACK
6
CONTINUOUS
10
117.43
20
-105.058
11
117.42
21
-105.057
0
LINE
8
BLACK
6
CONTINUOUS
10
117.42
20
-105.057
11
117.328
21
-105.012
0
LINE
8
BLACK
6
CONTINUOUS
10
117.328
20
-105.012
11
117.308
21
-104.988
0
LINE
8
BLACK
6
CONTINUOUS
10
117.308
20
-104.988
11
117.31
21
-104.957
0
LINE
8
BLACK
6
CONTINUOUS
10
117.31
20
-104.957
11
117.334
21
-104.937
0
LINE
8
BLACK
6
CONTINUOUS
10
117.334
20
-104.937
11
117.365
21
-104.939
0
LINE
8
BLACK
6
CONTINUOUS
10
117.365
20
-104.939
11
117.448
21
-104.98
0
LINE
8
BLACK
6
CONTINUOUS
10
117.448
20
-104.98
11
117.613
21
-104.98
0
LINE
8
BLACK
6
CONTINUOUS
10
117.613
20
-104.98
11
117.684
21
-104.945
0
LINE
8
BLACK
6
CONTINUOUS
10
117.684
20
-104.945
11
117.72
21
-104.874
0
LINE
8
BLACK
6
CONTINUOUS
10
117.72
20
-104.874
11
117.72
21
-104.733
0
LINE
8
BLACK
6
CONTINUOUS
10
117.72
20
-104.733
11
117.293
21
-104.647
0
LINE
8
BLACK
6
CONTINUOUS
10
117.293
20
-104.647
11
117.283
21
-104.641
0
LINE
8
BLACK
6
CONTINUOUS
10
117.283
20
-104.641
11
117.272
21
-104.636
0
LINE
8
BLACK
6
CONTINUOUS
10
117.272
20
-104.636
11
117.27
21
-104.632
0
LINE
8
BLACK
6
CONTINUOUS
10
117.27
20
-104.632
11
117.267
21
-104.63
0
LINE
8
BLACK
6
CONTINUOUS
10
117.267
20
-104.63
11
117.265
21
-104.618
0
LINE
8
BLACK
6
CONTINUOUS
10
117.265
20
-104.618
11
117.26
21
-104.607
0
LINE
8
BLACK
6
CONTINUOUS
10
117.26
20
-104.607
11
117.26
21
-104.516
0
LINE
8
BLACK
6
CONTINUOUS
10
117.26
20
-104.516
11
117.264
21
-104.507
0
LINE
8
BLACK
6
CONTINUOUS
10
117.264
20
-104.507
11
117.264
21
-104.497
0
LINE
8
BLACK
6
CONTINUOUS
10
117.264
20
-104.497
11
117.31
21
-104.405
0
LINE
8
BLACK
6
CONTINUOUS
10
117.31
20
-104.405
11
117.32
21
-104.397
0
LINE
8
BLACK
6
CONTINUOUS
10
117.32
20
-104.397
11
117.328
21
-104.387
0
LINE
8
BLACK
6
CONTINUOUS
10
117.328
20
-104.387
11
117.42
21
-104.341
0
LINE
8
BLACK
6
CONTINUOUS
10
117.42
20
-104.341
11
117.43
21
-104.341
0
LINE
8
BLACK
6
CONTINUOUS
10
117.43
20
-104.341
11
117.439
21
-104.337
0
LINE
8
BLACK
6
CONTINUOUS
10
117.439
20
-104.337
11
117.622
21
-104.337
0
LINE
8
BLACK
6
CONTINUOUS
10
117.622
20
-104.337
11
117.631
21
-104.341
0
LINE
8
BLACK
6
CONTINUOUS
10
117.448
20
-104.418
11
117.377
21
-104.454
0
LINE
8
BLACK
6
CONTINUOUS
10
117.377
20
-104.454
11
117.341
21
-104.525
0
LINE
8
BLACK
6
CONTINUOUS
10
117.341
20
-104.525
11
117.341
21
-104.574
0
LINE
8
BLACK
6
CONTINUOUS
10
117.341
20
-104.574
11
117.72
21
-104.65
0
LINE
8
BLACK
6
CONTINUOUS
10
117.72
20
-104.65
11
117.72
21
-104.525
0
LINE
8
BLACK
6
CONTINUOUS
10
117.72
20
-104.525
11
117.684
21
-104.454
0
LINE
8
BLACK
6
CONTINUOUS
10
117.684
20
-104.454
11
117.613
21
-104.418
0
LINE
8
BLACK
6
CONTINUOUS
10
117.613
20
-104.418
11
117.448
21
-104.418
0
LINE
8
BLACK
6
CONTINUOUS
10
122.707
20
-104.027
11
122.719
21
-104.056
0
LINE
8
BLACK
6
CONTINUOUS
10
122.719
20
-104.056
11
122.719
21
-105.021
0
LINE
8
BLACK
6
CONTINUOUS
10
122.719
20
-105.021
11
122.707
21
-105.05
0
LINE
8
BLACK
6
CONTINUOUS
10
122.707
20
-105.05
11
122.678
21
-105.062
0
LINE
8
BLACK
6
CONTINUOUS
10
122.678
20
-105.062
11
122.65
21
-105.05
0
LINE
8
BLACK
6
CONTINUOUS
10
122.65
20
-105.05
11
122.638
21
-105.021
0
LINE
8
BLACK
6
CONTINUOUS
10
122.638
20
-105.021
11
122.638
21
-104.486
0
LINE
8
BLACK
6
CONTINUOUS
10
122.638
20
-104.486
11
122.608
21
-104.457
0
LINE
8
BLACK
6
CONTINUOUS
10
122.608
20
-104.457
11
122.531
21
-104.418
0
LINE
8
BLACK
6
CONTINUOUS
10
122.531
20
-104.418
11
122.412
21
-104.418
0
LINE
8
BLACK
6
CONTINUOUS
10
122.412
20
-104.418
11
122.341
21
-104.454
0
LINE
8
BLACK
6
CONTINUOUS
10
122.341
20
-104.454
11
122.305
21
-104.525
0
LINE
8
BLACK
6
CONTINUOUS
10
122.305
20
-104.525
11
122.305
21
-105.021
0
LINE
8
BLACK
6
CONTINUOUS
10
122.305
20
-105.021
11
122.293
21
-105.05
0
LINE
8
BLACK
6
CONTINUOUS
10
122.293
20
-105.05
11
122.265
21
-105.062
0
LINE
8
BLACK
6
CONTINUOUS
10
122.265
20
-105.062
11
122.236
21
-105.05
0
LINE
8
BLACK
6
CONTINUOUS
10
122.236
20
-105.05
11
122.224
21
-105.021
0
LINE
8
BLACK
6
CONTINUOUS
10
122.224
20
-105.021
11
122.224
21
-104.516
0
LINE
8
BLACK
6
CONTINUOUS
10
122.224
20
-104.516
11
122.228
21
-104.507
0
LINE
8
BLACK
6
CONTINUOUS
10
122.228
20
-104.507
11
122.228
21
-104.497
0
LINE
8
BLACK
6
CONTINUOUS
10
122.228
20
-104.497
11
122.274
21
-104.405
0
LINE
8
BLACK
6
CONTINUOUS
10
122.274
20
-104.405
11
122.284
21
-104.397
0
LINE
8
BLACK
6
CONTINUOUS
10
122.284
20
-104.397
11
122.292
21
-104.387
0
LINE
8
BLACK
6
CONTINUOUS
10
122.292
20
-104.387
11
122.384
21
-104.341
0
LINE
8
BLACK
6
CONTINUOUS
10
122.384
20
-104.341
11
122.394
21
-104.341
0
LINE
8
BLACK
6
CONTINUOUS
10
122.394
20
-104.341
11
122.402
21
-104.337
0
LINE
8
BLACK
6
CONTINUOUS
10
122.402
20
-104.337
11
122.54
21
-104.337
0
LINE
8
BLACK
6
CONTINUOUS
10
122.54
20
-104.337
11
122.549
21
-104.341
0
LINE
8
BLACK
6
CONTINUOUS
10
122.549
20
-104.341
11
122.559
21
-104.341
0
LINE
8
BLACK
6
CONTINUOUS
10
122.559
20
-104.341
11
122.638
21
-104.381
0
LINE
8
BLACK
6
CONTINUOUS
10
122.638
20
-104.381
11
122.638
21
-104.056
0
LINE
8
BLACK
6
CONTINUOUS
10
122.638
20
-104.056
11
122.65
21
-104.027
0
LINE
8
BLACK
6
CONTINUOUS
10
122.65
20
-104.027
11
122.678
21
-104.015
0
LINE
8
BLACK
6
CONTINUOUS
10
122.678
20
-104.015
11
122.707
21
-104.027
0
LINE
8
BLACK
6
CONTINUOUS
10
121.834
20
-104.349
11
121.846
21
-104.378
0
LINE
8
BLACK
6
CONTINUOUS
10
121.846
20
-104.378
11
121.846
21
-105.021
0
LINE
8
BLACK
6
CONTINUOUS
10
121.846
20
-105.021
11
121.834
21
-105.05
0
LINE
8
BLACK
6
CONTINUOUS
10
121.834
20
-105.05
11
121.805
21
-105.062
0
LINE
8
BLACK
6
CONTINUOUS
10
121.805
20
-105.062
11
121.776
21
-105.05
0
LINE
8
BLACK
6
CONTINUOUS
10
121.776
20
-105.05
11
121.764
21
-105.021
0
LINE
8
BLACK
6
CONTINUOUS
10
121.764
20
-105.021
11
121.764
21
-104.378
0
LINE
8
BLACK
6
CONTINUOUS
10
121.764
20
-104.378
11
121.776
21
-104.349
0
LINE
8
BLACK
6
CONTINUOUS
10
121.776
20
-104.349
11
121.805
21
-104.337
0
LINE
8
BLACK
6
CONTINUOUS
10
121.805
20
-104.337
11
121.834
21
-104.349
0
LINE
8
BLACK
6
CONTINUOUS
10
133.718
20
-104.341
11
133.727
21
-104.341
0
LINE
8
BLACK
6
CONTINUOUS
10
133.727
20
-104.341
11
133.819
21
-104.387
0
LINE
8
BLACK
6
CONTINUOUS
10
133.819
20
-104.387
11
133.828
21
-104.397
0
LINE
8
BLACK
6
CONTINUOUS
10
133.828
20
-104.397
11
133.837
21
-104.405
0
LINE
8
BLACK
6
CONTINUOUS
10
133.837
20
-104.405
11
133.847
21
-104.425
0
LINE
8
BLACK
6
CONTINUOUS
10
133.847
20
-104.425
11
133.857
21
-104.405
0
LINE
8
BLACK
6
CONTINUOUS
10
133.857
20
-104.405
11
133.866
21
-104.397
0
LINE
8
BLACK
6
CONTINUOUS
10
133.866
20
-104.397
11
133.875
21
-104.387
0
LINE
8
BLACK
6
CONTINUOUS
10
133.875
20
-104.387
11
133.967
21
-104.341
0
LINE
8
BLACK
6
CONTINUOUS
10
133.967
20
-104.341
11
133.976
21
-104.341
0
LINE
8
BLACK
6
CONTINUOUS
10
133.976
20
-104.341
11
133.985
21
-104.337
0
LINE
8
BLACK
6
CONTINUOUS
10
133.985
20
-104.337
11
134.123
21
-104.337
0
LINE
8
BLACK
6
CONTINUOUS
10
134.123
20
-104.337
11
134.132
21
-104.341
0
LINE
8
BLACK
6
CONTINUOUS
10
134.132
20
-104.341
11
134.141
21
-104.341
0
LINE
8
BLACK
6
CONTINUOUS
10
134.141
20
-104.341
11
134.22
21
-104.381
0
LINE
8
BLACK
6
CONTINUOUS
10
134.22
20
-104.381
11
134.22
21
-104.378
0
LINE
8
BLACK
6
CONTINUOUS
10
134.22
20
-104.378
11
134.232
21
-104.349
0
LINE
8
BLACK
6
CONTINUOUS
10
134.232
20
-104.349
11
134.261
21
-104.337
0
LINE
8
BLACK
6
CONTINUOUS
10
134.261
20
-104.337
11
134.289
21
-104.349
0
LINE
8
BLACK
6
CONTINUOUS
10
134.289
20
-104.349
11
134.301
21
-104.378
0
LINE
8
BLACK
6
CONTINUOUS
10
134.301
20
-104.378
11
134.301
21
-105.021
0
LINE
8
BLACK
6
CONTINUOUS
10
134.301
20
-105.021
11
134.289
21
-105.05
0
LINE
8
BLACK
6
CONTINUOUS
10
134.289
20
-105.05
11
134.261
21
-105.062
0
LINE
8
BLACK
6
CONTINUOUS
10
134.261
20
-105.062
11
134.232
21
-105.05
0
LINE
8
BLACK
6
CONTINUOUS
10
134.232
20
-105.05
11
134.22
21
-105.021
0
LINE
8
BLACK
6
CONTINUOUS
10
134.22
20
-105.021
11
134.22
21
-104.486
0
LINE
8
BLACK
6
CONTINUOUS
10
134.22
20
-104.486
11
134.191
21
-104.457
0
LINE
8
BLACK
6
CONTINUOUS
10
134.191
20
-104.457
11
134.113
21
-104.418
0
LINE
8
BLACK
6
CONTINUOUS
10
134.113
20
-104.418
11
133.994
21
-104.418
0
LINE
8
BLACK
6
CONTINUOUS
10
133.994
20
-104.418
11
133.923
21
-104.454
0
LINE
8
BLACK
6
CONTINUOUS
10
133.923
20
-104.454
11
133.888
21
-104.525
0
LINE
8
BLACK
6
CONTINUOUS
10
133.888
20
-104.525
11
133.888
21
-105.021
0
LINE
8
BLACK
6
CONTINUOUS
10
133.888
20
-105.021
11
133.876
21
-105.05
0
LINE
8
BLACK
6
CONTINUOUS
10
133.876
20
-105.05
11
133.847
21
-105.062
0
LINE
8
BLACK
6
CONTINUOUS
10
133.847
20
-105.062
11
133.818
21
-105.05
0
LINE
8
BLACK
6
CONTINUOUS
10
133.818
20
-105.05
11
133.806
21
-105.021
0
LINE
8
BLACK
6
CONTINUOUS
10
133.806
20
-105.021
11
133.806
21
-104.525
0
LINE
8
BLACK
6
CONTINUOUS
10
133.806
20
-104.525
11
133.771
21
-104.454
0
LINE
8
BLACK
6
CONTINUOUS
10
133.771
20
-104.454
11
133.7
21
-104.418
0
LINE
8
BLACK
6
CONTINUOUS
10
133.7
20
-104.418
11
133.581
21
-104.418
0
LINE
8
BLACK
6
CONTINUOUS
10
133.581
20
-104.418
11
133.51
21
-104.454
0
LINE
8
BLACK
6
CONTINUOUS
10
133.51
20
-104.454
11
133.474
21
-104.525
0
LINE
8
BLACK
6
CONTINUOUS
10
133.474
20
-104.525
11
133.474
21
-105.021
0
LINE
8
BLACK
6
CONTINUOUS
10
133.474
20
-105.021
11
133.462
21
-105.05
0
LINE
8
BLACK
6
CONTINUOUS
10
133.462
20
-105.05
11
133.433
21
-105.062
0
LINE
8
BLACK
6
CONTINUOUS
10
133.433
20
-105.062
11
133.405
21
-105.05
0
LINE
8
BLACK
6
CONTINUOUS
10
133.405
20
-105.05
11
133.393
21
-105.021
0
LINE
8
BLACK
6
CONTINUOUS
10
133.393
20
-105.021
11
133.393
21
-104.516
0
LINE
8
BLACK
6
CONTINUOUS
10
133.393
20
-104.516
11
133.396
21
-104.507
0
LINE
8
BLACK
6
CONTINUOUS
10
133.396
20
-104.507
11
133.397
21
-104.497
0
LINE
8
BLACK
6
CONTINUOUS
10
133.397
20
-104.497
11
133.443
21
-104.405
0
LINE
8
BLACK
6
CONTINUOUS
10
133.443
20
-104.405
11
133.453
21
-104.397
0
LINE
8
BLACK
6
CONTINUOUS
10
133.453
20
-104.397
11
133.461
21
-104.387
0
LINE
8
BLACK
6
CONTINUOUS
10
133.461
20
-104.387
11
133.553
21
-104.341
0
LINE
8
BLACK
6
CONTINUOUS
10
133.553
20
-104.341
11
133.562
21
-104.341
0
LINE
8
BLACK
6
CONTINUOUS
10
133.562
20
-104.341
11
133.571
21
-104.337
0
LINE
8
BLACK
6
CONTINUOUS
10
133.571
20
-104.337
11
133.709
21
-104.337
0
LINE
8
BLACK
6
CONTINUOUS
10
133.709
20
-104.337
11
133.718
21
-104.341
0
LINE
8
BLACK
6
CONTINUOUS
10
121.262
20
-104.341
11
121.272
21
-104.341
0
LINE
8
BLACK
6
CONTINUOUS
10
121.272
20
-104.341
11
121.364
21
-104.387
0
LINE
8
BLACK
6
CONTINUOUS
10
121.364
20
-104.387
11
121.372
21
-104.397
0
LINE
8
BLACK
6
CONTINUOUS
10
121.372
20
-104.397
11
121.382
21
-104.405
0
LINE
8
BLACK
6
CONTINUOUS
10
121.382
20
-104.405
11
121.428
21
-104.497
0
LINE
8
BLACK
6
CONTINUOUS
10
121.428
20
-104.497
11
121.428
21
-104.507
0
LINE
8
BLACK
6
CONTINUOUS
10
121.428
20
-104.507
11
121.432
21
-104.516
0
LINE
8
BLACK
6
CONTINUOUS
10
121.432
20
-104.516
11
121.432
21
-104.562
0
LINE
8
BLACK
6
CONTINUOUS
10
121.432
20
-104.562
11
121.428
21
-104.57
0
LINE
8
BLACK
6
CONTINUOUS
10
121.428
20
-104.57
11
121.428
21
-104.58
0
LINE
8
BLACK
6
CONTINUOUS
10
121.428
20
-104.58
11
121.382
21
-104.672
0
LINE
8
BLACK
6
CONTINUOUS
10
121.382
20
-104.672
11
121.372
21
-104.68
0
LINE
8
BLACK
6
CONTINUOUS
10
121.372
20
-104.68
11
121.364
21
-104.69
0
LINE
8
BLACK
6
CONTINUOUS
10
121.364
20
-104.69
11
121.272
21
-104.736
0
LINE
8
BLACK
6
CONTINUOUS
10
121.272
20
-104.736
11
121.262
21
-104.736
0
LINE
8
BLACK
6
CONTINUOUS
10
121.262
20
-104.736
11
121.253
21
-104.74
0
LINE
8
BLACK
6
CONTINUOUS
10
121.253
20
-104.74
11
121.125
21
-104.74
0
LINE
8
BLACK
6
CONTINUOUS
10
121.125
20
-104.74
11
121.054
21
-104.776
0
LINE
8
BLACK
6
CONTINUOUS
10
121.054
20
-104.776
11
121.018
21
-104.847
0
LINE
8
BLACK
6
CONTINUOUS
10
121.018
20
-104.847
11
121.018
21
-104.874
0
LINE
8
BLACK
6
CONTINUOUS
10
121.018
20
-104.874
11
121.054
21
-104.945
0
LINE
8
BLACK
6
CONTINUOUS
10
121.054
20
-104.945
11
121.125
21
-104.98
0
LINE
8
BLACK
6
CONTINUOUS
10
121.125
20
-104.98
11
121.29
21
-104.98
0
LINE
8
BLACK
6
CONTINUOUS
10
121.29
20
-104.98
11
121.373
21
-104.939
0
LINE
8
BLACK
6
CONTINUOUS
10
121.373
20
-104.939
11
121.404
21
-104.937
0
LINE
8
BLACK
6
CONTINUOUS
10
121.404
20
-104.937
11
121.428
21
-104.957
0
LINE
8
BLACK
6
CONTINUOUS
10
121.428
20
-104.957
11
121.43
21
-104.988
0
LINE
8
BLACK
6
CONTINUOUS
10
121.43
20
-104.988
11
121.409
21
-105.012
0
LINE
8
BLACK
6
CONTINUOUS
10
121.409
20
-105.012
11
121.318
21
-105.057
0
LINE
8
BLACK
6
CONTINUOUS
10
121.318
20
-105.057
11
121.308
21
-105.058
0
LINE
8
BLACK
6
CONTINUOUS
10
121.308
20
-105.058
11
121.299
21
-105.062
0
LINE
8
BLACK
6
CONTINUOUS
10
121.299
20
-105.062
11
121.116
21
-105.062
0
LINE
8
BLACK
6
CONTINUOUS
10
121.116
20
-105.062
11
121.107
21
-105.058
0
LINE
8
BLACK
6
CONTINUOUS
10
121.107
20
-105.058
11
121.097
21
-105.057
0
LINE
8
BLACK
6
CONTINUOUS
10
121.097
20
-105.057
11
121.005
21
-105.012
0
LINE
8
BLACK
6
CONTINUOUS
10
121.005
20
-105.012
11
120.997
21
-105.002
0
LINE
8
BLACK
6
CONTINUOUS
10
120.997
20
-105.002
11
120.987
21
-104.993
0
LINE
8
BLACK
6
CONTINUOUS
10
120.987
20
-104.993
11
120.941
21
-104.901
0
LINE
8
BLACK
6
CONTINUOUS
10
120.941
20
-104.901
11
120.941
21
-104.892
0
LINE
8
BLACK
6
CONTINUOUS
10
120.941
20
-104.892
11
120.937
21
-104.883
0
LINE
8
BLACK
6
CONTINUOUS
10
120.937
20
-104.883
11
120.937
21
-104.837
0
LINE
8
BLACK
6
CONTINUOUS
10
120.937
20
-104.837
11
120.941
21
-104.829
0
LINE
8
BLACK
6
CONTINUOUS
10
120.941
20
-104.829
11
120.941
21
-104.819
0
LINE
8
BLACK
6
CONTINUOUS
10
120.941
20
-104.819
11
120.987
21
-104.727
0
LINE
8
BLACK
6
CONTINUOUS
10
120.987
20
-104.727
11
120.997
21
-104.719
0
LINE
8
BLACK
6
CONTINUOUS
10
120.997
20
-104.719
11
121.005
21
-104.709
0
LINE
8
BLACK
6
CONTINUOUS
10
121.005
20
-104.709
11
121.097
21
-104.663
0
LINE
8
BLACK
6
CONTINUOUS
10
121.097
20
-104.663
11
121.107
21
-104.662
0
LINE
8
BLACK
6
CONTINUOUS
10
121.107
20
-104.662
11
121.116
21
-104.659
0
LINE
8
BLACK
6
CONTINUOUS
10
121.116
20
-104.659
11
121.244
21
-104.659
0
LINE
8
BLACK
6
CONTINUOUS
10
121.244
20
-104.659
11
121.315
21
-104.623
0
LINE
8
BLACK
6
CONTINUOUS
10
121.315
20
-104.623
11
121.351
21
-104.552
0
LINE
8
BLACK
6
CONTINUOUS
10
121.351
20
-104.552
11
121.351
21
-104.525
0
LINE
8
BLACK
6
CONTINUOUS
10
121.351
20
-104.525
11
121.315
21
-104.454
0
LINE
8
BLACK
6
CONTINUOUS
10
121.315
20
-104.454
11
121.244
21
-104.418
0
LINE
8
BLACK
6
CONTINUOUS
10
121.244
20
-104.418
11
121.125
21
-104.418
0
LINE
8
BLACK
6
CONTINUOUS
10
121.125
20
-104.418
11
121.042
21
-104.46
0
LINE
8
BLACK
6
CONTINUOUS
10
121.042
20
-104.46
11
121.011
21
-104.462
0
LINE
8
BLACK
6
CONTINUOUS
10
121.011
20
-104.462
11
120.987
21
-104.442
0
LINE
8
BLACK
6
CONTINUOUS
10
120.987
20
-104.442
11
120.985
21
-104.411
0
LINE
8
BLACK
6
CONTINUOUS
10
120.985
20
-104.411
11
121.005
21
-104.387
0
LINE
8
BLACK
6
CONTINUOUS
10
121.005
20
-104.387
11
121.097
21
-104.341
0
LINE
8
BLACK
6
CONTINUOUS
10
121.097
20
-104.341
11
121.107
21
-104.341
0
LINE
8
BLACK
6
CONTINUOUS
10
121.107
20
-104.341
11
121.116
21
-104.337
0
LINE
8
BLACK
6
CONTINUOUS
10
121.116
20
-104.337
11
121.253
21
-104.337
0
LINE
8
BLACK
6
CONTINUOUS
10
121.253
20
-104.337
11
121.262
21
-104.341
0
LINE
8
BLACK
6
CONTINUOUS
10
125.491
20
-104.341
11
125.5
21
-104.341
0
LINE
8
BLACK
6
CONTINUOUS
10
125.5
20
-104.341
11
125.592
21
-104.387
0
LINE
8
BLACK
6
CONTINUOUS
10
125.592
20
-104.387
11
125.612
21
-104.411
0
LINE
8
BLACK
6
CONTINUOUS
10
125.612
20
-104.411
11
125.61
21
-104.442
0
LINE
8
BLACK
6
CONTINUOUS
10
125.61
20
-104.442
11
125.587
21
-104.462
0
LINE
8
BLACK
6
CONTINUOUS
10
125.587
20
-104.462
11
125.556
21
-104.46
0
LINE
8
BLACK
6
CONTINUOUS
10
125.556
20
-104.46
11
125.472
21
-104.418
0
LINE
8
BLACK
6
CONTINUOUS
10
125.472
20
-104.418
11
125.308
21
-104.418
0
LINE
8
BLACK
6
CONTINUOUS
10
125.308
20
-104.418
11
125.236
21
-104.454
0
LINE
8
BLACK
6
CONTINUOUS
10
125.236
20
-104.454
11
125.201
21
-104.525
0
LINE
8
BLACK
6
CONTINUOUS
10
125.201
20
-104.525
11
125.201
21
-104.582
0
LINE
8
BLACK
6
CONTINUOUS
10
125.201
20
-104.582
11
125.262
21
-104.613
0
LINE
8
BLACK
6
CONTINUOUS
10
125.262
20
-104.613
11
125.482
21
-104.613
0
LINE
8
BLACK
6
CONTINUOUS
10
125.482
20
-104.613
11
125.491
21
-104.616
0
LINE
8
BLACK
6
CONTINUOUS
10
125.491
20
-104.616
11
125.5
21
-104.617
0
LINE
8
BLACK
6
CONTINUOUS
10
125.5
20
-104.617
11
125.592
21
-104.663
0
LINE
8
BLACK
6
CONTINUOUS
10
125.592
20
-104.663
11
125.6
21
-104.673
0
LINE
8
BLACK
6
CONTINUOUS
10
125.6
20
-104.673
11
125.61
21
-104.681
0
LINE
8
BLACK
6
CONTINUOUS
10
125.61
20
-104.681
11
125.656
21
-104.773
0
LINE
8
BLACK
6
CONTINUOUS
10
125.656
20
-104.773
11
125.657
21
-104.783
0
LINE
8
BLACK
6
CONTINUOUS
10
125.657
20
-104.783
11
125.66
21
-104.791
0
LINE
8
BLACK
6
CONTINUOUS
10
125.66
20
-104.791
11
125.66
21
-104.883
0
LINE
8
BLACK
6
CONTINUOUS
10
125.66
20
-104.883
11
125.657
21
-104.892
0
LINE
8
BLACK
6
CONTINUOUS
10
125.657
20
-104.892
11
125.656
21
-104.901
0
LINE
8
BLACK
6
CONTINUOUS
10
125.656
20
-104.901
11
125.61
21
-104.993
0
LINE
8
BLACK
6
CONTINUOUS
10
125.61
20
-104.993
11
125.6
21
-105.002
0
LINE
8
BLACK
6
CONTINUOUS
10
125.6
20
-105.002
11
125.592
21
-105.012
0
LINE
8
BLACK
6
CONTINUOUS
10
125.592
20
-105.012
11
125.5
21
-105.057
0
LINE
8
BLACK
6
CONTINUOUS
10
125.5
20
-105.057
11
125.491
21
-105.058
0
LINE
8
BLACK
6
CONTINUOUS
10
125.491
20
-105.058
11
125.482
21
-105.062
0
LINE
8
BLACK
6
CONTINUOUS
10
125.482
20
-105.062
11
125.252
21
-105.062
0
LINE
8
BLACK
6
CONTINUOUS
10
125.252
20
-105.062
11
125.243
21
-105.058
0
LINE
8
BLACK
6
CONTINUOUS
10
125.243
20
-105.058
11
125.234
21
-105.057
0
LINE
8
BLACK
6
CONTINUOUS
10
125.234
20
-105.057
11
125.194
21
-105.038
0
LINE
8
BLACK
6
CONTINUOUS
10
125.194
20
-105.038
11
125.189
21
-105.05
0
LINE
8
BLACK
6
CONTINUOUS
10
125.189
20
-105.05
11
125.16
21
-105.062
0
LINE
8
BLACK
6
CONTINUOUS
10
125.16
20
-105.062
11
125.131
21
-105.05
0
LINE
8
BLACK
6
CONTINUOUS
10
125.131
20
-105.05
11
125.12
21
-105.021
0
LINE
8
BLACK
6
CONTINUOUS
10
125.12
20
-105.021
11
125.12
21
-104.516
0
LINE
8
BLACK
6
CONTINUOUS
10
125.12
20
-104.516
11
125.123
21
-104.507
0
LINE
8
BLACK
6
CONTINUOUS
10
125.123
20
-104.507
11
125.124
21
-104.497
0
LINE
8
BLACK
6
CONTINUOUS
10
125.124
20
-104.497
11
125.17
21
-104.405
0
LINE
8
BLACK
6
CONTINUOUS
10
125.17
20
-104.405
11
125.18
21
-104.397
0
LINE
8
BLACK
6
CONTINUOUS
10
125.18
20
-104.397
11
125.188
21
-104.387
0
LINE
8
BLACK
6
CONTINUOUS
10
125.188
20
-104.387
11
125.28
21
-104.341
0
LINE
8
BLACK
6
CONTINUOUS
10
125.28
20
-104.341
11
125.289
21
-104.341
0
LINE
8
BLACK
6
CONTINUOUS
10
125.289
20
-104.341
11
125.298
21
-104.337
0
LINE
8
BLACK
6
CONTINUOUS
10
125.298
20
-104.337
11
125.482
21
-104.337
0
LINE
8
BLACK
6
CONTINUOUS
10
125.482
20
-104.337
11
125.491
21
-104.341
0
LINE
8
BLACK
6
CONTINUOUS
10
125.201
20
-104.95
11
125.262
21
-104.98
0
LINE
8
BLACK
6
CONTINUOUS
10
125.262
20
-104.98
11
125.472
21
-104.98
0
LINE
8
BLACK
6
CONTINUOUS
10
125.472
20
-104.98
11
125.544
21
-104.945
0
LINE
8
BLACK
6
CONTINUOUS
10
125.544
20
-104.945
11
125.579
21
-104.874
0
LINE
8
BLACK
6
CONTINUOUS
10
125.579
20
-104.874
11
125.579
21
-104.801
0
LINE
8
BLACK
6
CONTINUOUS
10
125.579
20
-104.801
11
125.544
21
-104.73
0
LINE
8
BLACK
6
CONTINUOUS
10
125.544
20
-104.73
11
125.472
21
-104.694
0
LINE
8
BLACK
6
CONTINUOUS
10
125.472
20
-104.694
11
125.252
21
-104.694
0
LINE
8
BLACK
6
CONTINUOUS
10
125.252
20
-104.694
11
125.243
21
-104.69
0
LINE
8
BLACK
6
CONTINUOUS
10
125.243
20
-104.69
11
125.234
21
-104.69
0
LINE
8
BLACK
6
CONTINUOUS
10
125.234
20
-104.69
11
125.201
21
-104.673
0
LINE
8
BLACK
6
CONTINUOUS
10
125.201
20
-104.673
11
125.201
21
-104.95
0
LINE
8
BLACK
6
CONTINUOUS
10
128.222
20
-104.349
11
128.234
21
-104.378
0
LINE
8
BLACK
6
CONTINUOUS
10
128.234
20
-104.378
11
128.234
21
-105.021
0
LINE
8
BLACK
6
CONTINUOUS
10
128.234
20
-105.021
11
128.222
21
-105.05
0
LINE
8
BLACK
6
CONTINUOUS
10
128.222
20
-105.05
11
128.194
21
-105.062
0
LINE
8
BLACK
6
CONTINUOUS
10
128.194
20
-105.062
11
128.165
21
-105.05
0
LINE
8
BLACK
6
CONTINUOUS
10
128.165
20
-105.05
11
128.153
21
-105.021
0
LINE
8
BLACK
6
CONTINUOUS
10
128.153
20
-105.021
11
128.153
21
-104.378
0
LINE
8
BLACK
6
CONTINUOUS
10
128.153
20
-104.378
11
128.165
21
-104.349
0
LINE
8
BLACK
6
CONTINUOUS
10
128.165
20
-104.349
11
128.194
21
-104.337
0
LINE
8
BLACK
6
CONTINUOUS
10
128.194
20
-104.337
11
128.222
21
-104.349
0
LINE
8
BLACK
6
CONTINUOUS
10
126.108
20
-104.027
11
126.12
21
-104.056
0
LINE
8
BLACK
6
CONTINUOUS
10
126.12
20
-104.056
11
126.12
21
-104.883
0
LINE
8
BLACK
6
CONTINUOUS
10
126.12
20
-104.883
11
126.116
21
-104.892
0
LINE
8
BLACK
6
CONTINUOUS
10
126.116
20
-104.892
11
126.116
21
-104.901
0
LINE
8
BLACK
6
CONTINUOUS
10
126.116
20
-104.901
11
126.07
21
-104.993
0
LINE
8
BLACK
6
CONTINUOUS
10
126.07
20
-104.993
11
126.06
21
-105.002
0
LINE
8
BLACK
6
CONTINUOUS
10
126.06
20
-105.002
11
126.052
21
-105.012
0
LINE
8
BLACK
6
CONTINUOUS
10
126.052
20
-105.012
11
125.96
21
-105.057
0
LINE
8
BLACK
6
CONTINUOUS
10
125.96
20
-105.057
11
125.929
21
-105.06
0
LINE
8
BLACK
6
CONTINUOUS
10
125.929
20
-105.06
11
125.905
21
-105.039
0
LINE
8
BLACK
6
CONTINUOUS
10
125.905
20
-105.039
11
125.903
21
-105.008
0
LINE
8
BLACK
6
CONTINUOUS
10
125.903
20
-105.008
11
125.923
21
-104.985
0
LINE
8
BLACK
6
CONTINUOUS
10
125.923
20
-104.985
11
126.003
21
-104.945
0
LINE
8
BLACK
6
CONTINUOUS
10
126.003
20
-104.945
11
126.039
21
-104.874
0
LINE
8
BLACK
6
CONTINUOUS
10
126.039
20
-104.874
11
126.039
21
-104.056
0
LINE
8
BLACK
6
CONTINUOUS
10
126.039
20
-104.056
11
126.051
21
-104.027
0
LINE
8
BLACK
6
CONTINUOUS
10
126.051
20
-104.027
11
126.079
21
-104.015
0
LINE
8
BLACK
6
CONTINUOUS
10
126.079
20
-104.015
11
126.108
21
-104.027
0
LINE
8
BLACK
6
CONTINUOUS
10
128.222
20
-104.027
11
128.268
21
-104.073
0
LINE
8
BLACK
6
CONTINUOUS
10
128.268
20
-104.073
11
128.28
21
-104.102
0
LINE
8
BLACK
6
CONTINUOUS
10
128.28
20
-104.102
11
128.268
21
-104.131
0
LINE
8
BLACK
6
CONTINUOUS
10
128.268
20
-104.131
11
128.222
21
-104.177
0
LINE
8
BLACK
6
CONTINUOUS
10
128.222
20
-104.177
11
128.194
21
-104.188
0
LINE
8
BLACK
6
CONTINUOUS
10
128.194
20
-104.188
11
128.165
21
-104.177
0
LINE
8
BLACK
6
CONTINUOUS
10
128.165
20
-104.177
11
128.119
21
-104.131
0
LINE
8
BLACK
6
CONTINUOUS
10
128.119
20
-104.131
11
128.107
21
-104.102
0
LINE
8
BLACK
6
CONTINUOUS
10
128.107
20
-104.102
11
128.119
21
-104.073
0
LINE
8
BLACK
6
CONTINUOUS
10
128.119
20
-104.073
11
128.165
21
-104.027
0
LINE
8
BLACK
6
CONTINUOUS
10
128.165
20
-104.027
11
128.194
21
-104.015
0
LINE
8
BLACK
6
CONTINUOUS
10
128.194
20
-104.015
11
128.222
21
-104.027
0
LINE
8
BLACK
6
CONTINUOUS
10
121.834
20
-104.027
11
121.88
21
-104.073
0
LINE
8
BLACK
6
CONTINUOUS
10
121.88
20
-104.073
11
121.892
21
-104.102
0
LINE
8
BLACK
6
CONTINUOUS
10
121.892
20
-104.102
11
121.88
21
-104.131
0
LINE
8
BLACK
6
CONTINUOUS
10
121.88
20
-104.131
11
121.88
21
-104.131
0
LINE
8
BLACK
6
CONTINUOUS
10
121.88
20
-104.131
11
121.834
21
-104.177
0
LINE
8
BLACK
6
CONTINUOUS
10
121.834
20
-104.177
11
121.805
21
-104.188
0
LINE
8
BLACK
6
CONTINUOUS
10
121.805
20
-104.188
11
121.776
21
-104.177
0
LINE
8
BLACK
6
CONTINUOUS
10
121.776
20
-104.177
11
121.73
21
-104.131
0
LINE
8
BLACK
6
CONTINUOUS
10
121.73
20
-104.131
11
121.718
21
-104.102
0
LINE
8
BLACK
6
CONTINUOUS
10
121.718
20
-104.102
11
121.73
21
-104.073
0
LINE
8
BLACK
6
CONTINUOUS
10
121.73
20
-104.073
11
121.776
21
-104.027
0
LINE
8
BLACK
6
CONTINUOUS
10
121.776
20
-104.027
11
121.805
21
-104.015
0
LINE
8
BLACK
6
CONTINUOUS
10
121.805
20
-104.015
11
121.834
21
-104.027
0
LINE
8
BLACK
6
CONTINUOUS
10
119.076
20
-104.027
11
119.122
21
-104.073
0
LINE
8
BLACK
6
CONTINUOUS
10
119.122
20
-104.073
11
119.134
21
-104.102
0
LINE
8
BLACK
6
CONTINUOUS
10
119.134
20
-104.102
11
119.122
21
-104.131
0
LINE
8
BLACK
6
CONTINUOUS
10
119.122
20
-104.131
11
119.076
21
-104.177
0
LINE
8
BLACK
6
CONTINUOUS
10
119.076
20
-104.177
11
119.047
21
-104.188
0
LINE
8
BLACK
6
CONTINUOUS
10
119.047
20
-104.188
11
119.019
21
-104.177
0
LINE
8
BLACK
6
CONTINUOUS
10
119.019
20
-104.177
11
118.973
21
-104.131
0
LINE
8
BLACK
6
CONTINUOUS
10
118.973
20
-104.131
11
118.961
21
-104.102
0
LINE
8
BLACK
6
CONTINUOUS
10
118.961
20
-104.102
11
118.973
21
-104.073
0
LINE
8
BLACK
6
CONTINUOUS
10
118.973
20
-104.073
11
119.019
21
-104.027
0
LINE
8
BLACK
6
CONTINUOUS
10
119.019
20
-104.027
11
119.047
21
-104.015
0
LINE
8
BLACK
6
CONTINUOUS
10
119.047
20
-104.015
11
119.076
21
-104.027
  0
ENDSEC
  0
EOF
