  0
SECTION
  2
HEADER
  9
$ANGBASE
  50
0.0
  9
$ANGDIR
  70
1
  9
$MEASUREMENT
  70
1
  0
ENDSEC
  0
SECTION
  2
TABLES
  0
TABLE
  2
LTYPE
  70
4
  0
LTYPE
  5
40F
  2
CONTINUOUS
  70
0
  3
Solid line
  72
65
  73
0
  40
0.0
  0
LTYPE
  5
410
  2
DASHDOT
 70
0
  3
Dash Dot ____ _ ____ _
 72
65
 73
4
 40
2.0
 49
1.25
 49
-0.25
 49
0.25
 49
-0.25
  0
LTYPE
  5
411
  2
DASHED
 70
0
  3
Dashed __ __ __ __ __
 72
65
 73
2
 40
0.75
 49
0.5
 49
-0.25
  0
LTYPE
  5
43B
  2
DOTTED
 70
0
  3
Dotted .  .  .  .
 72
65
 73
2
 40
0.2
 49
0.0
 49
-0.2
  0
ENDTAB
  0
TABLE
  2
STYLE
  70
4
  0
STYLE
  2
KICAD
  70
0
  40
0
  41
1
  42
1
  50
0
  71
0
  3
isocp.shx
  0
STYLE
  2
KICADB
  70
0
  40
0
  41
1
  42
1
  50
0
  71
0
  3
isocp.shx
  0
STYLE
  2
KICADI
  70
0
  40
0
  41
1
  42
1
  50
15
  71
0
  3
isocp.shx
  0
STYLE
  2
KICADBI
  70
0
  40
0
  41
1
  42
1
  50
15
  71
0
  3
isocp.shx
  0
ENDTAB
  0
TABLE
  2
LAYER
  70
1
  0
LAYER
  2
BLACK
  70
0
  62
7
  6
CONTINUOUS
  0
ENDTAB
  0
ENDSEC
  0
SECTION
  2
ENTITIES
0
LINE
8
BLACK
6
CONTINUOUS
10
119.474
20
-116.353
11
119.642
21
-116.413
0
LINE
8
BLACK
6
CONTINUOUS
10
119.642
20
-116.413
11
119.792
21
-116.509
0
LINE
8
BLACK
6
CONTINUOUS
10
119.792
20
-116.509
11
119.918
21
-116.635
0
LINE
8
BLACK
6
CONTINUOUS
10
119.918
20
-116.635
11
120.013
21
-116.786
0
LINE
8
BLACK
6
CONTINUOUS
10
120.013
20
-116.786
11
120.071
21
-116.955
0
LINE
8
BLACK
6
CONTINUOUS
10
120.071
20
-116.955
11
120.091
21
-117.132
0
LINE
8
BLACK
6
CONTINUOUS
10
120.091
20
-117.132
11
120.091
21
-117.154
0
LINE
8
BLACK
6
CONTINUOUS
10
120.091
20
-117.154
11
120.066
21
-117.331
0
LINE
8
BLACK
6
CONTINUOUS
10
120.066
20
-117.331
11
120.003
21
-117.498
0
LINE
8
BLACK
6
CONTINUOUS
10
120.003
20
-117.498
11
119.904
21
-117.646
0
LINE
8
BLACK
6
CONTINUOUS
10
119.904
20
-117.646
11
119.775
21
-117.769
0
LINE
8
BLACK
6
CONTINUOUS
10
119.775
20
-117.769
11
119.622
21
-117.861
0
LINE
8
BLACK
6
CONTINUOUS
10
119.622
20
-117.861
11
119.452
21
-117.916
0
LINE
8
BLACK
6
CONTINUOUS
10
119.452
20
-117.916
11
119.274
21
-117.932
0
LINE
8
BLACK
6
CONTINUOUS
10
119.274
20
-117.932
11
119.098
21
-117.908
0
LINE
8
BLACK
6
CONTINUOUS
10
119.098
20
-117.908
11
118.93
21
-117.846
0
LINE
8
BLACK
6
CONTINUOUS
10
118.93
20
-117.846
11
118.781
21
-117.749
0
LINE
8
BLACK
6
CONTINUOUS
10
118.781
20
-117.749
11
118.657
21
-117.62
0
LINE
8
BLACK
6
CONTINUOUS
10
118.657
20
-117.62
11
118.565
21
-117.468
0
LINE
8
BLACK
6
CONTINUOUS
10
118.565
20
-117.468
11
118.508
21
-117.298
0
LINE
8
BLACK
6
CONTINUOUS
10
118.508
20
-117.298
11
118.491
21
-117.121
0
LINE
8
BLACK
6
CONTINUOUS
10
118.491
20
-117.121
11
118.513
21
-116.944
0
LINE
8
BLACK
6
CONTINUOUS
10
118.513
20
-116.944
11
118.574
21
-116.776
0
LINE
8
BLACK
6
CONTINUOUS
10
118.574
20
-116.776
11
118.671
21
-116.626
0
LINE
8
BLACK
6
CONTINUOUS
10
118.671
20
-116.626
11
118.799
21
-116.502
0
LINE
8
BLACK
6
CONTINUOUS
10
118.799
20
-116.502
11
118.95
21
-116.408
0
LINE
8
BLACK
6
CONTINUOUS
10
118.95
20
-116.408
11
119.119
21
-116.351
0
LINE
8
BLACK
6
CONTINUOUS
10
119.119
20
-116.351
11
119.297
21
-116.332
0
LINE
8
BLACK
6
CONTINUOUS
10
119.297
20
-116.332
11
119.474
21
-116.353
0
LINE
8
BLACK
6
CONTINUOUS
10
182.188
20
-115.71
11
182.346
21
-115.73
0
LINE
8
BLACK
6
CONTINUOUS
10
182.346
20
-115.73
11
182.494
21
-115.788
0
LINE
8
BLACK
6
CONTINUOUS
10
182.494
20
-115.788
11
182.623
21
-115.879
0
LINE
8
BLACK
6
CONTINUOUS
10
182.623
20
-115.879
11
182.728
21
-115.999
0
LINE
8
BLACK
6
CONTINUOUS
10
182.728
20
-115.999
11
182.8
21
-116.14
0
LINE
8
BLACK
6
CONTINUOUS
10
182.8
20
-116.14
11
182.838
21
-116.294
0
LINE
8
BLACK
6
CONTINUOUS
10
182.838
20
-116.294
11
182.837
21
-116.453
0
LINE
8
BLACK
6
CONTINUOUS
10
182.837
20
-116.453
11
182.798
21
-116.607
0
LINE
8
BLACK
6
CONTINUOUS
10
182.798
20
-116.607
11
182.724
21
-116.747
0
LINE
8
BLACK
6
CONTINUOUS
10
182.724
20
-116.747
11
182.618
21
-116.865
0
LINE
8
BLACK
6
CONTINUOUS
10
182.618
20
-116.865
11
182.487
21
-116.955
0
LINE
8
BLACK
6
CONTINUOUS
10
182.487
20
-116.955
11
182.339
21
-117.011
0
LINE
8
BLACK
6
CONTINUOUS
10
182.339
20
-117.011
11
182.181
21
-117.03
0
LINE
8
BLACK
6
CONTINUOUS
10
182.181
20
-117.03
11
180.861
21
-117.03
0
LINE
8
BLACK
6
CONTINUOUS
10
180.861
20
-117.03
11
180.854
21
-117.03
0
LINE
8
BLACK
6
CONTINUOUS
10
180.854
20
-117.03
11
180.696
21
-117.01
0
LINE
8
BLACK
6
CONTINUOUS
10
180.696
20
-117.01
11
180.549
21
-116.952
0
LINE
8
BLACK
6
CONTINUOUS
10
180.549
20
-116.952
11
180.419
21
-116.861
0
LINE
8
BLACK
6
CONTINUOUS
10
180.419
20
-116.861
11
180.314
21
-116.741
0
LINE
8
BLACK
6
CONTINUOUS
10
180.314
20
-116.741
11
180.242
21
-116.6
0
LINE
8
BLACK
6
CONTINUOUS
10
180.242
20
-116.6
11
180.205
21
-116.446
0
LINE
8
BLACK
6
CONTINUOUS
10
180.205
20
-116.446
11
180.206
21
-116.287
0
LINE
8
BLACK
6
CONTINUOUS
10
180.206
20
-116.287
11
180.244
21
-116.133
0
LINE
8
BLACK
6
CONTINUOUS
10
180.244
20
-116.133
11
180.318
21
-115.993
0
LINE
8
BLACK
6
CONTINUOUS
10
180.318
20
-115.993
11
180.424
21
-115.875
0
LINE
8
BLACK
6
CONTINUOUS
10
180.424
20
-115.875
11
180.555
21
-115.785
0
LINE
8
BLACK
6
CONTINUOUS
10
180.555
20
-115.785
11
180.703
21
-115.729
0
LINE
8
BLACK
6
CONTINUOUS
10
180.703
20
-115.729
11
180.861
21
-115.71
0
LINE
8
BLACK
6
CONTINUOUS
10
180.861
20
-115.71
11
182.181
21
-115.71
0
LINE
8
BLACK
6
CONTINUOUS
10
182.181
20
-115.71
11
182.188
21
-115.71
0
LINE
8
BLACK
6
CONTINUOUS
10
182.188
20
-113.17
11
182.346
21
-113.19
0
LINE
8
BLACK
6
CONTINUOUS
10
182.346
20
-113.19
11
182.494
21
-113.248
0
LINE
8
BLACK
6
CONTINUOUS
10
182.494
20
-113.248
11
182.623
21
-113.339
0
LINE
8
BLACK
6
CONTINUOUS
10
182.623
20
-113.339
11
182.728
21
-113.459
0
LINE
8
BLACK
6
CONTINUOUS
10
182.728
20
-113.459
11
182.8
21
-113.6
0
LINE
8
BLACK
6
CONTINUOUS
10
182.8
20
-113.6
11
182.838
21
-113.754
0
LINE
8
BLACK
6
CONTINUOUS
10
182.838
20
-113.754
11
182.837
21
-113.913
0
LINE
8
BLACK
6
CONTINUOUS
10
182.837
20
-113.913
11
182.798
21
-114.067
0
LINE
8
BLACK
6
CONTINUOUS
10
182.798
20
-114.067
11
182.724
21
-114.207
0
LINE
8
BLACK
6
CONTINUOUS
10
182.724
20
-114.207
11
182.618
21
-114.325
0
LINE
8
BLACK
6
CONTINUOUS
10
182.618
20
-114.325
11
182.487
21
-114.415
0
LINE
8
BLACK
6
CONTINUOUS
10
182.487
20
-114.415
11
182.339
21
-114.471
0
LINE
8
BLACK
6
CONTINUOUS
10
182.339
20
-114.471
11
182.181
21
-114.49
0
LINE
8
BLACK
6
CONTINUOUS
10
182.181
20
-114.49
11
180.861
21
-114.49
0
LINE
8
BLACK
6
CONTINUOUS
10
180.861
20
-114.49
11
180.854
21
-114.49
0
LINE
8
BLACK
6
CONTINUOUS
10
180.854
20
-114.49
11
180.696
21
-114.47
0
LINE
8
BLACK
6
CONTINUOUS
10
180.696
20
-114.47
11
180.549
21
-114.412
0
LINE
8
BLACK
6
CONTINUOUS
10
180.549
20
-114.412
11
180.419
21
-114.321
0
LINE
8
BLACK
6
CONTINUOUS
10
180.419
20
-114.321
11
180.314
21
-114.201
0
LINE
8
BLACK
6
CONTINUOUS
10
180.314
20
-114.201
11
180.242
21
-114.06
0
LINE
8
BLACK
6
CONTINUOUS
10
180.242
20
-114.06
11
180.205
21
-113.906
0
LINE
8
BLACK
6
CONTINUOUS
10
180.205
20
-113.906
11
180.206
21
-113.747
0
LINE
8
BLACK
6
CONTINUOUS
10
180.206
20
-113.747
11
180.244
21
-113.593
0
LINE
8
BLACK
6
CONTINUOUS
10
180.244
20
-113.593
11
180.318
21
-113.453
0
LINE
8
BLACK
6
CONTINUOUS
10
180.318
20
-113.453
11
180.424
21
-113.335
0
LINE
8
BLACK
6
CONTINUOUS
10
180.424
20
-113.335
11
180.555
21
-113.245
0
LINE
8
BLACK
6
CONTINUOUS
10
180.555
20
-113.245
11
180.703
21
-113.189
0
LINE
8
BLACK
6
CONTINUOUS
10
180.703
20
-113.189
11
180.861
21
-113.17
0
LINE
8
BLACK
6
CONTINUOUS
10
180.861
20
-113.17
11
182.181
21
-113.17
0
LINE
8
BLACK
6
CONTINUOUS
10
182.181
20
-113.17
11
182.188
21
-113.17
0
LINE
8
BLACK
6
CONTINUOUS
10
182.188
20
-110.63
11
182.346
21
-110.65
0
LINE
8
BLACK
6
CONTINUOUS
10
182.346
20
-110.65
11
182.494
21
-110.708
0
LINE
8
BLACK
6
CONTINUOUS
10
182.494
20
-110.708
11
182.623
21
-110.799
0
LINE
8
BLACK
6
CONTINUOUS
10
182.623
20
-110.799
11
182.728
21
-110.919
0
LINE
8
BLACK
6
CONTINUOUS
10
182.728
20
-110.919
11
182.8
21
-111.06
0
LINE
8
BLACK
6
CONTINUOUS
10
182.8
20
-111.06
11
182.838
21
-111.214
0
LINE
8
BLACK
6
CONTINUOUS
10
182.838
20
-111.214
11
182.837
21
-111.373
0
LINE
8
BLACK
6
CONTINUOUS
10
182.837
20
-111.373
11
182.798
21
-111.527
0
LINE
8
BLACK
6
CONTINUOUS
10
182.798
20
-111.527
11
182.724
21
-111.667
0
LINE
8
BLACK
6
CONTINUOUS
10
182.724
20
-111.667
11
182.618
21
-111.785
0
LINE
8
BLACK
6
CONTINUOUS
10
182.618
20
-111.785
11
182.487
21
-111.875
0
LINE
8
BLACK
6
CONTINUOUS
10
182.487
20
-111.875
11
182.339
21
-111.931
0
LINE
8
BLACK
6
CONTINUOUS
10
182.339
20
-111.931
11
182.181
21
-111.95
0
LINE
8
BLACK
6
CONTINUOUS
10
182.181
20
-111.95
11
180.861
21
-111.95
0
LINE
8
BLACK
6
CONTINUOUS
10
180.861
20
-111.95
11
180.854
21
-111.95
0
LINE
8
BLACK
6
CONTINUOUS
10
180.854
20
-111.95
11
180.696
21
-111.93
0
LINE
8
BLACK
6
CONTINUOUS
10
180.696
20
-111.93
11
180.549
21
-111.872
0
LINE
8
BLACK
6
CONTINUOUS
10
180.549
20
-111.872
11
180.419
21
-111.781
0
LINE
8
BLACK
6
CONTINUOUS
10
180.419
20
-111.781
11
180.314
21
-111.661
0
LINE
8
BLACK
6
CONTINUOUS
10
180.314
20
-111.661
11
180.242
21
-111.52
0
LINE
8
BLACK
6
CONTINUOUS
10
180.242
20
-111.52
11
180.235
21
-111.493
0
LINE
8
BLACK
6
CONTINUOUS
10
180.235
20
-111.493
11
155.343
21
-111.493
0
LINE
8
BLACK
6
CONTINUOUS
10
155.343
20
-111.493
11
155.33
21
-111.57
0
LINE
8
BLACK
6
CONTINUOUS
10
155.33
20
-111.57
11
155.268
21
-111.698
0
LINE
8
BLACK
6
CONTINUOUS
10
155.268
20
-111.698
11
155.173
21
-111.804
0
LINE
8
BLACK
6
CONTINUOUS
10
155.173
20
-111.804
11
155.051
21
-111.879
0
LINE
8
BLACK
6
CONTINUOUS
10
155.051
20
-111.879
11
154.913
21
-111.916
0
LINE
8
BLACK
6
CONTINUOUS
10
154.913
20
-111.916
11
154.771
21
-111.914
0
LINE
8
BLACK
6
CONTINUOUS
10
154.771
20
-111.914
11
154.634
21
-111.871
0
LINE
8
BLACK
6
CONTINUOUS
10
154.634
20
-111.871
11
154.516
21
-111.792
0
LINE
8
BLACK
6
CONTINUOUS
10
154.516
20
-111.792
11
154.424
21
-111.683
0
LINE
8
BLACK
6
CONTINUOUS
10
154.424
20
-111.683
11
154.366
21
-111.552
0
LINE
8
BLACK
6
CONTINUOUS
10
154.366
20
-111.552
11
154.348
21
-111.411
0
LINE
8
BLACK
6
CONTINUOUS
10
154.348
20
-111.411
11
154.37
21
-111.27
0
LINE
8
BLACK
6
CONTINUOUS
10
154.37
20
-111.27
11
154.431
21
-111.141
0
LINE
8
BLACK
6
CONTINUOUS
10
154.431
20
-111.141
11
154.525
21
-111.034
0
LINE
8
BLACK
6
CONTINUOUS
10
154.525
20
-111.034
11
154.646
21
-110.958
0
LINE
8
BLACK
6
CONTINUOUS
10
154.646
20
-110.958
11
154.783
21
-110.919
0
LINE
8
BLACK
6
CONTINUOUS
10
154.783
20
-110.919
11
154.925
21
-110.919
0
LINE
8
BLACK
6
CONTINUOUS
10
154.925
20
-110.919
11
155.062
21
-110.96
0
LINE
8
BLACK
6
CONTINUOUS
10
155.062
20
-110.96
11
155.182
21
-111.038
0
LINE
8
BLACK
6
CONTINUOUS
10
155.182
20
-111.038
11
155.224
21
-111.087
0
LINE
8
BLACK
6
CONTINUOUS
10
155.224
20
-111.087
11
180.236
21
-111.087
0
LINE
8
BLACK
6
CONTINUOUS
10
180.236
20
-111.087
11
180.244
21
-111.053
0
LINE
8
BLACK
6
CONTINUOUS
10
180.244
20
-111.053
11
180.318
21
-110.913
0
LINE
8
BLACK
6
CONTINUOUS
10
180.318
20
-110.913
11
180.424
21
-110.795
0
LINE
8
BLACK
6
CONTINUOUS
10
180.424
20
-110.795
11
180.555
21
-110.705
0
LINE
8
BLACK
6
CONTINUOUS
10
180.555
20
-110.705
11
180.703
21
-110.649
0
LINE
8
BLACK
6
CONTINUOUS
10
180.703
20
-110.649
11
180.861
21
-110.63
0
LINE
8
BLACK
6
CONTINUOUS
10
180.861
20
-110.63
11
182.181
21
-110.63
0
LINE
8
BLACK
6
CONTINUOUS
10
182.181
20
-110.63
11
182.188
21
-110.63
0
LINE
8
BLACK
6
CONTINUOUS
10
182.188
20
-108.09
11
182.346
21
-108.11
0
LINE
8
BLACK
6
CONTINUOUS
10
182.346
20
-108.11
11
182.494
21
-108.168
0
LINE
8
BLACK
6
CONTINUOUS
10
182.494
20
-108.168
11
182.623
21
-108.259
0
LINE
8
BLACK
6
CONTINUOUS
10
182.623
20
-108.259
11
182.728
21
-108.379
0
LINE
8
BLACK
6
CONTINUOUS
10
182.728
20
-108.379
11
182.8
21
-108.52
0
LINE
8
BLACK
6
CONTINUOUS
10
182.8
20
-108.52
11
182.838
21
-108.674
0
LINE
8
BLACK
6
CONTINUOUS
10
182.838
20
-108.674
11
182.837
21
-108.833
0
LINE
8
BLACK
6
CONTINUOUS
10
182.837
20
-108.833
11
182.798
21
-108.987
0
LINE
8
BLACK
6
CONTINUOUS
10
182.798
20
-108.987
11
182.724
21
-109.127
0
LINE
8
BLACK
6
CONTINUOUS
10
182.724
20
-109.127
11
182.618
21
-109.245
0
LINE
8
BLACK
6
CONTINUOUS
10
182.618
20
-109.245
11
182.487
21
-109.335
0
LINE
8
BLACK
6
CONTINUOUS
10
182.487
20
-109.335
11
182.339
21
-109.391
0
LINE
8
BLACK
6
CONTINUOUS
10
182.339
20
-109.391
11
182.181
21
-109.41
0
LINE
8
BLACK
6
CONTINUOUS
10
182.181
20
-109.41
11
180.861
21
-109.41
0
LINE
8
BLACK
6
CONTINUOUS
10
180.861
20
-109.41
11
180.854
21
-109.41
0
LINE
8
BLACK
6
CONTINUOUS
10
180.854
20
-109.41
11
180.696
21
-109.39
0
LINE
8
BLACK
6
CONTINUOUS
10
180.696
20
-109.39
11
180.549
21
-109.332
0
LINE
8
BLACK
6
CONTINUOUS
10
180.549
20
-109.332
11
180.419
21
-109.241
0
LINE
8
BLACK
6
CONTINUOUS
10
180.419
20
-109.241
11
180.314
21
-109.121
0
LINE
8
BLACK
6
CONTINUOUS
10
180.314
20
-109.121
11
180.242
21
-108.98
0
LINE
8
BLACK
6
CONTINUOUS
10
180.242
20
-108.98
11
180.235
21
-108.953
0
LINE
8
BLACK
6
CONTINUOUS
10
180.235
20
-108.953
11
147.723
21
-108.953
0
LINE
8
BLACK
6
CONTINUOUS
10
147.723
20
-108.953
11
147.71
21
-109.03
0
LINE
8
BLACK
6
CONTINUOUS
10
147.71
20
-109.03
11
147.648
21
-109.158
0
LINE
8
BLACK
6
CONTINUOUS
10
147.648
20
-109.158
11
147.553
21
-109.264
0
LINE
8
BLACK
6
CONTINUOUS
10
147.553
20
-109.264
11
147.431
21
-109.339
0
LINE
8
BLACK
6
CONTINUOUS
10
147.431
20
-109.339
11
147.293
21
-109.376
0
LINE
8
BLACK
6
CONTINUOUS
10
147.293
20
-109.376
11
147.151
21
-109.374
0
LINE
8
BLACK
6
CONTINUOUS
10
147.151
20
-109.374
11
147.014
21
-109.331
0
LINE
8
BLACK
6
CONTINUOUS
10
147.014
20
-109.331
11
146.896
21
-109.252
0
LINE
8
BLACK
6
CONTINUOUS
10
146.896
20
-109.252
11
146.804
21
-109.143
0
LINE
8
BLACK
6
CONTINUOUS
10
146.804
20
-109.143
11
146.746
21
-109.012
0
LINE
8
BLACK
6
CONTINUOUS
10
146.746
20
-109.012
11
146.728
21
-108.871
0
LINE
8
BLACK
6
CONTINUOUS
10
146.728
20
-108.871
11
146.75
21
-108.73
0
LINE
8
BLACK
6
CONTINUOUS
10
146.75
20
-108.73
11
146.811
21
-108.601
0
LINE
8
BLACK
6
CONTINUOUS
10
146.811
20
-108.601
11
146.905
21
-108.494
0
LINE
8
BLACK
6
CONTINUOUS
10
146.905
20
-108.494
11
147.026
21
-108.418
0
LINE
8
BLACK
6
CONTINUOUS
10
147.026
20
-108.418
11
147.163
21
-108.379
0
LINE
8
BLACK
6
CONTINUOUS
10
147.163
20
-108.379
11
147.305
21
-108.379
0
LINE
8
BLACK
6
CONTINUOUS
10
147.305
20
-108.379
11
147.442
21
-108.42
0
LINE
8
BLACK
6
CONTINUOUS
10
147.442
20
-108.42
11
147.562
21
-108.498
0
LINE
8
BLACK
6
CONTINUOUS
10
147.562
20
-108.498
11
147.604
21
-108.547
0
LINE
8
BLACK
6
CONTINUOUS
10
147.604
20
-108.547
11
180.236
21
-108.547
0
LINE
8
BLACK
6
CONTINUOUS
10
180.236
20
-108.547
11
180.244
21
-108.513
0
LINE
8
BLACK
6
CONTINUOUS
10
180.244
20
-108.513
11
180.318
21
-108.373
0
LINE
8
BLACK
6
CONTINUOUS
10
180.318
20
-108.373
11
180.424
21
-108.255
0
LINE
8
BLACK
6
CONTINUOUS
10
180.424
20
-108.255
11
180.555
21
-108.165
0
LINE
8
BLACK
6
CONTINUOUS
10
180.555
20
-108.165
11
180.703
21
-108.109
0
LINE
8
BLACK
6
CONTINUOUS
10
180.703
20
-108.109
11
180.861
21
-108.09
0
LINE
8
BLACK
6
CONTINUOUS
10
180.861
20
-108.09
11
182.181
21
-108.09
0
LINE
8
BLACK
6
CONTINUOUS
10
182.181
20
-108.09
11
182.188
21
-108.09
0
LINE
8
BLACK
6
CONTINUOUS
10
182.188
20
-105.55
11
182.346
21
-105.57
0
LINE
8
BLACK
6
CONTINUOUS
10
182.346
20
-105.57
11
182.494
21
-105.628
0
LINE
8
BLACK
6
CONTINUOUS
10
182.494
20
-105.628
11
182.623
21
-105.719
0
LINE
8
BLACK
6
CONTINUOUS
10
182.623
20
-105.719
11
182.728
21
-105.839
0
LINE
8
BLACK
6
CONTINUOUS
10
182.728
20
-105.839
11
182.8
21
-105.98
0
LINE
8
BLACK
6
CONTINUOUS
10
182.8
20
-105.98
11
182.838
21
-106.134
0
LINE
8
BLACK
6
CONTINUOUS
10
182.838
20
-106.134
11
182.837
21
-106.293
0
LINE
8
BLACK
6
CONTINUOUS
10
182.837
20
-106.293
11
182.798
21
-106.447
0
LINE
8
BLACK
6
CONTINUOUS
10
182.798
20
-106.447
11
182.724
21
-106.587
0
LINE
8
BLACK
6
CONTINUOUS
10
182.724
20
-106.587
11
182.618
21
-106.705
0
LINE
8
BLACK
6
CONTINUOUS
10
182.618
20
-106.705
11
182.487
21
-106.795
0
LINE
8
BLACK
6
CONTINUOUS
10
182.487
20
-106.795
11
182.339
21
-106.851
0
LINE
8
BLACK
6
CONTINUOUS
10
182.339
20
-106.851
11
182.181
21
-106.87
0
LINE
8
BLACK
6
CONTINUOUS
10
182.181
20
-106.87
11
180.861
21
-106.87
0
LINE
8
BLACK
6
CONTINUOUS
10
180.861
20
-106.87
11
180.854
21
-106.87
0
LINE
8
BLACK
6
CONTINUOUS
10
180.854
20
-106.87
11
180.696
21
-106.85
0
LINE
8
BLACK
6
CONTINUOUS
10
180.696
20
-106.85
11
180.549
21
-106.792
0
LINE
8
BLACK
6
CONTINUOUS
10
180.549
20
-106.792
11
180.419
21
-106.701
0
LINE
8
BLACK
6
CONTINUOUS
10
180.419
20
-106.701
11
180.314
21
-106.581
0
LINE
8
BLACK
6
CONTINUOUS
10
180.314
20
-106.581
11
180.242
21
-106.44
0
LINE
8
BLACK
6
CONTINUOUS
10
180.242
20
-106.44
11
180.235
21
-106.413
0
LINE
8
BLACK
6
CONTINUOUS
10
180.235
20
-106.413
11
171.572
21
-106.413
0
LINE
8
BLACK
6
CONTINUOUS
10
171.572
20
-106.413
11
170.235
21
-107.751
0
LINE
8
BLACK
6
CONTINUOUS
10
170.235
20
-107.751
11
170.206
21
-107.769
0
LINE
8
BLACK
6
CONTINUOUS
10
170.206
20
-107.769
11
170.179
21
-107.79
0
LINE
8
BLACK
6
CONTINUOUS
10
170.179
20
-107.79
11
170.168
21
-107.793
0
LINE
8
BLACK
6
CONTINUOUS
10
170.168
20
-107.793
11
170.158
21
-107.799
0
LINE
8
BLACK
6
CONTINUOUS
10
170.158
20
-107.799
11
170.124
21
-107.803
0
LINE
8
BLACK
6
CONTINUOUS
10
170.124
20
-107.803
11
170.091
21
-107.81
0
LINE
8
BLACK
6
CONTINUOUS
10
170.091
20
-107.81
11
146.416
21
-107.81
0
LINE
8
BLACK
6
CONTINUOUS
10
146.416
20
-107.81
11
146.378
21
-107.888
0
LINE
8
BLACK
6
CONTINUOUS
10
146.378
20
-107.888
11
146.283
21
-107.994
0
LINE
8
BLACK
6
CONTINUOUS
10
146.283
20
-107.994
11
146.161
21
-108.069
0
LINE
8
BLACK
6
CONTINUOUS
10
146.161
20
-108.069
11
146.023
21
-108.106
0
LINE
8
BLACK
6
CONTINUOUS
10
146.023
20
-108.106
11
145.881
21
-108.104
0
LINE
8
BLACK
6
CONTINUOUS
10
145.881
20
-108.104
11
145.744
21
-108.061
0
LINE
8
BLACK
6
CONTINUOUS
10
145.744
20
-108.061
11
145.626
21
-107.982
0
LINE
8
BLACK
6
CONTINUOUS
10
145.626
20
-107.982
11
145.534
21
-107.873
0
LINE
8
BLACK
6
CONTINUOUS
10
145.534
20
-107.873
11
145.476
21
-107.742
0
LINE
8
BLACK
6
CONTINUOUS
10
145.476
20
-107.742
11
145.458
21
-107.601
0
LINE
8
BLACK
6
CONTINUOUS
10
145.458
20
-107.601
11
145.48
21
-107.46
0
LINE
8
BLACK
6
CONTINUOUS
10
145.48
20
-107.46
11
145.541
21
-107.331
0
LINE
8
BLACK
6
CONTINUOUS
10
145.541
20
-107.331
11
145.635
21
-107.224
0
LINE
8
BLACK
6
CONTINUOUS
10
145.635
20
-107.224
11
145.756
21
-107.148
0
LINE
8
BLACK
6
CONTINUOUS
10
145.756
20
-107.148
11
145.893
21
-107.109
0
LINE
8
BLACK
6
CONTINUOUS
10
145.893
20
-107.109
11
146.035
21
-107.109
0
LINE
8
BLACK
6
CONTINUOUS
10
146.035
20
-107.109
11
146.172
21
-107.15
0
LINE
8
BLACK
6
CONTINUOUS
10
146.172
20
-107.15
11
146.292
21
-107.228
0
LINE
8
BLACK
6
CONTINUOUS
10
146.292
20
-107.228
11
146.385
21
-107.336
0
LINE
8
BLACK
6
CONTINUOUS
10
146.385
20
-107.336
11
146.416
21
-107.404
0
LINE
8
BLACK
6
CONTINUOUS
10
146.416
20
-107.404
11
170.007
21
-107.404
0
LINE
8
BLACK
6
CONTINUOUS
10
170.007
20
-107.404
11
171.345
21
-106.066
0
LINE
8
BLACK
6
CONTINUOUS
10
171.345
20
-106.066
11
171.373
21
-106.048
0
LINE
8
BLACK
6
CONTINUOUS
10
171.373
20
-106.048
11
171.4
21
-106.027
0
LINE
8
BLACK
6
CONTINUOUS
10
171.4
20
-106.027
11
171.411
21
-106.024
0
LINE
8
BLACK
6
CONTINUOUS
10
171.411
20
-106.024
11
171.421
21
-106.018
0
LINE
8
BLACK
6
CONTINUOUS
10
171.421
20
-106.018
11
171.455
21
-106.014
0
LINE
8
BLACK
6
CONTINUOUS
10
171.455
20
-106.014
11
171.488
21
-106.007
0
LINE
8
BLACK
6
CONTINUOUS
10
171.488
20
-106.007
11
180.236
21
-106.007
0
LINE
8
BLACK
6
CONTINUOUS
10
180.236
20
-106.007
11
180.244
21
-105.973
0
LINE
8
BLACK
6
CONTINUOUS
10
180.244
20
-105.973
11
180.318
21
-105.833
0
LINE
8
BLACK
6
CONTINUOUS
10
180.318
20
-105.833
11
180.424
21
-105.715
0
LINE
8
BLACK
6
CONTINUOUS
10
180.424
20
-105.715
11
180.555
21
-105.625
0
LINE
8
BLACK
6
CONTINUOUS
10
180.555
20
-105.625
11
180.703
21
-105.569
0
LINE
8
BLACK
6
CONTINUOUS
10
180.703
20
-105.569
11
180.861
21
-105.55
0
LINE
8
BLACK
6
CONTINUOUS
10
180.861
20
-105.55
11
182.181
21
-105.55
0
LINE
8
BLACK
6
CONTINUOUS
10
182.181
20
-105.55
11
182.188
21
-105.55
0
LINE
8
BLACK
6
CONTINUOUS
10
142.893
20
-102.569
11
143.042
21
-102.638
0
LINE
8
BLACK
6
CONTINUOUS
10
143.042
20
-102.638
11
143.168
21
-102.743
0
LINE
8
BLACK
6
CONTINUOUS
10
143.168
20
-102.743
11
143.264
21
-102.876
0
LINE
8
BLACK
6
CONTINUOUS
10
143.264
20
-102.876
11
143.325
21
-103.028
0
LINE
8
BLACK
6
CONTINUOUS
10
143.325
20
-103.028
11
143.345
21
-103.191
0
LINE
8
BLACK
6
CONTINUOUS
10
143.345
20
-103.191
11
143.345
21
-104.499
0
LINE
8
BLACK
6
CONTINUOUS
10
143.345
20
-104.499
11
143.34
21
-104.581
0
LINE
8
BLACK
6
CONTINUOUS
10
143.34
20
-104.581
11
143.299
21
-104.739
0
LINE
8
BLACK
6
CONTINUOUS
10
143.299
20
-104.739
11
143.22
21
-104.883
0
LINE
8
BLACK
6
CONTINUOUS
10
143.22
20
-104.883
11
143.108
21
-105.003
0
LINE
8
BLACK
6
CONTINUOUS
10
143.108
20
-105.003
11
142.996
21
-105.074
0
LINE
8
BLACK
6
CONTINUOUS
10
142.996
20
-105.074
11
142.996
21
-106.032
0
LINE
8
BLACK
6
CONTINUOUS
10
142.996
20
-106.032
11
160.896
21
-106.032
0
LINE
8
BLACK
6
CONTINUOUS
10
160.896
20
-106.032
11
160.896
21
-103.67
0
LINE
8
BLACK
6
CONTINUOUS
10
160.896
20
-103.67
11
160.898
21
-103.648
0
LINE
8
BLACK
6
CONTINUOUS
10
160.898
20
-103.648
11
160.898
21
-103.64
0
LINE
8
BLACK
6
CONTINUOUS
10
160.898
20
-103.64
11
160.9
21
-103.633
0
LINE
8
BLACK
6
CONTINUOUS
10
160.9
20
-103.633
11
160.902
21
-103.611
0
LINE
8
BLACK
6
CONTINUOUS
10
160.902
20
-103.611
11
160.917
21
-103.573
0
LINE
8
BLACK
6
CONTINUOUS
10
160.917
20
-103.573
11
160.929
21
-103.533
0
LINE
8
BLACK
6
CONTINUOUS
10
160.929
20
-103.533
11
160.938
21
-103.521
0
LINE
8
BLACK
6
CONTINUOUS
10
160.938
20
-103.521
11
160.943
21
-103.507
0
LINE
8
BLACK
6
CONTINUOUS
10
160.943
20
-103.507
11
160.971
21
-103.477
0
LINE
8
BLACK
6
CONTINUOUS
10
160.971
20
-103.477
11
160.996
21
-103.444
0
LINE
8
BLACK
6
CONTINUOUS
10
160.996
20
-103.444
11
161.009
21
-103.436
0
LINE
8
BLACK
6
CONTINUOUS
10
161.009
20
-103.436
11
161.019
21
-103.425
0
LINE
8
BLACK
6
CONTINUOUS
10
161.019
20
-103.425
11
161.056
21
-103.407
0
LINE
8
BLACK
6
CONTINUOUS
10
161.056
20
-103.407
11
161.091
21
-103.386
0
LINE
8
BLACK
6
CONTINUOUS
10
161.091
20
-103.386
11
161.106
21
-103.383
0
LINE
8
BLACK
6
CONTINUOUS
10
161.106
20
-103.383
11
161.12
21
-103.376
0
LINE
8
BLACK
6
CONTINUOUS
10
161.12
20
-103.376
11
161.161
21
-103.373
0
LINE
8
BLACK
6
CONTINUOUS
10
161.161
20
-103.373
11
161.201
21
-103.365
0
LINE
8
BLACK
6
CONTINUOUS
10
161.201
20
-103.365
11
180.28
21
-103.365
0
LINE
8
BLACK
6
CONTINUOUS
10
180.28
20
-103.365
11
180.318
21
-103.293
0
LINE
8
BLACK
6
CONTINUOUS
10
180.318
20
-103.293
11
180.424
21
-103.175
0
LINE
8
BLACK
6
CONTINUOUS
10
180.424
20
-103.175
11
180.555
21
-103.085
0
LINE
8
BLACK
6
CONTINUOUS
10
180.555
20
-103.085
11
180.703
21
-103.029
0
LINE
8
BLACK
6
CONTINUOUS
10
180.703
20
-103.029
11
180.861
21
-103.01
0
LINE
8
BLACK
6
CONTINUOUS
10
180.861
20
-103.01
11
182.181
21
-103.01
0
LINE
8
BLACK
6
CONTINUOUS
10
182.181
20
-103.01
11
182.188
21
-103.01
0
LINE
8
BLACK
6
CONTINUOUS
10
182.188
20
-103.01
11
182.346
21
-103.03
0
LINE
8
BLACK
6
CONTINUOUS
10
182.346
20
-103.03
11
182.494
21
-103.088
0
LINE
8
BLACK
6
CONTINUOUS
10
182.494
20
-103.088
11
182.623
21
-103.179
0
LINE
8
BLACK
6
CONTINUOUS
10
182.623
20
-103.179
11
182.728
21
-103.299
0
LINE
8
BLACK
6
CONTINUOUS
10
182.728
20
-103.299
11
182.8
21
-103.44
0
LINE
8
BLACK
6
CONTINUOUS
10
182.8
20
-103.44
11
182.838
21
-103.594
0
LINE
8
BLACK
6
CONTINUOUS
10
182.838
20
-103.594
11
182.837
21
-103.753
0
LINE
8
BLACK
6
CONTINUOUS
10
182.837
20
-103.753
11
182.798
21
-103.907
0
LINE
8
BLACK
6
CONTINUOUS
10
182.798
20
-103.907
11
182.724
21
-104.047
0
LINE
8
BLACK
6
CONTINUOUS
10
182.724
20
-104.047
11
182.618
21
-104.165
0
LINE
8
BLACK
6
CONTINUOUS
10
182.618
20
-104.165
11
182.487
21
-104.255
0
LINE
8
BLACK
6
CONTINUOUS
10
182.487
20
-104.255
11
182.339
21
-104.311
0
LINE
8
BLACK
6
CONTINUOUS
10
182.339
20
-104.311
11
182.181
21
-104.33
0
LINE
8
BLACK
6
CONTINUOUS
10
182.181
20
-104.33
11
180.861
21
-104.33
0
LINE
8
BLACK
6
CONTINUOUS
10
180.861
20
-104.33
11
180.854
21
-104.33
0
LINE
8
BLACK
6
CONTINUOUS
10
180.854
20
-104.33
11
180.696
21
-104.31
0
LINE
8
BLACK
6
CONTINUOUS
10
180.696
20
-104.31
11
180.549
21
-104.252
0
LINE
8
BLACK
6
CONTINUOUS
10
180.549
20
-104.252
11
180.419
21
-104.161
0
LINE
8
BLACK
6
CONTINUOUS
10
180.419
20
-104.161
11
180.314
21
-104.041
0
LINE
8
BLACK
6
CONTINUOUS
10
180.314
20
-104.041
11
180.28
21
-103.975
0
LINE
8
BLACK
6
CONTINUOUS
10
180.28
20
-103.975
11
161.506
21
-103.975
0
LINE
8
BLACK
6
CONTINUOUS
10
161.506
20
-103.975
11
161.506
21
-106.337
0
LINE
8
BLACK
6
CONTINUOUS
10
161.506
20
-106.337
11
161.504
21
-106.359
0
LINE
8
BLACK
6
CONTINUOUS
10
161.504
20
-106.359
11
161.504
21
-106.367
0
LINE
8
BLACK
6
CONTINUOUS
10
161.504
20
-106.367
11
161.502
21
-106.374
0
LINE
8
BLACK
6
CONTINUOUS
10
161.502
20
-106.374
11
161.5
21
-106.396
0
LINE
8
BLACK
6
CONTINUOUS
10
161.5
20
-106.396
11
161.485
21
-106.435
0
LINE
8
BLACK
6
CONTINUOUS
10
161.485
20
-106.435
11
161.473
21
-106.474
0
LINE
8
BLACK
6
CONTINUOUS
10
161.473
20
-106.474
11
161.464
21
-106.486
0
LINE
8
BLACK
6
CONTINUOUS
10
161.464
20
-106.486
11
161.459
21
-106.5
0
LINE
8
BLACK
6
CONTINUOUS
10
161.459
20
-106.5
11
161.431
21
-106.53
0
LINE
8
BLACK
6
CONTINUOUS
10
161.431
20
-106.53
11
161.406
21
-106.563
0
LINE
8
BLACK
6
CONTINUOUS
10
161.406
20
-106.563
11
161.393
21
-106.571
0
LINE
8
BLACK
6
CONTINUOUS
10
161.393
20
-106.571
11
161.383
21
-106.582
0
LINE
8
BLACK
6
CONTINUOUS
10
161.383
20
-106.582
11
161.346
21
-106.6
0
LINE
8
BLACK
6
CONTINUOUS
10
161.346
20
-106.6
11
161.311
21
-106.621
0
LINE
8
BLACK
6
CONTINUOUS
10
161.311
20
-106.621
11
161.296
21
-106.624
0
LINE
8
BLACK
6
CONTINUOUS
10
161.296
20
-106.624
11
161.283
21
-106.631
0
LINE
8
BLACK
6
CONTINUOUS
10
161.283
20
-106.631
11
161.242
21
-106.634
0
LINE
8
BLACK
6
CONTINUOUS
10
161.242
20
-106.634
11
161.201
21
-106.642
0
LINE
8
BLACK
6
CONTINUOUS
10
161.201
20
-106.642
11
142.691
21
-106.642
0
LINE
8
BLACK
6
CONTINUOUS
10
142.691
20
-106.642
11
142.669
21
-106.64
0
LINE
8
BLACK
6
CONTINUOUS
10
142.669
20
-106.64
11
142.661
21
-106.64
0
LINE
8
BLACK
6
CONTINUOUS
10
142.661
20
-106.64
11
142.654
21
-106.638
0
LINE
8
BLACK
6
CONTINUOUS
10
142.654
20
-106.638
11
142.632
21
-106.636
0
LINE
8
BLACK
6
CONTINUOUS
10
142.632
20
-106.636
11
142.594
21
-106.621
0
LINE
8
BLACK
6
CONTINUOUS
10
142.594
20
-106.621
11
142.554
21
-106.609
0
LINE
8
BLACK
6
CONTINUOUS
10
142.554
20
-106.609
11
142.542
21
-106.6
0
LINE
8
BLACK
6
CONTINUOUS
10
142.542
20
-106.6
11
142.528
21
-106.595
0
LINE
8
BLACK
6
CONTINUOUS
10
142.528
20
-106.595
11
142.498
21
-106.567
0
LINE
8
BLACK
6
CONTINUOUS
10
142.498
20
-106.567
11
142.465
21
-106.542
0
LINE
8
BLACK
6
CONTINUOUS
10
142.465
20
-106.542
11
142.457
21
-106.529
0
LINE
8
BLACK
6
CONTINUOUS
10
142.457
20
-106.529
11
142.446
21
-106.519
0
LINE
8
BLACK
6
CONTINUOUS
10
142.446
20
-106.519
11
142.428
21
-106.482
0
LINE
8
BLACK
6
CONTINUOUS
10
142.428
20
-106.482
11
142.407
21
-106.447
0
LINE
8
BLACK
6
CONTINUOUS
10
142.407
20
-106.447
11
142.404
21
-106.432
0
LINE
8
BLACK
6
CONTINUOUS
10
142.404
20
-106.432
11
142.397
21
-106.419
0
LINE
8
BLACK
6
CONTINUOUS
10
142.397
20
-106.419
11
142.394
21
-106.378
0
LINE
8
BLACK
6
CONTINUOUS
10
142.394
20
-106.378
11
142.386
21
-106.337
0
LINE
8
BLACK
6
CONTINUOUS
10
142.386
20
-106.337
11
142.386
21
-105.072
0
LINE
8
BLACK
6
CONTINUOUS
10
142.386
20
-105.072
11
142.341
21
-105.051
0
LINE
8
BLACK
6
CONTINUOUS
10
142.341
20
-105.051
11
142.214
21
-104.946
0
LINE
8
BLACK
6
CONTINUOUS
10
142.214
20
-104.946
11
142.118
21
-104.814
0
LINE
8
BLACK
6
CONTINUOUS
10
142.118
20
-104.814
11
142.058
21
-104.661
0
LINE
8
BLACK
6
CONTINUOUS
10
142.058
20
-104.661
11
142.037
21
-104.499
0
LINE
8
BLACK
6
CONTINUOUS
10
142.037
20
-104.499
11
142.037
21
-103.191
0
LINE
8
BLACK
6
CONTINUOUS
10
142.037
20
-103.191
11
142.042
21
-103.109
0
LINE
8
BLACK
6
CONTINUOUS
10
142.042
20
-103.109
11
142.083
21
-102.95
0
LINE
8
BLACK
6
CONTINUOUS
10
142.083
20
-102.95
11
142.162
21
-102.806
0
LINE
8
BLACK
6
CONTINUOUS
10
142.162
20
-102.806
11
142.274
21
-102.687
0
LINE
8
BLACK
6
CONTINUOUS
10
142.274
20
-102.687
11
142.413
21
-102.599
0
LINE
8
BLACK
6
CONTINUOUS
10
142.413
20
-102.599
11
142.569
21
-102.548
0
LINE
8
BLACK
6
CONTINUOUS
10
142.569
20
-102.548
11
142.732
21
-102.538
0
LINE
8
BLACK
6
CONTINUOUS
10
142.732
20
-102.538
11
142.893
21
-102.569
0
LINE
8
BLACK
6
CONTINUOUS
10
140.893
20
-102.569
11
141.042
21
-102.638
0
LINE
8
BLACK
6
CONTINUOUS
10
141.042
20
-102.638
11
141.168
21
-102.743
0
LINE
8
BLACK
6
CONTINUOUS
10
141.168
20
-102.743
11
141.264
21
-102.876
0
LINE
8
BLACK
6
CONTINUOUS
10
141.264
20
-102.876
11
141.325
21
-103.028
0
LINE
8
BLACK
6
CONTINUOUS
10
141.325
20
-103.028
11
141.345
21
-103.191
0
LINE
8
BLACK
6
CONTINUOUS
10
141.345
20
-103.191
11
141.345
21
-104.499
0
LINE
8
BLACK
6
CONTINUOUS
10
141.345
20
-104.499
11
141.34
21
-104.581
0
LINE
8
BLACK
6
CONTINUOUS
10
141.34
20
-104.581
11
141.299
21
-104.739
0
LINE
8
BLACK
6
CONTINUOUS
10
141.299
20
-104.739
11
141.22
21
-104.883
0
LINE
8
BLACK
6
CONTINUOUS
10
141.22
20
-104.883
11
141.108
21
-105.003
0
LINE
8
BLACK
6
CONTINUOUS
10
141.108
20
-105.003
11
140.97
21
-105.09
0
LINE
8
BLACK
6
CONTINUOUS
10
140.97
20
-105.09
11
140.814
21
-105.141
0
LINE
8
BLACK
6
CONTINUOUS
10
140.814
20
-105.141
11
140.65
21
-105.151
0
LINE
8
BLACK
6
CONTINUOUS
10
140.65
20
-105.151
11
140.489
21
-105.121
0
LINE
8
BLACK
6
CONTINUOUS
10
140.489
20
-105.121
11
140.341
21
-105.051
0
LINE
8
BLACK
6
CONTINUOUS
10
140.341
20
-105.051
11
140.214
21
-104.946
0
LINE
8
BLACK
6
CONTINUOUS
10
140.214
20
-104.946
11
140.118
21
-104.814
0
LINE
8
BLACK
6
CONTINUOUS
10
140.118
20
-104.814
11
140.058
21
-104.661
0
LINE
8
BLACK
6
CONTINUOUS
10
140.058
20
-104.661
11
140.037
21
-104.499
0
LINE
8
BLACK
6
CONTINUOUS
10
140.037
20
-104.499
11
140.037
21
-103.191
0
LINE
8
BLACK
6
CONTINUOUS
10
140.037
20
-103.191
11
140.042
21
-103.109
0
LINE
8
BLACK
6
CONTINUOUS
10
140.042
20
-103.109
11
140.083
21
-102.95
0
LINE
8
BLACK
6
CONTINUOUS
10
140.083
20
-102.95
11
140.162
21
-102.806
0
LINE
8
BLACK
6
CONTINUOUS
10
140.162
20
-102.806
11
140.274
21
-102.687
0
LINE
8
BLACK
6
CONTINUOUS
10
140.274
20
-102.687
11
140.413
21
-102.599
0
LINE
8
BLACK
6
CONTINUOUS
10
140.413
20
-102.599
11
140.569
21
-102.548
0
LINE
8
BLACK
6
CONTINUOUS
10
140.569
20
-102.548
11
140.732
21
-102.538
0
LINE
8
BLACK
6
CONTINUOUS
10
140.732
20
-102.538
11
140.893
21
-102.569
0
LINE
8
BLACK
6
CONTINUOUS
10
158.893
20
-102.569
11
159.042
21
-102.638
0
LINE
8
BLACK
6
CONTINUOUS
10
159.042
20
-102.638
11
159.168
21
-102.743
0
LINE
8
BLACK
6
CONTINUOUS
10
159.168
20
-102.743
11
159.264
21
-102.876
0
LINE
8
BLACK
6
CONTINUOUS
10
159.264
20
-102.876
11
159.325
21
-103.028
0
LINE
8
BLACK
6
CONTINUOUS
10
159.325
20
-103.028
11
159.345
21
-103.191
0
LINE
8
BLACK
6
CONTINUOUS
10
159.345
20
-103.191
11
159.345
21
-104.499
0
LINE
8
BLACK
6
CONTINUOUS
10
159.345
20
-104.499
11
159.34
21
-104.581
0
LINE
8
BLACK
6
CONTINUOUS
10
159.34
20
-104.581
11
159.299
21
-104.739
0
LINE
8
BLACK
6
CONTINUOUS
10
159.299
20
-104.739
11
159.22
21
-104.883
0
LINE
8
BLACK
6
CONTINUOUS
10
159.22
20
-104.883
11
159.108
21
-105.003
0
LINE
8
BLACK
6
CONTINUOUS
10
159.108
20
-105.003
11
158.97
21
-105.09
0
LINE
8
BLACK
6
CONTINUOUS
10
158.97
20
-105.09
11
158.814
21
-105.141
0
LINE
8
BLACK
6
CONTINUOUS
10
158.814
20
-105.141
11
158.65
21
-105.151
0
LINE
8
BLACK
6
CONTINUOUS
10
158.65
20
-105.151
11
158.489
21
-105.121
0
LINE
8
BLACK
6
CONTINUOUS
10
158.489
20
-105.121
11
158.341
21
-105.051
0
LINE
8
BLACK
6
CONTINUOUS
10
158.341
20
-105.051
11
158.214
21
-104.946
0
LINE
8
BLACK
6
CONTINUOUS
10
158.214
20
-104.946
11
158.118
21
-104.814
0
LINE
8
BLACK
6
CONTINUOUS
10
158.118
20
-104.814
11
158.058
21
-104.661
0
LINE
8
BLACK
6
CONTINUOUS
10
158.058
20
-104.661
11
158.037
21
-104.499
0
LINE
8
BLACK
6
CONTINUOUS
10
158.037
20
-104.499
11
158.037
21
-103.191
0
LINE
8
BLACK
6
CONTINUOUS
10
158.037
20
-103.191
11
158.042
21
-103.109
0
LINE
8
BLACK
6
CONTINUOUS
10
158.042
20
-103.109
11
158.083
21
-102.95
0
LINE
8
BLACK
6
CONTINUOUS
10
158.083
20
-102.95
11
158.162
21
-102.806
0
LINE
8
BLACK
6
CONTINUOUS
10
158.162
20
-102.806
11
158.274
21
-102.687
0
LINE
8
BLACK
6
CONTINUOUS
10
158.274
20
-102.687
11
158.413
21
-102.599
0
LINE
8
BLACK
6
CONTINUOUS
10
158.413
20
-102.599
11
158.569
21
-102.548
0
LINE
8
BLACK
6
CONTINUOUS
10
158.569
20
-102.548
11
158.732
21
-102.538
0
LINE
8
BLACK
6
CONTINUOUS
10
158.732
20
-102.538
11
158.893
21
-102.569
0
LINE
8
BLACK
6
CONTINUOUS
10
144.893
20
-102.569
11
145.042
21
-102.638
0
LINE
8
BLACK
6
CONTINUOUS
10
145.042
20
-102.638
11
145.168
21
-102.743
0
LINE
8
BLACK
6
CONTINUOUS
10
145.168
20
-102.743
11
145.264
21
-102.876
0
LINE
8
BLACK
6
CONTINUOUS
10
145.264
20
-102.876
11
145.325
21
-103.028
0
LINE
8
BLACK
6
CONTINUOUS
10
145.325
20
-103.028
11
145.345
21
-103.191
0
LINE
8
BLACK
6
CONTINUOUS
10
145.345
20
-103.191
11
145.345
21
-104.499
0
LINE
8
BLACK
6
CONTINUOUS
10
145.345
20
-104.499
11
145.34
21
-104.581
0
LINE
8
BLACK
6
CONTINUOUS
10
145.34
20
-104.581
11
145.299
21
-104.739
0
LINE
8
BLACK
6
CONTINUOUS
10
145.299
20
-104.739
11
145.22
21
-104.883
0
LINE
8
BLACK
6
CONTINUOUS
10
145.22
20
-104.883
11
145.108
21
-105.003
0
LINE
8
BLACK
6
CONTINUOUS
10
145.108
20
-105.003
11
144.97
21
-105.09
0
LINE
8
BLACK
6
CONTINUOUS
10
144.97
20
-105.09
11
144.814
21
-105.141
0
LINE
8
BLACK
6
CONTINUOUS
10
144.814
20
-105.141
11
144.65
21
-105.151
0
LINE
8
BLACK
6
CONTINUOUS
10
144.65
20
-105.151
11
144.489
21
-105.121
0
LINE
8
BLACK
6
CONTINUOUS
10
144.489
20
-105.121
11
144.341
21
-105.051
0
LINE
8
BLACK
6
CONTINUOUS
10
144.341
20
-105.051
11
144.214
21
-104.946
0
LINE
8
BLACK
6
CONTINUOUS
10
144.214
20
-104.946
11
144.118
21
-104.814
0
LINE
8
BLACK
6
CONTINUOUS
10
144.118
20
-104.814
11
144.058
21
-104.661
0
LINE
8
BLACK
6
CONTINUOUS
10
144.058
20
-104.661
11
144.037
21
-104.499
0
LINE
8
BLACK
6
CONTINUOUS
10
144.037
20
-104.499
11
144.037
21
-103.191
0
LINE
8
BLACK
6
CONTINUOUS
10
144.037
20
-103.191
11
144.042
21
-103.109
0
LINE
8
BLACK
6
CONTINUOUS
10
144.042
20
-103.109
11
144.083
21
-102.95
0
LINE
8
BLACK
6
CONTINUOUS
10
144.083
20
-102.95
11
144.162
21
-102.806
0
LINE
8
BLACK
6
CONTINUOUS
10
144.162
20
-102.806
11
144.274
21
-102.687
0
LINE
8
BLACK
6
CONTINUOUS
10
144.274
20
-102.687
11
144.413
21
-102.599
0
LINE
8
BLACK
6
CONTINUOUS
10
144.413
20
-102.599
11
144.569
21
-102.548
0
LINE
8
BLACK
6
CONTINUOUS
10
144.569
20
-102.548
11
144.732
21
-102.538
0
LINE
8
BLACK
6
CONTINUOUS
10
144.732
20
-102.538
11
144.893
21
-102.569
0
LINE
8
BLACK
6
CONTINUOUS
10
146.893
20
-102.569
11
147.042
21
-102.638
0
LINE
8
BLACK
6
CONTINUOUS
10
147.042
20
-102.638
11
147.168
21
-102.743
0
LINE
8
BLACK
6
CONTINUOUS
10
147.168
20
-102.743
11
147.264
21
-102.876
0
LINE
8
BLACK
6
CONTINUOUS
10
147.264
20
-102.876
11
147.325
21
-103.028
0
LINE
8
BLACK
6
CONTINUOUS
10
147.325
20
-103.028
11
147.345
21
-103.191
0
LINE
8
BLACK
6
CONTINUOUS
10
147.345
20
-103.191
11
147.345
21
-104.499
0
LINE
8
BLACK
6
CONTINUOUS
10
147.345
20
-104.499
11
147.34
21
-104.581
0
LINE
8
BLACK
6
CONTINUOUS
10
147.34
20
-104.581
11
147.299
21
-104.739
0
LINE
8
BLACK
6
CONTINUOUS
10
147.299
20
-104.739
11
147.22
21
-104.883
0
LINE
8
BLACK
6
CONTINUOUS
10
147.22
20
-104.883
11
147.108
21
-105.003
0
LINE
8
BLACK
6
CONTINUOUS
10
147.108
20
-105.003
11
146.97
21
-105.09
0
LINE
8
BLACK
6
CONTINUOUS
10
146.97
20
-105.09
11
146.814
21
-105.141
0
LINE
8
BLACK
6
CONTINUOUS
10
146.814
20
-105.141
11
146.65
21
-105.151
0
LINE
8
BLACK
6
CONTINUOUS
10
146.65
20
-105.151
11
146.489
21
-105.121
0
LINE
8
BLACK
6
CONTINUOUS
10
146.489
20
-105.121
11
146.341
21
-105.051
0
LINE
8
BLACK
6
CONTINUOUS
10
146.341
20
-105.051
11
146.214
21
-104.946
0
LINE
8
BLACK
6
CONTINUOUS
10
146.214
20
-104.946
11
146.118
21
-104.814
0
LINE
8
BLACK
6
CONTINUOUS
10
146.118
20
-104.814
11
146.058
21
-104.661
0
LINE
8
BLACK
6
CONTINUOUS
10
146.058
20
-104.661
11
146.037
21
-104.499
0
LINE
8
BLACK
6
CONTINUOUS
10
146.037
20
-104.499
11
146.037
21
-103.191
0
LINE
8
BLACK
6
CONTINUOUS
10
146.037
20
-103.191
11
146.042
21
-103.109
0
LINE
8
BLACK
6
CONTINUOUS
10
146.042
20
-103.109
11
146.083
21
-102.95
0
LINE
8
BLACK
6
CONTINUOUS
10
146.083
20
-102.95
11
146.162
21
-102.806
0
LINE
8
BLACK
6
CONTINUOUS
10
146.162
20
-102.806
11
146.274
21
-102.687
0
LINE
8
BLACK
6
CONTINUOUS
10
146.274
20
-102.687
11
146.413
21
-102.599
0
LINE
8
BLACK
6
CONTINUOUS
10
146.413
20
-102.599
11
146.569
21
-102.548
0
LINE
8
BLACK
6
CONTINUOUS
10
146.569
20
-102.548
11
146.732
21
-102.538
0
LINE
8
BLACK
6
CONTINUOUS
10
146.732
20
-102.538
11
146.893
21
-102.569
0
LINE
8
BLACK
6
CONTINUOUS
10
148.893
20
-102.569
11
149.042
21
-102.638
0
LINE
8
BLACK
6
CONTINUOUS
10
149.042
20
-102.638
11
149.168
21
-102.743
0
LINE
8
BLACK
6
CONTINUOUS
10
149.168
20
-102.743
11
149.264
21
-102.876
0
LINE
8
BLACK
6
CONTINUOUS
10
149.264
20
-102.876
11
149.325
21
-103.028
0
LINE
8
BLACK
6
CONTINUOUS
10
149.325
20
-103.028
11
149.345
21
-103.191
0
LINE
8
BLACK
6
CONTINUOUS
10
149.345
20
-103.191
11
149.345
21
-104.499
0
LINE
8
BLACK
6
CONTINUOUS
10
149.345
20
-104.499
11
149.34
21
-104.581
0
LINE
8
BLACK
6
CONTINUOUS
10
149.34
20
-104.581
11
149.299
21
-104.739
0
LINE
8
BLACK
6
CONTINUOUS
10
149.299
20
-104.739
11
149.22
21
-104.883
0
LINE
8
BLACK
6
CONTINUOUS
10
149.22
20
-104.883
11
149.108
21
-105.003
0
LINE
8
BLACK
6
CONTINUOUS
10
149.108
20
-105.003
11
148.97
21
-105.09
0
LINE
8
BLACK
6
CONTINUOUS
10
148.97
20
-105.09
11
148.814
21
-105.141
0
LINE
8
BLACK
6
CONTINUOUS
10
148.814
20
-105.141
11
148.65
21
-105.151
0
LINE
8
BLACK
6
CONTINUOUS
10
148.65
20
-105.151
11
148.489
21
-105.121
0
LINE
8
BLACK
6
CONTINUOUS
10
148.489
20
-105.121
11
148.341
21
-105.051
0
LINE
8
BLACK
6
CONTINUOUS
10
148.341
20
-105.051
11
148.214
21
-104.946
0
LINE
8
BLACK
6
CONTINUOUS
10
148.214
20
-104.946
11
148.118
21
-104.814
0
LINE
8
BLACK
6
CONTINUOUS
10
148.118
20
-104.814
11
148.058
21
-104.661
0
LINE
8
BLACK
6
CONTINUOUS
10
148.058
20
-104.661
11
148.037
21
-104.499
0
LINE
8
BLACK
6
CONTINUOUS
10
148.037
20
-104.499
11
148.037
21
-103.191
0
LINE
8
BLACK
6
CONTINUOUS
10
148.037
20
-103.191
11
148.042
21
-103.109
0
LINE
8
BLACK
6
CONTINUOUS
10
148.042
20
-103.109
11
148.083
21
-102.95
0
LINE
8
BLACK
6
CONTINUOUS
10
148.083
20
-102.95
11
148.162
21
-102.806
0
LINE
8
BLACK
6
CONTINUOUS
10
148.162
20
-102.806
11
148.274
21
-102.687
0
LINE
8
BLACK
6
CONTINUOUS
10
148.274
20
-102.687
11
148.413
21
-102.599
0
LINE
8
BLACK
6
CONTINUOUS
10
148.413
20
-102.599
11
148.569
21
-102.548
0
LINE
8
BLACK
6
CONTINUOUS
10
148.569
20
-102.548
11
148.732
21
-102.538
0
LINE
8
BLACK
6
CONTINUOUS
10
148.732
20
-102.538
11
148.893
21
-102.569
0
LINE
8
BLACK
6
CONTINUOUS
10
150.893
20
-102.569
11
151.042
21
-102.638
0
LINE
8
BLACK
6
CONTINUOUS
10
151.042
20
-102.638
11
151.168
21
-102.743
0
LINE
8
BLACK
6
CONTINUOUS
10
151.168
20
-102.743
11
151.264
21
-102.876
0
LINE
8
BLACK
6
CONTINUOUS
10
151.264
20
-102.876
11
151.325
21
-103.028
0
LINE
8
BLACK
6
CONTINUOUS
10
151.325
20
-103.028
11
151.345
21
-103.191
0
LINE
8
BLACK
6
CONTINUOUS
10
151.345
20
-103.191
11
151.345
21
-104.499
0
LINE
8
BLACK
6
CONTINUOUS
10
151.345
20
-104.499
11
151.34
21
-104.581
0
LINE
8
BLACK
6
CONTINUOUS
10
151.34
20
-104.581
11
151.299
21
-104.739
0
LINE
8
BLACK
6
CONTINUOUS
10
151.299
20
-104.739
11
151.22
21
-104.883
0
LINE
8
BLACK
6
CONTINUOUS
10
151.22
20
-104.883
11
151.108
21
-105.003
0
LINE
8
BLACK
6
CONTINUOUS
10
151.108
20
-105.003
11
150.97
21
-105.09
0
LINE
8
BLACK
6
CONTINUOUS
10
150.97
20
-105.09
11
150.814
21
-105.141
0
LINE
8
BLACK
6
CONTINUOUS
10
150.814
20
-105.141
11
150.65
21
-105.151
0
LINE
8
BLACK
6
CONTINUOUS
10
150.65
20
-105.151
11
150.489
21
-105.121
0
LINE
8
BLACK
6
CONTINUOUS
10
150.489
20
-105.121
11
150.341
21
-105.051
0
LINE
8
BLACK
6
CONTINUOUS
10
150.341
20
-105.051
11
150.214
21
-104.946
0
LINE
8
BLACK
6
CONTINUOUS
10
150.214
20
-104.946
11
150.118
21
-104.814
0
LINE
8
BLACK
6
CONTINUOUS
10
150.118
20
-104.814
11
150.058
21
-104.661
0
LINE
8
BLACK
6
CONTINUOUS
10
150.058
20
-104.661
11
150.037
21
-104.499
0
LINE
8
BLACK
6
CONTINUOUS
10
150.037
20
-104.499
11
150.037
21
-103.191
0
LINE
8
BLACK
6
CONTINUOUS
10
150.037
20
-103.191
11
150.042
21
-103.109
0
LINE
8
BLACK
6
CONTINUOUS
10
150.042
20
-103.109
11
150.083
21
-102.95
0
LINE
8
BLACK
6
CONTINUOUS
10
150.083
20
-102.95
11
150.162
21
-102.806
0
LINE
8
BLACK
6
CONTINUOUS
10
150.162
20
-102.806
11
150.274
21
-102.687
0
LINE
8
BLACK
6
CONTINUOUS
10
150.274
20
-102.687
11
150.413
21
-102.599
0
LINE
8
BLACK
6
CONTINUOUS
10
150.413
20
-102.599
11
150.569
21
-102.548
0
LINE
8
BLACK
6
CONTINUOUS
10
150.569
20
-102.548
11
150.732
21
-102.538
0
LINE
8
BLACK
6
CONTINUOUS
10
150.732
20
-102.538
11
150.893
21
-102.569
0
LINE
8
BLACK
6
CONTINUOUS
10
152.893
20
-102.569
11
153.042
21
-102.638
0
LINE
8
BLACK
6
CONTINUOUS
10
153.042
20
-102.638
11
153.168
21
-102.743
0
LINE
8
BLACK
6
CONTINUOUS
10
153.168
20
-102.743
11
153.264
21
-102.876
0
LINE
8
BLACK
6
CONTINUOUS
10
153.264
20
-102.876
11
153.325
21
-103.028
0
LINE
8
BLACK
6
CONTINUOUS
10
153.325
20
-103.028
11
153.345
21
-103.191
0
LINE
8
BLACK
6
CONTINUOUS
10
153.345
20
-103.191
11
153.345
21
-104.499
0
LINE
8
BLACK
6
CONTINUOUS
10
153.345
20
-104.499
11
153.34
21
-104.581
0
LINE
8
BLACK
6
CONTINUOUS
10
153.34
20
-104.581
11
153.299
21
-104.739
0
LINE
8
BLACK
6
CONTINUOUS
10
153.299
20
-104.739
11
153.22
21
-104.883
0
LINE
8
BLACK
6
CONTINUOUS
10
153.22
20
-104.883
11
153.108
21
-105.003
0
LINE
8
BLACK
6
CONTINUOUS
10
153.108
20
-105.003
11
152.97
21
-105.09
0
LINE
8
BLACK
6
CONTINUOUS
10
152.97
20
-105.09
11
152.814
21
-105.141
0
LINE
8
BLACK
6
CONTINUOUS
10
152.814
20
-105.141
11
152.65
21
-105.151
0
LINE
8
BLACK
6
CONTINUOUS
10
152.65
20
-105.151
11
152.489
21
-105.121
0
LINE
8
BLACK
6
CONTINUOUS
10
152.489
20
-105.121
11
152.341
21
-105.051
0
LINE
8
BLACK
6
CONTINUOUS
10
152.341
20
-105.051
11
152.214
21
-104.946
0
LINE
8
BLACK
6
CONTINUOUS
10
152.214
20
-104.946
11
152.118
21
-104.814
0
LINE
8
BLACK
6
CONTINUOUS
10
152.118
20
-104.814
11
152.058
21
-104.661
0
LINE
8
BLACK
6
CONTINUOUS
10
152.058
20
-104.661
11
152.037
21
-104.499
0
LINE
8
BLACK
6
CONTINUOUS
10
152.037
20
-104.499
11
152.037
21
-103.191
0
LINE
8
BLACK
6
CONTINUOUS
10
152.037
20
-103.191
11
152.042
21
-103.109
0
LINE
8
BLACK
6
CONTINUOUS
10
152.042
20
-103.109
11
152.083
21
-102.95
0
LINE
8
BLACK
6
CONTINUOUS
10
152.083
20
-102.95
11
152.162
21
-102.806
0
LINE
8
BLACK
6
CONTINUOUS
10
152.162
20
-102.806
11
152.274
21
-102.687
0
LINE
8
BLACK
6
CONTINUOUS
10
152.274
20
-102.687
11
152.413
21
-102.599
0
LINE
8
BLACK
6
CONTINUOUS
10
152.413
20
-102.599
11
152.569
21
-102.548
0
LINE
8
BLACK
6
CONTINUOUS
10
152.569
20
-102.548
11
152.732
21
-102.538
0
LINE
8
BLACK
6
CONTINUOUS
10
152.732
20
-102.538
11
152.893
21
-102.569
0
LINE
8
BLACK
6
CONTINUOUS
10
154.893
20
-102.569
11
155.042
21
-102.638
0
LINE
8
BLACK
6
CONTINUOUS
10
155.042
20
-102.638
11
155.168
21
-102.743
0
LINE
8
BLACK
6
CONTINUOUS
10
155.168
20
-102.743
11
155.264
21
-102.876
0
LINE
8
BLACK
6
CONTINUOUS
10
155.264
20
-102.876
11
155.325
21
-103.028
0
LINE
8
BLACK
6
CONTINUOUS
10
155.325
20
-103.028
11
155.345
21
-103.191
0
LINE
8
BLACK
6
CONTINUOUS
10
155.345
20
-103.191
11
155.345
21
-104.499
0
LINE
8
BLACK
6
CONTINUOUS
10
155.345
20
-104.499
11
155.34
21
-104.581
0
LINE
8
BLACK
6
CONTINUOUS
10
155.34
20
-104.581
11
155.299
21
-104.739
0
LINE
8
BLACK
6
CONTINUOUS
10
155.299
20
-104.739
11
155.22
21
-104.883
0
LINE
8
BLACK
6
CONTINUOUS
10
155.22
20
-104.883
11
155.108
21
-105.003
0
LINE
8
BLACK
6
CONTINUOUS
10
155.108
20
-105.003
11
154.97
21
-105.09
0
LINE
8
BLACK
6
CONTINUOUS
10
154.97
20
-105.09
11
154.814
21
-105.141
0
LINE
8
BLACK
6
CONTINUOUS
10
154.814
20
-105.141
11
154.65
21
-105.151
0
LINE
8
BLACK
6
CONTINUOUS
10
154.65
20
-105.151
11
154.489
21
-105.121
0
LINE
8
BLACK
6
CONTINUOUS
10
154.489
20
-105.121
11
154.341
21
-105.051
0
LINE
8
BLACK
6
CONTINUOUS
10
154.341
20
-105.051
11
154.214
21
-104.946
0
LINE
8
BLACK
6
CONTINUOUS
10
154.214
20
-104.946
11
154.118
21
-104.814
0
LINE
8
BLACK
6
CONTINUOUS
10
154.118
20
-104.814
11
154.058
21
-104.661
0
LINE
8
BLACK
6
CONTINUOUS
10
154.058
20
-104.661
11
154.037
21
-104.499
0
LINE
8
BLACK
6
CONTINUOUS
10
154.037
20
-104.499
11
154.037
21
-103.191
0
LINE
8
BLACK
6
CONTINUOUS
10
154.037
20
-103.191
11
154.042
21
-103.109
0
LINE
8
BLACK
6
CONTINUOUS
10
154.042
20
-103.109
11
154.083
21
-102.95
0
LINE
8
BLACK
6
CONTINUOUS
10
154.083
20
-102.95
11
154.162
21
-102.806
0
LINE
8
BLACK
6
CONTINUOUS
10
154.162
20
-102.806
11
154.274
21
-102.687
0
LINE
8
BLACK
6
CONTINUOUS
10
154.274
20
-102.687
11
154.413
21
-102.599
0
LINE
8
BLACK
6
CONTINUOUS
10
154.413
20
-102.599
11
154.569
21
-102.548
0
LINE
8
BLACK
6
CONTINUOUS
10
154.569
20
-102.548
11
154.732
21
-102.538
0
LINE
8
BLACK
6
CONTINUOUS
10
154.732
20
-102.538
11
154.893
21
-102.569
0
LINE
8
BLACK
6
CONTINUOUS
10
170.834
20
-98.0131
11
169.434
21
-98.0131
0
LINE
8
BLACK
6
CONTINUOUS
10
169.434
20
-98.0131
11
169.434
21
-97.6503
0
LINE
8
BLACK
6
CONTINUOUS
10
169.434
20
-97.6503
11
157.475
21
-97.6503
0
LINE
8
BLACK
6
CONTINUOUS
10
157.475
20
-97.6503
11
156.894
21
-98.2313
0
LINE
8
BLACK
6
CONTINUOUS
10
156.894
20
-98.2313
11
156.894
21
-102.569
0
LINE
8
BLACK
6
CONTINUOUS
10
156.894
20
-102.569
11
157.042
21
-102.638
0
LINE
8
BLACK
6
CONTINUOUS
10
157.042
20
-102.638
11
157.168
21
-102.743
0
LINE
8
BLACK
6
CONTINUOUS
10
157.168
20
-102.743
11
157.264
21
-102.876
0
LINE
8
BLACK
6
CONTINUOUS
10
157.264
20
-102.876
11
157.325
21
-103.028
0
LINE
8
BLACK
6
CONTINUOUS
10
157.325
20
-103.028
11
157.345
21
-103.191
0
LINE
8
BLACK
6
CONTINUOUS
10
157.345
20
-103.191
11
157.345
21
-104.499
0
LINE
8
BLACK
6
CONTINUOUS
10
157.345
20
-104.499
11
157.34
21
-104.581
0
LINE
8
BLACK
6
CONTINUOUS
10
157.34
20
-104.581
11
157.299
21
-104.739
0
LINE
8
BLACK
6
CONTINUOUS
10
157.299
20
-104.739
11
157.22
21
-104.883
0
LINE
8
BLACK
6
CONTINUOUS
10
157.22
20
-104.883
11
157.108
21
-105.003
0
LINE
8
BLACK
6
CONTINUOUS
10
157.108
20
-105.003
11
156.97
21
-105.09
0
LINE
8
BLACK
6
CONTINUOUS
10
156.97
20
-105.09
11
156.814
21
-105.141
0
LINE
8
BLACK
6
CONTINUOUS
10
156.814
20
-105.141
11
156.65
21
-105.151
0
LINE
8
BLACK
6
CONTINUOUS
10
156.65
20
-105.151
11
156.489
21
-105.121
0
LINE
8
BLACK
6
CONTINUOUS
10
156.489
20
-105.121
11
156.341
21
-105.051
0
LINE
8
BLACK
6
CONTINUOUS
10
156.341
20
-105.051
11
156.214
21
-104.946
0
LINE
8
BLACK
6
CONTINUOUS
10
156.214
20
-104.946
11
156.118
21
-104.814
0
LINE
8
BLACK
6
CONTINUOUS
10
156.118
20
-104.814
11
156.058
21
-104.661
0
LINE
8
BLACK
6
CONTINUOUS
10
156.058
20
-104.661
11
156.037
21
-104.499
0
LINE
8
BLACK
6
CONTINUOUS
10
156.037
20
-104.499
11
156.037
21
-103.191
0
LINE
8
BLACK
6
CONTINUOUS
10
156.037
20
-103.191
11
156.042
21
-103.109
0
LINE
8
BLACK
6
CONTINUOUS
10
156.042
20
-103.109
11
156.083
21
-102.95
0
LINE
8
BLACK
6
CONTINUOUS
10
156.083
20
-102.95
11
156.162
21
-102.806
0
LINE
8
BLACK
6
CONTINUOUS
10
156.162
20
-102.806
11
156.274
21
-102.687
0
LINE
8
BLACK
6
CONTINUOUS
10
156.274
20
-102.687
11
156.413
21
-102.599
0
LINE
8
BLACK
6
CONTINUOUS
10
156.413
20
-102.599
11
156.488
21
-102.574
0
LINE
8
BLACK
6
CONTINUOUS
10
156.488
20
-102.574
11
156.488
21
-98.1467
0
LINE
8
BLACK
6
CONTINUOUS
10
156.488
20
-98.1467
11
156.496
21
-98.1137
0
LINE
8
BLACK
6
CONTINUOUS
10
156.496
20
-98.1137
11
156.499
21
-98.0799
0
LINE
8
BLACK
6
CONTINUOUS
10
156.499
20
-98.0799
11
156.506
21
-98.07
0
LINE
8
BLACK
6
CONTINUOUS
10
156.506
20
-98.07
11
156.508
21
-98.0587
0
LINE
8
BLACK
6
CONTINUOUS
10
156.508
20
-98.0587
11
156.529
21
-98.0322
0
LINE
8
BLACK
6
CONTINUOUS
10
156.529
20
-98.0322
11
156.547
21
-98.0034
0
LINE
8
BLACK
6
CONTINUOUS
10
156.547
20
-98.0034
11
157.248
21
-97.3032
0
LINE
8
BLACK
6
CONTINUOUS
10
157.248
20
-97.3032
11
157.276
21
-97.2852
0
LINE
8
BLACK
6
CONTINUOUS
10
157.276
20
-97.2852
11
157.303
21
-97.264
0
LINE
8
BLACK
6
CONTINUOUS
10
157.303
20
-97.264
11
157.314
21
-97.2614
0
LINE
8
BLACK
6
CONTINUOUS
10
157.314
20
-97.2614
11
157.324
21
-97.2552
0
LINE
8
BLACK
6
CONTINUOUS
10
157.324
20
-97.2552
11
157.358
21
-97.2514
0
LINE
8
BLACK
6
CONTINUOUS
10
157.358
20
-97.2514
11
157.391
21
-97.2439
0
LINE
8
BLACK
6
CONTINUOUS
10
157.391
20
-97.2439
11
169.434
21
-97.2439
0
LINE
8
BLACK
6
CONTINUOUS
10
169.434
20
-97.2439
11
169.434
21
-97.0131
0
LINE
8
BLACK
6
CONTINUOUS
10
169.434
20
-97.0131
11
170.834
21
-97.0131
0
LINE
8
BLACK
6
CONTINUOUS
10
170.834
20
-97.0131
11
170.834
21
-98.0131
0
LINE
8
BLACK
6
CONTINUOUS
10
170.834
20
-99.9131
11
170.167
21
-99.9131
0
LINE
8
BLACK
6
CONTINUOUS
10
170.167
20
-99.9131
11
170.167
21
-100.825
0
LINE
8
BLACK
6
CONTINUOUS
10
170.167
20
-100.825
11
180.28
21
-100.825
0
LINE
8
BLACK
6
CONTINUOUS
10
180.28
20
-100.825
11
180.318
21
-100.753
0
LINE
8
BLACK
6
CONTINUOUS
10
180.318
20
-100.753
11
180.424
21
-100.635
0
LINE
8
BLACK
6
CONTINUOUS
10
180.424
20
-100.635
11
180.555
21
-100.545
0
LINE
8
BLACK
6
CONTINUOUS
10
180.555
20
-100.545
11
180.703
21
-100.489
0
LINE
8
BLACK
6
CONTINUOUS
10
180.703
20
-100.489
11
180.861
21
-100.47
0
LINE
8
BLACK
6
CONTINUOUS
10
180.861
20
-100.47
11
182.181
21
-100.47
0
LINE
8
BLACK
6
CONTINUOUS
10
182.181
20
-100.47
11
182.188
21
-100.47
0
LINE
8
BLACK
6
CONTINUOUS
10
182.188
20
-100.47
11
182.346
21
-100.49
0
LINE
8
BLACK
6
CONTINUOUS
10
182.346
20
-100.49
11
182.494
21
-100.548
0
LINE
8
BLACK
6
CONTINUOUS
10
182.494
20
-100.548
11
182.623
21
-100.639
0
LINE
8
BLACK
6
CONTINUOUS
10
182.623
20
-100.639
11
182.728
21
-100.759
0
LINE
8
BLACK
6
CONTINUOUS
10
182.728
20
-100.759
11
182.8
21
-100.9
0
LINE
8
BLACK
6
CONTINUOUS
10
182.8
20
-100.9
11
182.838
21
-101.054
0
LINE
8
BLACK
6
CONTINUOUS
10
182.838
20
-101.054
11
182.837
21
-101.213
0
LINE
8
BLACK
6
CONTINUOUS
10
182.837
20
-101.213
11
182.798
21
-101.367
0
LINE
8
BLACK
6
CONTINUOUS
10
182.798
20
-101.367
11
182.724
21
-101.507
0
LINE
8
BLACK
6
CONTINUOUS
10
182.724
20
-101.507
11
182.618
21
-101.625
0
LINE
8
BLACK
6
CONTINUOUS
10
182.618
20
-101.625
11
182.487
21
-101.715
0
LINE
8
BLACK
6
CONTINUOUS
10
182.487
20
-101.715
11
182.339
21
-101.771
0
LINE
8
BLACK
6
CONTINUOUS
10
182.339
20
-101.771
11
182.181
21
-101.79
0
LINE
8
BLACK
6
CONTINUOUS
10
182.181
20
-101.79
11
180.861
21
-101.79
0
LINE
8
BLACK
6
CONTINUOUS
10
180.861
20
-101.79
11
180.854
21
-101.79
0
LINE
8
BLACK
6
CONTINUOUS
10
180.854
20
-101.79
11
180.696
21
-101.77
0
LINE
8
BLACK
6
CONTINUOUS
10
180.696
20
-101.77
11
180.549
21
-101.712
0
LINE
8
BLACK
6
CONTINUOUS
10
180.549
20
-101.712
11
180.419
21
-101.621
0
LINE
8
BLACK
6
CONTINUOUS
10
180.419
20
-101.621
11
180.314
21
-101.501
0
LINE
8
BLACK
6
CONTINUOUS
10
180.314
20
-101.501
11
180.28
21
-101.435
0
LINE
8
BLACK
6
CONTINUOUS
10
180.28
20
-101.435
11
169.964
21
-101.435
0
LINE
8
BLACK
6
CONTINUOUS
10
169.964
20
-101.435
11
169.905
21
-101.429
0
LINE
8
BLACK
6
CONTINUOUS
10
169.905
20
-101.429
11
169.801
21
-101.388
0
LINE
8
BLACK
6
CONTINUOUS
10
169.801
20
-101.388
11
169.719
21
-101.312
0
LINE
8
BLACK
6
CONTINUOUS
10
169.719
20
-101.312
11
169.67
21
-101.212
0
LINE
8
BLACK
6
CONTINUOUS
10
169.67
20
-101.212
11
169.661
21
-101.1
0
LINE
8
BLACK
6
CONTINUOUS
10
169.661
20
-101.1
11
169.692
21
-100.993
0
LINE
8
BLACK
6
CONTINUOUS
10
169.692
20
-100.993
11
169.759
21
-100.904
0
LINE
8
BLACK
6
CONTINUOUS
10
169.759
20
-100.904
11
169.761
21
-100.903
0
LINE
8
BLACK
6
CONTINUOUS
10
169.761
20
-100.903
11
169.761
21
-99.9131
0
LINE
8
BLACK
6
CONTINUOUS
10
169.761
20
-99.9131
11
169.434
21
-99.9131
0
LINE
8
BLACK
6
CONTINUOUS
10
169.434
20
-99.9131
11
169.434
21
-98.9131
0
LINE
8
BLACK
6
CONTINUOUS
10
169.434
20
-98.9131
11
170.834
21
-98.9131
0
LINE
8
BLACK
6
CONTINUOUS
10
170.834
20
-98.9131
11
170.834
21
-99.9131
0
LINE
8
BLACK
6
CONTINUOUS
10
182.188
20
-97.9297
11
182.346
21
-97.9504
0
LINE
8
BLACK
6
CONTINUOUS
10
182.346
20
-97.9504
11
182.494
21
-98.0081
0
LINE
8
BLACK
6
CONTINUOUS
10
182.494
20
-98.0081
11
182.623
21
-98.0993
0
LINE
8
BLACK
6
CONTINUOUS
10
182.623
20
-98.0993
11
182.728
21
-98.2189
0
LINE
8
BLACK
6
CONTINUOUS
10
182.728
20
-98.2189
11
182.8
21
-98.3599
0
LINE
8
BLACK
6
CONTINUOUS
10
182.8
20
-98.3599
11
182.838
21
-98.5142
0
LINE
8
BLACK
6
CONTINUOUS
10
182.838
20
-98.5142
11
182.837
21
-98.6729
0
LINE
8
BLACK
6
CONTINUOUS
10
182.837
20
-98.6729
11
182.798
21
-98.8268
0
LINE
8
BLACK
6
CONTINUOUS
10
182.798
20
-98.8268
11
182.724
21
-98.967
0
LINE
8
BLACK
6
CONTINUOUS
10
182.724
20
-98.967
11
182.618
21
-99.0855
0
LINE
8
BLACK
6
CONTINUOUS
10
182.618
20
-99.0855
11
182.487
21
-99.1753
0
LINE
8
BLACK
6
CONTINUOUS
10
182.487
20
-99.1753
11
182.339
21
-99.2314
0
LINE
8
BLACK
6
CONTINUOUS
10
182.339
20
-99.2314
11
182.181
21
-99.2505
0
LINE
8
BLACK
6
CONTINUOUS
10
182.181
20
-99.2505
11
180.861
21
-99.2505
0
LINE
8
BLACK
6
CONTINUOUS
10
180.861
20
-99.2505
11
180.854
21
-99.2505
0
LINE
8
BLACK
6
CONTINUOUS
10
180.854
20
-99.2505
11
180.696
21
-99.2298
0
LINE
8
BLACK
6
CONTINUOUS
10
180.696
20
-99.2298
11
180.549
21
-99.1721
0
LINE
8
BLACK
6
CONTINUOUS
10
180.549
20
-99.1721
11
180.419
21
-99.0809
0
LINE
8
BLACK
6
CONTINUOUS
10
180.419
20
-99.0809
11
180.314
21
-98.9613
0
LINE
8
BLACK
6
CONTINUOUS
10
180.314
20
-98.9613
11
180.242
21
-98.8203
0
LINE
8
BLACK
6
CONTINUOUS
10
180.242
20
-98.8203
11
180.205
21
-98.666
0
LINE
8
BLACK
6
CONTINUOUS
10
180.205
20
-98.666
11
180.206
21
-98.5073
0
LINE
8
BLACK
6
CONTINUOUS
10
180.206
20
-98.5073
11
180.244
21
-98.3534
0
LINE
8
BLACK
6
CONTINUOUS
10
180.244
20
-98.3534
11
180.318
21
-98.2132
0
LINE
8
BLACK
6
CONTINUOUS
10
180.318
20
-98.2132
11
180.424
21
-98.0947
0
LINE
8
BLACK
6
CONTINUOUS
10
180.424
20
-98.0947
11
180.555
21
-98.0048
0
LINE
8
BLACK
6
CONTINUOUS
10
180.555
20
-98.0048
11
180.703
21
-97.9488
0
LINE
8
BLACK
6
CONTINUOUS
10
180.703
20
-97.9488
11
180.861
21
-97.9297
0
LINE
8
BLACK
6
CONTINUOUS
10
180.861
20
-97.9297
11
182.181
21
-97.9297
0
LINE
8
BLACK
6
CONTINUOUS
10
182.181
20
-97.9297
11
182.188
21
-97.9297
0
LINE
8
BLACK
6
CONTINUOUS
10
173.809
20
-97.0501
11
172.537
21
-97.0501
0
LINE
8
BLACK
6
CONTINUOUS
10
172.537
20
-97.0501
11
172.537
21
-97.9631
0
LINE
8
BLACK
6
CONTINUOUS
10
172.537
20
-97.9631
11
173.034
21
-97.9631
0
LINE
8
BLACK
6
CONTINUOUS
10
173.034
20
-97.9631
11
173.034
21
-98.9631
0
LINE
8
BLACK
6
CONTINUOUS
10
173.034
20
-98.9631
11
171.634
21
-98.9631
0
LINE
8
BLACK
6
CONTINUOUS
10
171.634
20
-98.9631
11
171.634
21
-97.9631
0
LINE
8
BLACK
6
CONTINUOUS
10
171.634
20
-97.9631
11
172.131
21
-97.9631
0
LINE
8
BLACK
6
CONTINUOUS
10
172.131
20
-97.9631
11
172.131
21
-96.0497
0
LINE
8
BLACK
6
CONTINUOUS
10
172.131
20
-96.0497
11
172.136
21
-96.0275
0
LINE
8
BLACK
6
CONTINUOUS
10
172.136
20
-96.0275
11
172.136
21
-96.0047
0
LINE
8
BLACK
6
CONTINUOUS
10
172.136
20
-96.0047
11
172.146
21
-95.984
0
LINE
8
BLACK
6
CONTINUOUS
10
172.146
20
-95.984
11
172.151
21
-95.9617
0
LINE
8
BLACK
6
CONTINUOUS
10
172.151
20
-95.9617
11
172.165
21
-95.9439
0
LINE
8
BLACK
6
CONTINUOUS
10
172.165
20
-95.9439
11
172.175
21
-95.9233
0
LINE
8
BLACK
6
CONTINUOUS
10
172.175
20
-95.9233
11
172.193
21
-95.909
0
LINE
8
BLACK
6
CONTINUOUS
10
172.193
20
-95.909
11
172.208
21
-95.8911
0
LINE
8
BLACK
6
CONTINUOUS
10
172.208
20
-95.8911
11
172.209
21
-95.8904
0
LINE
8
BLACK
6
CONTINUOUS
10
172.209
20
-95.8904
11
172.209
21
-95.0501
0
LINE
8
BLACK
6
CONTINUOUS
10
172.209
20
-95.0501
11
173.809
21
-95.0501
0
LINE
8
BLACK
6
CONTINUOUS
10
173.809
20
-95.0501
11
173.809
21
-97.0501
0
LINE
8
BLACK
6
CONTINUOUS
10
119.474
20
-96.0331
11
119.642
21
-96.093
0
LINE
8
BLACK
6
CONTINUOUS
10
119.642
20
-96.093
11
119.792
21
-96.1886
0
LINE
8
BLACK
6
CONTINUOUS
10
119.792
20
-96.1886
11
119.918
21
-96.3151
0
LINE
8
BLACK
6
CONTINUOUS
10
119.918
20
-96.3151
11
120.013
21
-96.4664
0
LINE
8
BLACK
6
CONTINUOUS
10
120.013
20
-96.4664
11
120.071
21
-96.6348
0
LINE
8
BLACK
6
CONTINUOUS
10
120.071
20
-96.6348
11
120.091
21
-96.8121
0
LINE
8
BLACK
6
CONTINUOUS
10
120.091
20
-96.8121
11
120.091
21
-96.8344
0
LINE
8
BLACK
6
CONTINUOUS
10
120.091
20
-96.8344
11
120.066
21
-97.0111
0
LINE
8
BLACK
6
CONTINUOUS
10
120.066
20
-97.0111
11
120.003
21
-97.1778
0
LINE
8
BLACK
6
CONTINUOUS
10
120.003
20
-97.1778
11
119.904
21
-97.3264
0
LINE
8
BLACK
6
CONTINUOUS
10
119.904
20
-97.3264
11
119.775
21
-97.4494
0
LINE
8
BLACK
6
CONTINUOUS
10
119.775
20
-97.4494
11
119.622
21
-97.5407
0
LINE
8
BLACK
6
CONTINUOUS
10
119.622
20
-97.5407
11
119.452
21
-97.5959
0
LINE
8
BLACK
6
CONTINUOUS
10
119.452
20
-97.5959
11
119.274
21
-97.612
0
LINE
8
BLACK
6
CONTINUOUS
10
119.274
20
-97.612
11
119.098
21
-97.5884
0
LINE
8
BLACK
6
CONTINUOUS
10
119.098
20
-97.5884
11
118.93
21
-97.5263
0
LINE
8
BLACK
6
CONTINUOUS
10
118.93
20
-97.5263
11
118.781
21
-97.4286
0
LINE
8
BLACK
6
CONTINUOUS
10
118.781
20
-97.4286
11
118.657
21
-97.3003
0
LINE
8
BLACK
6
CONTINUOUS
10
118.657
20
-97.3003
11
118.565
21
-97.1477
0
LINE
8
BLACK
6
CONTINUOUS
10
118.565
20
-97.1477
11
118.508
21
-96.9784
0
LINE
8
BLACK
6
CONTINUOUS
10
118.508
20
-96.9784
11
118.491
21
-96.8009
0
LINE
8
BLACK
6
CONTINUOUS
10
118.491
20
-96.8009
11
118.513
21
-96.624
0
LINE
8
BLACK
6
CONTINUOUS
10
118.513
20
-96.624
11
118.574
21
-96.4563
0
LINE
8
BLACK
6
CONTINUOUS
10
118.574
20
-96.4563
11
118.671
21
-96.3064
0
LINE
8
BLACK
6
CONTINUOUS
10
118.671
20
-96.3064
11
118.799
21
-96.1816
0
LINE
8
BLACK
6
CONTINUOUS
10
118.799
20
-96.1816
11
118.95
21
-96.0881
0
LINE
8
BLACK
6
CONTINUOUS
10
118.95
20
-96.0881
11
119.119
21
-96.0307
0
LINE
8
BLACK
6
CONTINUOUS
10
119.119
20
-96.0307
11
119.297
21
-96.012
0
LINE
8
BLACK
6
CONTINUOUS
10
119.297
20
-96.012
11
119.474
21
-96.0331
0
LINE
8
BLACK
6
CONTINUOUS
10
176.609
20
-95.8977
11
180.223
21
-95.8977
0
LINE
8
BLACK
6
CONTINUOUS
10
180.223
20
-95.8977
11
180.244
21
-95.8134
0
LINE
8
BLACK
6
CONTINUOUS
10
180.244
20
-95.8134
11
180.318
21
-95.6732
0
LINE
8
BLACK
6
CONTINUOUS
10
180.318
20
-95.6732
11
180.424
21
-95.5547
0
LINE
8
BLACK
6
CONTINUOUS
10
180.424
20
-95.5547
11
180.555
21
-95.4648
0
LINE
8
BLACK
6
CONTINUOUS
10
180.555
20
-95.4648
11
180.703
21
-95.4088
0
LINE
8
BLACK
6
CONTINUOUS
10
180.703
20
-95.4088
11
180.861
21
-95.3897
0
LINE
8
BLACK
6
CONTINUOUS
10
180.861
20
-95.3897
11
182.181
21
-95.3897
0
LINE
8
BLACK
6
CONTINUOUS
10
182.181
20
-95.3897
11
182.188
21
-95.3897
0
LINE
8
BLACK
6
CONTINUOUS
10
182.188
20
-95.3897
11
182.346
21
-95.4104
0
LINE
8
BLACK
6
CONTINUOUS
10
182.346
20
-95.4104
11
182.494
21
-95.4681
0
LINE
8
BLACK
6
CONTINUOUS
10
182.494
20
-95.4681
11
182.623
21
-95.5593
0
LINE
8
BLACK
6
CONTINUOUS
10
182.623
20
-95.5593
11
182.728
21
-95.6789
0
LINE
8
BLACK
6
CONTINUOUS
10
182.728
20
-95.6789
11
182.8
21
-95.8199
0
LINE
8
BLACK
6
CONTINUOUS
10
182.8
20
-95.8199
11
182.838
21
-95.9742
0
LINE
8
BLACK
6
CONTINUOUS
10
182.838
20
-95.9742
11
182.837
21
-96.1329
0
LINE
8
BLACK
6
CONTINUOUS
10
182.837
20
-96.1329
11
182.798
21
-96.2868
0
LINE
8
BLACK
6
CONTINUOUS
10
182.798
20
-96.2868
11
182.724
21
-96.427
0
LINE
8
BLACK
6
CONTINUOUS
10
182.724
20
-96.427
11
182.618
21
-96.5455
0
LINE
8
BLACK
6
CONTINUOUS
10
182.618
20
-96.5455
11
182.487
21
-96.6353
0
LINE
8
BLACK
6
CONTINUOUS
10
182.487
20
-96.6353
11
182.339
21
-96.6914
0
LINE
8
BLACK
6
CONTINUOUS
10
182.339
20
-96.6914
11
182.181
21
-96.7105
0
LINE
8
BLACK
6
CONTINUOUS
10
182.181
20
-96.7105
11
180.861
21
-96.7105
0
LINE
8
BLACK
6
CONTINUOUS
10
180.861
20
-96.7105
11
180.854
21
-96.7105
0
LINE
8
BLACK
6
CONTINUOUS
10
180.854
20
-96.7105
11
180.696
21
-96.6898
0
LINE
8
BLACK
6
CONTINUOUS
10
180.696
20
-96.6898
11
180.549
21
-96.6321
0
LINE
8
BLACK
6
CONTINUOUS
10
180.549
20
-96.6321
11
180.419
21
-96.5409
0
LINE
8
BLACK
6
CONTINUOUS
10
180.419
20
-96.5409
11
180.314
21
-96.4213
0
LINE
8
BLACK
6
CONTINUOUS
10
180.314
20
-96.4213
11
180.242
21
-96.2803
0
LINE
8
BLACK
6
CONTINUOUS
10
180.242
20
-96.2803
11
180.223
21
-96.2025
0
LINE
8
BLACK
6
CONTINUOUS
10
180.223
20
-96.2025
11
176.609
21
-96.2025
0
LINE
8
BLACK
6
CONTINUOUS
10
176.609
20
-96.2025
11
176.609
21
-97.0501
0
LINE
8
BLACK
6
CONTINUOUS
10
176.609
20
-97.0501
11
175.009
21
-97.0501
0
LINE
8
BLACK
6
CONTINUOUS
10
175.009
20
-97.0501
11
175.009
21
-95.0501
0
LINE
8
BLACK
6
CONTINUOUS
10
175.009
20
-95.0501
11
176.609
21
-95.0501
0
LINE
8
BLACK
6
CONTINUOUS
10
176.609
20
-95.0501
11
176.609
21
-95.8977
0
CIRCLE
8
BLACK
10
145.961
20
-107.607
40
0.3
0
CIRCLE
8
BLACK
10
147.231
20
-108.877
40
0.3
0
CIRCLE
8
BLACK
10
154.851
20
-111.417
40
0.3
  0
ENDSEC
  0
EOF
