  0
SECTION
  2
HEADER
  9
$ANGBASE
  50
0.0
  9
$ANGDIR
  70
1
  9
$MEASUREMENT
  70
1
  0
ENDSEC
  0
SECTION
  2
TABLES
  0
TABLE
  2
LTYPE
  70
4
  0
LTYPE
  5
40F
  2
CONTINUOUS
  70
0
  3
Solid line
  72
65
  73
0
  40
0.0
  0
LTYPE
  5
410
  2
DASHDOT
 70
0
  3
Dash Dot ____ _ ____ _
 72
65
 73
4
 40
2.0
 49
1.25
 49
-0.25
 49
0.25
 49
-0.25
  0
LTYPE
  5
411
  2
DASHED
 70
0
  3
Dashed __ __ __ __ __
 72
65
 73
2
 40
0.75
 49
0.5
 49
-0.25
  0
LTYPE
  5
43B
  2
DOTTED
 70
0
  3
Dotted .  .  .  .
 72
65
 73
2
 40
0.2
 49
0.0
 49
-0.2
  0
ENDTAB
  0
TABLE
  2
STYLE
  70
4
  0
STYLE
  2
KICAD
  70
0
  40
0
  41
1
  42
1
  50
0
  71
0
  3
isocp.shx
  0
STYLE
  2
KICADB
  70
0
  40
0
  41
1
  42
1
  50
0
  71
0
  3
isocp.shx
  0
STYLE
  2
KICADI
  70
0
  40
0
  41
1
  42
1
  50
15
  71
0
  3
isocp.shx
  0
STYLE
  2
KICADBI
  70
0
  40
0
  41
1
  42
1
  50
15
  71
0
  3
isocp.shx
  0
ENDTAB
  0
TABLE
  2
LAYER
  70
1
  0
LAYER
  2
BLACK
  70
0
  62
7
  6
CONTINUOUS
  0
ENDTAB
  0
ENDSEC
  0
SECTION
  2
ENTITIES
0
LINE
8
BLACK
6
CONTINUOUS
10
123.36
20
-125.013
11
123.604
21
-125.072
0
LINE
8
BLACK
6
CONTINUOUS
10
123.604
20
-125.072
11
123.836
21
-125.168
0
LINE
8
BLACK
6
CONTINUOUS
10
123.836
20
-125.168
11
124.05
21
-125.299
0
LINE
8
BLACK
6
CONTINUOUS
10
124.05
20
-125.299
11
124.241
21
-125.462
0
LINE
8
BLACK
6
CONTINUOUS
10
124.241
20
-125.462
11
124.404
21
-125.653
0
LINE
8
BLACK
6
CONTINUOUS
10
124.404
20
-125.653
11
124.535
21
-125.867
0
LINE
8
BLACK
6
CONTINUOUS
10
124.535
20
-125.867
11
124.631
21
-126.099
0
LINE
8
BLACK
6
CONTINUOUS
10
124.631
20
-126.099
11
124.69
21
-126.343
0
LINE
8
BLACK
6
CONTINUOUS
10
124.69
20
-126.343
11
124.71
21
-126.594
0
LINE
8
BLACK
6
CONTINUOUS
10
124.71
20
-126.594
11
124.69
21
-126.844
0
LINE
8
BLACK
6
CONTINUOUS
10
124.69
20
-126.844
11
124.631
21
-127.088
0
LINE
8
BLACK
6
CONTINUOUS
10
124.631
20
-127.088
11
124.535
21
-127.32
0
LINE
8
BLACK
6
CONTINUOUS
10
124.535
20
-127.32
11
124.404
21
-127.534
0
LINE
8
BLACK
6
CONTINUOUS
10
124.404
20
-127.534
11
124.241
21
-127.725
0
LINE
8
BLACK
6
CONTINUOUS
10
124.241
20
-127.725
11
124.05
21
-127.888
0
LINE
8
BLACK
6
CONTINUOUS
10
124.05
20
-127.888
11
123.836
21
-128.019
0
LINE
8
BLACK
6
CONTINUOUS
10
123.836
20
-128.019
11
123.604
21
-128.115
0
LINE
8
BLACK
6
CONTINUOUS
10
123.604
20
-128.115
11
123.36
21
-128.174
0
LINE
8
BLACK
6
CONTINUOUS
10
123.36
20
-128.174
11
123.11
21
-128.194
0
LINE
8
BLACK
6
CONTINUOUS
10
123.11
20
-128.194
11
122.859
21
-128.174
0
LINE
8
BLACK
6
CONTINUOUS
10
122.859
20
-128.174
11
122.615
21
-128.115
0
LINE
8
BLACK
6
CONTINUOUS
10
122.615
20
-128.115
11
122.383
21
-128.019
0
LINE
8
BLACK
6
CONTINUOUS
10
122.383
20
-128.019
11
122.169
21
-127.888
0
LINE
8
BLACK
6
CONTINUOUS
10
122.169
20
-127.888
11
121.978
21
-127.725
0
LINE
8
BLACK
6
CONTINUOUS
10
121.978
20
-127.725
11
121.815
21
-127.534
0
LINE
8
BLACK
6
CONTINUOUS
10
121.815
20
-127.534
11
121.684
21
-127.32
0
LINE
8
BLACK
6
CONTINUOUS
10
121.684
20
-127.32
11
121.588
21
-127.088
0
LINE
8
BLACK
6
CONTINUOUS
10
121.588
20
-127.088
11
121.529
21
-126.844
0
LINE
8
BLACK
6
CONTINUOUS
10
121.529
20
-126.844
11
121.51
21
-126.594
0
LINE
8
BLACK
6
CONTINUOUS
10
121.51
20
-126.594
11
121.529
21
-126.343
0
LINE
8
BLACK
6
CONTINUOUS
10
121.529
20
-126.343
11
121.588
21
-126.099
0
LINE
8
BLACK
6
CONTINUOUS
10
121.588
20
-126.099
11
121.684
21
-125.867
0
LINE
8
BLACK
6
CONTINUOUS
10
121.684
20
-125.867
11
121.815
21
-125.653
0
LINE
8
BLACK
6
CONTINUOUS
10
121.815
20
-125.653
11
121.978
21
-125.462
0
LINE
8
BLACK
6
CONTINUOUS
10
121.978
20
-125.462
11
122.169
21
-125.299
0
LINE
8
BLACK
6
CONTINUOUS
10
122.169
20
-125.299
11
122.383
21
-125.168
0
LINE
8
BLACK
6
CONTINUOUS
10
122.383
20
-125.168
11
122.615
21
-125.072
0
LINE
8
BLACK
6
CONTINUOUS
10
122.615
20
-125.072
11
122.859
21
-125.013
0
LINE
8
BLACK
6
CONTINUOUS
10
122.859
20
-125.013
11
123.11
21
-124.994
0
LINE
8
BLACK
6
CONTINUOUS
10
123.11
20
-124.994
11
123.36
21
-125.013
0
LINE
8
BLACK
6
CONTINUOUS
10
174.16
20
-125.013
11
174.404
21
-125.072
0
LINE
8
BLACK
6
CONTINUOUS
10
174.404
20
-125.072
11
174.636
21
-125.168
0
LINE
8
BLACK
6
CONTINUOUS
10
174.636
20
-125.168
11
174.85
21
-125.299
0
LINE
8
BLACK
6
CONTINUOUS
10
174.85
20
-125.299
11
175.041
21
-125.462
0
LINE
8
BLACK
6
CONTINUOUS
10
175.041
20
-125.462
11
175.204
21
-125.653
0
LINE
8
BLACK
6
CONTINUOUS
10
175.204
20
-125.653
11
175.335
21
-125.867
0
LINE
8
BLACK
6
CONTINUOUS
10
175.335
20
-125.867
11
175.431
21
-126.099
0
LINE
8
BLACK
6
CONTINUOUS
10
175.431
20
-126.099
11
175.49
21
-126.343
0
LINE
8
BLACK
6
CONTINUOUS
10
175.49
20
-126.343
11
175.51
21
-126.594
0
LINE
8
BLACK
6
CONTINUOUS
10
175.51
20
-126.594
11
175.49
21
-126.844
0
LINE
8
BLACK
6
CONTINUOUS
10
175.49
20
-126.844
11
175.431
21
-127.088
0
LINE
8
BLACK
6
CONTINUOUS
10
175.431
20
-127.088
11
175.335
21
-127.32
0
LINE
8
BLACK
6
CONTINUOUS
10
175.335
20
-127.32
11
175.204
21
-127.534
0
LINE
8
BLACK
6
CONTINUOUS
10
175.204
20
-127.534
11
175.041
21
-127.725
0
LINE
8
BLACK
6
CONTINUOUS
10
175.041
20
-127.725
11
174.85
21
-127.888
0
LINE
8
BLACK
6
CONTINUOUS
10
174.85
20
-127.888
11
174.636
21
-128.019
0
LINE
8
BLACK
6
CONTINUOUS
10
174.636
20
-128.019
11
174.404
21
-128.115
0
LINE
8
BLACK
6
CONTINUOUS
10
174.404
20
-128.115
11
174.16
21
-128.174
0
LINE
8
BLACK
6
CONTINUOUS
10
174.16
20
-128.174
11
173.91
21
-128.194
0
LINE
8
BLACK
6
CONTINUOUS
10
173.91
20
-128.194
11
173.659
21
-128.174
0
LINE
8
BLACK
6
CONTINUOUS
10
173.659
20
-128.174
11
173.415
21
-128.115
0
LINE
8
BLACK
6
CONTINUOUS
10
173.415
20
-128.115
11
173.183
21
-128.019
0
LINE
8
BLACK
6
CONTINUOUS
10
173.183
20
-128.019
11
172.969
21
-127.888
0
LINE
8
BLACK
6
CONTINUOUS
10
172.969
20
-127.888
11
172.778
21
-127.725
0
LINE
8
BLACK
6
CONTINUOUS
10
172.778
20
-127.725
11
172.615
21
-127.534
0
LINE
8
BLACK
6
CONTINUOUS
10
172.615
20
-127.534
11
172.484
21
-127.32
0
LINE
8
BLACK
6
CONTINUOUS
10
172.484
20
-127.32
11
172.388
21
-127.088
0
LINE
8
BLACK
6
CONTINUOUS
10
172.388
20
-127.088
11
172.329
21
-126.844
0
LINE
8
BLACK
6
CONTINUOUS
10
172.329
20
-126.844
11
172.31
21
-126.594
0
LINE
8
BLACK
6
CONTINUOUS
10
172.31
20
-126.594
11
172.329
21
-126.343
0
LINE
8
BLACK
6
CONTINUOUS
10
172.329
20
-126.343
11
172.388
21
-126.099
0
LINE
8
BLACK
6
CONTINUOUS
10
172.388
20
-126.099
11
172.484
21
-125.867
0
LINE
8
BLACK
6
CONTINUOUS
10
172.484
20
-125.867
11
172.615
21
-125.653
0
LINE
8
BLACK
6
CONTINUOUS
10
172.615
20
-125.653
11
172.778
21
-125.462
0
LINE
8
BLACK
6
CONTINUOUS
10
172.778
20
-125.462
11
172.969
21
-125.299
0
LINE
8
BLACK
6
CONTINUOUS
10
172.969
20
-125.299
11
173.183
21
-125.168
0
LINE
8
BLACK
6
CONTINUOUS
10
173.183
20
-125.168
11
173.415
21
-125.072
0
LINE
8
BLACK
6
CONTINUOUS
10
173.415
20
-125.072
11
173.659
21
-125.013
0
LINE
8
BLACK
6
CONTINUOUS
10
173.659
20
-125.013
11
173.91
21
-124.994
0
LINE
8
BLACK
6
CONTINUOUS
10
173.91
20
-124.994
11
174.16
21
-125.013
0
LINE
8
BLACK
6
CONTINUOUS
10
123.241
20
-118.532
11
123.467
21
-118.573
0
LINE
8
BLACK
6
CONTINUOUS
10
123.467
20
-118.573
11
123.684
21
-118.649
0
LINE
8
BLACK
6
CONTINUOUS
10
123.684
20
-118.649
11
123.884
21
-118.76
0
LINE
8
BLACK
6
CONTINUOUS
10
123.884
20
-118.76
11
124.064
21
-118.902
0
LINE
8
BLACK
6
CONTINUOUS
10
124.064
20
-118.902
11
124.219
21
-119.072
0
LINE
8
BLACK
6
CONTINUOUS
10
124.219
20
-119.072
11
124.343
21
-119.265
0
LINE
8
BLACK
6
CONTINUOUS
10
124.343
20
-119.265
11
124.435
21
-119.475
0
LINE
8
BLACK
6
CONTINUOUS
10
124.435
20
-119.475
11
124.491
21
-119.697
0
LINE
8
BLACK
6
CONTINUOUS
10
124.491
20
-119.697
11
124.51
21
-119.926
0
LINE
8
BLACK
6
CONTINUOUS
10
124.51
20
-119.926
11
124.508
21
-119.994
0
LINE
8
BLACK
6
CONTINUOUS
10
124.508
20
-119.994
11
124.478
21
-120.222
0
LINE
8
BLACK
6
CONTINUOUS
10
124.478
20
-120.222
11
124.411
21
-120.441
0
LINE
8
BLACK
6
CONTINUOUS
10
124.411
20
-120.441
11
124.31
21
-120.647
0
LINE
8
BLACK
6
CONTINUOUS
10
124.31
20
-120.647
11
124.176
21
-120.833
0
LINE
8
BLACK
6
CONTINUOUS
10
124.176
20
-120.833
11
124.013
21
-120.995
0
LINE
8
BLACK
6
CONTINUOUS
10
124.013
20
-120.995
11
123.826
21
-121.129
0
LINE
8
BLACK
6
CONTINUOUS
10
123.826
20
-121.129
11
123.62
21
-121.23
0
LINE
8
BLACK
6
CONTINUOUS
10
123.62
20
-121.23
11
123.401
21
-121.296
0
LINE
8
BLACK
6
CONTINUOUS
10
123.401
20
-121.296
11
123.173
21
-121.325
0
LINE
8
BLACK
6
CONTINUOUS
10
123.173
20
-121.325
11
122.944
21
-121.316
0
LINE
8
BLACK
6
CONTINUOUS
10
122.944
20
-121.316
11
122.719
21
-121.271
0
LINE
8
BLACK
6
CONTINUOUS
10
122.719
20
-121.271
11
122.505
21
-121.189
0
LINE
8
BLACK
6
CONTINUOUS
10
122.505
20
-121.189
11
122.307
21
-121.073
0
LINE
8
BLACK
6
CONTINUOUS
10
122.307
20
-121.073
11
122.13
21
-120.926
0
LINE
8
BLACK
6
CONTINUOUS
10
122.13
20
-120.926
11
121.98
21
-120.753
0
LINE
8
BLACK
6
CONTINUOUS
10
121.98
20
-120.753
11
121.86
21
-120.557
0
LINE
8
BLACK
6
CONTINUOUS
10
121.86
20
-120.557
11
121.774
21
-120.345
0
LINE
8
BLACK
6
CONTINUOUS
10
121.774
20
-120.345
11
121.723
21
-120.121
0
LINE
8
BLACK
6
CONTINUOUS
10
121.723
20
-120.121
11
121.71
21
-119.892
0
LINE
8
BLACK
6
CONTINUOUS
10
121.71
20
-119.892
11
121.734
21
-119.664
0
LINE
8
BLACK
6
CONTINUOUS
10
121.734
20
-119.664
11
121.796
21
-119.443
0
LINE
8
BLACK
6
CONTINUOUS
10
121.796
20
-119.443
11
121.892
21
-119.235
0
LINE
8
BLACK
6
CONTINUOUS
10
121.892
20
-119.235
11
122.022
21
-119.045
0
LINE
8
BLACK
6
CONTINUOUS
10
122.022
20
-119.045
11
122.18
21
-118.879
0
LINE
8
BLACK
6
CONTINUOUS
10
122.18
20
-118.879
11
122.364
21
-118.741
0
LINE
8
BLACK
6
CONTINUOUS
10
122.364
20
-118.741
11
122.567
21
-118.635
0
LINE
8
BLACK
6
CONTINUOUS
10
122.567
20
-118.635
11
122.785
21
-118.564
0
LINE
8
BLACK
6
CONTINUOUS
10
122.785
20
-118.564
11
123.012
21
-118.53
0
LINE
8
BLACK
6
CONTINUOUS
10
123.012
20
-118.53
11
123.241
21
-118.532
0
LINE
8
BLACK
6
CONTINUOUS
10
175.934
20
-113.137
11
176.106
21
-113.179
0
LINE
8
BLACK
6
CONTINUOUS
10
176.106
20
-113.179
11
176.263
21
-113.26
0
LINE
8
BLACK
6
CONTINUOUS
10
176.263
20
-113.26
11
176.397
21
-113.374
0
LINE
8
BLACK
6
CONTINUOUS
10
176.397
20
-113.374
11
176.502
21
-113.516
0
LINE
8
BLACK
6
CONTINUOUS
10
176.502
20
-113.516
11
176.571
21
-113.678
0
LINE
8
BLACK
6
CONTINUOUS
10
176.571
20
-113.678
11
176.601
21
-113.852
0
LINE
8
BLACK
6
CONTINUOUS
10
176.601
20
-113.852
11
176.59
21
-114.029
0
LINE
8
BLACK
6
CONTINUOUS
10
176.59
20
-114.029
11
176.539
21
-114.197
0
LINE
8
BLACK
6
CONTINUOUS
10
176.539
20
-114.197
11
176.45
21
-114.35
0
LINE
8
BLACK
6
CONTINUOUS
10
176.45
20
-114.35
11
176.329
21
-114.478
0
LINE
8
BLACK
6
CONTINUOUS
10
176.329
20
-114.478
11
176.181
21
-114.575
0
LINE
8
BLACK
6
CONTINUOUS
10
176.181
20
-114.575
11
176.015
21
-114.635
0
LINE
8
BLACK
6
CONTINUOUS
10
176.015
20
-114.635
11
175.84
21
-114.656
0
LINE
8
BLACK
6
CONTINUOUS
10
175.84
20
-114.656
11
174.519
21
-114.656
0
LINE
8
BLACK
6
CONTINUOUS
10
174.519
20
-114.656
11
174.425
21
-114.65
0
LINE
8
BLACK
6
CONTINUOUS
10
174.425
20
-114.65
11
174.254
21
-114.608
0
LINE
8
BLACK
6
CONTINUOUS
10
174.254
20
-114.608
11
174.096
21
-114.528
0
LINE
8
BLACK
6
CONTINUOUS
10
174.096
20
-114.528
11
173.962
21
-114.413
0
LINE
8
BLACK
6
CONTINUOUS
10
173.962
20
-114.413
11
173.857
21
-114.271
0
LINE
8
BLACK
6
CONTINUOUS
10
173.857
20
-114.271
11
173.788
21
-114.109
0
LINE
8
BLACK
6
CONTINUOUS
10
173.788
20
-114.109
11
173.758
21
-113.935
0
LINE
8
BLACK
6
CONTINUOUS
10
173.758
20
-113.935
11
173.769
21
-113.759
0
LINE
8
BLACK
6
CONTINUOUS
10
173.769
20
-113.759
11
173.82
21
-113.59
0
LINE
8
BLACK
6
CONTINUOUS
10
173.82
20
-113.59
11
173.909
21
-113.437
0
LINE
8
BLACK
6
CONTINUOUS
10
173.909
20
-113.437
11
174.03
21
-113.309
0
LINE
8
BLACK
6
CONTINUOUS
10
174.03
20
-113.309
11
174.178
21
-113.212
0
LINE
8
BLACK
6
CONTINUOUS
10
174.178
20
-113.212
11
174.344
21
-113.152
0
LINE
8
BLACK
6
CONTINUOUS
10
174.344
20
-113.152
11
174.519
21
-113.132
0
LINE
8
BLACK
6
CONTINUOUS
10
174.519
20
-113.132
11
175.84
21
-113.132
0
LINE
8
BLACK
6
CONTINUOUS
10
175.84
20
-113.132
11
175.934
21
-113.137
0
LINE
8
BLACK
6
CONTINUOUS
10
175.934
20
-110.597
11
176.106
21
-110.639
0
LINE
8
BLACK
6
CONTINUOUS
10
176.106
20
-110.639
11
176.263
21
-110.72
0
LINE
8
BLACK
6
CONTINUOUS
10
176.263
20
-110.72
11
176.397
21
-110.834
0
LINE
8
BLACK
6
CONTINUOUS
10
176.397
20
-110.834
11
176.502
21
-110.976
0
LINE
8
BLACK
6
CONTINUOUS
10
176.502
20
-110.976
11
176.571
21
-111.138
0
LINE
8
BLACK
6
CONTINUOUS
10
176.571
20
-111.138
11
176.601
21
-111.312
0
LINE
8
BLACK
6
CONTINUOUS
10
176.601
20
-111.312
11
176.59
21
-111.489
0
LINE
8
BLACK
6
CONTINUOUS
10
176.59
20
-111.489
11
176.539
21
-111.657
0
LINE
8
BLACK
6
CONTINUOUS
10
176.539
20
-111.657
11
176.45
21
-111.81
0
LINE
8
BLACK
6
CONTINUOUS
10
176.45
20
-111.81
11
176.329
21
-111.938
0
LINE
8
BLACK
6
CONTINUOUS
10
176.329
20
-111.938
11
176.181
21
-112.035
0
LINE
8
BLACK
6
CONTINUOUS
10
176.181
20
-112.035
11
176.015
21
-112.095
0
LINE
8
BLACK
6
CONTINUOUS
10
176.015
20
-112.095
11
175.84
21
-112.116
0
LINE
8
BLACK
6
CONTINUOUS
10
175.84
20
-112.116
11
174.519
21
-112.116
0
LINE
8
BLACK
6
CONTINUOUS
10
174.519
20
-112.116
11
174.425
21
-112.11
0
LINE
8
BLACK
6
CONTINUOUS
10
174.425
20
-112.11
11
174.254
21
-112.068
0
LINE
8
BLACK
6
CONTINUOUS
10
174.254
20
-112.068
11
174.096
21
-111.988
0
LINE
8
BLACK
6
CONTINUOUS
10
174.096
20
-111.988
11
173.962
21
-111.873
0
LINE
8
BLACK
6
CONTINUOUS
10
173.962
20
-111.873
11
173.857
21
-111.731
0
LINE
8
BLACK
6
CONTINUOUS
10
173.857
20
-111.731
11
173.788
21
-111.569
0
LINE
8
BLACK
6
CONTINUOUS
10
173.788
20
-111.569
11
173.758
21
-111.395
0
LINE
8
BLACK
6
CONTINUOUS
10
173.758
20
-111.395
11
173.769
21
-111.219
0
LINE
8
BLACK
6
CONTINUOUS
10
173.769
20
-111.219
11
173.82
21
-111.05
0
LINE
8
BLACK
6
CONTINUOUS
10
173.82
20
-111.05
11
173.909
21
-110.897
0
LINE
8
BLACK
6
CONTINUOUS
10
173.909
20
-110.897
11
174.03
21
-110.769
0
LINE
8
BLACK
6
CONTINUOUS
10
174.03
20
-110.769
11
174.178
21
-110.672
0
LINE
8
BLACK
6
CONTINUOUS
10
174.178
20
-110.672
11
174.344
21
-110.612
0
LINE
8
BLACK
6
CONTINUOUS
10
174.344
20
-110.612
11
174.519
21
-110.592
0
LINE
8
BLACK
6
CONTINUOUS
10
174.519
20
-110.592
11
175.84
21
-110.592
0
LINE
8
BLACK
6
CONTINUOUS
10
175.84
20
-110.592
11
175.934
21
-110.597
0
LINE
8
BLACK
6
CONTINUOUS
10
175.934
20
-108.057
11
176.106
21
-108.099
0
LINE
8
BLACK
6
CONTINUOUS
10
176.106
20
-108.099
11
176.263
21
-108.18
0
LINE
8
BLACK
6
CONTINUOUS
10
176.263
20
-108.18
11
176.397
21
-108.294
0
LINE
8
BLACK
6
CONTINUOUS
10
176.397
20
-108.294
11
176.502
21
-108.436
0
LINE
8
BLACK
6
CONTINUOUS
10
176.502
20
-108.436
11
176.571
21
-108.598
0
LINE
8
BLACK
6
CONTINUOUS
10
176.571
20
-108.598
11
176.601
21
-108.772
0
LINE
8
BLACK
6
CONTINUOUS
10
176.601
20
-108.772
11
176.59
21
-108.949
0
LINE
8
BLACK
6
CONTINUOUS
10
176.59
20
-108.949
11
176.539
21
-109.117
0
LINE
8
BLACK
6
CONTINUOUS
10
176.539
20
-109.117
11
176.45
21
-109.27
0
LINE
8
BLACK
6
CONTINUOUS
10
176.45
20
-109.27
11
176.329
21
-109.398
0
LINE
8
BLACK
6
CONTINUOUS
10
176.329
20
-109.398
11
176.181
21
-109.495
0
LINE
8
BLACK
6
CONTINUOUS
10
176.181
20
-109.495
11
176.015
21
-109.555
0
LINE
8
BLACK
6
CONTINUOUS
10
176.015
20
-109.555
11
175.84
21
-109.576
0
LINE
8
BLACK
6
CONTINUOUS
10
175.84
20
-109.576
11
174.519
21
-109.576
0
LINE
8
BLACK
6
CONTINUOUS
10
174.519
20
-109.576
11
174.425
21
-109.57
0
LINE
8
BLACK
6
CONTINUOUS
10
174.425
20
-109.57
11
174.254
21
-109.528
0
LINE
8
BLACK
6
CONTINUOUS
10
174.254
20
-109.528
11
174.096
21
-109.448
0
LINE
8
BLACK
6
CONTINUOUS
10
174.096
20
-109.448
11
173.962
21
-109.333
0
LINE
8
BLACK
6
CONTINUOUS
10
173.962
20
-109.333
11
173.857
21
-109.191
0
LINE
8
BLACK
6
CONTINUOUS
10
173.857
20
-109.191
11
173.788
21
-109.029
0
LINE
8
BLACK
6
CONTINUOUS
10
173.788
20
-109.029
11
173.758
21
-108.855
0
LINE
8
BLACK
6
CONTINUOUS
10
173.758
20
-108.855
11
173.769
21
-108.679
0
LINE
8
BLACK
6
CONTINUOUS
10
173.769
20
-108.679
11
173.82
21
-108.51
0
LINE
8
BLACK
6
CONTINUOUS
10
173.82
20
-108.51
11
173.909
21
-108.357
0
LINE
8
BLACK
6
CONTINUOUS
10
173.909
20
-108.357
11
174.03
21
-108.229
0
LINE
8
BLACK
6
CONTINUOUS
10
174.03
20
-108.229
11
174.178
21
-108.132
0
LINE
8
BLACK
6
CONTINUOUS
10
174.178
20
-108.132
11
174.344
21
-108.072
0
LINE
8
BLACK
6
CONTINUOUS
10
174.344
20
-108.072
11
174.519
21
-108.052
0
LINE
8
BLACK
6
CONTINUOUS
10
174.519
20
-108.052
11
175.84
21
-108.052
0
LINE
8
BLACK
6
CONTINUOUS
10
175.84
20
-108.052
11
175.934
21
-108.057
0
LINE
8
BLACK
6
CONTINUOUS
10
175.934
20
-105.517
11
176.106
21
-105.559
0
LINE
8
BLACK
6
CONTINUOUS
10
176.106
20
-105.559
11
176.263
21
-105.64
0
LINE
8
BLACK
6
CONTINUOUS
10
176.263
20
-105.64
11
176.397
21
-105.754
0
LINE
8
BLACK
6
CONTINUOUS
10
176.397
20
-105.754
11
176.502
21
-105.896
0
LINE
8
BLACK
6
CONTINUOUS
10
176.502
20
-105.896
11
176.571
21
-106.058
0
LINE
8
BLACK
6
CONTINUOUS
10
176.571
20
-106.058
11
176.601
21
-106.232
0
LINE
8
BLACK
6
CONTINUOUS
10
176.601
20
-106.232
11
176.59
21
-106.409
0
LINE
8
BLACK
6
CONTINUOUS
10
176.59
20
-106.409
11
176.539
21
-106.577
0
LINE
8
BLACK
6
CONTINUOUS
10
176.539
20
-106.577
11
176.45
21
-106.73
0
LINE
8
BLACK
6
CONTINUOUS
10
176.45
20
-106.73
11
176.329
21
-106.858
0
LINE
8
BLACK
6
CONTINUOUS
10
176.329
20
-106.858
11
176.181
21
-106.955
0
LINE
8
BLACK
6
CONTINUOUS
10
176.181
20
-106.955
11
176.015
21
-107.015
0
LINE
8
BLACK
6
CONTINUOUS
10
176.015
20
-107.015
11
175.84
21
-107.036
0
LINE
8
BLACK
6
CONTINUOUS
10
175.84
20
-107.036
11
174.519
21
-107.036
0
LINE
8
BLACK
6
CONTINUOUS
10
174.519
20
-107.036
11
174.425
21
-107.03
0
LINE
8
BLACK
6
CONTINUOUS
10
174.425
20
-107.03
11
174.254
21
-106.988
0
LINE
8
BLACK
6
CONTINUOUS
10
174.254
20
-106.988
11
174.096
21
-106.908
0
LINE
8
BLACK
6
CONTINUOUS
10
174.096
20
-106.908
11
173.962
21
-106.793
0
LINE
8
BLACK
6
CONTINUOUS
10
173.962
20
-106.793
11
173.857
21
-106.651
0
LINE
8
BLACK
6
CONTINUOUS
10
173.857
20
-106.651
11
173.788
21
-106.489
0
LINE
8
BLACK
6
CONTINUOUS
10
173.788
20
-106.489
11
173.758
21
-106.315
0
LINE
8
BLACK
6
CONTINUOUS
10
173.758
20
-106.315
11
173.769
21
-106.139
0
LINE
8
BLACK
6
CONTINUOUS
10
173.769
20
-106.139
11
173.82
21
-105.97
0
LINE
8
BLACK
6
CONTINUOUS
10
173.82
20
-105.97
11
173.909
21
-105.817
0
LINE
8
BLACK
6
CONTINUOUS
10
173.909
20
-105.817
11
174.03
21
-105.689
0
LINE
8
BLACK
6
CONTINUOUS
10
174.03
20
-105.689
11
174.178
21
-105.592
0
LINE
8
BLACK
6
CONTINUOUS
10
174.178
20
-105.592
11
174.344
21
-105.532
0
LINE
8
BLACK
6
CONTINUOUS
10
174.344
20
-105.532
11
174.519
21
-105.512
0
LINE
8
BLACK
6
CONTINUOUS
10
174.519
20
-105.512
11
175.84
21
-105.512
0
LINE
8
BLACK
6
CONTINUOUS
10
175.84
20
-105.512
11
175.934
21
-105.517
0
LINE
8
BLACK
6
CONTINUOUS
10
146.133
20
-103.653
11
146.301
21
-103.704
0
LINE
8
BLACK
6
CONTINUOUS
10
146.301
20
-103.704
11
146.452
21
-103.792
0
LINE
8
BLACK
6
CONTINUOUS
10
146.452
20
-103.792
11
146.579
21
-103.912
0
LINE
8
BLACK
6
CONTINUOUS
10
146.579
20
-103.912
11
146.675
21
-104.059
0
LINE
8
BLACK
6
CONTINUOUS
10
146.675
20
-104.059
11
146.735
21
-104.223
0
LINE
8
BLACK
6
CONTINUOUS
10
146.735
20
-104.223
11
146.755
21
-104.397
0
LINE
8
BLACK
6
CONTINUOUS
10
146.755
20
-104.397
11
146.755
21
-105.705
0
LINE
8
BLACK
6
CONTINUOUS
10
146.755
20
-105.705
11
146.749
21
-105.798
0
LINE
8
BLACK
6
CONTINUOUS
10
146.749
20
-105.798
11
146.708
21
-105.968
0
LINE
8
BLACK
6
CONTINUOUS
10
146.708
20
-105.968
11
146.628
21
-106.124
0
LINE
8
BLACK
6
CONTINUOUS
10
146.628
20
-106.124
11
146.515
21
-106.258
0
LINE
8
BLACK
6
CONTINUOUS
10
146.515
20
-106.258
11
146.374
21
-106.361
0
LINE
8
BLACK
6
CONTINUOUS
10
146.374
20
-106.361
11
146.213
21
-106.43
0
LINE
8
BLACK
6
CONTINUOUS
10
146.213
20
-106.43
11
146.04
21
-106.46
0
LINE
8
BLACK
6
CONTINUOUS
10
146.04
20
-106.46
11
145.866
21
-106.449
0
LINE
8
BLACK
6
CONTINUOUS
10
145.866
20
-106.449
11
145.698
21
-106.398
0
LINE
8
BLACK
6
CONTINUOUS
10
145.698
20
-106.398
11
145.547
21
-106.31
0
LINE
8
BLACK
6
CONTINUOUS
10
145.547
20
-106.31
11
145.42
21
-106.19
0
LINE
8
BLACK
6
CONTINUOUS
10
145.42
20
-106.19
11
145.324
21
-106.043
0
LINE
8
BLACK
6
CONTINUOUS
10
145.324
20
-106.043
11
145.264
21
-105.879
0
LINE
8
BLACK
6
CONTINUOUS
10
145.264
20
-105.879
11
145.244
21
-105.705
0
LINE
8
BLACK
6
CONTINUOUS
10
145.244
20
-105.705
11
145.244
21
-104.397
0
LINE
8
BLACK
6
CONTINUOUS
10
145.244
20
-104.397
11
145.25
21
-104.304
0
LINE
8
BLACK
6
CONTINUOUS
10
145.25
20
-104.304
11
145.291
21
-104.134
0
LINE
8
BLACK
6
CONTINUOUS
10
145.291
20
-104.134
11
145.371
21
-103.978
0
LINE
8
BLACK
6
CONTINUOUS
10
145.371
20
-103.978
11
145.484
21
-103.844
0
LINE
8
BLACK
6
CONTINUOUS
10
145.484
20
-103.844
11
145.625
21
-103.741
0
LINE
8
BLACK
6
CONTINUOUS
10
145.625
20
-103.741
11
145.786
21
-103.672
0
LINE
8
BLACK
6
CONTINUOUS
10
145.786
20
-103.672
11
145.959
21
-103.643
0
LINE
8
BLACK
6
CONTINUOUS
10
145.959
20
-103.643
11
146.133
21
-103.653
0
LINE
8
BLACK
6
CONTINUOUS
10
144.133
20
-103.653
11
144.301
21
-103.704
0
LINE
8
BLACK
6
CONTINUOUS
10
144.301
20
-103.704
11
144.452
21
-103.792
0
LINE
8
BLACK
6
CONTINUOUS
10
144.452
20
-103.792
11
144.579
21
-103.912
0
LINE
8
BLACK
6
CONTINUOUS
10
144.579
20
-103.912
11
144.675
21
-104.059
0
LINE
8
BLACK
6
CONTINUOUS
10
144.675
20
-104.059
11
144.735
21
-104.223
0
LINE
8
BLACK
6
CONTINUOUS
10
144.735
20
-104.223
11
144.755
21
-104.397
0
LINE
8
BLACK
6
CONTINUOUS
10
144.755
20
-104.397
11
144.755
21
-105.705
0
LINE
8
BLACK
6
CONTINUOUS
10
144.755
20
-105.705
11
144.749
21
-105.798
0
LINE
8
BLACK
6
CONTINUOUS
10
144.749
20
-105.798
11
144.708
21
-105.968
0
LINE
8
BLACK
6
CONTINUOUS
10
144.708
20
-105.968
11
144.628
21
-106.124
0
LINE
8
BLACK
6
CONTINUOUS
10
144.628
20
-106.124
11
144.515
21
-106.258
0
LINE
8
BLACK
6
CONTINUOUS
10
144.515
20
-106.258
11
144.374
21
-106.361
0
LINE
8
BLACK
6
CONTINUOUS
10
144.374
20
-106.361
11
144.213
21
-106.43
0
LINE
8
BLACK
6
CONTINUOUS
10
144.213
20
-106.43
11
144.04
21
-106.46
0
LINE
8
BLACK
6
CONTINUOUS
10
144.04
20
-106.46
11
143.866
21
-106.449
0
LINE
8
BLACK
6
CONTINUOUS
10
143.866
20
-106.449
11
143.698
21
-106.398
0
LINE
8
BLACK
6
CONTINUOUS
10
143.698
20
-106.398
11
143.547
21
-106.31
0
LINE
8
BLACK
6
CONTINUOUS
10
143.547
20
-106.31
11
143.42
21
-106.19
0
LINE
8
BLACK
6
CONTINUOUS
10
143.42
20
-106.19
11
143.324
21
-106.043
0
LINE
8
BLACK
6
CONTINUOUS
10
143.324
20
-106.043
11
143.264
21
-105.879
0
LINE
8
BLACK
6
CONTINUOUS
10
143.264
20
-105.879
11
143.244
21
-105.705
0
LINE
8
BLACK
6
CONTINUOUS
10
143.244
20
-105.705
11
143.244
21
-104.397
0
LINE
8
BLACK
6
CONTINUOUS
10
143.244
20
-104.397
11
143.25
21
-104.304
0
LINE
8
BLACK
6
CONTINUOUS
10
143.25
20
-104.304
11
143.291
21
-104.134
0
LINE
8
BLACK
6
CONTINUOUS
10
143.291
20
-104.134
11
143.371
21
-103.978
0
LINE
8
BLACK
6
CONTINUOUS
10
143.371
20
-103.978
11
143.484
21
-103.844
0
LINE
8
BLACK
6
CONTINUOUS
10
143.484
20
-103.844
11
143.625
21
-103.741
0
LINE
8
BLACK
6
CONTINUOUS
10
143.625
20
-103.741
11
143.786
21
-103.672
0
LINE
8
BLACK
6
CONTINUOUS
10
143.786
20
-103.672
11
143.959
21
-103.643
0
LINE
8
BLACK
6
CONTINUOUS
10
143.959
20
-103.643
11
144.133
21
-103.653
0
LINE
8
BLACK
6
CONTINUOUS
10
142.133
20
-103.653
11
142.301
21
-103.704
0
LINE
8
BLACK
6
CONTINUOUS
10
142.301
20
-103.704
11
142.452
21
-103.792
0
LINE
8
BLACK
6
CONTINUOUS
10
142.452
20
-103.792
11
142.579
21
-103.912
0
LINE
8
BLACK
6
CONTINUOUS
10
142.579
20
-103.912
11
142.675
21
-104.059
0
LINE
8
BLACK
6
CONTINUOUS
10
142.675
20
-104.059
11
142.735
21
-104.223
0
LINE
8
BLACK
6
CONTINUOUS
10
142.735
20
-104.223
11
142.755
21
-104.397
0
LINE
8
BLACK
6
CONTINUOUS
10
142.755
20
-104.397
11
142.755
21
-105.705
0
LINE
8
BLACK
6
CONTINUOUS
10
142.755
20
-105.705
11
142.749
21
-105.798
0
LINE
8
BLACK
6
CONTINUOUS
10
142.749
20
-105.798
11
142.708
21
-105.968
0
LINE
8
BLACK
6
CONTINUOUS
10
142.708
20
-105.968
11
142.628
21
-106.124
0
LINE
8
BLACK
6
CONTINUOUS
10
142.628
20
-106.124
11
142.515
21
-106.258
0
LINE
8
BLACK
6
CONTINUOUS
10
142.515
20
-106.258
11
142.374
21
-106.361
0
LINE
8
BLACK
6
CONTINUOUS
10
142.374
20
-106.361
11
142.213
21
-106.43
0
LINE
8
BLACK
6
CONTINUOUS
10
142.213
20
-106.43
11
142.04
21
-106.46
0
LINE
8
BLACK
6
CONTINUOUS
10
142.04
20
-106.46
11
141.866
21
-106.449
0
LINE
8
BLACK
6
CONTINUOUS
10
141.866
20
-106.449
11
141.698
21
-106.398
0
LINE
8
BLACK
6
CONTINUOUS
10
141.698
20
-106.398
11
141.547
21
-106.31
0
LINE
8
BLACK
6
CONTINUOUS
10
141.547
20
-106.31
11
141.42
21
-106.19
0
LINE
8
BLACK
6
CONTINUOUS
10
141.42
20
-106.19
11
141.324
21
-106.043
0
LINE
8
BLACK
6
CONTINUOUS
10
141.324
20
-106.043
11
141.264
21
-105.879
0
LINE
8
BLACK
6
CONTINUOUS
10
141.264
20
-105.879
11
141.244
21
-105.705
0
LINE
8
BLACK
6
CONTINUOUS
10
141.244
20
-105.705
11
141.244
21
-104.397
0
LINE
8
BLACK
6
CONTINUOUS
10
141.244
20
-104.397
11
141.25
21
-104.304
0
LINE
8
BLACK
6
CONTINUOUS
10
141.25
20
-104.304
11
141.291
21
-104.134
0
LINE
8
BLACK
6
CONTINUOUS
10
141.291
20
-104.134
11
141.371
21
-103.978
0
LINE
8
BLACK
6
CONTINUOUS
10
141.371
20
-103.978
11
141.484
21
-103.844
0
LINE
8
BLACK
6
CONTINUOUS
10
141.484
20
-103.844
11
141.625
21
-103.741
0
LINE
8
BLACK
6
CONTINUOUS
10
141.625
20
-103.741
11
141.786
21
-103.672
0
LINE
8
BLACK
6
CONTINUOUS
10
141.786
20
-103.672
11
141.959
21
-103.643
0
LINE
8
BLACK
6
CONTINUOUS
10
141.959
20
-103.643
11
142.133
21
-103.653
0
LINE
8
BLACK
6
CONTINUOUS
10
140.133
20
-103.653
11
140.301
21
-103.704
0
LINE
8
BLACK
6
CONTINUOUS
10
140.301
20
-103.704
11
140.452
21
-103.792
0
LINE
8
BLACK
6
CONTINUOUS
10
140.452
20
-103.792
11
140.579
21
-103.912
0
LINE
8
BLACK
6
CONTINUOUS
10
140.579
20
-103.912
11
140.675
21
-104.059
0
LINE
8
BLACK
6
CONTINUOUS
10
140.675
20
-104.059
11
140.735
21
-104.223
0
LINE
8
BLACK
6
CONTINUOUS
10
140.735
20
-104.223
11
140.755
21
-104.397
0
LINE
8
BLACK
6
CONTINUOUS
10
140.755
20
-104.397
11
140.755
21
-105.705
0
LINE
8
BLACK
6
CONTINUOUS
10
140.755
20
-105.705
11
140.749
21
-105.798
0
LINE
8
BLACK
6
CONTINUOUS
10
140.749
20
-105.798
11
140.708
21
-105.968
0
LINE
8
BLACK
6
CONTINUOUS
10
140.708
20
-105.968
11
140.628
21
-106.124
0
LINE
8
BLACK
6
CONTINUOUS
10
140.628
20
-106.124
11
140.515
21
-106.258
0
LINE
8
BLACK
6
CONTINUOUS
10
140.515
20
-106.258
11
140.374
21
-106.361
0
LINE
8
BLACK
6
CONTINUOUS
10
140.374
20
-106.361
11
140.213
21
-106.43
0
LINE
8
BLACK
6
CONTINUOUS
10
140.213
20
-106.43
11
140.04
21
-106.46
0
LINE
8
BLACK
6
CONTINUOUS
10
140.04
20
-106.46
11
139.866
21
-106.449
0
LINE
8
BLACK
6
CONTINUOUS
10
139.866
20
-106.449
11
139.698
21
-106.398
0
LINE
8
BLACK
6
CONTINUOUS
10
139.698
20
-106.398
11
139.547
21
-106.31
0
LINE
8
BLACK
6
CONTINUOUS
10
139.547
20
-106.31
11
139.42
21
-106.19
0
LINE
8
BLACK
6
CONTINUOUS
10
139.42
20
-106.19
11
139.324
21
-106.043
0
LINE
8
BLACK
6
CONTINUOUS
10
139.324
20
-106.043
11
139.264
21
-105.879
0
LINE
8
BLACK
6
CONTINUOUS
10
139.264
20
-105.879
11
139.244
21
-105.705
0
LINE
8
BLACK
6
CONTINUOUS
10
139.244
20
-105.705
11
139.244
21
-104.397
0
LINE
8
BLACK
6
CONTINUOUS
10
139.244
20
-104.397
11
139.25
21
-104.304
0
LINE
8
BLACK
6
CONTINUOUS
10
139.25
20
-104.304
11
139.291
21
-104.134
0
LINE
8
BLACK
6
CONTINUOUS
10
139.291
20
-104.134
11
139.371
21
-103.978
0
LINE
8
BLACK
6
CONTINUOUS
10
139.371
20
-103.978
11
139.484
21
-103.844
0
LINE
8
BLACK
6
CONTINUOUS
10
139.484
20
-103.844
11
139.625
21
-103.741
0
LINE
8
BLACK
6
CONTINUOUS
10
139.625
20
-103.741
11
139.786
21
-103.672
0
LINE
8
BLACK
6
CONTINUOUS
10
139.786
20
-103.672
11
139.959
21
-103.643
0
LINE
8
BLACK
6
CONTINUOUS
10
139.959
20
-103.643
11
140.133
21
-103.653
0
LINE
8
BLACK
6
CONTINUOUS
10
138.133
20
-103.653
11
138.301
21
-103.704
0
LINE
8
BLACK
6
CONTINUOUS
10
138.301
20
-103.704
11
138.452
21
-103.792
0
LINE
8
BLACK
6
CONTINUOUS
10
138.452
20
-103.792
11
138.579
21
-103.912
0
LINE
8
BLACK
6
CONTINUOUS
10
138.579
20
-103.912
11
138.675
21
-104.059
0
LINE
8
BLACK
6
CONTINUOUS
10
138.675
20
-104.059
11
138.735
21
-104.223
0
LINE
8
BLACK
6
CONTINUOUS
10
138.735
20
-104.223
11
138.755
21
-104.397
0
LINE
8
BLACK
6
CONTINUOUS
10
138.755
20
-104.397
11
138.755
21
-105.705
0
LINE
8
BLACK
6
CONTINUOUS
10
138.755
20
-105.705
11
138.749
21
-105.798
0
LINE
8
BLACK
6
CONTINUOUS
10
138.749
20
-105.798
11
138.708
21
-105.968
0
LINE
8
BLACK
6
CONTINUOUS
10
138.708
20
-105.968
11
138.628
21
-106.124
0
LINE
8
BLACK
6
CONTINUOUS
10
138.628
20
-106.124
11
138.515
21
-106.258
0
LINE
8
BLACK
6
CONTINUOUS
10
138.515
20
-106.258
11
138.374
21
-106.361
0
LINE
8
BLACK
6
CONTINUOUS
10
138.374
20
-106.361
11
138.213
21
-106.43
0
LINE
8
BLACK
6
CONTINUOUS
10
138.213
20
-106.43
11
138.04
21
-106.46
0
LINE
8
BLACK
6
CONTINUOUS
10
138.04
20
-106.46
11
137.866
21
-106.449
0
LINE
8
BLACK
6
CONTINUOUS
10
137.866
20
-106.449
11
137.698
21
-106.398
0
LINE
8
BLACK
6
CONTINUOUS
10
137.698
20
-106.398
11
137.547
21
-106.31
0
LINE
8
BLACK
6
CONTINUOUS
10
137.547
20
-106.31
11
137.42
21
-106.19
0
LINE
8
BLACK
6
CONTINUOUS
10
137.42
20
-106.19
11
137.324
21
-106.043
0
LINE
8
BLACK
6
CONTINUOUS
10
137.324
20
-106.043
11
137.264
21
-105.879
0
LINE
8
BLACK
6
CONTINUOUS
10
137.264
20
-105.879
11
137.244
21
-105.705
0
LINE
8
BLACK
6
CONTINUOUS
10
137.244
20
-105.705
11
137.244
21
-104.397
0
LINE
8
BLACK
6
CONTINUOUS
10
137.244
20
-104.397
11
137.25
21
-104.304
0
LINE
8
BLACK
6
CONTINUOUS
10
137.25
20
-104.304
11
137.291
21
-104.134
0
LINE
8
BLACK
6
CONTINUOUS
10
137.291
20
-104.134
11
137.371
21
-103.978
0
LINE
8
BLACK
6
CONTINUOUS
10
137.371
20
-103.978
11
137.484
21
-103.844
0
LINE
8
BLACK
6
CONTINUOUS
10
137.484
20
-103.844
11
137.625
21
-103.741
0
LINE
8
BLACK
6
CONTINUOUS
10
137.625
20
-103.741
11
137.786
21
-103.672
0
LINE
8
BLACK
6
CONTINUOUS
10
137.786
20
-103.672
11
137.959
21
-103.643
0
LINE
8
BLACK
6
CONTINUOUS
10
137.959
20
-103.643
11
138.133
21
-103.653
0
LINE
8
BLACK
6
CONTINUOUS
10
128.133
20
-103.653
11
128.301
21
-103.704
0
LINE
8
BLACK
6
CONTINUOUS
10
128.301
20
-103.704
11
128.452
21
-103.792
0
LINE
8
BLACK
6
CONTINUOUS
10
128.452
20
-103.792
11
128.579
21
-103.912
0
LINE
8
BLACK
6
CONTINUOUS
10
128.579
20
-103.912
11
128.675
21
-104.059
0
LINE
8
BLACK
6
CONTINUOUS
10
128.675
20
-104.059
11
128.735
21
-104.223
0
LINE
8
BLACK
6
CONTINUOUS
10
128.735
20
-104.223
11
128.755
21
-104.397
0
LINE
8
BLACK
6
CONTINUOUS
10
128.755
20
-104.397
11
128.755
21
-105.705
0
LINE
8
BLACK
6
CONTINUOUS
10
128.755
20
-105.705
11
128.749
21
-105.798
0
LINE
8
BLACK
6
CONTINUOUS
10
128.749
20
-105.798
11
128.708
21
-105.968
0
LINE
8
BLACK
6
CONTINUOUS
10
128.708
20
-105.968
11
128.628
21
-106.124
0
LINE
8
BLACK
6
CONTINUOUS
10
128.628
20
-106.124
11
128.515
21
-106.258
0
LINE
8
BLACK
6
CONTINUOUS
10
128.515
20
-106.258
11
128.374
21
-106.361
0
LINE
8
BLACK
6
CONTINUOUS
10
128.374
20
-106.361
11
128.213
21
-106.43
0
LINE
8
BLACK
6
CONTINUOUS
10
128.213
20
-106.43
11
128.04
21
-106.46
0
LINE
8
BLACK
6
CONTINUOUS
10
128.04
20
-106.46
11
127.866
21
-106.449
0
LINE
8
BLACK
6
CONTINUOUS
10
127.866
20
-106.449
11
127.698
21
-106.398
0
LINE
8
BLACK
6
CONTINUOUS
10
127.698
20
-106.398
11
127.547
21
-106.31
0
LINE
8
BLACK
6
CONTINUOUS
10
127.547
20
-106.31
11
127.42
21
-106.19
0
LINE
8
BLACK
6
CONTINUOUS
10
127.42
20
-106.19
11
127.324
21
-106.043
0
LINE
8
BLACK
6
CONTINUOUS
10
127.324
20
-106.043
11
127.264
21
-105.879
0
LINE
8
BLACK
6
CONTINUOUS
10
127.264
20
-105.879
11
127.244
21
-105.705
0
LINE
8
BLACK
6
CONTINUOUS
10
127.244
20
-105.705
11
127.244
21
-104.397
0
LINE
8
BLACK
6
CONTINUOUS
10
127.244
20
-104.397
11
127.25
21
-104.304
0
LINE
8
BLACK
6
CONTINUOUS
10
127.25
20
-104.304
11
127.291
21
-104.134
0
LINE
8
BLACK
6
CONTINUOUS
10
127.291
20
-104.134
11
127.371
21
-103.978
0
LINE
8
BLACK
6
CONTINUOUS
10
127.371
20
-103.978
11
127.484
21
-103.844
0
LINE
8
BLACK
6
CONTINUOUS
10
127.484
20
-103.844
11
127.625
21
-103.741
0
LINE
8
BLACK
6
CONTINUOUS
10
127.625
20
-103.741
11
127.786
21
-103.672
0
LINE
8
BLACK
6
CONTINUOUS
10
127.786
20
-103.672
11
127.959
21
-103.643
0
LINE
8
BLACK
6
CONTINUOUS
10
127.959
20
-103.643
11
128.133
21
-103.653
0
LINE
8
BLACK
6
CONTINUOUS
10
130.133
20
-103.653
11
130.301
21
-103.704
0
LINE
8
BLACK
6
CONTINUOUS
10
130.301
20
-103.704
11
130.452
21
-103.792
0
LINE
8
BLACK
6
CONTINUOUS
10
130.452
20
-103.792
11
130.579
21
-103.912
0
LINE
8
BLACK
6
CONTINUOUS
10
130.579
20
-103.912
11
130.675
21
-104.059
0
LINE
8
BLACK
6
CONTINUOUS
10
130.675
20
-104.059
11
130.735
21
-104.223
0
LINE
8
BLACK
6
CONTINUOUS
10
130.735
20
-104.223
11
130.755
21
-104.397
0
LINE
8
BLACK
6
CONTINUOUS
10
130.755
20
-104.397
11
130.755
21
-105.705
0
LINE
8
BLACK
6
CONTINUOUS
10
130.755
20
-105.705
11
130.749
21
-105.798
0
LINE
8
BLACK
6
CONTINUOUS
10
130.749
20
-105.798
11
130.708
21
-105.968
0
LINE
8
BLACK
6
CONTINUOUS
10
130.708
20
-105.968
11
130.628
21
-106.124
0
LINE
8
BLACK
6
CONTINUOUS
10
130.628
20
-106.124
11
130.515
21
-106.258
0
LINE
8
BLACK
6
CONTINUOUS
10
130.515
20
-106.258
11
130.374
21
-106.361
0
LINE
8
BLACK
6
CONTINUOUS
10
130.374
20
-106.361
11
130.213
21
-106.43
0
LINE
8
BLACK
6
CONTINUOUS
10
130.213
20
-106.43
11
130.04
21
-106.46
0
LINE
8
BLACK
6
CONTINUOUS
10
130.04
20
-106.46
11
129.866
21
-106.449
0
LINE
8
BLACK
6
CONTINUOUS
10
129.866
20
-106.449
11
129.698
21
-106.398
0
LINE
8
BLACK
6
CONTINUOUS
10
129.698
20
-106.398
11
129.547
21
-106.31
0
LINE
8
BLACK
6
CONTINUOUS
10
129.547
20
-106.31
11
129.42
21
-106.19
0
LINE
8
BLACK
6
CONTINUOUS
10
129.42
20
-106.19
11
129.324
21
-106.043
0
LINE
8
BLACK
6
CONTINUOUS
10
129.324
20
-106.043
11
129.264
21
-105.879
0
LINE
8
BLACK
6
CONTINUOUS
10
129.264
20
-105.879
11
129.244
21
-105.705
0
LINE
8
BLACK
6
CONTINUOUS
10
129.244
20
-105.705
11
129.244
21
-104.397
0
LINE
8
BLACK
6
CONTINUOUS
10
129.244
20
-104.397
11
129.25
21
-104.304
0
LINE
8
BLACK
6
CONTINUOUS
10
129.25
20
-104.304
11
129.291
21
-104.134
0
LINE
8
BLACK
6
CONTINUOUS
10
129.291
20
-104.134
11
129.371
21
-103.978
0
LINE
8
BLACK
6
CONTINUOUS
10
129.371
20
-103.978
11
129.484
21
-103.844
0
LINE
8
BLACK
6
CONTINUOUS
10
129.484
20
-103.844
11
129.625
21
-103.741
0
LINE
8
BLACK
6
CONTINUOUS
10
129.625
20
-103.741
11
129.786
21
-103.672
0
LINE
8
BLACK
6
CONTINUOUS
10
129.786
20
-103.672
11
129.959
21
-103.643
0
LINE
8
BLACK
6
CONTINUOUS
10
129.959
20
-103.643
11
130.133
21
-103.653
0
LINE
8
BLACK
6
CONTINUOUS
10
132.133
20
-103.653
11
132.301
21
-103.704
0
LINE
8
BLACK
6
CONTINUOUS
10
132.301
20
-103.704
11
132.452
21
-103.792
0
LINE
8
BLACK
6
CONTINUOUS
10
132.452
20
-103.792
11
132.579
21
-103.912
0
LINE
8
BLACK
6
CONTINUOUS
10
132.579
20
-103.912
11
132.675
21
-104.059
0
LINE
8
BLACK
6
CONTINUOUS
10
132.675
20
-104.059
11
132.735
21
-104.223
0
LINE
8
BLACK
6
CONTINUOUS
10
132.735
20
-104.223
11
132.755
21
-104.397
0
LINE
8
BLACK
6
CONTINUOUS
10
132.755
20
-104.397
11
132.755
21
-105.705
0
LINE
8
BLACK
6
CONTINUOUS
10
132.755
20
-105.705
11
132.749
21
-105.798
0
LINE
8
BLACK
6
CONTINUOUS
10
132.749
20
-105.798
11
132.708
21
-105.968
0
LINE
8
BLACK
6
CONTINUOUS
10
132.708
20
-105.968
11
132.628
21
-106.124
0
LINE
8
BLACK
6
CONTINUOUS
10
132.628
20
-106.124
11
132.515
21
-106.258
0
LINE
8
BLACK
6
CONTINUOUS
10
132.515
20
-106.258
11
132.374
21
-106.361
0
LINE
8
BLACK
6
CONTINUOUS
10
132.374
20
-106.361
11
132.213
21
-106.43
0
LINE
8
BLACK
6
CONTINUOUS
10
132.213
20
-106.43
11
132.04
21
-106.46
0
LINE
8
BLACK
6
CONTINUOUS
10
132.04
20
-106.46
11
131.866
21
-106.449
0
LINE
8
BLACK
6
CONTINUOUS
10
131.866
20
-106.449
11
131.698
21
-106.398
0
LINE
8
BLACK
6
CONTINUOUS
10
131.698
20
-106.398
11
131.547
21
-106.31
0
LINE
8
BLACK
6
CONTINUOUS
10
131.547
20
-106.31
11
131.42
21
-106.19
0
LINE
8
BLACK
6
CONTINUOUS
10
131.42
20
-106.19
11
131.324
21
-106.043
0
LINE
8
BLACK
6
CONTINUOUS
10
131.324
20
-106.043
11
131.264
21
-105.879
0
LINE
8
BLACK
6
CONTINUOUS
10
131.264
20
-105.879
11
131.244
21
-105.705
0
LINE
8
BLACK
6
CONTINUOUS
10
131.244
20
-105.705
11
131.244
21
-104.397
0
LINE
8
BLACK
6
CONTINUOUS
10
131.244
20
-104.397
11
131.25
21
-104.304
0
LINE
8
BLACK
6
CONTINUOUS
10
131.25
20
-104.304
11
131.291
21
-104.134
0
LINE
8
BLACK
6
CONTINUOUS
10
131.291
20
-104.134
11
131.371
21
-103.978
0
LINE
8
BLACK
6
CONTINUOUS
10
131.371
20
-103.978
11
131.484
21
-103.844
0
LINE
8
BLACK
6
CONTINUOUS
10
131.484
20
-103.844
11
131.625
21
-103.741
0
LINE
8
BLACK
6
CONTINUOUS
10
131.625
20
-103.741
11
131.786
21
-103.672
0
LINE
8
BLACK
6
CONTINUOUS
10
131.786
20
-103.672
11
131.959
21
-103.643
0
LINE
8
BLACK
6
CONTINUOUS
10
131.959
20
-103.643
11
132.133
21
-103.653
0
LINE
8
BLACK
6
CONTINUOUS
10
134.133
20
-103.653
11
134.301
21
-103.704
0
LINE
8
BLACK
6
CONTINUOUS
10
134.301
20
-103.704
11
134.452
21
-103.792
0
LINE
8
BLACK
6
CONTINUOUS
10
134.452
20
-103.792
11
134.579
21
-103.912
0
LINE
8
BLACK
6
CONTINUOUS
10
134.579
20
-103.912
11
134.675
21
-104.059
0
LINE
8
BLACK
6
CONTINUOUS
10
134.675
20
-104.059
11
134.735
21
-104.223
0
LINE
8
BLACK
6
CONTINUOUS
10
134.735
20
-104.223
11
134.755
21
-104.397
0
LINE
8
BLACK
6
CONTINUOUS
10
134.755
20
-104.397
11
134.755
21
-105.705
0
LINE
8
BLACK
6
CONTINUOUS
10
134.755
20
-105.705
11
134.749
21
-105.798
0
LINE
8
BLACK
6
CONTINUOUS
10
134.749
20
-105.798
11
134.708
21
-105.968
0
LINE
8
BLACK
6
CONTINUOUS
10
134.708
20
-105.968
11
134.628
21
-106.124
0
LINE
8
BLACK
6
CONTINUOUS
10
134.628
20
-106.124
11
134.515
21
-106.258
0
LINE
8
BLACK
6
CONTINUOUS
10
134.515
20
-106.258
11
134.374
21
-106.361
0
LINE
8
BLACK
6
CONTINUOUS
10
134.374
20
-106.361
11
134.213
21
-106.43
0
LINE
8
BLACK
6
CONTINUOUS
10
134.213
20
-106.43
11
134.04
21
-106.46
0
LINE
8
BLACK
6
CONTINUOUS
10
134.04
20
-106.46
11
133.866
21
-106.449
0
LINE
8
BLACK
6
CONTINUOUS
10
133.866
20
-106.449
11
133.698
21
-106.398
0
LINE
8
BLACK
6
CONTINUOUS
10
133.698
20
-106.398
11
133.547
21
-106.31
0
LINE
8
BLACK
6
CONTINUOUS
10
133.547
20
-106.31
11
133.42
21
-106.19
0
LINE
8
BLACK
6
CONTINUOUS
10
133.42
20
-106.19
11
133.324
21
-106.043
0
LINE
8
BLACK
6
CONTINUOUS
10
133.324
20
-106.043
11
133.264
21
-105.879
0
LINE
8
BLACK
6
CONTINUOUS
10
133.264
20
-105.879
11
133.244
21
-105.705
0
LINE
8
BLACK
6
CONTINUOUS
10
133.244
20
-105.705
11
133.244
21
-104.397
0
LINE
8
BLACK
6
CONTINUOUS
10
133.244
20
-104.397
11
133.25
21
-104.304
0
LINE
8
BLACK
6
CONTINUOUS
10
133.25
20
-104.304
11
133.291
21
-104.134
0
LINE
8
BLACK
6
CONTINUOUS
10
133.291
20
-104.134
11
133.371
21
-103.978
0
LINE
8
BLACK
6
CONTINUOUS
10
133.371
20
-103.978
11
133.484
21
-103.844
0
LINE
8
BLACK
6
CONTINUOUS
10
133.484
20
-103.844
11
133.625
21
-103.741
0
LINE
8
BLACK
6
CONTINUOUS
10
133.625
20
-103.741
11
133.786
21
-103.672
0
LINE
8
BLACK
6
CONTINUOUS
10
133.786
20
-103.672
11
133.959
21
-103.643
0
LINE
8
BLACK
6
CONTINUOUS
10
133.959
20
-103.643
11
134.133
21
-103.653
0
LINE
8
BLACK
6
CONTINUOUS
10
136.133
20
-103.653
11
136.301
21
-103.704
0
LINE
8
BLACK
6
CONTINUOUS
10
136.301
20
-103.704
11
136.452
21
-103.792
0
LINE
8
BLACK
6
CONTINUOUS
10
136.452
20
-103.792
11
136.579
21
-103.912
0
LINE
8
BLACK
6
CONTINUOUS
10
136.579
20
-103.912
11
136.675
21
-104.059
0
LINE
8
BLACK
6
CONTINUOUS
10
136.675
20
-104.059
11
136.735
21
-104.223
0
LINE
8
BLACK
6
CONTINUOUS
10
136.735
20
-104.223
11
136.755
21
-104.397
0
LINE
8
BLACK
6
CONTINUOUS
10
136.755
20
-104.397
11
136.755
21
-105.705
0
LINE
8
BLACK
6
CONTINUOUS
10
136.755
20
-105.705
11
136.749
21
-105.798
0
LINE
8
BLACK
6
CONTINUOUS
10
136.749
20
-105.798
11
136.708
21
-105.968
0
LINE
8
BLACK
6
CONTINUOUS
10
136.708
20
-105.968
11
136.628
21
-106.124
0
LINE
8
BLACK
6
CONTINUOUS
10
136.628
20
-106.124
11
136.515
21
-106.258
0
LINE
8
BLACK
6
CONTINUOUS
10
136.515
20
-106.258
11
136.374
21
-106.361
0
LINE
8
BLACK
6
CONTINUOUS
10
136.374
20
-106.361
11
136.213
21
-106.43
0
LINE
8
BLACK
6
CONTINUOUS
10
136.213
20
-106.43
11
136.04
21
-106.46
0
LINE
8
BLACK
6
CONTINUOUS
10
136.04
20
-106.46
11
135.866
21
-106.449
0
LINE
8
BLACK
6
CONTINUOUS
10
135.866
20
-106.449
11
135.698
21
-106.398
0
LINE
8
BLACK
6
CONTINUOUS
10
135.698
20
-106.398
11
135.547
21
-106.31
0
LINE
8
BLACK
6
CONTINUOUS
10
135.547
20
-106.31
11
135.42
21
-106.19
0
LINE
8
BLACK
6
CONTINUOUS
10
135.42
20
-106.19
11
135.324
21
-106.043
0
LINE
8
BLACK
6
CONTINUOUS
10
135.324
20
-106.043
11
135.264
21
-105.879
0
LINE
8
BLACK
6
CONTINUOUS
10
135.264
20
-105.879
11
135.244
21
-105.705
0
LINE
8
BLACK
6
CONTINUOUS
10
135.244
20
-105.705
11
135.244
21
-104.397
0
LINE
8
BLACK
6
CONTINUOUS
10
135.244
20
-104.397
11
135.25
21
-104.304
0
LINE
8
BLACK
6
CONTINUOUS
10
135.25
20
-104.304
11
135.291
21
-104.134
0
LINE
8
BLACK
6
CONTINUOUS
10
135.291
20
-104.134
11
135.371
21
-103.978
0
LINE
8
BLACK
6
CONTINUOUS
10
135.371
20
-103.978
11
135.484
21
-103.844
0
LINE
8
BLACK
6
CONTINUOUS
10
135.484
20
-103.844
11
135.625
21
-103.741
0
LINE
8
BLACK
6
CONTINUOUS
10
135.625
20
-103.741
11
135.786
21
-103.672
0
LINE
8
BLACK
6
CONTINUOUS
10
135.786
20
-103.672
11
135.959
21
-103.643
0
LINE
8
BLACK
6
CONTINUOUS
10
135.959
20
-103.643
11
136.133
21
-103.653
0
LINE
8
BLACK
6
CONTINUOUS
10
175.934
20
-102.977
11
176.106
21
-103.019
0
LINE
8
BLACK
6
CONTINUOUS
10
176.106
20
-103.019
11
176.263
21
-103.1
0
LINE
8
BLACK
6
CONTINUOUS
10
176.263
20
-103.1
11
176.397
21
-103.214
0
LINE
8
BLACK
6
CONTINUOUS
10
176.397
20
-103.214
11
176.502
21
-103.356
0
LINE
8
BLACK
6
CONTINUOUS
10
176.502
20
-103.356
11
176.571
21
-103.518
0
LINE
8
BLACK
6
CONTINUOUS
10
176.571
20
-103.518
11
176.601
21
-103.692
0
LINE
8
BLACK
6
CONTINUOUS
10
176.601
20
-103.692
11
176.59
21
-103.869
0
LINE
8
BLACK
6
CONTINUOUS
10
176.59
20
-103.869
11
176.539
21
-104.037
0
LINE
8
BLACK
6
CONTINUOUS
10
176.539
20
-104.037
11
176.45
21
-104.19
0
LINE
8
BLACK
6
CONTINUOUS
10
176.45
20
-104.19
11
176.329
21
-104.318
0
LINE
8
BLACK
6
CONTINUOUS
10
176.329
20
-104.318
11
176.181
21
-104.415
0
LINE
8
BLACK
6
CONTINUOUS
10
176.181
20
-104.415
11
176.015
21
-104.475
0
LINE
8
BLACK
6
CONTINUOUS
10
176.015
20
-104.475
11
175.84
21
-104.496
0
LINE
8
BLACK
6
CONTINUOUS
10
175.84
20
-104.496
11
174.519
21
-104.496
0
LINE
8
BLACK
6
CONTINUOUS
10
174.519
20
-104.496
11
174.425
21
-104.49
0
LINE
8
BLACK
6
CONTINUOUS
10
174.425
20
-104.49
11
174.254
21
-104.448
0
LINE
8
BLACK
6
CONTINUOUS
10
174.254
20
-104.448
11
174.096
21
-104.368
0
LINE
8
BLACK
6
CONTINUOUS
10
174.096
20
-104.368
11
173.962
21
-104.253
0
LINE
8
BLACK
6
CONTINUOUS
10
173.962
20
-104.253
11
173.857
21
-104.111
0
LINE
8
BLACK
6
CONTINUOUS
10
173.857
20
-104.111
11
173.788
21
-103.949
0
LINE
8
BLACK
6
CONTINUOUS
10
173.788
20
-103.949
11
173.758
21
-103.775
0
LINE
8
BLACK
6
CONTINUOUS
10
173.758
20
-103.775
11
173.769
21
-103.599
0
LINE
8
BLACK
6
CONTINUOUS
10
173.769
20
-103.599
11
173.82
21
-103.43
0
LINE
8
BLACK
6
CONTINUOUS
10
173.82
20
-103.43
11
173.909
21
-103.277
0
LINE
8
BLACK
6
CONTINUOUS
10
173.909
20
-103.277
11
174.03
21
-103.149
0
LINE
8
BLACK
6
CONTINUOUS
10
174.03
20
-103.149
11
174.178
21
-103.052
0
LINE
8
BLACK
6
CONTINUOUS
10
174.178
20
-103.052
11
174.344
21
-102.992
0
LINE
8
BLACK
6
CONTINUOUS
10
174.344
20
-102.992
11
174.519
21
-102.972
0
LINE
8
BLACK
6
CONTINUOUS
10
174.519
20
-102.972
11
175.84
21
-102.972
0
LINE
8
BLACK
6
CONTINUOUS
10
175.84
20
-102.972
11
175.934
21
-102.977
0
LINE
8
BLACK
6
CONTINUOUS
10
175.934
20
-100.437
11
176.106
21
-100.479
0
LINE
8
BLACK
6
CONTINUOUS
10
176.106
20
-100.479
11
176.263
21
-100.56
0
LINE
8
BLACK
6
CONTINUOUS
10
176.263
20
-100.56
11
176.397
21
-100.674
0
LINE
8
BLACK
6
CONTINUOUS
10
176.397
20
-100.674
11
176.502
21
-100.816
0
LINE
8
BLACK
6
CONTINUOUS
10
176.502
20
-100.816
11
176.571
21
-100.978
0
LINE
8
BLACK
6
CONTINUOUS
10
176.571
20
-100.978
11
176.601
21
-101.152
0
LINE
8
BLACK
6
CONTINUOUS
10
176.601
20
-101.152
11
176.59
21
-101.329
0
LINE
8
BLACK
6
CONTINUOUS
10
176.59
20
-101.329
11
176.539
21
-101.497
0
LINE
8
BLACK
6
CONTINUOUS
10
176.539
20
-101.497
11
176.45
21
-101.65
0
LINE
8
BLACK
6
CONTINUOUS
10
176.45
20
-101.65
11
176.329
21
-101.778
0
LINE
8
BLACK
6
CONTINUOUS
10
176.329
20
-101.778
11
176.181
21
-101.875
0
LINE
8
BLACK
6
CONTINUOUS
10
176.181
20
-101.875
11
176.015
21
-101.935
0
LINE
8
BLACK
6
CONTINUOUS
10
176.015
20
-101.935
11
175.84
21
-101.956
0
LINE
8
BLACK
6
CONTINUOUS
10
175.84
20
-101.956
11
174.519
21
-101.956
0
LINE
8
BLACK
6
CONTINUOUS
10
174.519
20
-101.956
11
174.425
21
-101.95
0
LINE
8
BLACK
6
CONTINUOUS
10
174.425
20
-101.95
11
174.254
21
-101.908
0
LINE
8
BLACK
6
CONTINUOUS
10
174.254
20
-101.908
11
174.096
21
-101.828
0
LINE
8
BLACK
6
CONTINUOUS
10
174.096
20
-101.828
11
173.962
21
-101.713
0
LINE
8
BLACK
6
CONTINUOUS
10
173.962
20
-101.713
11
173.857
21
-101.571
0
LINE
8
BLACK
6
CONTINUOUS
10
173.857
20
-101.571
11
173.788
21
-101.409
0
LINE
8
BLACK
6
CONTINUOUS
10
173.788
20
-101.409
11
173.758
21
-101.235
0
LINE
8
BLACK
6
CONTINUOUS
10
173.758
20
-101.235
11
173.769
21
-101.059
0
LINE
8
BLACK
6
CONTINUOUS
10
173.769
20
-101.059
11
173.82
21
-100.89
0
LINE
8
BLACK
6
CONTINUOUS
10
173.82
20
-100.89
11
173.909
21
-100.737
0
LINE
8
BLACK
6
CONTINUOUS
10
173.909
20
-100.737
11
174.03
21
-100.609
0
LINE
8
BLACK
6
CONTINUOUS
10
174.03
20
-100.609
11
174.178
21
-100.512
0
LINE
8
BLACK
6
CONTINUOUS
10
174.178
20
-100.512
11
174.344
21
-100.452
0
LINE
8
BLACK
6
CONTINUOUS
10
174.344
20
-100.452
11
174.519
21
-100.432
0
LINE
8
BLACK
6
CONTINUOUS
10
174.519
20
-100.432
11
175.84
21
-100.432
0
LINE
8
BLACK
6
CONTINUOUS
10
175.84
20
-100.432
11
175.934
21
-100.437
0
LINE
8
BLACK
6
CONTINUOUS
10
175.934
20
-97.8974
11
176.106
21
-97.9394
0
LINE
8
BLACK
6
CONTINUOUS
10
176.106
20
-97.9394
11
176.263
21
-98.0197
0
LINE
8
BLACK
6
CONTINUOUS
10
176.263
20
-98.0197
11
176.397
21
-98.1339
0
LINE
8
BLACK
6
CONTINUOUS
10
176.397
20
-98.1339
11
176.502
21
-98.2761
0
LINE
8
BLACK
6
CONTINUOUS
10
176.502
20
-98.2761
11
176.571
21
-98.4385
0
LINE
8
BLACK
6
CONTINUOUS
10
176.571
20
-98.4385
11
176.601
21
-98.6124
0
LINE
8
BLACK
6
CONTINUOUS
10
176.601
20
-98.6124
11
176.59
21
-98.7885
0
LINE
8
BLACK
6
CONTINUOUS
10
176.59
20
-98.7885
11
176.539
21
-98.9574
0
LINE
8
BLACK
6
CONTINUOUS
10
176.539
20
-98.9574
11
176.45
21
-99.1101
0
LINE
8
BLACK
6
CONTINUOUS
10
176.45
20
-99.1101
11
176.329
21
-99.2382
0
LINE
8
BLACK
6
CONTINUOUS
10
176.329
20
-99.2382
11
176.181
21
-99.3349
0
LINE
8
BLACK
6
CONTINUOUS
10
176.181
20
-99.3349
11
176.015
21
-99.3952
0
LINE
8
BLACK
6
CONTINUOUS
10
176.015
20
-99.3952
11
175.84
21
-99.4156
0
LINE
8
BLACK
6
CONTINUOUS
10
175.84
20
-99.4156
11
174.519
21
-99.4156
0
LINE
8
BLACK
6
CONTINUOUS
10
174.519
20
-99.4156
11
174.425
21
-99.4098
0
LINE
8
BLACK
6
CONTINUOUS
10
174.425
20
-99.4098
11
174.254
21
-99.3678
0
LINE
8
BLACK
6
CONTINUOUS
10
174.254
20
-99.3678
11
174.096
21
-99.2875
0
LINE
8
BLACK
6
CONTINUOUS
10
174.096
20
-99.2875
11
173.962
21
-99.1733
0
LINE
8
BLACK
6
CONTINUOUS
10
173.962
20
-99.1733
11
173.857
21
-99.0311
0
LINE
8
BLACK
6
CONTINUOUS
10
173.857
20
-99.0311
11
173.788
21
-98.8687
0
LINE
8
BLACK
6
CONTINUOUS
10
173.788
20
-98.8687
11
173.758
21
-98.6948
0
LINE
8
BLACK
6
CONTINUOUS
10
173.758
20
-98.6948
11
173.769
21
-98.5187
0
LINE
8
BLACK
6
CONTINUOUS
10
173.769
20
-98.5187
11
173.82
21
-98.3498
0
LINE
8
BLACK
6
CONTINUOUS
10
173.82
20
-98.3498
11
173.909
21
-98.1971
0
LINE
8
BLACK
6
CONTINUOUS
10
173.909
20
-98.1971
11
174.03
21
-98.069
0
LINE
8
BLACK
6
CONTINUOUS
10
174.03
20
-98.069
11
174.178
21
-97.9723
0
LINE
8
BLACK
6
CONTINUOUS
10
174.178
20
-97.9723
11
174.344
21
-97.912
0
LINE
8
BLACK
6
CONTINUOUS
10
174.344
20
-97.912
11
174.519
21
-97.8916
0
LINE
8
BLACK
6
CONTINUOUS
10
174.519
20
-97.8916
11
175.84
21
-97.8916
0
LINE
8
BLACK
6
CONTINUOUS
10
175.84
20
-97.8916
11
175.934
21
-97.8974
0
LINE
8
BLACK
6
CONTINUOUS
10
175.934
20
-95.3574
11
176.106
21
-95.3994
0
LINE
8
BLACK
6
CONTINUOUS
10
176.106
20
-95.3994
11
176.263
21
-95.4797
0
LINE
8
BLACK
6
CONTINUOUS
10
176.263
20
-95.4797
11
176.397
21
-95.5939
0
LINE
8
BLACK
6
CONTINUOUS
10
176.397
20
-95.5939
11
176.502
21
-95.7361
0
LINE
8
BLACK
6
CONTINUOUS
10
176.502
20
-95.7361
11
176.571
21
-95.8985
0
LINE
8
BLACK
6
CONTINUOUS
10
176.571
20
-95.8985
11
176.601
21
-96.0724
0
LINE
8
BLACK
6
CONTINUOUS
10
176.601
20
-96.0724
11
176.59
21
-96.2485
0
LINE
8
BLACK
6
CONTINUOUS
10
176.59
20
-96.2485
11
176.539
21
-96.4174
0
LINE
8
BLACK
6
CONTINUOUS
10
176.539
20
-96.4174
11
176.45
21
-96.5701
0
LINE
8
BLACK
6
CONTINUOUS
10
176.45
20
-96.5701
11
176.329
21
-96.6982
0
LINE
8
BLACK
6
CONTINUOUS
10
176.329
20
-96.6982
11
176.181
21
-96.7949
0
LINE
8
BLACK
6
CONTINUOUS
10
176.181
20
-96.7949
11
176.015
21
-96.8552
0
LINE
8
BLACK
6
CONTINUOUS
10
176.015
20
-96.8552
11
175.84
21
-96.8756
0
LINE
8
BLACK
6
CONTINUOUS
10
175.84
20
-96.8756
11
174.519
21
-96.8756
0
LINE
8
BLACK
6
CONTINUOUS
10
174.519
20
-96.8756
11
174.425
21
-96.8698
0
LINE
8
BLACK
6
CONTINUOUS
10
174.425
20
-96.8698
11
174.254
21
-96.8278
0
LINE
8
BLACK
6
CONTINUOUS
10
174.254
20
-96.8278
11
174.096
21
-96.7475
0
LINE
8
BLACK
6
CONTINUOUS
10
174.096
20
-96.7475
11
173.962
21
-96.6333
0
LINE
8
BLACK
6
CONTINUOUS
10
173.962
20
-96.6333
11
173.857
21
-96.4911
0
LINE
8
BLACK
6
CONTINUOUS
10
173.857
20
-96.4911
11
173.788
21
-96.3287
0
LINE
8
BLACK
6
CONTINUOUS
10
173.788
20
-96.3287
11
173.758
21
-96.1548
0
LINE
8
BLACK
6
CONTINUOUS
10
173.758
20
-96.1548
11
173.769
21
-95.9787
0
LINE
8
BLACK
6
CONTINUOUS
10
173.769
20
-95.9787
11
173.82
21
-95.8098
0
LINE
8
BLACK
6
CONTINUOUS
10
173.82
20
-95.8098
11
173.909
21
-95.6571
0
LINE
8
BLACK
6
CONTINUOUS
10
173.909
20
-95.6571
11
174.03
21
-95.529
0
LINE
8
BLACK
6
CONTINUOUS
10
174.03
20
-95.529
11
174.178
21
-95.4323
0
LINE
8
BLACK
6
CONTINUOUS
10
174.178
20
-95.4323
11
174.344
21
-95.372
0
LINE
8
BLACK
6
CONTINUOUS
10
174.344
20
-95.372
11
174.519
21
-95.3516
0
LINE
8
BLACK
6
CONTINUOUS
10
174.519
20
-95.3516
11
175.84
21
-95.3516
0
LINE
8
BLACK
6
CONTINUOUS
10
175.84
20
-95.3516
11
175.934
21
-95.3574
0
LINE
8
BLACK
6
CONTINUOUS
10
123.241
20
-88.6873
11
123.467
21
-88.7275
0
LINE
8
BLACK
6
CONTINUOUS
10
123.467
20
-88.7275
11
123.684
21
-88.8041
0
LINE
8
BLACK
6
CONTINUOUS
10
123.684
20
-88.8041
11
123.884
21
-88.915
0
LINE
8
BLACK
6
CONTINUOUS
10
123.884
20
-88.915
11
124.064
21
-89.0572
0
LINE
8
BLACK
6
CONTINUOUS
10
124.064
20
-89.0572
11
124.219
21
-89.2269
0
LINE
8
BLACK
6
CONTINUOUS
10
124.219
20
-89.2269
11
124.343
21
-89.4195
0
LINE
8
BLACK
6
CONTINUOUS
10
124.343
20
-89.4195
11
124.435
21
-89.6299
0
LINE
8
BLACK
6
CONTINUOUS
10
124.435
20
-89.6299
11
124.491
21
-89.8524
0
LINE
8
BLACK
6
CONTINUOUS
10
124.491
20
-89.8524
11
124.51
21
-90.0811
0
LINE
8
BLACK
6
CONTINUOUS
10
124.51
20
-90.0811
11
124.508
21
-90.1495
0
LINE
8
BLACK
6
CONTINUOUS
10
124.508
20
-90.1495
11
124.478
21
-90.377
0
LINE
8
BLACK
6
CONTINUOUS
10
124.478
20
-90.377
11
124.411
21
-90.5965
0
LINE
8
BLACK
6
CONTINUOUS
10
124.411
20
-90.5965
11
124.31
21
-90.8022
0
LINE
8
BLACK
6
CONTINUOUS
10
124.31
20
-90.8022
11
124.176
21
-90.9885
0
LINE
8
BLACK
6
CONTINUOUS
10
124.176
20
-90.9885
11
124.013
21
-91.1504
0
LINE
8
BLACK
6
CONTINUOUS
10
124.013
20
-91.1504
11
123.826
21
-91.2836
0
LINE
8
BLACK
6
CONTINUOUS
10
123.826
20
-91.2836
11
123.62
21
-91.3846
0
LINE
8
BLACK
6
CONTINUOUS
10
123.62
20
-91.3846
11
123.401
21
-91.4505
0
LINE
8
BLACK
6
CONTINUOUS
10
123.401
20
-91.4505
11
123.173
21
-91.4797
0
LINE
8
BLACK
6
CONTINUOUS
10
123.173
20
-91.4797
11
122.944
21
-91.4713
0
LINE
8
BLACK
6
CONTINUOUS
10
122.944
20
-91.4713
11
122.719
21
-91.4255
0
LINE
8
BLACK
6
CONTINUOUS
10
122.719
20
-91.4255
11
122.505
21
-91.3437
0
LINE
8
BLACK
6
CONTINUOUS
10
122.505
20
-91.3437
11
122.307
21
-91.2279
0
LINE
8
BLACK
6
CONTINUOUS
10
122.307
20
-91.2279
11
122.13
21
-91.0814
0
LINE
8
BLACK
6
CONTINUOUS
10
122.13
20
-91.0814
11
121.98
21
-90.9079
0
LINE
8
BLACK
6
CONTINUOUS
10
121.98
20
-90.9079
11
121.86
21
-90.7123
0
LINE
8
BLACK
6
CONTINUOUS
10
121.86
20
-90.7123
11
121.774
21
-90.4998
0
LINE
8
BLACK
6
CONTINUOUS
10
121.774
20
-90.4998
11
121.723
21
-90.2759
0
LINE
8
BLACK
6
CONTINUOUS
10
121.723
20
-90.2759
11
121.71
21
-90.0469
0
LINE
8
BLACK
6
CONTINUOUS
10
121.71
20
-90.0469
11
121.734
21
-89.8188
0
LINE
8
BLACK
6
CONTINUOUS
10
121.734
20
-89.8188
11
121.796
21
-89.5977
0
LINE
8
BLACK
6
CONTINUOUS
10
121.796
20
-89.5977
11
121.892
21
-89.3896
0
LINE
8
BLACK
6
CONTINUOUS
10
121.892
20
-89.3896
11
122.022
21
-89.2001
0
LINE
8
BLACK
6
CONTINUOUS
10
122.022
20
-89.2001
11
122.18
21
-89.0342
0
LINE
8
BLACK
6
CONTINUOUS
10
122.18
20
-89.0342
11
122.364
21
-88.8964
0
LINE
8
BLACK
6
CONTINUOUS
10
122.364
20
-88.8964
11
122.567
21
-88.7905
0
LINE
8
BLACK
6
CONTINUOUS
10
122.567
20
-88.7905
11
122.785
21
-88.7192
0
LINE
8
BLACK
6
CONTINUOUS
10
122.785
20
-88.7192
11
123.012
21
-88.6845
0
LINE
8
BLACK
6
CONTINUOUS
10
123.012
20
-88.6845
11
123.241
21
-88.6873
0
LINE
8
BLACK
6
CONTINUOUS
10
123.36
20
-81.8333
11
123.604
21
-81.8919
0
LINE
8
BLACK
6
CONTINUOUS
10
123.604
20
-81.8919
11
123.836
21
-81.988
0
LINE
8
BLACK
6
CONTINUOUS
10
123.836
20
-81.988
11
124.05
21
-82.1192
0
LINE
8
BLACK
6
CONTINUOUS
10
124.05
20
-82.1192
11
124.241
21
-82.2822
0
LINE
8
BLACK
6
CONTINUOUS
10
124.241
20
-82.2822
11
124.404
21
-82.4731
0
LINE
8
BLACK
6
CONTINUOUS
10
124.404
20
-82.4731
11
124.535
21
-82.6872
0
LINE
8
BLACK
6
CONTINUOUS
10
124.535
20
-82.6872
11
124.631
21
-82.9192
0
LINE
8
BLACK
6
CONTINUOUS
10
124.631
20
-82.9192
11
124.69
21
-83.1633
0
LINE
8
BLACK
6
CONTINUOUS
10
124.69
20
-83.1633
11
124.71
21
-83.4136
0
LINE
8
BLACK
6
CONTINUOUS
10
124.71
20
-83.4136
11
124.69
21
-83.6639
0
LINE
8
BLACK
6
CONTINUOUS
10
124.69
20
-83.6639
11
124.631
21
-83.908
0
LINE
8
BLACK
6
CONTINUOUS
10
124.631
20
-83.908
11
124.535
21
-84.14
0
LINE
8
BLACK
6
CONTINUOUS
10
124.535
20
-84.14
11
124.404
21
-84.3541
0
LINE
8
BLACK
6
CONTINUOUS
10
124.404
20
-84.3541
11
124.241
21
-84.545
0
LINE
8
BLACK
6
CONTINUOUS
10
124.241
20
-84.545
11
124.05
21
-84.708
0
LINE
8
BLACK
6
CONTINUOUS
10
124.05
20
-84.708
11
123.836
21
-84.8392
0
LINE
8
BLACK
6
CONTINUOUS
10
123.836
20
-84.8392
11
123.604
21
-84.9353
0
LINE
8
BLACK
6
CONTINUOUS
10
123.604
20
-84.9353
11
123.36
21
-84.9939
0
LINE
8
BLACK
6
CONTINUOUS
10
123.36
20
-84.9939
11
123.11
21
-85.0136
0
LINE
8
BLACK
6
CONTINUOUS
10
123.11
20
-85.0136
11
122.859
21
-84.9939
0
LINE
8
BLACK
6
CONTINUOUS
10
122.859
20
-84.9939
11
122.615
21
-84.9353
0
LINE
8
BLACK
6
CONTINUOUS
10
122.615
20
-84.9353
11
122.383
21
-84.8392
0
LINE
8
BLACK
6
CONTINUOUS
10
122.383
20
-84.8392
11
122.169
21
-84.708
0
LINE
8
BLACK
6
CONTINUOUS
10
122.169
20
-84.708
11
121.978
21
-84.545
0
LINE
8
BLACK
6
CONTINUOUS
10
121.978
20
-84.545
11
121.815
21
-84.3541
0
LINE
8
BLACK
6
CONTINUOUS
10
121.815
20
-84.3541
11
121.684
21
-84.14
0
LINE
8
BLACK
6
CONTINUOUS
10
121.684
20
-84.14
11
121.588
21
-83.908
0
LINE
8
BLACK
6
CONTINUOUS
10
121.588
20
-83.908
11
121.529
21
-83.6639
0
LINE
8
BLACK
6
CONTINUOUS
10
121.529
20
-83.6639
11
121.51
21
-83.4136
0
LINE
8
BLACK
6
CONTINUOUS
10
121.51
20
-83.4136
11
121.529
21
-83.1633
0
LINE
8
BLACK
6
CONTINUOUS
10
121.529
20
-83.1633
11
121.588
21
-82.9192
0
LINE
8
BLACK
6
CONTINUOUS
10
121.588
20
-82.9192
11
121.684
21
-82.6872
0
LINE
8
BLACK
6
CONTINUOUS
10
121.684
20
-82.6872
11
121.815
21
-82.4731
0
LINE
8
BLACK
6
CONTINUOUS
10
121.815
20
-82.4731
11
121.978
21
-82.2822
0
LINE
8
BLACK
6
CONTINUOUS
10
121.978
20
-82.2822
11
122.169
21
-82.1192
0
LINE
8
BLACK
6
CONTINUOUS
10
122.169
20
-82.1192
11
122.383
21
-81.988
0
LINE
8
BLACK
6
CONTINUOUS
10
122.383
20
-81.988
11
122.615
21
-81.8919
0
LINE
8
BLACK
6
CONTINUOUS
10
122.615
20
-81.8919
11
122.859
21
-81.8333
0
LINE
8
BLACK
6
CONTINUOUS
10
122.859
20
-81.8333
11
123.11
21
-81.8136
0
LINE
8
BLACK
6
CONTINUOUS
10
123.11
20
-81.8136
11
123.36
21
-81.8333
0
LINE
8
BLACK
6
CONTINUOUS
10
174.16
20
-81.8333
11
174.404
21
-81.8919
0
LINE
8
BLACK
6
CONTINUOUS
10
174.404
20
-81.8919
11
174.636
21
-81.988
0
LINE
8
BLACK
6
CONTINUOUS
10
174.636
20
-81.988
11
174.85
21
-82.1192
0
LINE
8
BLACK
6
CONTINUOUS
10
174.85
20
-82.1192
11
175.041
21
-82.2822
0
LINE
8
BLACK
6
CONTINUOUS
10
175.041
20
-82.2822
11
175.204
21
-82.4731
0
LINE
8
BLACK
6
CONTINUOUS
10
175.204
20
-82.4731
11
175.335
21
-82.6872
0
LINE
8
BLACK
6
CONTINUOUS
10
175.335
20
-82.6872
11
175.431
21
-82.9192
0
LINE
8
BLACK
6
CONTINUOUS
10
175.431
20
-82.9192
11
175.49
21
-83.1633
0
LINE
8
BLACK
6
CONTINUOUS
10
175.49
20
-83.1633
11
175.51
21
-83.4136
0
LINE
8
BLACK
6
CONTINUOUS
10
175.51
20
-83.4136
11
175.49
21
-83.6639
0
LINE
8
BLACK
6
CONTINUOUS
10
175.49
20
-83.6639
11
175.431
21
-83.908
0
LINE
8
BLACK
6
CONTINUOUS
10
175.431
20
-83.908
11
175.335
21
-84.14
0
LINE
8
BLACK
6
CONTINUOUS
10
175.335
20
-84.14
11
175.204
21
-84.3541
0
LINE
8
BLACK
6
CONTINUOUS
10
175.204
20
-84.3541
11
175.041
21
-84.545
0
LINE
8
BLACK
6
CONTINUOUS
10
175.041
20
-84.545
11
174.85
21
-84.708
0
LINE
8
BLACK
6
CONTINUOUS
10
174.85
20
-84.708
11
174.636
21
-84.8392
0
LINE
8
BLACK
6
CONTINUOUS
10
174.636
20
-84.8392
11
174.404
21
-84.9353
0
LINE
8
BLACK
6
CONTINUOUS
10
174.404
20
-84.9353
11
174.16
21
-84.9939
0
LINE
8
BLACK
6
CONTINUOUS
10
174.16
20
-84.9939
11
173.91
21
-85.0136
0
LINE
8
BLACK
6
CONTINUOUS
10
173.91
20
-85.0136
11
173.659
21
-84.9939
0
LINE
8
BLACK
6
CONTINUOUS
10
173.659
20
-84.9939
11
173.415
21
-84.9353
0
LINE
8
BLACK
6
CONTINUOUS
10
173.415
20
-84.9353
11
173.183
21
-84.8392
0
LINE
8
BLACK
6
CONTINUOUS
10
173.183
20
-84.8392
11
172.969
21
-84.708
0
LINE
8
BLACK
6
CONTINUOUS
10
172.969
20
-84.708
11
172.778
21
-84.545
0
LINE
8
BLACK
6
CONTINUOUS
10
172.778
20
-84.545
11
172.615
21
-84.3541
0
LINE
8
BLACK
6
CONTINUOUS
10
172.615
20
-84.3541
11
172.484
21
-84.14
0
LINE
8
BLACK
6
CONTINUOUS
10
172.484
20
-84.14
11
172.388
21
-83.908
0
LINE
8
BLACK
6
CONTINUOUS
10
172.388
20
-83.908
11
172.329
21
-83.6639
0
LINE
8
BLACK
6
CONTINUOUS
10
172.329
20
-83.6639
11
172.31
21
-83.4136
0
LINE
8
BLACK
6
CONTINUOUS
10
172.31
20
-83.4136
11
172.329
21
-83.1633
0
LINE
8
BLACK
6
CONTINUOUS
10
172.329
20
-83.1633
11
172.388
21
-82.9192
0
LINE
8
BLACK
6
CONTINUOUS
10
172.388
20
-82.9192
11
172.484
21
-82.6872
0
LINE
8
BLACK
6
CONTINUOUS
10
172.484
20
-82.6872
11
172.615
21
-82.4731
0
LINE
8
BLACK
6
CONTINUOUS
10
172.615
20
-82.4731
11
172.778
21
-82.2822
0
LINE
8
BLACK
6
CONTINUOUS
10
172.778
20
-82.2822
11
172.969
21
-82.1192
0
LINE
8
BLACK
6
CONTINUOUS
10
172.969
20
-82.1192
11
173.183
21
-81.988
0
LINE
8
BLACK
6
CONTINUOUS
10
173.183
20
-81.988
11
173.415
21
-81.8919
0
LINE
8
BLACK
6
CONTINUOUS
10
173.415
20
-81.8919
11
173.659
21
-81.8333
0
LINE
8
BLACK
6
CONTINUOUS
10
173.659
20
-81.8333
11
173.91
21
-81.8136
0
LINE
8
BLACK
6
CONTINUOUS
10
173.91
20
-81.8136
11
174.16
21
-81.8333
  0
ENDSEC
  0
EOF
