  0
SECTION
  2
HEADER
  9
$ANGBASE
  50
0.0
  9
$ANGDIR
  70
1
  9
$MEASUREMENT
  70
1
  0
ENDSEC
  0
SECTION
  2
TABLES
  0
TABLE
  2
LTYPE
  70
4
  0
LTYPE
  5
40F
  2
CONTINUOUS
  70
0
  3
Solid line
  72
65
  73
0
  40
0.0
  0
LTYPE
  5
410
  2
DASHDOT
 70
0
  3
Dash Dot ____ _ ____ _
 72
65
 73
4
 40
2.0
 49
1.25
 49
-0.25
 49
0.25
 49
-0.25
  0
LTYPE
  5
411
  2
DASHED
 70
0
  3
Dashed __ __ __ __ __
 72
65
 73
2
 40
0.75
 49
0.5
 49
-0.25
  0
LTYPE
  5
43B
  2
DOTTED
 70
0
  3
Dotted .  .  .  .
 72
65
 73
2
 40
0.2
 49
0.0
 49
-0.2
  0
ENDTAB
  0
TABLE
  2
STYLE
  70
4
  0
STYLE
  2
KICAD
  70
0
  40
0
  41
1
  42
1
  50
0
  71
0
  3
isocp.shx
  0
STYLE
  2
KICADB
  70
0
  40
0
  41
1
  42
1
  50
0
  71
0
  3
isocp.shx
  0
STYLE
  2
KICADI
  70
0
  40
0
  41
1
  42
1
  50
15
  71
0
  3
isocp.shx
  0
STYLE
  2
KICADBI
  70
0
  40
0
  41
1
  42
1
  50
15
  71
0
  3
isocp.shx
  0
ENDTAB
  0
TABLE
  2
LAYER
  70
1
  0
LAYER
  2
BLACK
  70
0
  62
7
  6
CONTINUOUS
  0
ENDTAB
  0
ENDSEC
  0
SECTION
  2
ENTITIES
0
LINE
8
BLACK
6
CONTINUOUS
10
177.958
20
-111.025
11
178.048
21
-111.115
0
LINE
8
BLACK
6
CONTINUOUS
10
178.048
20
-111.115
11
178.106
21
-111.228
0
LINE
8
BLACK
6
CONTINUOUS
10
178.106
20
-111.228
11
178.126
21
-111.354
0
LINE
8
BLACK
6
CONTINUOUS
10
178.126
20
-111.354
11
178.126
21
-119.736
0
LINE
8
BLACK
6
CONTINUOUS
10
178.126
20
-119.736
11
178.106
21
-119.861
0
LINE
8
BLACK
6
CONTINUOUS
10
178.106
20
-119.861
11
178.048
21
-119.974
0
LINE
8
BLACK
6
CONTINUOUS
10
178.048
20
-119.974
11
177.958
21
-120.064
0
LINE
8
BLACK
6
CONTINUOUS
10
177.958
20
-120.064
11
177.845
21
-120.122
0
LINE
8
BLACK
6
CONTINUOUS
10
177.845
20
-120.122
11
177.72
21
-120.142
0
LINE
8
BLACK
6
CONTINUOUS
10
177.72
20
-120.142
11
164.41
21
-120.142
0
LINE
8
BLACK
6
CONTINUOUS
10
164.41
20
-120.142
11
164.41
21
-122.394
0
LINE
8
BLACK
6
CONTINUOUS
10
164.41
20
-122.394
11
165.65
21
-122.394
0
LINE
8
BLACK
6
CONTINUOUS
10
165.65
20
-122.394
11
165.65
21
-124.394
0
LINE
8
BLACK
6
CONTINUOUS
10
165.65
20
-124.394
11
161.85
21
-124.394
0
LINE
8
BLACK
6
CONTINUOUS
10
161.85
20
-124.394
11
161.85
21
-123.85
0
LINE
8
BLACK
6
CONTINUOUS
10
161.85
20
-123.85
11
158.67
21
-123.85
0
LINE
8
BLACK
6
CONTINUOUS
10
158.67
20
-123.85
11
158.648
21
-123.848
0
LINE
8
BLACK
6
CONTINUOUS
10
158.648
20
-123.848
11
158.64
21
-123.849
0
LINE
8
BLACK
6
CONTINUOUS
10
158.64
20
-123.849
11
158.632
21
-123.847
0
LINE
8
BLACK
6
CONTINUOUS
10
158.632
20
-123.847
11
158.61
21
-123.845
0
LINE
8
BLACK
6
CONTINUOUS
10
158.61
20
-123.845
11
158.572
21
-123.829
0
LINE
8
BLACK
6
CONTINUOUS
10
158.572
20
-123.829
11
158.533
21
-123.818
0
LINE
8
BLACK
6
CONTINUOUS
10
158.533
20
-123.818
11
158.521
21
-123.809
0
LINE
8
BLACK
6
CONTINUOUS
10
158.521
20
-123.809
11
158.507
21
-123.803
0
LINE
8
BLACK
6
CONTINUOUS
10
158.507
20
-123.803
11
158.477
21
-123.775
0
LINE
8
BLACK
6
CONTINUOUS
10
158.477
20
-123.775
11
158.444
21
-123.75
0
LINE
8
BLACK
6
CONTINUOUS
10
158.444
20
-123.75
11
158.436
21
-123.738
0
LINE
8
BLACK
6
CONTINUOUS
10
158.436
20
-123.738
11
158.425
21
-123.727
0
LINE
8
BLACK
6
CONTINUOUS
10
158.425
20
-123.727
11
158.407
21
-123.69
0
LINE
8
BLACK
6
CONTINUOUS
10
158.407
20
-123.69
11
158.385
21
-123.655
0
LINE
8
BLACK
6
CONTINUOUS
10
158.385
20
-123.655
11
158.383
21
-123.641
0
LINE
8
BLACK
6
CONTINUOUS
10
158.383
20
-123.641
11
158.376
21
-123.627
0
LINE
8
BLACK
6
CONTINUOUS
10
158.376
20
-123.627
11
158.372
21
-123.586
0
LINE
8
BLACK
6
CONTINUOUS
10
158.372
20
-123.586
11
158.365
21
-123.546
0
LINE
8
BLACK
6
CONTINUOUS
10
158.365
20
-123.546
11
158.365
21
-117.018
0
LINE
8
BLACK
6
CONTINUOUS
10
158.365
20
-117.018
11
157.87
21
-117.018
0
LINE
8
BLACK
6
CONTINUOUS
10
157.87
20
-117.018
11
157.87
21
-115.849
0
LINE
8
BLACK
6
CONTINUOUS
10
157.87
20
-115.849
11
159.47
21
-115.849
0
LINE
8
BLACK
6
CONTINUOUS
10
159.47
20
-115.849
11
159.47
21
-117.018
0
LINE
8
BLACK
6
CONTINUOUS
10
159.47
20
-117.018
11
158.974
21
-117.018
0
LINE
8
BLACK
6
CONTINUOUS
10
158.974
20
-117.018
11
158.974
21
-123.241
0
LINE
8
BLACK
6
CONTINUOUS
10
158.974
20
-123.241
11
161.85
21
-123.241
0
LINE
8
BLACK
6
CONTINUOUS
10
161.85
20
-123.241
11
161.85
21
-122.394
0
LINE
8
BLACK
6
CONTINUOUS
10
161.85
20
-122.394
11
163.597
21
-122.394
0
LINE
8
BLACK
6
CONTINUOUS
10
163.597
20
-122.394
11
163.597
21
-119.736
0
LINE
8
BLACK
6
CONTINUOUS
10
163.597
20
-119.736
11
163.617
21
-119.61
0
LINE
8
BLACK
6
CONTINUOUS
10
163.617
20
-119.61
11
163.675
21
-119.497
0
LINE
8
BLACK
6
CONTINUOUS
10
163.675
20
-119.497
11
163.765
21
-119.407
0
LINE
8
BLACK
6
CONTINUOUS
10
163.765
20
-119.407
11
163.878
21
-119.349
0
LINE
8
BLACK
6
CONTINUOUS
10
163.878
20
-119.349
11
164.004
21
-119.329
0
LINE
8
BLACK
6
CONTINUOUS
10
164.004
20
-119.329
11
168.525
21
-119.329
0
LINE
8
BLACK
6
CONTINUOUS
10
168.525
20
-119.329
11
168.525
21
-118.034
0
LINE
8
BLACK
6
CONTINUOUS
10
168.525
20
-118.034
11
168.08
21
-118.034
0
LINE
8
BLACK
6
CONTINUOUS
10
168.08
20
-118.034
11
168.08
21
-116.734
0
LINE
8
BLACK
6
CONTINUOUS
10
168.08
20
-116.734
11
169.58
21
-116.734
0
LINE
8
BLACK
6
CONTINUOUS
10
169.58
20
-116.734
11
169.58
21
-118.034
0
LINE
8
BLACK
6
CONTINUOUS
10
169.58
20
-118.034
11
169.134
21
-118.034
0
LINE
8
BLACK
6
CONTINUOUS
10
169.134
20
-118.034
11
169.134
21
-119.329
0
LINE
8
BLACK
6
CONTINUOUS
10
169.134
20
-119.329
11
177.313
21
-119.329
0
LINE
8
BLACK
6
CONTINUOUS
10
177.313
20
-119.329
11
177.313
21
-111.76
0
LINE
8
BLACK
6
CONTINUOUS
10
177.313
20
-111.76
11
176.356
21
-111.76
0
LINE
8
BLACK
6
CONTINUOUS
10
176.356
20
-111.76
11
176.277
21
-111.849
0
LINE
8
BLACK
6
CONTINUOUS
10
176.277
20
-111.849
11
176.146
21
-111.939
0
LINE
8
BLACK
6
CONTINUOUS
10
176.146
20
-111.939
11
175.998
21
-111.995
0
LINE
8
BLACK
6
CONTINUOUS
10
175.998
20
-111.995
11
175.84
21
-112.014
0
LINE
8
BLACK
6
CONTINUOUS
10
175.84
20
-112.014
11
174.519
21
-112.014
0
LINE
8
BLACK
6
CONTINUOUS
10
174.519
20
-112.014
11
174.512
21
-112.014
0
LINE
8
BLACK
6
CONTINUOUS
10
174.512
20
-112.014
11
174.355
21
-111.993
0
LINE
8
BLACK
6
CONTINUOUS
10
174.355
20
-111.993
11
174.207
21
-111.936
0
LINE
8
BLACK
6
CONTINUOUS
10
174.207
20
-111.936
11
174.077
21
-111.844
0
LINE
8
BLACK
6
CONTINUOUS
10
174.077
20
-111.844
11
173.973
21
-111.725
0
LINE
8
BLACK
6
CONTINUOUS
10
173.973
20
-111.725
11
173.9
21
-111.584
0
LINE
8
BLACK
6
CONTINUOUS
10
173.9
20
-111.584
11
173.863
21
-111.43
0
LINE
8
BLACK
6
CONTINUOUS
10
173.863
20
-111.43
11
173.864
21
-111.271
0
LINE
8
BLACK
6
CONTINUOUS
10
173.864
20
-111.271
11
173.903
21
-111.117
0
LINE
8
BLACK
6
CONTINUOUS
10
173.903
20
-111.117
11
173.977
21
-110.977
0
LINE
8
BLACK
6
CONTINUOUS
10
173.977
20
-110.977
11
174.082
21
-110.858
0
LINE
8
BLACK
6
CONTINUOUS
10
174.082
20
-110.858
11
174.213
21
-110.768
0
LINE
8
BLACK
6
CONTINUOUS
10
174.213
20
-110.768
11
174.362
21
-110.712
0
LINE
8
BLACK
6
CONTINUOUS
10
174.362
20
-110.712
11
174.519
21
-110.693
0
LINE
8
BLACK
6
CONTINUOUS
10
174.519
20
-110.693
11
175.84
21
-110.693
0
LINE
8
BLACK
6
CONTINUOUS
10
175.84
20
-110.693
11
175.847
21
-110.693
0
LINE
8
BLACK
6
CONTINUOUS
10
175.847
20
-110.693
11
176.004
21
-110.714
0
LINE
8
BLACK
6
CONTINUOUS
10
176.004
20
-110.714
11
176.152
21
-110.772
0
LINE
8
BLACK
6
CONTINUOUS
10
176.152
20
-110.772
11
176.282
21
-110.863
0
LINE
8
BLACK
6
CONTINUOUS
10
176.282
20
-110.863
11
176.356
21
-110.947
0
LINE
8
BLACK
6
CONTINUOUS
10
176.356
20
-110.947
11
177.72
21
-110.947
0
LINE
8
BLACK
6
CONTINUOUS
10
177.72
20
-110.947
11
177.845
21
-110.967
0
LINE
8
BLACK
6
CONTINUOUS
10
177.845
20
-110.967
11
177.958
21
-111.025
0
LINE
8
BLACK
6
CONTINUOUS
10
160.911
20
-109.77
11
160.952
21
-109.667
0
LINE
8
BLACK
6
CONTINUOUS
10
160.952
20
-109.667
11
161.028
21
-109.585
0
LINE
8
BLACK
6
CONTINUOUS
10
161.028
20
-109.585
11
161.128
21
-109.536
0
LINE
8
BLACK
6
CONTINUOUS
10
161.128
20
-109.536
11
161.239
21
-109.526
0
LINE
8
BLACK
6
CONTINUOUS
10
161.239
20
-109.526
11
161.347
21
-109.557
0
LINE
8
BLACK
6
CONTINUOUS
10
161.347
20
-109.557
11
161.435
21
-109.625
0
LINE
8
BLACK
6
CONTINUOUS
10
161.435
20
-109.625
11
161.494
21
-109.72
0
LINE
8
BLACK
6
CONTINUOUS
10
161.494
20
-109.72
11
161.505
21
-109.779
0
LINE
8
BLACK
6
CONTINUOUS
10
161.505
20
-109.779
11
161.972
21
-109.779
0
LINE
8
BLACK
6
CONTINUOUS
10
161.972
20
-109.779
11
162.031
21
-109.785
0
LINE
8
BLACK
6
CONTINUOUS
10
162.031
20
-109.785
11
162.134
21
-109.826
0
LINE
8
BLACK
6
CONTINUOUS
10
162.134
20
-109.826
11
162.216
21
-109.902
0
LINE
8
BLACK
6
CONTINUOUS
10
162.216
20
-109.902
11
162.265
21
-110.002
0
LINE
8
BLACK
6
CONTINUOUS
10
162.265
20
-110.002
11
162.275
21
-110.113
0
LINE
8
BLACK
6
CONTINUOUS
10
162.275
20
-110.113
11
162.244
21
-110.221
0
LINE
8
BLACK
6
CONTINUOUS
10
162.244
20
-110.221
11
162.176
21
-110.309
0
LINE
8
BLACK
6
CONTINUOUS
10
162.176
20
-110.309
11
162.081
21
-110.368
0
LINE
8
BLACK
6
CONTINUOUS
10
162.081
20
-110.368
11
161.972
21
-110.388
0
LINE
8
BLACK
6
CONTINUOUS
10
161.972
20
-110.388
11
161.514
21
-110.388
0
LINE
8
BLACK
6
CONTINUOUS
10
161.514
20
-110.388
11
161.514
21
-111.112
0
LINE
8
BLACK
6
CONTINUOUS
10
161.514
20
-111.112
11
162.18
21
-111.112
0
LINE
8
BLACK
6
CONTINUOUS
10
162.18
20
-111.112
11
162.18
21
-112.612
0
LINE
8
BLACK
6
CONTINUOUS
10
162.18
20
-112.612
11
161.514
21
-112.612
0
LINE
8
BLACK
6
CONTINUOUS
10
161.514
20
-112.612
11
161.514
21
-116.094
0
LINE
8
BLACK
6
CONTINUOUS
10
161.514
20
-116.094
11
162.2
21
-116.094
0
LINE
8
BLACK
6
CONTINUOUS
10
162.2
20
-116.094
11
162.2
21
-118.094
0
LINE
8
BLACK
6
CONTINUOUS
10
162.2
20
-118.094
11
160.7
21
-118.094
0
LINE
8
BLACK
6
CONTINUOUS
10
160.7
20
-118.094
11
160.7
21
-116.094
0
LINE
8
BLACK
6
CONTINUOUS
10
160.7
20
-116.094
11
160.905
21
-116.094
0
LINE
8
BLACK
6
CONTINUOUS
10
160.905
20
-116.094
11
160.905
21
-115.214
0
LINE
8
BLACK
6
CONTINUOUS
10
160.905
20
-115.214
11
159.47
21
-115.214
0
LINE
8
BLACK
6
CONTINUOUS
10
159.47
20
-115.214
11
159.47
21
-115.494
0
LINE
8
BLACK
6
CONTINUOUS
10
159.47
20
-115.494
11
157.87
21
-115.494
0
LINE
8
BLACK
6
CONTINUOUS
10
157.87
20
-115.494
11
157.87
21
-115.214
0
LINE
8
BLACK
6
CONTINUOUS
10
157.87
20
-115.214
11
154.656
21
-115.214
0
LINE
8
BLACK
6
CONTINUOUS
10
154.656
20
-115.214
11
154.656
21
-118.974
0
LINE
8
BLACK
6
CONTINUOUS
10
154.656
20
-118.974
11
154.654
21
-118.995
0
LINE
8
BLACK
6
CONTINUOUS
10
154.654
20
-118.995
11
154.655
21
-119.003
0
LINE
8
BLACK
6
CONTINUOUS
10
154.655
20
-119.003
11
154.653
21
-119.011
0
LINE
8
BLACK
6
CONTINUOUS
10
154.653
20
-119.011
11
154.651
21
-119.033
0
LINE
8
BLACK
6
CONTINUOUS
10
154.651
20
-119.033
11
154.635
21
-119.071
0
LINE
8
BLACK
6
CONTINUOUS
10
154.635
20
-119.071
11
154.624
21
-119.111
0
LINE
8
BLACK
6
CONTINUOUS
10
154.624
20
-119.111
11
154.615
21
-119.123
0
LINE
8
BLACK
6
CONTINUOUS
10
154.615
20
-119.123
11
154.609
21
-119.136
0
LINE
8
BLACK
6
CONTINUOUS
10
154.609
20
-119.136
11
154.581
21
-119.167
0
LINE
8
BLACK
6
CONTINUOUS
10
154.581
20
-119.167
11
154.556
21
-119.199
0
LINE
8
BLACK
6
CONTINUOUS
10
154.556
20
-119.199
11
154.544
21
-119.207
0
LINE
8
BLACK
6
CONTINUOUS
10
154.544
20
-119.207
11
154.533
21
-119.218
0
LINE
8
BLACK
6
CONTINUOUS
10
154.533
20
-119.218
11
154.496
21
-119.236
0
LINE
8
BLACK
6
CONTINUOUS
10
154.496
20
-119.236
11
154.461
21
-119.258
0
LINE
8
BLACK
6
CONTINUOUS
10
154.461
20
-119.258
11
154.447
21
-119.261
0
LINE
8
BLACK
6
CONTINUOUS
10
154.447
20
-119.261
11
154.433
21
-119.267
0
LINE
8
BLACK
6
CONTINUOUS
10
154.433
20
-119.267
11
154.392
21
-119.271
0
LINE
8
BLACK
6
CONTINUOUS
10
154.392
20
-119.271
11
154.352
21
-119.278
0
LINE
8
BLACK
6
CONTINUOUS
10
154.352
20
-119.278
11
129.968
21
-119.278
0
LINE
8
BLACK
6
CONTINUOUS
10
129.968
20
-119.278
11
129.946
21
-119.276
0
LINE
8
BLACK
6
CONTINUOUS
10
129.946
20
-119.276
11
129.938
21
-119.277
0
LINE
8
BLACK
6
CONTINUOUS
10
129.938
20
-119.277
11
129.93
21
-119.275
0
LINE
8
BLACK
6
CONTINUOUS
10
129.93
20
-119.275
11
129.908
21
-119.273
0
LINE
8
BLACK
6
CONTINUOUS
10
129.908
20
-119.273
11
129.87
21
-119.257
0
LINE
8
BLACK
6
CONTINUOUS
10
129.87
20
-119.257
11
129.831
21
-119.246
0
LINE
8
BLACK
6
CONTINUOUS
10
129.831
20
-119.246
11
129.819
21
-119.237
0
LINE
8
BLACK
6
CONTINUOUS
10
129.819
20
-119.237
11
129.805
21
-119.231
0
LINE
8
BLACK
6
CONTINUOUS
10
129.805
20
-119.231
11
129.775
21
-119.203
0
LINE
8
BLACK
6
CONTINUOUS
10
129.775
20
-119.203
11
129.742
21
-119.178
0
LINE
8
BLACK
6
CONTINUOUS
10
129.742
20
-119.178
11
129.734
21
-119.166
0
LINE
8
BLACK
6
CONTINUOUS
10
129.734
20
-119.166
11
129.723
21
-119.155
0
LINE
8
BLACK
6
CONTINUOUS
10
129.723
20
-119.155
11
129.705
21
-119.118
0
LINE
8
BLACK
6
CONTINUOUS
10
129.705
20
-119.118
11
129.683
21
-119.083
0
LINE
8
BLACK
6
CONTINUOUS
10
129.683
20
-119.083
11
129.681
21
-119.069
0
LINE
8
BLACK
6
CONTINUOUS
10
129.681
20
-119.069
11
129.674
21
-119.055
0
LINE
8
BLACK
6
CONTINUOUS
10
129.674
20
-119.055
11
129.67
21
-119.014
0
LINE
8
BLACK
6
CONTINUOUS
10
129.67
20
-119.014
11
129.663
21
-118.974
0
LINE
8
BLACK
6
CONTINUOUS
10
129.663
20
-118.974
11
129.663
21
-106.264
0
LINE
8
BLACK
6
CONTINUOUS
10
129.663
20
-106.264
11
129.649
21
-106.257
0
LINE
8
BLACK
6
CONTINUOUS
10
129.649
20
-106.257
11
129.523
21
-106.153
0
LINE
8
BLACK
6
CONTINUOUS
10
129.523
20
-106.153
11
129.427
21
-106.02
0
LINE
8
BLACK
6
CONTINUOUS
10
129.427
20
-106.02
11
129.366
21
-105.868
0
LINE
8
BLACK
6
CONTINUOUS
10
129.366
20
-105.868
11
129.346
21
-105.705
0
LINE
8
BLACK
6
CONTINUOUS
10
129.346
20
-105.705
11
129.346
21
-104.397
0
LINE
8
BLACK
6
CONTINUOUS
10
129.346
20
-104.397
11
129.351
21
-104.315
0
LINE
8
BLACK
6
CONTINUOUS
10
129.351
20
-104.315
11
129.392
21
-104.156
0
LINE
8
BLACK
6
CONTINUOUS
10
129.392
20
-104.156
11
129.471
21
-104.013
0
LINE
8
BLACK
6
CONTINUOUS
10
129.471
20
-104.013
11
129.583
21
-103.893
0
LINE
8
BLACK
6
CONTINUOUS
10
129.583
20
-103.893
11
129.721
21
-103.805
0
LINE
8
BLACK
6
CONTINUOUS
10
129.721
20
-103.805
11
129.877
21
-103.755
0
LINE
8
BLACK
6
CONTINUOUS
10
129.877
20
-103.755
11
130.041
21
-103.744
0
LINE
8
BLACK
6
CONTINUOUS
10
130.041
20
-103.744
11
130.202
21
-103.775
0
LINE
8
BLACK
6
CONTINUOUS
10
130.202
20
-103.775
11
130.35
21
-103.845
0
LINE
8
BLACK
6
CONTINUOUS
10
130.35
20
-103.845
11
130.476
21
-103.949
0
LINE
8
BLACK
6
CONTINUOUS
10
130.476
20
-103.949
11
130.573
21
-104.082
0
LINE
8
BLACK
6
CONTINUOUS
10
130.573
20
-104.082
11
130.633
21
-104.234
0
LINE
8
BLACK
6
CONTINUOUS
10
130.633
20
-104.234
11
130.654
21
-104.397
0
LINE
8
BLACK
6
CONTINUOUS
10
130.654
20
-104.397
11
130.654
21
-105.705
0
LINE
8
BLACK
6
CONTINUOUS
10
130.654
20
-105.705
11
130.648
21
-105.787
0
LINE
8
BLACK
6
CONTINUOUS
10
130.648
20
-105.787
11
130.608
21
-105.946
0
LINE
8
BLACK
6
CONTINUOUS
10
130.608
20
-105.946
11
130.529
21
-106.09
0
LINE
8
BLACK
6
CONTINUOUS
10
130.529
20
-106.09
11
130.416
21
-106.209
0
LINE
8
BLACK
6
CONTINUOUS
10
130.416
20
-106.209
11
130.278
21
-106.297
0
LINE
8
BLACK
6
CONTINUOUS
10
130.278
20
-106.297
11
130.272
21
-106.299
0
LINE
8
BLACK
6
CONTINUOUS
10
130.272
20
-106.299
11
130.272
21
-118.669
0
LINE
8
BLACK
6
CONTINUOUS
10
130.272
20
-118.669
11
154.047
21
-118.669
0
LINE
8
BLACK
6
CONTINUOUS
10
154.047
20
-118.669
11
154.047
21
-114.91
0
LINE
8
BLACK
6
CONTINUOUS
10
154.047
20
-114.91
11
154.049
21
-114.888
0
LINE
8
BLACK
6
CONTINUOUS
10
154.049
20
-114.888
11
154.048
21
-114.88
0
LINE
8
BLACK
6
CONTINUOUS
10
154.048
20
-114.88
11
154.05
21
-114.872
0
LINE
8
BLACK
6
CONTINUOUS
10
154.05
20
-114.872
11
154.053
21
-114.85
0
LINE
8
BLACK
6
CONTINUOUS
10
154.053
20
-114.85
11
154.068
21
-114.812
0
LINE
8
BLACK
6
CONTINUOUS
10
154.068
20
-114.812
11
154.079
21
-114.773
0
LINE
8
BLACK
6
CONTINUOUS
10
154.079
20
-114.773
11
154.088
21
-114.761
0
LINE
8
BLACK
6
CONTINUOUS
10
154.088
20
-114.761
11
154.094
21
-114.747
0
LINE
8
BLACK
6
CONTINUOUS
10
154.094
20
-114.747
11
154.122
21
-114.717
0
LINE
8
BLACK
6
CONTINUOUS
10
154.122
20
-114.717
11
154.147
21
-114.684
0
LINE
8
BLACK
6
CONTINUOUS
10
154.147
20
-114.684
11
154.16
21
-114.676
0
LINE
8
BLACK
6
CONTINUOUS
10
154.16
20
-114.676
11
154.17
21
-114.665
0
LINE
8
BLACK
6
CONTINUOUS
10
154.17
20
-114.665
11
154.207
21
-114.647
0
LINE
8
BLACK
6
CONTINUOUS
10
154.207
20
-114.647
11
154.242
21
-114.625
0
LINE
8
BLACK
6
CONTINUOUS
10
154.242
20
-114.625
11
154.257
21
-114.622
0
LINE
8
BLACK
6
CONTINUOUS
10
154.257
20
-114.622
11
154.27
21
-114.616
0
LINE
8
BLACK
6
CONTINUOUS
10
154.27
20
-114.616
11
154.311
21
-114.612
0
LINE
8
BLACK
6
CONTINUOUS
10
154.311
20
-114.612
11
154.352
21
-114.605
0
LINE
8
BLACK
6
CONTINUOUS
10
154.352
20
-114.605
11
157.87
21
-114.605
0
LINE
8
BLACK
6
CONTINUOUS
10
157.87
20
-114.605
11
157.87
21
-114.325
0
LINE
8
BLACK
6
CONTINUOUS
10
157.87
20
-114.325
11
159.47
21
-114.325
0
LINE
8
BLACK
6
CONTINUOUS
10
159.47
20
-114.325
11
159.47
21
-114.605
0
LINE
8
BLACK
6
CONTINUOUS
10
159.47
20
-114.605
11
160.905
21
-114.605
0
LINE
8
BLACK
6
CONTINUOUS
10
160.905
20
-114.605
11
160.905
21
-112.612
0
LINE
8
BLACK
6
CONTINUOUS
10
160.905
20
-112.612
11
160.88
21
-112.612
0
LINE
8
BLACK
6
CONTINUOUS
10
160.88
20
-112.612
11
160.88
21
-111.112
0
LINE
8
BLACK
6
CONTINUOUS
10
160.88
20
-111.112
11
160.905
21
-111.112
0
LINE
8
BLACK
6
CONTINUOUS
10
160.905
20
-111.112
11
160.905
21
-109.83
0
LINE
8
BLACK
6
CONTINUOUS
10
160.905
20
-109.83
11
160.911
21
-109.77
0
LINE
8
BLACK
6
CONTINUOUS
10
169.068
20
-111.533
11
169.158
21
-111.623
0
LINE
8
BLACK
6
CONTINUOUS
10
169.158
20
-111.623
11
169.216
21
-111.736
0
LINE
8
BLACK
6
CONTINUOUS
10
169.216
20
-111.736
11
169.236
21
-111.862
0
LINE
8
BLACK
6
CONTINUOUS
10
169.236
20
-111.862
11
169.236
21
-114.834
0
LINE
8
BLACK
6
CONTINUOUS
10
169.236
20
-114.834
11
169.58
21
-114.834
0
LINE
8
BLACK
6
CONTINUOUS
10
169.58
20
-114.834
11
169.58
21
-115.077
0
LINE
8
BLACK
6
CONTINUOUS
10
169.58
20
-115.077
11
174.773
21
-115.077
0
LINE
8
BLACK
6
CONTINUOUS
10
174.773
20
-115.077
11
174.773
21
-114.554
0
LINE
8
BLACK
6
CONTINUOUS
10
174.773
20
-114.554
11
174.519
21
-114.554
0
LINE
8
BLACK
6
CONTINUOUS
10
174.519
20
-114.554
11
174.512
21
-114.554
0
LINE
8
BLACK
6
CONTINUOUS
10
174.512
20
-114.554
11
174.355
21
-114.533
0
LINE
8
BLACK
6
CONTINUOUS
10
174.355
20
-114.533
11
174.207
21
-114.476
0
LINE
8
BLACK
6
CONTINUOUS
10
174.207
20
-114.476
11
174.077
21
-114.384
0
LINE
8
BLACK
6
CONTINUOUS
10
174.077
20
-114.384
11
173.973
21
-114.265
0
LINE
8
BLACK
6
CONTINUOUS
10
173.973
20
-114.265
11
173.9
21
-114.124
0
LINE
8
BLACK
6
CONTINUOUS
10
173.9
20
-114.124
11
173.863
21
-113.97
0
LINE
8
BLACK
6
CONTINUOUS
10
173.863
20
-113.97
11
173.864
21
-113.811
0
LINE
8
BLACK
6
CONTINUOUS
10
173.864
20
-113.811
11
173.903
21
-113.657
0
LINE
8
BLACK
6
CONTINUOUS
10
173.903
20
-113.657
11
173.977
21
-113.517
0
LINE
8
BLACK
6
CONTINUOUS
10
173.977
20
-113.517
11
174.082
21
-113.398
0
LINE
8
BLACK
6
CONTINUOUS
10
174.082
20
-113.398
11
174.213
21
-113.308
0
LINE
8
BLACK
6
CONTINUOUS
10
174.213
20
-113.308
11
174.362
21
-113.252
0
LINE
8
BLACK
6
CONTINUOUS
10
174.362
20
-113.252
11
174.519
21
-113.233
0
LINE
8
BLACK
6
CONTINUOUS
10
174.519
20
-113.233
11
175.84
21
-113.233
0
LINE
8
BLACK
6
CONTINUOUS
10
175.84
20
-113.233
11
175.847
21
-113.233
0
LINE
8
BLACK
6
CONTINUOUS
10
175.847
20
-113.233
11
176.004
21
-113.254
0
LINE
8
BLACK
6
CONTINUOUS
10
176.004
20
-113.254
11
176.152
21
-113.312
0
LINE
8
BLACK
6
CONTINUOUS
10
176.152
20
-113.312
11
176.282
21
-113.403
0
LINE
8
BLACK
6
CONTINUOUS
10
176.282
20
-113.403
11
176.386
21
-113.522
0
LINE
8
BLACK
6
CONTINUOUS
10
176.386
20
-113.522
11
176.459
21
-113.663
0
LINE
8
BLACK
6
CONTINUOUS
10
176.459
20
-113.663
11
176.496
21
-113.818
0
LINE
8
BLACK
6
CONTINUOUS
10
176.496
20
-113.818
11
176.495
21
-113.976
0
LINE
8
BLACK
6
CONTINUOUS
10
176.495
20
-113.976
11
176.457
21
-114.13
0
LINE
8
BLACK
6
CONTINUOUS
10
176.457
20
-114.13
11
176.382
21
-114.27
0
LINE
8
BLACK
6
CONTINUOUS
10
176.382
20
-114.27
11
176.277
21
-114.389
0
LINE
8
BLACK
6
CONTINUOUS
10
176.277
20
-114.389
11
176.146
21
-114.479
0
LINE
8
BLACK
6
CONTINUOUS
10
176.146
20
-114.479
11
175.998
21
-114.535
0
LINE
8
BLACK
6
CONTINUOUS
10
175.998
20
-114.535
11
175.84
21
-114.554
0
LINE
8
BLACK
6
CONTINUOUS
10
175.84
20
-114.554
11
175.586
21
-114.554
0
LINE
8
BLACK
6
CONTINUOUS
10
175.586
20
-114.554
11
175.586
21
-115.484
0
LINE
8
BLACK
6
CONTINUOUS
10
175.586
20
-115.484
11
175.566
21
-115.609
0
LINE
8
BLACK
6
CONTINUOUS
10
175.566
20
-115.609
11
175.508
21
-115.722
0
LINE
8
BLACK
6
CONTINUOUS
10
175.508
20
-115.722
11
175.418
21
-115.812
0
LINE
8
BLACK
6
CONTINUOUS
10
175.418
20
-115.812
11
175.305
21
-115.87
0
LINE
8
BLACK
6
CONTINUOUS
10
175.305
20
-115.87
11
175.18
21
-115.89
0
LINE
8
BLACK
6
CONTINUOUS
10
175.18
20
-115.89
11
169.58
21
-115.89
0
LINE
8
BLACK
6
CONTINUOUS
10
169.58
20
-115.89
11
169.58
21
-116.134
0
LINE
8
BLACK
6
CONTINUOUS
10
169.58
20
-116.134
11
168.08
21
-116.134
0
LINE
8
BLACK
6
CONTINUOUS
10
168.08
20
-116.134
11
168.08
21
-115.621
0
LINE
8
BLACK
6
CONTINUOUS
10
168.08
20
-115.621
11
166.239
21
-115.621
0
LINE
8
BLACK
6
CONTINUOUS
10
166.239
20
-115.621
11
166.239
21
-116.094
0
LINE
8
BLACK
6
CONTINUOUS
10
166.239
20
-116.094
11
166.8
21
-116.094
0
LINE
8
BLACK
6
CONTINUOUS
10
166.8
20
-116.094
11
166.8
21
-118.094
0
LINE
8
BLACK
6
CONTINUOUS
10
166.8
20
-118.094
11
166.153
21
-118.094
0
LINE
8
BLACK
6
CONTINUOUS
10
166.153
20
-118.094
11
166.05
21
-118.11
0
LINE
8
BLACK
6
CONTINUOUS
10
166.05
20
-118.11
11
165.946
21
-118.094
0
LINE
8
BLACK
6
CONTINUOUS
10
165.946
20
-118.094
11
165.3
21
-118.094
0
LINE
8
BLACK
6
CONTINUOUS
10
165.3
20
-118.094
11
165.3
21
-116.094
0
LINE
8
BLACK
6
CONTINUOUS
10
165.3
20
-116.094
11
165.832
21
-116.094
0
LINE
8
BLACK
6
CONTINUOUS
10
165.832
20
-116.094
11
165.832
21
-115.417
0
LINE
8
BLACK
6
CONTINUOUS
10
165.832
20
-115.417
11
165.838
21
-115.395
0
LINE
8
BLACK
6
CONTINUOUS
10
165.838
20
-115.395
11
165.838
21
-115.372
0
LINE
8
BLACK
6
CONTINUOUS
10
165.838
20
-115.372
11
165.848
21
-115.352
0
LINE
8
BLACK
6
CONTINUOUS
10
165.848
20
-115.352
11
165.853
21
-115.329
0
LINE
8
BLACK
6
CONTINUOUS
10
165.853
20
-115.329
11
165.867
21
-115.311
0
LINE
8
BLACK
6
CONTINUOUS
10
165.867
20
-115.311
11
165.877
21
-115.291
0
LINE
8
BLACK
6
CONTINUOUS
10
165.877
20
-115.291
11
165.895
21
-115.277
0
LINE
8
BLACK
6
CONTINUOUS
10
165.895
20
-115.277
11
165.909
21
-115.259
0
LINE
8
BLACK
6
CONTINUOUS
10
165.909
20
-115.259
11
165.93
21
-115.249
0
LINE
8
BLACK
6
CONTINUOUS
10
165.93
20
-115.249
11
165.947
21
-115.235
0
LINE
8
BLACK
6
CONTINUOUS
10
165.947
20
-115.235
11
165.97
21
-115.229
0
LINE
8
BLACK
6
CONTINUOUS
10
165.97
20
-115.229
11
165.991
21
-115.219
0
LINE
8
BLACK
6
CONTINUOUS
10
165.991
20
-115.219
11
166.013
21
-115.219
0
LINE
8
BLACK
6
CONTINUOUS
10
166.013
20
-115.219
11
166.036
21
-115.214
0
LINE
8
BLACK
6
CONTINUOUS
10
166.036
20
-115.214
11
168.08
21
-115.214
0
LINE
8
BLACK
6
CONTINUOUS
10
168.08
20
-115.214
11
168.08
21
-114.834
0
LINE
8
BLACK
6
CONTINUOUS
10
168.08
20
-114.834
11
168.423
21
-114.834
0
LINE
8
BLACK
6
CONTINUOUS
10
168.423
20
-114.834
11
168.423
21
-112.268
0
LINE
8
BLACK
6
CONTINUOUS
10
168.423
20
-112.268
11
164.08
21
-112.268
0
LINE
8
BLACK
6
CONTINUOUS
10
164.08
20
-112.268
11
164.08
21
-112.612
0
LINE
8
BLACK
6
CONTINUOUS
10
164.08
20
-112.612
11
162.78
21
-112.612
0
LINE
8
BLACK
6
CONTINUOUS
10
162.78
20
-112.612
11
162.78
21
-111.112
0
LINE
8
BLACK
6
CONTINUOUS
10
162.78
20
-111.112
11
164.08
21
-111.112
0
LINE
8
BLACK
6
CONTINUOUS
10
164.08
20
-111.112
11
164.08
21
-111.455
0
LINE
8
BLACK
6
CONTINUOUS
10
164.08
20
-111.455
11
167.356
21
-111.455
0
LINE
8
BLACK
6
CONTINUOUS
10
167.356
20
-111.455
11
167.356
21
-109.614
0
LINE
8
BLACK
6
CONTINUOUS
10
167.356
20
-109.614
11
166.722
21
-109.614
0
LINE
8
BLACK
6
CONTINUOUS
10
166.722
20
-109.614
11
166.722
21
-108.014
0
LINE
8
BLACK
6
CONTINUOUS
10
166.722
20
-108.014
11
167.168
21
-108.014
0
LINE
8
BLACK
6
CONTINUOUS
10
167.168
20
-108.014
11
167.168
21
-107.074
0
LINE
8
BLACK
6
CONTINUOUS
10
167.168
20
-107.074
11
166.722
21
-107.074
0
LINE
8
BLACK
6
CONTINUOUS
10
166.722
20
-107.074
11
166.722
21
-105.474
0
LINE
8
BLACK
6
CONTINUOUS
10
166.722
20
-105.474
11
167.168
21
-105.474
0
LINE
8
BLACK
6
CONTINUOUS
10
167.168
20
-105.474
11
167.168
21
-104.534
0
LINE
8
BLACK
6
CONTINUOUS
10
167.168
20
-104.534
11
166.722
21
-104.534
0
LINE
8
BLACK
6
CONTINUOUS
10
166.722
20
-104.534
11
166.722
21
-102.934
0
LINE
8
BLACK
6
CONTINUOUS
10
166.722
20
-102.934
11
167.168
21
-102.934
0
LINE
8
BLACK
6
CONTINUOUS
10
167.168
20
-102.934
11
167.168
21
-101.994
0
LINE
8
BLACK
6
CONTINUOUS
10
167.168
20
-101.994
11
166.722
21
-101.994
0
LINE
8
BLACK
6
CONTINUOUS
10
166.722
20
-101.994
11
166.722
21
-100.394
0
LINE
8
BLACK
6
CONTINUOUS
10
166.722
20
-100.394
11
167.168
21
-100.394
0
LINE
8
BLACK
6
CONTINUOUS
10
167.168
20
-100.394
11
167.168
21
-99.4536
0
LINE
8
BLACK
6
CONTINUOUS
10
167.168
20
-99.4536
11
166.722
21
-99.4536
0
LINE
8
BLACK
6
CONTINUOUS
10
166.722
20
-99.4536
11
166.722
21
-97.8536
0
LINE
8
BLACK
6
CONTINUOUS
10
166.722
20
-97.8536
11
167.168
21
-97.8536
0
LINE
8
BLACK
6
CONTINUOUS
10
167.168
20
-97.8536
11
167.168
21
-96.9136
0
LINE
8
BLACK
6
CONTINUOUS
10
167.168
20
-96.9136
11
166.722
21
-96.9136
0
LINE
8
BLACK
6
CONTINUOUS
10
166.722
20
-96.9136
11
166.722
21
-95.3136
0
LINE
8
BLACK
6
CONTINUOUS
10
166.722
20
-95.3136
11
168.022
21
-95.3136
0
LINE
8
BLACK
6
CONTINUOUS
10
168.022
20
-95.3136
11
168.022
21
-96.9136
0
LINE
8
BLACK
6
CONTINUOUS
10
168.022
20
-96.9136
11
167.575
21
-96.9136
0
LINE
8
BLACK
6
CONTINUOUS
10
167.575
20
-96.9136
11
167.575
21
-97.8536
0
LINE
8
BLACK
6
CONTINUOUS
10
167.575
20
-97.8536
11
168.022
21
-97.8536
0
LINE
8
BLACK
6
CONTINUOUS
10
168.022
20
-97.8536
11
168.022
21
-99.4536
0
LINE
8
BLACK
6
CONTINUOUS
10
168.022
20
-99.4536
11
167.575
21
-99.4536
0
LINE
8
BLACK
6
CONTINUOUS
10
167.575
20
-99.4536
11
167.575
21
-100.394
0
LINE
8
BLACK
6
CONTINUOUS
10
167.575
20
-100.394
11
168.022
21
-100.394
0
LINE
8
BLACK
6
CONTINUOUS
10
168.022
20
-100.394
11
168.022
21
-101.994
0
LINE
8
BLACK
6
CONTINUOUS
10
168.022
20
-101.994
11
167.575
21
-101.994
0
LINE
8
BLACK
6
CONTINUOUS
10
167.575
20
-101.994
11
167.575
21
-102.934
0
LINE
8
BLACK
6
CONTINUOUS
10
167.575
20
-102.934
11
168.022
21
-102.934
0
LINE
8
BLACK
6
CONTINUOUS
10
168.022
20
-102.934
11
168.022
21
-104.534
0
LINE
8
BLACK
6
CONTINUOUS
10
168.022
20
-104.534
11
167.575
21
-104.534
0
LINE
8
BLACK
6
CONTINUOUS
10
167.575
20
-104.534
11
167.575
21
-105.474
0
LINE
8
BLACK
6
CONTINUOUS
10
167.575
20
-105.474
11
168.022
21
-105.474
0
LINE
8
BLACK
6
CONTINUOUS
10
168.022
20
-105.474
11
168.022
21
-107.074
0
LINE
8
BLACK
6
CONTINUOUS
10
168.022
20
-107.074
11
167.575
21
-107.074
0
LINE
8
BLACK
6
CONTINUOUS
10
167.575
20
-107.074
11
167.575
21
-108.014
0
LINE
8
BLACK
6
CONTINUOUS
10
167.575
20
-108.014
11
168.022
21
-108.014
0
LINE
8
BLACK
6
CONTINUOUS
10
168.022
20
-108.014
11
168.022
21
-109.614
0
LINE
8
BLACK
6
CONTINUOUS
10
168.022
20
-109.614
11
167.763
21
-109.614
0
LINE
8
BLACK
6
CONTINUOUS
10
167.763
20
-109.614
11
167.763
21
-111.455
0
LINE
8
BLACK
6
CONTINUOUS
10
167.763
20
-111.455
11
168.83
21
-111.455
0
LINE
8
BLACK
6
CONTINUOUS
10
168.83
20
-111.455
11
168.955
21
-111.475
0
LINE
8
BLACK
6
CONTINUOUS
10
168.955
20
-111.475
11
169.068
21
-111.533
0
LINE
8
BLACK
6
CONTINUOUS
10
164.5
20
-118.094
11
163
21
-118.094
0
LINE
8
BLACK
6
CONTINUOUS
10
163
20
-118.094
11
163
21
-116.094
0
LINE
8
BLACK
6
CONTINUOUS
10
163
20
-116.094
11
164.5
21
-116.094
0
LINE
8
BLACK
6
CONTINUOUS
10
164.5
20
-116.094
11
164.5
21
-118.094
0
LINE
8
BLACK
6
CONTINUOUS
10
159.76
20
-108.316
11
159.897
21
-108.357
0
LINE
8
BLACK
6
CONTINUOUS
10
159.897
20
-108.357
11
160.016
21
-108.434
0
LINE
8
BLACK
6
CONTINUOUS
10
160.016
20
-108.434
11
160.11
21
-108.542
0
LINE
8
BLACK
6
CONTINUOUS
10
160.11
20
-108.542
11
160.169
21
-108.672
0
LINE
8
BLACK
6
CONTINUOUS
10
160.169
20
-108.672
11
160.189
21
-108.814
0
LINE
8
BLACK
6
CONTINUOUS
10
160.189
20
-108.814
11
160.189
21
-108.826
0
LINE
8
BLACK
6
CONTINUOUS
10
160.189
20
-108.826
11
160.165
21
-108.967
0
LINE
8
BLACK
6
CONTINUOUS
10
160.165
20
-108.967
11
160.103
21
-109.095
0
LINE
8
BLACK
6
CONTINUOUS
10
160.103
20
-109.095
11
160.007
21
-109.201
0
LINE
8
BLACK
6
CONTINUOUS
10
160.007
20
-109.201
11
159.885
21
-109.275
0
LINE
8
BLACK
6
CONTINUOUS
10
159.885
20
-109.275
11
159.748
21
-109.313
0
LINE
8
BLACK
6
CONTINUOUS
10
159.748
20
-109.313
11
159.605
21
-109.31
0
LINE
8
BLACK
6
CONTINUOUS
10
159.605
20
-109.31
11
159.469
21
-109.268
0
LINE
8
BLACK
6
CONTINUOUS
10
159.469
20
-109.268
11
159.35
21
-109.189
0
LINE
8
BLACK
6
CONTINUOUS
10
159.35
20
-109.189
11
159.258
21
-109.08
0
LINE
8
BLACK
6
CONTINUOUS
10
159.258
20
-109.08
11
159.231
21
-109.017
0
LINE
8
BLACK
6
CONTINUOUS
10
159.231
20
-109.017
11
156.214
21
-109.017
0
LINE
8
BLACK
6
CONTINUOUS
10
156.214
20
-109.017
11
147.383
21
-117.848
0
LINE
8
BLACK
6
CONTINUOUS
10
147.383
20
-117.848
11
147.354
21
-117.866
0
LINE
8
BLACK
6
CONTINUOUS
10
147.354
20
-117.866
11
147.328
21
-117.887
0
LINE
8
BLACK
6
CONTINUOUS
10
147.328
20
-117.887
11
147.316
21
-117.889
0
LINE
8
BLACK
6
CONTINUOUS
10
147.316
20
-117.889
11
147.306
21
-117.895
0
LINE
8
BLACK
6
CONTINUOUS
10
147.306
20
-117.895
11
147.273
21
-117.899
0
LINE
8
BLACK
6
CONTINUOUS
10
147.273
20
-117.899
11
147.24
21
-117.907
0
LINE
8
BLACK
6
CONTINUOUS
10
147.24
20
-117.907
11
133.269
21
-117.907
0
LINE
8
BLACK
6
CONTINUOUS
10
133.269
20
-117.907
11
133.236
21
-117.899
0
LINE
8
BLACK
6
CONTINUOUS
10
133.236
20
-117.899
11
133.202
21
-117.895
0
LINE
8
BLACK
6
CONTINUOUS
10
133.202
20
-117.895
11
133.193
21
-117.889
0
LINE
8
BLACK
6
CONTINUOUS
10
133.193
20
-117.889
11
133.181
21
-117.887
0
LINE
8
BLACK
6
CONTINUOUS
10
133.181
20
-117.887
11
133.155
21
-117.865
0
LINE
8
BLACK
6
CONTINUOUS
10
133.155
20
-117.865
11
133.126
21
-117.847
0
LINE
8
BLACK
6
CONTINUOUS
10
133.126
20
-117.847
11
131.856
21
-116.577
0
LINE
8
BLACK
6
CONTINUOUS
10
131.856
20
-116.577
11
131.838
21
-116.548
0
LINE
8
BLACK
6
CONTINUOUS
10
131.838
20
-116.548
11
131.817
21
-116.522
0
LINE
8
BLACK
6
CONTINUOUS
10
131.817
20
-116.522
11
131.814
21
-116.51
0
LINE
8
BLACK
6
CONTINUOUS
10
131.814
20
-116.51
11
131.808
21
-116.5
0
LINE
8
BLACK
6
CONTINUOUS
10
131.808
20
-116.5
11
131.804
21
-116.467
0
LINE
8
BLACK
6
CONTINUOUS
10
131.804
20
-116.467
11
131.796
21
-116.434
0
LINE
8
BLACK
6
CONTINUOUS
10
131.796
20
-116.434
11
131.796
21
-116.002
0
LINE
8
BLACK
6
CONTINUOUS
10
131.796
20
-116.002
11
131.2
21
-116.002
0
LINE
8
BLACK
6
CONTINUOUS
10
131.2
20
-116.002
11
131.2
21
-114.702
0
LINE
8
BLACK
6
CONTINUOUS
10
131.2
20
-114.702
11
132.8
21
-114.702
0
LINE
8
BLACK
6
CONTINUOUS
10
132.8
20
-114.702
11
132.8
21
-116.002
0
LINE
8
BLACK
6
CONTINUOUS
10
132.8
20
-116.002
11
132.203
21
-116.002
0
LINE
8
BLACK
6
CONTINUOUS
10
132.203
20
-116.002
11
132.203
21
-116.349
0
LINE
8
BLACK
6
CONTINUOUS
10
132.203
20
-116.349
11
133.354
21
-117.5
0
LINE
8
BLACK
6
CONTINUOUS
10
133.354
20
-117.5
11
147.155
21
-117.5
0
LINE
8
BLACK
6
CONTINUOUS
10
147.155
20
-117.5
11
155.986
21
-108.67
0
LINE
8
BLACK
6
CONTINUOUS
10
155.986
20
-108.67
11
156.015
21
-108.652
0
LINE
8
BLACK
6
CONTINUOUS
10
156.015
20
-108.652
11
156.041
21
-108.631
0
LINE
8
BLACK
6
CONTINUOUS
10
156.041
20
-108.631
11
156.053
21
-108.628
0
LINE
8
BLACK
6
CONTINUOUS
10
156.053
20
-108.628
11
156.063
21
-108.622
0
LINE
8
BLACK
6
CONTINUOUS
10
156.063
20
-108.622
11
156.097
21
-108.618
0
LINE
8
BLACK
6
CONTINUOUS
10
156.097
20
-108.618
11
156.13
21
-108.61
0
LINE
8
BLACK
6
CONTINUOUS
10
156.13
20
-108.61
11
159.231
21
-108.61
0
LINE
8
BLACK
6
CONTINUOUS
10
159.231
20
-108.61
11
159.265
21
-108.537
0
LINE
8
BLACK
6
CONTINUOUS
10
159.265
20
-108.537
11
159.359
21
-108.43
0
LINE
8
BLACK
6
CONTINUOUS
10
159.359
20
-108.43
11
159.48
21
-108.354
0
LINE
8
BLACK
6
CONTINUOUS
10
159.48
20
-108.354
11
159.617
21
-108.315
0
LINE
8
BLACK
6
CONTINUOUS
10
159.617
20
-108.315
11
159.76
21
-108.316
0
LINE
8
BLACK
6
CONTINUOUS
10
157.982
20
-105.776
11
158.119
21
-105.817
0
LINE
8
BLACK
6
CONTINUOUS
10
158.119
20
-105.817
11
158.238
21
-105.894
0
LINE
8
BLACK
6
CONTINUOUS
10
158.238
20
-105.894
11
158.332
21
-106.002
0
LINE
8
BLACK
6
CONTINUOUS
10
158.332
20
-106.002
11
158.391
21
-106.132
0
LINE
8
BLACK
6
CONTINUOUS
10
158.391
20
-106.132
11
158.411
21
-106.274
0
LINE
8
BLACK
6
CONTINUOUS
10
158.411
20
-106.274
11
158.411
21
-106.286
0
LINE
8
BLACK
6
CONTINUOUS
10
158.411
20
-106.286
11
158.387
21
-106.427
0
LINE
8
BLACK
6
CONTINUOUS
10
158.387
20
-106.427
11
158.325
21
-106.555
0
LINE
8
BLACK
6
CONTINUOUS
10
158.325
20
-106.555
11
158.229
21
-106.661
0
LINE
8
BLACK
6
CONTINUOUS
10
158.229
20
-106.661
11
158.107
21
-106.735
0
LINE
8
BLACK
6
CONTINUOUS
10
158.107
20
-106.735
11
157.97
21
-106.773
0
LINE
8
BLACK
6
CONTINUOUS
10
157.97
20
-106.773
11
157.827
21
-106.77
0
LINE
8
BLACK
6
CONTINUOUS
10
157.827
20
-106.77
11
157.691
21
-106.728
0
LINE
8
BLACK
6
CONTINUOUS
10
157.691
20
-106.728
11
157.572
21
-106.649
0
LINE
8
BLACK
6
CONTINUOUS
10
157.572
20
-106.649
11
157.48
21
-106.54
0
LINE
8
BLACK
6
CONTINUOUS
10
157.48
20
-106.54
11
157.453
21
-106.477
0
LINE
8
BLACK
6
CONTINUOUS
10
157.453
20
-106.477
11
156.214
21
-106.477
0
LINE
8
BLACK
6
CONTINUOUS
10
156.214
20
-106.477
11
146.113
21
-116.578
0
LINE
8
BLACK
6
CONTINUOUS
10
146.113
20
-116.578
11
146.084
21
-116.596
0
LINE
8
BLACK
6
CONTINUOUS
10
146.084
20
-116.596
11
146.058
21
-116.617
0
LINE
8
BLACK
6
CONTINUOUS
10
146.058
20
-116.617
11
146.046
21
-116.619
0
LINE
8
BLACK
6
CONTINUOUS
10
146.046
20
-116.619
11
146.036
21
-116.625
0
LINE
8
BLACK
6
CONTINUOUS
10
146.036
20
-116.625
11
146.003
21
-116.629
0
LINE
8
BLACK
6
CONTINUOUS
10
146.003
20
-116.629
11
145.97
21
-116.637
0
LINE
8
BLACK
6
CONTINUOUS
10
145.97
20
-116.637
11
135.113
21
-116.637
0
LINE
8
BLACK
6
CONTINUOUS
10
135.113
20
-116.637
11
135.08
21
-116.629
0
LINE
8
BLACK
6
CONTINUOUS
10
135.08
20
-116.629
11
135.046
21
-116.625
0
LINE
8
BLACK
6
CONTINUOUS
10
135.046
20
-116.625
11
135.037
21
-116.619
0
LINE
8
BLACK
6
CONTINUOUS
10
135.037
20
-116.619
11
135.025
21
-116.617
0
LINE
8
BLACK
6
CONTINUOUS
10
135.025
20
-116.617
11
134.999
21
-116.595
0
LINE
8
BLACK
6
CONTINUOUS
10
134.999
20
-116.595
11
134.97
21
-116.577
0
LINE
8
BLACK
6
CONTINUOUS
10
134.97
20
-116.577
11
134.394
21
-116.002
0
LINE
8
BLACK
6
CONTINUOUS
10
134.394
20
-116.002
11
133.232
21
-116.002
0
LINE
8
BLACK
6
CONTINUOUS
10
133.232
20
-116.002
11
133.232
21
-114.702
0
LINE
8
BLACK
6
CONTINUOUS
10
133.232
20
-114.702
11
134.832
21
-114.702
0
LINE
8
BLACK
6
CONTINUOUS
10
134.832
20
-114.702
11
134.832
21
-115.864
0
LINE
8
BLACK
6
CONTINUOUS
10
134.832
20
-115.864
11
135.198
21
-116.23
0
LINE
8
BLACK
6
CONTINUOUS
10
135.198
20
-116.23
11
145.885
21
-116.23
0
LINE
8
BLACK
6
CONTINUOUS
10
145.885
20
-116.23
11
155.986
21
-106.13
0
LINE
8
BLACK
6
CONTINUOUS
10
155.986
20
-106.13
11
156.015
21
-106.112
0
LINE
8
BLACK
6
CONTINUOUS
10
156.015
20
-106.112
11
156.041
21
-106.091
0
LINE
8
BLACK
6
CONTINUOUS
10
156.041
20
-106.091
11
156.053
21
-106.088
0
LINE
8
BLACK
6
CONTINUOUS
10
156.053
20
-106.088
11
156.063
21
-106.082
0
LINE
8
BLACK
6
CONTINUOUS
10
156.063
20
-106.082
11
156.097
21
-106.078
0
LINE
8
BLACK
6
CONTINUOUS
10
156.097
20
-106.078
11
156.13
21
-106.07
0
LINE
8
BLACK
6
CONTINUOUS
10
156.13
20
-106.07
11
157.453
21
-106.07
0
LINE
8
BLACK
6
CONTINUOUS
10
157.453
20
-106.07
11
157.487
21
-105.997
0
LINE
8
BLACK
6
CONTINUOUS
10
157.487
20
-105.997
11
157.581
21
-105.89
0
LINE
8
BLACK
6
CONTINUOUS
10
157.581
20
-105.89
11
157.702
21
-105.814
0
LINE
8
BLACK
6
CONTINUOUS
10
157.702
20
-105.814
11
157.839
21
-105.775
0
LINE
8
BLACK
6
CONTINUOUS
10
157.839
20
-105.775
11
157.982
21
-105.776
0
LINE
8
BLACK
6
CONTINUOUS
10
152.14
20
-103.236
11
152.277
21
-103.277
0
LINE
8
BLACK
6
CONTINUOUS
10
152.277
20
-103.277
11
152.396
21
-103.354
0
LINE
8
BLACK
6
CONTINUOUS
10
152.396
20
-103.354
11
152.49
21
-103.462
0
LINE
8
BLACK
6
CONTINUOUS
10
152.49
20
-103.462
11
152.549
21
-103.592
0
LINE
8
BLACK
6
CONTINUOUS
10
152.549
20
-103.592
11
152.569
21
-103.734
0
LINE
8
BLACK
6
CONTINUOUS
10
152.569
20
-103.734
11
152.569
21
-103.746
0
LINE
8
BLACK
6
CONTINUOUS
10
152.569
20
-103.746
11
152.545
21
-103.887
0
LINE
8
BLACK
6
CONTINUOUS
10
152.545
20
-103.887
11
152.483
21
-104.015
0
LINE
8
BLACK
6
CONTINUOUS
10
152.483
20
-104.015
11
152.387
21
-104.121
0
LINE
8
BLACK
6
CONTINUOUS
10
152.387
20
-104.121
11
152.269
21
-104.193
0
LINE
8
BLACK
6
CONTINUOUS
10
152.269
20
-104.193
11
152.269
21
-107.798
0
LINE
8
BLACK
6
CONTINUOUS
10
152.269
20
-107.798
11
152.261
21
-107.831
0
LINE
8
BLACK
6
CONTINUOUS
10
152.261
20
-107.831
11
152.257
21
-107.865
0
LINE
8
BLACK
6
CONTINUOUS
10
152.257
20
-107.865
11
152.251
21
-107.875
0
LINE
8
BLACK
6
CONTINUOUS
10
152.251
20
-107.875
11
152.249
21
-107.886
0
LINE
8
BLACK
6
CONTINUOUS
10
152.249
20
-107.886
11
152.227
21
-107.913
0
LINE
8
BLACK
6
CONTINUOUS
10
152.227
20
-107.913
11
152.209
21
-107.941
0
LINE
8
BLACK
6
CONTINUOUS
10
152.209
20
-107.941
11
144.909
21
-115.242
0
LINE
8
BLACK
6
CONTINUOUS
10
144.909
20
-115.242
11
144.88
21
-115.26
0
LINE
8
BLACK
6
CONTINUOUS
10
144.88
20
-115.26
11
144.854
21
-115.281
0
LINE
8
BLACK
6
CONTINUOUS
10
144.854
20
-115.281
11
144.842
21
-115.283
0
LINE
8
BLACK
6
CONTINUOUS
10
144.842
20
-115.283
11
144.832
21
-115.289
0
LINE
8
BLACK
6
CONTINUOUS
10
144.832
20
-115.289
11
144.799
21
-115.293
0
LINE
8
BLACK
6
CONTINUOUS
10
144.799
20
-115.293
11
144.766
21
-115.301
0
LINE
8
BLACK
6
CONTINUOUS
10
144.766
20
-115.301
11
140.928
21
-115.301
0
LINE
8
BLACK
6
CONTINUOUS
10
140.928
20
-115.301
11
140.928
21
-115.748
0
LINE
8
BLACK
6
CONTINUOUS
10
140.928
20
-115.748
11
139.328
21
-115.748
0
LINE
8
BLACK
6
CONTINUOUS
10
139.328
20
-115.748
11
139.328
21
-114.448
0
LINE
8
BLACK
6
CONTINUOUS
10
139.328
20
-114.448
11
140.928
21
-114.448
0
LINE
8
BLACK
6
CONTINUOUS
10
140.928
20
-114.448
11
140.928
21
-114.894
0
LINE
8
BLACK
6
CONTINUOUS
10
140.928
20
-114.894
11
144.681
21
-114.894
0
LINE
8
BLACK
6
CONTINUOUS
10
144.681
20
-114.894
11
151.862
21
-107.713
0
LINE
8
BLACK
6
CONTINUOUS
10
151.862
20
-107.713
11
151.862
21
-104.192
0
LINE
8
BLACK
6
CONTINUOUS
10
151.862
20
-104.192
11
151.849
21
-104.188
0
LINE
8
BLACK
6
CONTINUOUS
10
151.849
20
-104.188
11
151.73
21
-104.109
0
LINE
8
BLACK
6
CONTINUOUS
10
151.73
20
-104.109
11
151.638
21
-104
0
LINE
8
BLACK
6
CONTINUOUS
10
151.638
20
-104
11
151.581
21
-103.869
0
LINE
8
BLACK
6
CONTINUOUS
10
151.581
20
-103.869
11
151.562
21
-103.727
0
LINE
8
BLACK
6
CONTINUOUS
10
151.562
20
-103.727
11
151.584
21
-103.586
0
LINE
8
BLACK
6
CONTINUOUS
10
151.584
20
-103.586
11
151.645
21
-103.457
0
LINE
8
BLACK
6
CONTINUOUS
10
151.645
20
-103.457
11
151.739
21
-103.35
0
LINE
8
BLACK
6
CONTINUOUS
10
151.739
20
-103.35
11
151.86
21
-103.274
0
LINE
8
BLACK
6
CONTINUOUS
10
151.86
20
-103.274
11
151.997
21
-103.235
0
LINE
8
BLACK
6
CONTINUOUS
10
151.997
20
-103.235
11
152.14
21
-103.236
0
LINE
8
BLACK
6
CONTINUOUS
10
132.202
20
-103.775
11
132.35
21
-103.845
0
LINE
8
BLACK
6
CONTINUOUS
10
132.35
20
-103.845
11
132.476
21
-103.949
0
LINE
8
BLACK
6
CONTINUOUS
10
132.476
20
-103.949
11
132.573
21
-104.082
0
LINE
8
BLACK
6
CONTINUOUS
10
132.573
20
-104.082
11
132.633
21
-104.234
0
LINE
8
BLACK
6
CONTINUOUS
10
132.633
20
-104.234
11
132.654
21
-104.397
0
LINE
8
BLACK
6
CONTINUOUS
10
132.654
20
-104.397
11
132.654
21
-105.705
0
LINE
8
BLACK
6
CONTINUOUS
10
132.654
20
-105.705
11
132.648
21
-105.787
0
LINE
8
BLACK
6
CONTINUOUS
10
132.648
20
-105.787
11
132.608
21
-105.946
0
LINE
8
BLACK
6
CONTINUOUS
10
132.608
20
-105.946
11
132.529
21
-106.09
0
LINE
8
BLACK
6
CONTINUOUS
10
132.529
20
-106.09
11
132.416
21
-106.209
0
LINE
8
BLACK
6
CONTINUOUS
10
132.416
20
-106.209
11
132.278
21
-106.297
0
LINE
8
BLACK
6
CONTINUOUS
10
132.278
20
-106.297
11
132.203
21
-106.321
0
LINE
8
BLACK
6
CONTINUOUS
10
132.203
20
-106.321
11
132.203
21
-112.802
0
LINE
8
BLACK
6
CONTINUOUS
10
132.203
20
-112.802
11
132.8
21
-112.802
0
LINE
8
BLACK
6
CONTINUOUS
10
132.8
20
-112.802
11
132.8
21
-114.102
0
LINE
8
BLACK
6
CONTINUOUS
10
132.8
20
-114.102
11
131.2
21
-114.102
0
LINE
8
BLACK
6
CONTINUOUS
10
131.2
20
-114.102
11
131.2
21
-112.802
0
LINE
8
BLACK
6
CONTINUOUS
10
131.2
20
-112.802
11
131.796
21
-112.802
0
LINE
8
BLACK
6
CONTINUOUS
10
131.796
20
-112.802
11
131.796
21
-106.327
0
LINE
8
BLACK
6
CONTINUOUS
10
131.796
20
-106.327
11
131.649
21
-106.257
0
LINE
8
BLACK
6
CONTINUOUS
10
131.649
20
-106.257
11
131.523
21
-106.153
0
LINE
8
BLACK
6
CONTINUOUS
10
131.523
20
-106.153
11
131.427
21
-106.02
0
LINE
8
BLACK
6
CONTINUOUS
10
131.427
20
-106.02
11
131.366
21
-105.868
0
LINE
8
BLACK
6
CONTINUOUS
10
131.366
20
-105.868
11
131.346
21
-105.705
0
LINE
8
BLACK
6
CONTINUOUS
10
131.346
20
-105.705
11
131.346
21
-104.397
0
LINE
8
BLACK
6
CONTINUOUS
10
131.346
20
-104.397
11
131.351
21
-104.315
0
LINE
8
BLACK
6
CONTINUOUS
10
131.351
20
-104.315
11
131.392
21
-104.156
0
LINE
8
BLACK
6
CONTINUOUS
10
131.392
20
-104.156
11
131.471
21
-104.013
0
LINE
8
BLACK
6
CONTINUOUS
10
131.471
20
-104.013
11
131.583
21
-103.893
0
LINE
8
BLACK
6
CONTINUOUS
10
131.583
20
-103.893
11
131.721
21
-103.805
0
LINE
8
BLACK
6
CONTINUOUS
10
131.721
20
-103.805
11
131.877
21
-103.755
0
LINE
8
BLACK
6
CONTINUOUS
10
131.877
20
-103.755
11
132.041
21
-103.744
0
LINE
8
BLACK
6
CONTINUOUS
10
132.041
20
-103.744
11
132.202
21
-103.775
0
LINE
8
BLACK
6
CONTINUOUS
10
134.202
20
-103.775
11
134.35
21
-103.845
0
LINE
8
BLACK
6
CONTINUOUS
10
134.35
20
-103.845
11
134.476
21
-103.949
0
LINE
8
BLACK
6
CONTINUOUS
10
134.476
20
-103.949
11
134.573
21
-104.082
0
LINE
8
BLACK
6
CONTINUOUS
10
134.573
20
-104.082
11
134.633
21
-104.234
0
LINE
8
BLACK
6
CONTINUOUS
10
134.633
20
-104.234
11
134.654
21
-104.397
0
LINE
8
BLACK
6
CONTINUOUS
10
134.654
20
-104.397
11
134.654
21
-105.705
0
LINE
8
BLACK
6
CONTINUOUS
10
134.654
20
-105.705
11
134.648
21
-105.787
0
LINE
8
BLACK
6
CONTINUOUS
10
134.648
20
-105.787
11
134.608
21
-105.946
0
LINE
8
BLACK
6
CONTINUOUS
10
134.608
20
-105.946
11
134.529
21
-106.09
0
LINE
8
BLACK
6
CONTINUOUS
10
134.529
20
-106.09
11
134.416
21
-106.209
0
LINE
8
BLACK
6
CONTINUOUS
10
134.416
20
-106.209
11
134.278
21
-106.297
0
LINE
8
BLACK
6
CONTINUOUS
10
134.278
20
-106.297
11
134.207
21
-106.32
0
LINE
8
BLACK
6
CONTINUOUS
10
134.207
20
-106.32
11
134.232
21
-112.802
0
LINE
8
BLACK
6
CONTINUOUS
10
134.232
20
-112.802
11
134.832
21
-112.802
0
LINE
8
BLACK
6
CONTINUOUS
10
134.832
20
-112.802
11
134.832
21
-114.102
0
LINE
8
BLACK
6
CONTINUOUS
10
134.832
20
-114.102
11
133.232
21
-114.102
0
LINE
8
BLACK
6
CONTINUOUS
10
133.232
20
-114.102
11
133.232
21
-112.802
0
LINE
8
BLACK
6
CONTINUOUS
10
133.232
20
-112.802
11
133.826
21
-112.802
0
LINE
8
BLACK
6
CONTINUOUS
10
133.826
20
-112.802
11
133.801
21
-106.328
0
LINE
8
BLACK
6
CONTINUOUS
10
133.801
20
-106.328
11
133.798
21
-106.327
0
LINE
8
BLACK
6
CONTINUOUS
10
133.798
20
-106.327
11
133.649
21
-106.257
0
LINE
8
BLACK
6
CONTINUOUS
10
133.649
20
-106.257
11
133.523
21
-106.153
0
LINE
8
BLACK
6
CONTINUOUS
10
133.523
20
-106.153
11
133.427
21
-106.02
0
LINE
8
BLACK
6
CONTINUOUS
10
133.427
20
-106.02
11
133.366
21
-105.868
0
LINE
8
BLACK
6
CONTINUOUS
10
133.366
20
-105.868
11
133.346
21
-105.705
0
LINE
8
BLACK
6
CONTINUOUS
10
133.346
20
-105.705
11
133.346
21
-104.397
0
LINE
8
BLACK
6
CONTINUOUS
10
133.346
20
-104.397
11
133.351
21
-104.315
0
LINE
8
BLACK
6
CONTINUOUS
10
133.351
20
-104.315
11
133.392
21
-104.156
0
LINE
8
BLACK
6
CONTINUOUS
10
133.392
20
-104.156
11
133.471
21
-104.013
0
LINE
8
BLACK
6
CONTINUOUS
10
133.471
20
-104.013
11
133.583
21
-103.893
0
LINE
8
BLACK
6
CONTINUOUS
10
133.583
20
-103.893
11
133.721
21
-103.805
0
LINE
8
BLACK
6
CONTINUOUS
10
133.721
20
-103.805
11
133.877
21
-103.755
0
LINE
8
BLACK
6
CONTINUOUS
10
133.877
20
-103.755
11
134.041
21
-103.744
0
LINE
8
BLACK
6
CONTINUOUS
10
134.041
20
-103.744
11
134.202
21
-103.775
0
LINE
8
BLACK
6
CONTINUOUS
10
140.202
20
-103.775
11
140.35
21
-103.845
0
LINE
8
BLACK
6
CONTINUOUS
10
140.35
20
-103.845
11
140.476
21
-103.949
0
LINE
8
BLACK
6
CONTINUOUS
10
140.476
20
-103.949
11
140.573
21
-104.082
0
LINE
8
BLACK
6
CONTINUOUS
10
140.573
20
-104.082
11
140.633
21
-104.234
0
LINE
8
BLACK
6
CONTINUOUS
10
140.633
20
-104.234
11
140.654
21
-104.397
0
LINE
8
BLACK
6
CONTINUOUS
10
140.654
20
-104.397
11
140.654
21
-105.705
0
LINE
8
BLACK
6
CONTINUOUS
10
140.654
20
-105.705
11
140.648
21
-105.787
0
LINE
8
BLACK
6
CONTINUOUS
10
140.648
20
-105.787
11
140.608
21
-105.946
0
LINE
8
BLACK
6
CONTINUOUS
10
140.608
20
-105.946
11
140.529
21
-106.09
0
LINE
8
BLACK
6
CONTINUOUS
10
140.529
20
-106.09
11
140.416
21
-106.209
0
LINE
8
BLACK
6
CONTINUOUS
10
140.416
20
-106.209
11
140.331
21
-106.263
0
LINE
8
BLACK
6
CONTINUOUS
10
140.331
20
-106.263
11
140.331
21
-112.548
0
LINE
8
BLACK
6
CONTINUOUS
10
140.331
20
-112.548
11
140.928
21
-112.548
0
LINE
8
BLACK
6
CONTINUOUS
10
140.928
20
-112.548
11
140.928
21
-113.848
0
LINE
8
BLACK
6
CONTINUOUS
10
140.928
20
-113.848
11
139.328
21
-113.848
0
LINE
8
BLACK
6
CONTINUOUS
10
139.328
20
-113.848
11
139.328
21
-112.548
0
LINE
8
BLACK
6
CONTINUOUS
10
139.328
20
-112.548
11
139.924
21
-112.548
0
LINE
8
BLACK
6
CONTINUOUS
10
139.924
20
-112.548
11
139.924
21
-106.351
0
LINE
8
BLACK
6
CONTINUOUS
10
139.924
20
-106.351
11
139.798
21
-106.327
0
LINE
8
BLACK
6
CONTINUOUS
10
139.798
20
-106.327
11
139.649
21
-106.257
0
LINE
8
BLACK
6
CONTINUOUS
10
139.649
20
-106.257
11
139.523
21
-106.153
0
LINE
8
BLACK
6
CONTINUOUS
10
139.523
20
-106.153
11
139.427
21
-106.02
0
LINE
8
BLACK
6
CONTINUOUS
10
139.427
20
-106.02
11
139.366
21
-105.868
0
LINE
8
BLACK
6
CONTINUOUS
10
139.366
20
-105.868
11
139.346
21
-105.705
0
LINE
8
BLACK
6
CONTINUOUS
10
139.346
20
-105.705
11
139.346
21
-104.397
0
LINE
8
BLACK
6
CONTINUOUS
10
139.346
20
-104.397
11
139.351
21
-104.315
0
LINE
8
BLACK
6
CONTINUOUS
10
139.351
20
-104.315
11
139.392
21
-104.156
0
LINE
8
BLACK
6
CONTINUOUS
10
139.392
20
-104.156
11
139.471
21
-104.013
0
LINE
8
BLACK
6
CONTINUOUS
10
139.471
20
-104.013
11
139.583
21
-103.893
0
LINE
8
BLACK
6
CONTINUOUS
10
139.583
20
-103.893
11
139.721
21
-103.805
0
LINE
8
BLACK
6
CONTINUOUS
10
139.721
20
-103.805
11
139.877
21
-103.755
0
LINE
8
BLACK
6
CONTINUOUS
10
139.877
20
-103.755
11
140.041
21
-103.744
0
LINE
8
BLACK
6
CONTINUOUS
10
140.041
20
-103.744
11
140.202
21
-103.775
0
LINE
8
BLACK
6
CONTINUOUS
10
169.922
20
-108.61
11
173.894
21
-108.61
0
LINE
8
BLACK
6
CONTINUOUS
10
173.894
20
-108.61
11
173.903
21
-108.577
0
LINE
8
BLACK
6
CONTINUOUS
10
173.903
20
-108.577
11
173.977
21
-108.437
0
LINE
8
BLACK
6
CONTINUOUS
10
173.977
20
-108.437
11
174.082
21
-108.318
0
LINE
8
BLACK
6
CONTINUOUS
10
174.082
20
-108.318
11
174.213
21
-108.228
0
LINE
8
BLACK
6
CONTINUOUS
10
174.213
20
-108.228
11
174.362
21
-108.172
0
LINE
8
BLACK
6
CONTINUOUS
10
174.362
20
-108.172
11
174.519
21
-108.153
0
LINE
8
BLACK
6
CONTINUOUS
10
174.519
20
-108.153
11
175.84
21
-108.153
0
LINE
8
BLACK
6
CONTINUOUS
10
175.84
20
-108.153
11
175.847
21
-108.153
0
LINE
8
BLACK
6
CONTINUOUS
10
175.847
20
-108.153
11
176.004
21
-108.174
0
LINE
8
BLACK
6
CONTINUOUS
10
176.004
20
-108.174
11
176.152
21
-108.232
0
LINE
8
BLACK
6
CONTINUOUS
10
176.152
20
-108.232
11
176.282
21
-108.323
0
LINE
8
BLACK
6
CONTINUOUS
10
176.282
20
-108.323
11
176.386
21
-108.442
0
LINE
8
BLACK
6
CONTINUOUS
10
176.386
20
-108.442
11
176.459
21
-108.583
0
LINE
8
BLACK
6
CONTINUOUS
10
176.459
20
-108.583
11
176.496
21
-108.738
0
LINE
8
BLACK
6
CONTINUOUS
10
176.496
20
-108.738
11
176.495
21
-108.896
0
LINE
8
BLACK
6
CONTINUOUS
10
176.495
20
-108.896
11
176.457
21
-109.05
0
LINE
8
BLACK
6
CONTINUOUS
10
176.457
20
-109.05
11
176.382
21
-109.19
0
LINE
8
BLACK
6
CONTINUOUS
10
176.382
20
-109.19
11
176.277
21
-109.309
0
LINE
8
BLACK
6
CONTINUOUS
10
176.277
20
-109.309
11
176.146
21
-109.399
0
LINE
8
BLACK
6
CONTINUOUS
10
176.146
20
-109.399
11
175.998
21
-109.455
0
LINE
8
BLACK
6
CONTINUOUS
10
175.998
20
-109.455
11
175.84
21
-109.474
0
LINE
8
BLACK
6
CONTINUOUS
10
175.84
20
-109.474
11
174.519
21
-109.474
0
LINE
8
BLACK
6
CONTINUOUS
10
174.519
20
-109.474
11
174.512
21
-109.474
0
LINE
8
BLACK
6
CONTINUOUS
10
174.512
20
-109.474
11
174.355
21
-109.453
0
LINE
8
BLACK
6
CONTINUOUS
10
174.355
20
-109.453
11
174.207
21
-109.396
0
LINE
8
BLACK
6
CONTINUOUS
10
174.207
20
-109.396
11
174.077
21
-109.304
0
LINE
8
BLACK
6
CONTINUOUS
10
174.077
20
-109.304
11
173.973
21
-109.185
0
LINE
8
BLACK
6
CONTINUOUS
10
173.973
20
-109.185
11
173.9
21
-109.044
0
LINE
8
BLACK
6
CONTINUOUS
10
173.9
20
-109.044
11
173.894
21
-109.017
0
LINE
8
BLACK
6
CONTINUOUS
10
173.894
20
-109.017
11
169.922
21
-109.017
0
LINE
8
BLACK
6
CONTINUOUS
10
169.922
20
-109.017
11
169.922
21
-109.614
0
LINE
8
BLACK
6
CONTINUOUS
10
169.922
20
-109.614
11
168.622
21
-109.614
0
LINE
8
BLACK
6
CONTINUOUS
10
168.622
20
-109.614
11
168.622
21
-108.014
0
LINE
8
BLACK
6
CONTINUOUS
10
168.622
20
-108.014
11
169.922
21
-108.014
0
LINE
8
BLACK
6
CONTINUOUS
10
169.922
20
-108.014
11
169.922
21
-108.61
0
LINE
8
BLACK
6
CONTINUOUS
10
169.922
20
-106.07
11
173.894
21
-106.07
0
LINE
8
BLACK
6
CONTINUOUS
10
173.894
20
-106.07
11
173.903
21
-106.037
0
LINE
8
BLACK
6
CONTINUOUS
10
173.903
20
-106.037
11
173.977
21
-105.897
0
LINE
8
BLACK
6
CONTINUOUS
10
173.977
20
-105.897
11
174.082
21
-105.778
0
LINE
8
BLACK
6
CONTINUOUS
10
174.082
20
-105.778
11
174.213
21
-105.688
0
LINE
8
BLACK
6
CONTINUOUS
10
174.213
20
-105.688
11
174.362
21
-105.632
0
LINE
8
BLACK
6
CONTINUOUS
10
174.362
20
-105.632
11
174.519
21
-105.613
0
LINE
8
BLACK
6
CONTINUOUS
10
174.519
20
-105.613
11
175.84
21
-105.613
0
LINE
8
BLACK
6
CONTINUOUS
10
175.84
20
-105.613
11
175.847
21
-105.613
0
LINE
8
BLACK
6
CONTINUOUS
10
175.847
20
-105.613
11
176.004
21
-105.634
0
LINE
8
BLACK
6
CONTINUOUS
10
176.004
20
-105.634
11
176.152
21
-105.692
0
LINE
8
BLACK
6
CONTINUOUS
10
176.152
20
-105.692
11
176.282
21
-105.783
0
LINE
8
BLACK
6
CONTINUOUS
10
176.282
20
-105.783
11
176.386
21
-105.902
0
LINE
8
BLACK
6
CONTINUOUS
10
176.386
20
-105.902
11
176.459
21
-106.043
0
LINE
8
BLACK
6
CONTINUOUS
10
176.459
20
-106.043
11
176.496
21
-106.198
0
LINE
8
BLACK
6
CONTINUOUS
10
176.496
20
-106.198
11
176.495
21
-106.356
0
LINE
8
BLACK
6
CONTINUOUS
10
176.495
20
-106.356
11
176.457
21
-106.51
0
LINE
8
BLACK
6
CONTINUOUS
10
176.457
20
-106.51
11
176.382
21
-106.65
0
LINE
8
BLACK
6
CONTINUOUS
10
176.382
20
-106.65
11
176.277
21
-106.769
0
LINE
8
BLACK
6
CONTINUOUS
10
176.277
20
-106.769
11
176.146
21
-106.859
0
LINE
8
BLACK
6
CONTINUOUS
10
176.146
20
-106.859
11
175.998
21
-106.915
0
LINE
8
BLACK
6
CONTINUOUS
10
175.998
20
-106.915
11
175.84
21
-106.934
0
LINE
8
BLACK
6
CONTINUOUS
10
175.84
20
-106.934
11
174.519
21
-106.934
0
LINE
8
BLACK
6
CONTINUOUS
10
174.519
20
-106.934
11
174.512
21
-106.934
0
LINE
8
BLACK
6
CONTINUOUS
10
174.512
20
-106.934
11
174.355
21
-106.913
0
LINE
8
BLACK
6
CONTINUOUS
10
174.355
20
-106.913
11
174.207
21
-106.856
0
LINE
8
BLACK
6
CONTINUOUS
10
174.207
20
-106.856
11
174.077
21
-106.764
0
LINE
8
BLACK
6
CONTINUOUS
10
174.077
20
-106.764
11
173.973
21
-106.645
0
LINE
8
BLACK
6
CONTINUOUS
10
173.973
20
-106.645
11
173.9
21
-106.504
0
LINE
8
BLACK
6
CONTINUOUS
10
173.9
20
-106.504
11
173.894
21
-106.477
0
LINE
8
BLACK
6
CONTINUOUS
10
173.894
20
-106.477
11
169.922
21
-106.477
0
LINE
8
BLACK
6
CONTINUOUS
10
169.922
20
-106.477
11
169.922
21
-107.074
0
LINE
8
BLACK
6
CONTINUOUS
10
169.922
20
-107.074
11
168.622
21
-107.074
0
LINE
8
BLACK
6
CONTINUOUS
10
168.622
20
-107.074
11
168.622
21
-105.474
0
LINE
8
BLACK
6
CONTINUOUS
10
168.622
20
-105.474
11
169.922
21
-105.474
0
LINE
8
BLACK
6
CONTINUOUS
10
169.922
20
-105.474
11
169.922
21
-106.07
0
LINE
8
BLACK
6
CONTINUOUS
10
138.642
20
-98.4756
11
138.203
21
-98.4756
0
LINE
8
BLACK
6
CONTINUOUS
10
138.203
20
-98.4756
11
138.203
21
-103.776
0
LINE
8
BLACK
6
CONTINUOUS
10
138.203
20
-103.776
11
138.35
21
-103.845
0
LINE
8
BLACK
6
CONTINUOUS
10
138.35
20
-103.845
11
138.476
21
-103.949
0
LINE
8
BLACK
6
CONTINUOUS
10
138.476
20
-103.949
11
138.573
21
-104.082
0
LINE
8
BLACK
6
CONTINUOUS
10
138.573
20
-104.082
11
138.633
21
-104.234
0
LINE
8
BLACK
6
CONTINUOUS
10
138.633
20
-104.234
11
138.654
21
-104.397
0
LINE
8
BLACK
6
CONTINUOUS
10
138.654
20
-104.397
11
138.654
21
-105.705
0
LINE
8
BLACK
6
CONTINUOUS
10
138.654
20
-105.705
11
138.648
21
-105.787
0
LINE
8
BLACK
6
CONTINUOUS
10
138.648
20
-105.787
11
138.608
21
-105.946
0
LINE
8
BLACK
6
CONTINUOUS
10
138.608
20
-105.946
11
138.529
21
-106.09
0
LINE
8
BLACK
6
CONTINUOUS
10
138.529
20
-106.09
11
138.416
21
-106.209
0
LINE
8
BLACK
6
CONTINUOUS
10
138.416
20
-106.209
11
138.278
21
-106.297
0
LINE
8
BLACK
6
CONTINUOUS
10
138.278
20
-106.297
11
138.122
21
-106.348
0
LINE
8
BLACK
6
CONTINUOUS
10
138.122
20
-106.348
11
137.959
21
-106.358
0
LINE
8
BLACK
6
CONTINUOUS
10
137.959
20
-106.358
11
137.798
21
-106.327
0
LINE
8
BLACK
6
CONTINUOUS
10
137.798
20
-106.327
11
137.649
21
-106.257
0
LINE
8
BLACK
6
CONTINUOUS
10
137.649
20
-106.257
11
137.523
21
-106.153
0
LINE
8
BLACK
6
CONTINUOUS
10
137.523
20
-106.153
11
137.427
21
-106.02
0
LINE
8
BLACK
6
CONTINUOUS
10
137.427
20
-106.02
11
137.366
21
-105.868
0
LINE
8
BLACK
6
CONTINUOUS
10
137.366
20
-105.868
11
137.346
21
-105.705
0
LINE
8
BLACK
6
CONTINUOUS
10
137.346
20
-105.705
11
137.346
21
-104.397
0
LINE
8
BLACK
6
CONTINUOUS
10
137.346
20
-104.397
11
137.351
21
-104.315
0
LINE
8
BLACK
6
CONTINUOUS
10
137.351
20
-104.315
11
137.392
21
-104.156
0
LINE
8
BLACK
6
CONTINUOUS
10
137.392
20
-104.156
11
137.471
21
-104.013
0
LINE
8
BLACK
6
CONTINUOUS
10
137.471
20
-104.013
11
137.583
21
-103.893
0
LINE
8
BLACK
6
CONTINUOUS
10
137.583
20
-103.893
11
137.721
21
-103.805
0
LINE
8
BLACK
6
CONTINUOUS
10
137.721
20
-103.805
11
137.796
21
-103.781
0
LINE
8
BLACK
6
CONTINUOUS
10
137.796
20
-103.781
11
137.796
21
-98.4756
0
LINE
8
BLACK
6
CONTINUOUS
10
137.796
20
-98.4756
11
137.042
21
-98.4756
0
LINE
8
BLACK
6
CONTINUOUS
10
137.042
20
-98.4756
11
137.042
21
-97.1756
0
LINE
8
BLACK
6
CONTINUOUS
10
137.042
20
-97.1756
11
138.642
21
-97.1756
0
LINE
8
BLACK
6
CONTINUOUS
10
138.642
20
-97.1756
11
138.642
21
-98.4756
0
LINE
8
BLACK
6
CONTINUOUS
10
136.202
20
-103.775
11
136.35
21
-103.845
0
LINE
8
BLACK
6
CONTINUOUS
10
136.35
20
-103.845
11
136.476
21
-103.949
0
LINE
8
BLACK
6
CONTINUOUS
10
136.476
20
-103.949
11
136.573
21
-104.082
0
LINE
8
BLACK
6
CONTINUOUS
10
136.573
20
-104.082
11
136.633
21
-104.234
0
LINE
8
BLACK
6
CONTINUOUS
10
136.633
20
-104.234
11
136.654
21
-104.397
0
LINE
8
BLACK
6
CONTINUOUS
10
136.654
20
-104.397
11
136.654
21
-105.705
0
LINE
8
BLACK
6
CONTINUOUS
10
136.654
20
-105.705
11
136.648
21
-105.787
0
LINE
8
BLACK
6
CONTINUOUS
10
136.648
20
-105.787
11
136.608
21
-105.946
0
LINE
8
BLACK
6
CONTINUOUS
10
136.608
20
-105.946
11
136.529
21
-106.09
0
LINE
8
BLACK
6
CONTINUOUS
10
136.529
20
-106.09
11
136.416
21
-106.209
0
LINE
8
BLACK
6
CONTINUOUS
10
136.416
20
-106.209
11
136.278
21
-106.297
0
LINE
8
BLACK
6
CONTINUOUS
10
136.278
20
-106.297
11
136.122
21
-106.348
0
LINE
8
BLACK
6
CONTINUOUS
10
136.122
20
-106.348
11
135.959
21
-106.358
0
LINE
8
BLACK
6
CONTINUOUS
10
135.959
20
-106.358
11
135.798
21
-106.327
0
LINE
8
BLACK
6
CONTINUOUS
10
135.798
20
-106.327
11
135.649
21
-106.257
0
LINE
8
BLACK
6
CONTINUOUS
10
135.649
20
-106.257
11
135.523
21
-106.153
0
LINE
8
BLACK
6
CONTINUOUS
10
135.523
20
-106.153
11
135.427
21
-106.02
0
LINE
8
BLACK
6
CONTINUOUS
10
135.427
20
-106.02
11
135.366
21
-105.868
0
LINE
8
BLACK
6
CONTINUOUS
10
135.366
20
-105.868
11
135.346
21
-105.705
0
LINE
8
BLACK
6
CONTINUOUS
10
135.346
20
-105.705
11
135.346
21
-104.397
0
LINE
8
BLACK
6
CONTINUOUS
10
135.346
20
-104.397
11
135.351
21
-104.315
0
LINE
8
BLACK
6
CONTINUOUS
10
135.351
20
-104.315
11
135.392
21
-104.156
0
LINE
8
BLACK
6
CONTINUOUS
10
135.392
20
-104.156
11
135.471
21
-104.013
0
LINE
8
BLACK
6
CONTINUOUS
10
135.471
20
-104.013
11
135.583
21
-103.893
0
LINE
8
BLACK
6
CONTINUOUS
10
135.583
20
-103.893
11
135.721
21
-103.805
0
LINE
8
BLACK
6
CONTINUOUS
10
135.721
20
-103.805
11
135.877
21
-103.755
0
LINE
8
BLACK
6
CONTINUOUS
10
135.877
20
-103.755
11
136.041
21
-103.744
0
LINE
8
BLACK
6
CONTINUOUS
10
136.041
20
-103.744
11
136.202
21
-103.775
0
LINE
8
BLACK
6
CONTINUOUS
10
146.202
20
-103.775
11
146.35
21
-103.845
0
LINE
8
BLACK
6
CONTINUOUS
10
146.35
20
-103.845
11
146.476
21
-103.949
0
LINE
8
BLACK
6
CONTINUOUS
10
146.476
20
-103.949
11
146.573
21
-104.082
0
LINE
8
BLACK
6
CONTINUOUS
10
146.573
20
-104.082
11
146.633
21
-104.234
0
LINE
8
BLACK
6
CONTINUOUS
10
146.633
20
-104.234
11
146.654
21
-104.397
0
LINE
8
BLACK
6
CONTINUOUS
10
146.654
20
-104.397
11
146.654
21
-105.705
0
LINE
8
BLACK
6
CONTINUOUS
10
146.654
20
-105.705
11
146.648
21
-105.787
0
LINE
8
BLACK
6
CONTINUOUS
10
146.648
20
-105.787
11
146.608
21
-105.946
0
LINE
8
BLACK
6
CONTINUOUS
10
146.608
20
-105.946
11
146.529
21
-106.09
0
LINE
8
BLACK
6
CONTINUOUS
10
146.529
20
-106.09
11
146.416
21
-106.209
0
LINE
8
BLACK
6
CONTINUOUS
10
146.416
20
-106.209
11
146.278
21
-106.297
0
LINE
8
BLACK
6
CONTINUOUS
10
146.278
20
-106.297
11
146.122
21
-106.348
0
LINE
8
BLACK
6
CONTINUOUS
10
146.122
20
-106.348
11
145.959
21
-106.358
0
LINE
8
BLACK
6
CONTINUOUS
10
145.959
20
-106.358
11
145.798
21
-106.327
0
LINE
8
BLACK
6
CONTINUOUS
10
145.798
20
-106.327
11
145.649
21
-106.257
0
LINE
8
BLACK
6
CONTINUOUS
10
145.649
20
-106.257
11
145.523
21
-106.153
0
LINE
8
BLACK
6
CONTINUOUS
10
145.523
20
-106.153
11
145.427
21
-106.02
0
LINE
8
BLACK
6
CONTINUOUS
10
145.427
20
-106.02
11
145.366
21
-105.868
0
LINE
8
BLACK
6
CONTINUOUS
10
145.366
20
-105.868
11
145.346
21
-105.705
0
LINE
8
BLACK
6
CONTINUOUS
10
145.346
20
-105.705
11
145.346
21
-104.397
0
LINE
8
BLACK
6
CONTINUOUS
10
145.346
20
-104.397
11
145.351
21
-104.315
0
LINE
8
BLACK
6
CONTINUOUS
10
145.351
20
-104.315
11
145.392
21
-104.156
0
LINE
8
BLACK
6
CONTINUOUS
10
145.392
20
-104.156
11
145.471
21
-104.013
0
LINE
8
BLACK
6
CONTINUOUS
10
145.471
20
-104.013
11
145.583
21
-103.893
0
LINE
8
BLACK
6
CONTINUOUS
10
145.583
20
-103.893
11
145.721
21
-103.805
0
LINE
8
BLACK
6
CONTINUOUS
10
145.721
20
-103.805
11
145.877
21
-103.755
0
LINE
8
BLACK
6
CONTINUOUS
10
145.877
20
-103.755
11
146.041
21
-103.744
0
LINE
8
BLACK
6
CONTINUOUS
10
146.041
20
-103.744
11
146.202
21
-103.775
0
LINE
8
BLACK
6
CONTINUOUS
10
128.202
20
-103.775
11
128.35
21
-103.845
0
LINE
8
BLACK
6
CONTINUOUS
10
128.35
20
-103.845
11
128.476
21
-103.949
0
LINE
8
BLACK
6
CONTINUOUS
10
128.476
20
-103.949
11
128.573
21
-104.082
0
LINE
8
BLACK
6
CONTINUOUS
10
128.573
20
-104.082
11
128.633
21
-104.234
0
LINE
8
BLACK
6
CONTINUOUS
10
128.633
20
-104.234
11
128.654
21
-104.397
0
LINE
8
BLACK
6
CONTINUOUS
10
128.654
20
-104.397
11
128.654
21
-105.705
0
LINE
8
BLACK
6
CONTINUOUS
10
128.654
20
-105.705
11
128.648
21
-105.787
0
LINE
8
BLACK
6
CONTINUOUS
10
128.648
20
-105.787
11
128.608
21
-105.946
0
LINE
8
BLACK
6
CONTINUOUS
10
128.608
20
-105.946
11
128.529
21
-106.09
0
LINE
8
BLACK
6
CONTINUOUS
10
128.529
20
-106.09
11
128.416
21
-106.209
0
LINE
8
BLACK
6
CONTINUOUS
10
128.416
20
-106.209
11
128.278
21
-106.297
0
LINE
8
BLACK
6
CONTINUOUS
10
128.278
20
-106.297
11
128.122
21
-106.348
0
LINE
8
BLACK
6
CONTINUOUS
10
128.122
20
-106.348
11
127.959
21
-106.358
0
LINE
8
BLACK
6
CONTINUOUS
10
127.959
20
-106.358
11
127.798
21
-106.327
0
LINE
8
BLACK
6
CONTINUOUS
10
127.798
20
-106.327
11
127.649
21
-106.257
0
LINE
8
BLACK
6
CONTINUOUS
10
127.649
20
-106.257
11
127.523
21
-106.153
0
LINE
8
BLACK
6
CONTINUOUS
10
127.523
20
-106.153
11
127.427
21
-106.02
0
LINE
8
BLACK
6
CONTINUOUS
10
127.427
20
-106.02
11
127.366
21
-105.868
0
LINE
8
BLACK
6
CONTINUOUS
10
127.366
20
-105.868
11
127.346
21
-105.705
0
LINE
8
BLACK
6
CONTINUOUS
10
127.346
20
-105.705
11
127.346
21
-104.397
0
LINE
8
BLACK
6
CONTINUOUS
10
127.346
20
-104.397
11
127.351
21
-104.315
0
LINE
8
BLACK
6
CONTINUOUS
10
127.351
20
-104.315
11
127.392
21
-104.156
0
LINE
8
BLACK
6
CONTINUOUS
10
127.392
20
-104.156
11
127.471
21
-104.013
0
LINE
8
BLACK
6
CONTINUOUS
10
127.471
20
-104.013
11
127.583
21
-103.893
0
LINE
8
BLACK
6
CONTINUOUS
10
127.583
20
-103.893
11
127.721
21
-103.805
0
LINE
8
BLACK
6
CONTINUOUS
10
127.721
20
-103.805
11
127.877
21
-103.755
0
LINE
8
BLACK
6
CONTINUOUS
10
127.877
20
-103.755
11
128.041
21
-103.744
0
LINE
8
BLACK
6
CONTINUOUS
10
128.041
20
-103.744
11
128.202
21
-103.775
0
LINE
8
BLACK
6
CONTINUOUS
10
144.738
20
-98.4756
11
144.141
21
-98.4756
0
LINE
8
BLACK
6
CONTINUOUS
10
144.141
20
-98.4756
11
144.141
21
-103.763
0
LINE
8
BLACK
6
CONTINUOUS
10
144.141
20
-103.763
11
144.202
21
-103.775
0
LINE
8
BLACK
6
CONTINUOUS
10
144.202
20
-103.775
11
144.35
21
-103.845
0
LINE
8
BLACK
6
CONTINUOUS
10
144.35
20
-103.845
11
144.476
21
-103.949
0
LINE
8
BLACK
6
CONTINUOUS
10
144.476
20
-103.949
11
144.573
21
-104.082
0
LINE
8
BLACK
6
CONTINUOUS
10
144.573
20
-104.082
11
144.633
21
-104.234
0
LINE
8
BLACK
6
CONTINUOUS
10
144.633
20
-104.234
11
144.654
21
-104.397
0
LINE
8
BLACK
6
CONTINUOUS
10
144.654
20
-104.397
11
144.654
21
-105.705
0
LINE
8
BLACK
6
CONTINUOUS
10
144.654
20
-105.705
11
144.648
21
-105.787
0
LINE
8
BLACK
6
CONTINUOUS
10
144.648
20
-105.787
11
144.608
21
-105.946
0
LINE
8
BLACK
6
CONTINUOUS
10
144.608
20
-105.946
11
144.529
21
-106.09
0
LINE
8
BLACK
6
CONTINUOUS
10
144.529
20
-106.09
11
144.416
21
-106.209
0
LINE
8
BLACK
6
CONTINUOUS
10
144.416
20
-106.209
11
144.278
21
-106.297
0
LINE
8
BLACK
6
CONTINUOUS
10
144.278
20
-106.297
11
144.122
21
-106.348
0
LINE
8
BLACK
6
CONTINUOUS
10
144.122
20
-106.348
11
143.959
21
-106.358
0
LINE
8
BLACK
6
CONTINUOUS
10
143.959
20
-106.358
11
143.798
21
-106.327
0
LINE
8
BLACK
6
CONTINUOUS
10
143.798
20
-106.327
11
143.649
21
-106.257
0
LINE
8
BLACK
6
CONTINUOUS
10
143.649
20
-106.257
11
143.523
21
-106.153
0
LINE
8
BLACK
6
CONTINUOUS
10
143.523
20
-106.153
11
143.427
21
-106.02
0
LINE
8
BLACK
6
CONTINUOUS
10
143.427
20
-106.02
11
143.366
21
-105.868
0
LINE
8
BLACK
6
CONTINUOUS
10
143.366
20
-105.868
11
143.346
21
-105.705
0
LINE
8
BLACK
6
CONTINUOUS
10
143.346
20
-105.705
11
143.346
21
-104.397
0
LINE
8
BLACK
6
CONTINUOUS
10
143.346
20
-104.397
11
143.351
21
-104.315
0
LINE
8
BLACK
6
CONTINUOUS
10
143.351
20
-104.315
11
143.392
21
-104.156
0
LINE
8
BLACK
6
CONTINUOUS
10
143.392
20
-104.156
11
143.471
21
-104.013
0
LINE
8
BLACK
6
CONTINUOUS
10
143.471
20
-104.013
11
143.583
21
-103.893
0
LINE
8
BLACK
6
CONTINUOUS
10
143.583
20
-103.893
11
143.721
21
-103.805
0
LINE
8
BLACK
6
CONTINUOUS
10
143.721
20
-103.805
11
143.734
21
-103.801
0
LINE
8
BLACK
6
CONTINUOUS
10
143.734
20
-103.801
11
143.734
21
-98.4756
0
LINE
8
BLACK
6
CONTINUOUS
10
143.734
20
-98.4756
11
143.138
21
-98.4756
0
LINE
8
BLACK
6
CONTINUOUS
10
143.138
20
-98.4756
11
143.138
21
-97.1756
0
LINE
8
BLACK
6
CONTINUOUS
10
143.138
20
-97.1756
11
144.738
21
-97.1756
0
LINE
8
BLACK
6
CONTINUOUS
10
144.738
20
-97.1756
11
144.738
21
-98.4756
0
LINE
8
BLACK
6
CONTINUOUS
10
142.706
20
-98.4756
11
142.203
21
-98.4756
0
LINE
8
BLACK
6
CONTINUOUS
10
142.203
20
-98.4756
11
142.203
21
-103.776
0
LINE
8
BLACK
6
CONTINUOUS
10
142.203
20
-103.776
11
142.35
21
-103.845
0
LINE
8
BLACK
6
CONTINUOUS
10
142.35
20
-103.845
11
142.476
21
-103.949
0
LINE
8
BLACK
6
CONTINUOUS
10
142.476
20
-103.949
11
142.573
21
-104.082
0
LINE
8
BLACK
6
CONTINUOUS
10
142.573
20
-104.082
11
142.633
21
-104.234
0
LINE
8
BLACK
6
CONTINUOUS
10
142.633
20
-104.234
11
142.654
21
-104.397
0
LINE
8
BLACK
6
CONTINUOUS
10
142.654
20
-104.397
11
142.654
21
-105.705
0
LINE
8
BLACK
6
CONTINUOUS
10
142.654
20
-105.705
11
142.648
21
-105.787
0
LINE
8
BLACK
6
CONTINUOUS
10
142.648
20
-105.787
11
142.608
21
-105.946
0
LINE
8
BLACK
6
CONTINUOUS
10
142.608
20
-105.946
11
142.529
21
-106.09
0
LINE
8
BLACK
6
CONTINUOUS
10
142.529
20
-106.09
11
142.416
21
-106.209
0
LINE
8
BLACK
6
CONTINUOUS
10
142.416
20
-106.209
11
142.278
21
-106.297
0
LINE
8
BLACK
6
CONTINUOUS
10
142.278
20
-106.297
11
142.122
21
-106.348
0
LINE
8
BLACK
6
CONTINUOUS
10
142.122
20
-106.348
11
141.959
21
-106.358
0
LINE
8
BLACK
6
CONTINUOUS
10
141.959
20
-106.358
11
141.798
21
-106.327
0
LINE
8
BLACK
6
CONTINUOUS
10
141.798
20
-106.327
11
141.649
21
-106.257
0
LINE
8
BLACK
6
CONTINUOUS
10
141.649
20
-106.257
11
141.523
21
-106.153
0
LINE
8
BLACK
6
CONTINUOUS
10
141.523
20
-106.153
11
141.427
21
-106.02
0
LINE
8
BLACK
6
CONTINUOUS
10
141.427
20
-106.02
11
141.366
21
-105.868
0
LINE
8
BLACK
6
CONTINUOUS
10
141.366
20
-105.868
11
141.346
21
-105.705
0
LINE
8
BLACK
6
CONTINUOUS
10
141.346
20
-105.705
11
141.346
21
-104.397
0
LINE
8
BLACK
6
CONTINUOUS
10
141.346
20
-104.397
11
141.351
21
-104.315
0
LINE
8
BLACK
6
CONTINUOUS
10
141.351
20
-104.315
11
141.392
21
-104.156
0
LINE
8
BLACK
6
CONTINUOUS
10
141.392
20
-104.156
11
141.471
21
-104.013
0
LINE
8
BLACK
6
CONTINUOUS
10
141.471
20
-104.013
11
141.583
21
-103.893
0
LINE
8
BLACK
6
CONTINUOUS
10
141.583
20
-103.893
11
141.721
21
-103.805
0
LINE
8
BLACK
6
CONTINUOUS
10
141.721
20
-103.805
11
141.796
21
-103.781
0
LINE
8
BLACK
6
CONTINUOUS
10
141.796
20
-103.781
11
141.796
21
-98.4756
0
LINE
8
BLACK
6
CONTINUOUS
10
141.796
20
-98.4756
11
141.106
21
-98.4756
0
LINE
8
BLACK
6
CONTINUOUS
10
141.106
20
-98.4756
11
141.106
21
-97.1756
0
LINE
8
BLACK
6
CONTINUOUS
10
141.106
20
-97.1756
11
142.706
21
-97.1756
0
LINE
8
BLACK
6
CONTINUOUS
10
142.706
20
-97.1756
11
142.706
21
-98.4756
0
LINE
8
BLACK
6
CONTINUOUS
10
169.922
20
-103.53
11
173.894
21
-103.53
0
LINE
8
BLACK
6
CONTINUOUS
10
173.894
20
-103.53
11
173.903
21
-103.497
0
LINE
8
BLACK
6
CONTINUOUS
10
173.903
20
-103.497
11
173.977
21
-103.357
0
LINE
8
BLACK
6
CONTINUOUS
10
173.977
20
-103.357
11
174.082
21
-103.238
0
LINE
8
BLACK
6
CONTINUOUS
10
174.082
20
-103.238
11
174.213
21
-103.148
0
LINE
8
BLACK
6
CONTINUOUS
10
174.213
20
-103.148
11
174.362
21
-103.092
0
LINE
8
BLACK
6
CONTINUOUS
10
174.362
20
-103.092
11
174.519
21
-103.073
0
LINE
8
BLACK
6
CONTINUOUS
10
174.519
20
-103.073
11
175.84
21
-103.073
0
LINE
8
BLACK
6
CONTINUOUS
10
175.84
20
-103.073
11
175.847
21
-103.073
0
LINE
8
BLACK
6
CONTINUOUS
10
175.847
20
-103.073
11
176.004
21
-103.094
0
LINE
8
BLACK
6
CONTINUOUS
10
176.004
20
-103.094
11
176.152
21
-103.152
0
LINE
8
BLACK
6
CONTINUOUS
10
176.152
20
-103.152
11
176.282
21
-103.243
0
LINE
8
BLACK
6
CONTINUOUS
10
176.282
20
-103.243
11
176.386
21
-103.362
0
LINE
8
BLACK
6
CONTINUOUS
10
176.386
20
-103.362
11
176.459
21
-103.503
0
LINE
8
BLACK
6
CONTINUOUS
10
176.459
20
-103.503
11
176.496
21
-103.658
0
LINE
8
BLACK
6
CONTINUOUS
10
176.496
20
-103.658
11
176.495
21
-103.816
0
LINE
8
BLACK
6
CONTINUOUS
10
176.495
20
-103.816
11
176.457
21
-103.97
0
LINE
8
BLACK
6
CONTINUOUS
10
176.457
20
-103.97
11
176.382
21
-104.11
0
LINE
8
BLACK
6
CONTINUOUS
10
176.382
20
-104.11
11
176.277
21
-104.229
0
LINE
8
BLACK
6
CONTINUOUS
10
176.277
20
-104.229
11
176.146
21
-104.319
0
LINE
8
BLACK
6
CONTINUOUS
10
176.146
20
-104.319
11
175.998
21
-104.375
0
LINE
8
BLACK
6
CONTINUOUS
10
175.998
20
-104.375
11
175.84
21
-104.394
0
LINE
8
BLACK
6
CONTINUOUS
10
175.84
20
-104.394
11
174.519
21
-104.394
0
LINE
8
BLACK
6
CONTINUOUS
10
174.519
20
-104.394
11
174.512
21
-104.394
0
LINE
8
BLACK
6
CONTINUOUS
10
174.512
20
-104.394
11
174.355
21
-104.373
0
LINE
8
BLACK
6
CONTINUOUS
10
174.355
20
-104.373
11
174.207
21
-104.316
0
LINE
8
BLACK
6
CONTINUOUS
10
174.207
20
-104.316
11
174.077
21
-104.224
0
LINE
8
BLACK
6
CONTINUOUS
10
174.077
20
-104.224
11
173.973
21
-104.105
0
LINE
8
BLACK
6
CONTINUOUS
10
173.973
20
-104.105
11
173.9
21
-103.964
0
LINE
8
BLACK
6
CONTINUOUS
10
173.9
20
-103.964
11
173.894
21
-103.937
0
LINE
8
BLACK
6
CONTINUOUS
10
173.894
20
-103.937
11
169.922
21
-103.937
0
LINE
8
BLACK
6
CONTINUOUS
10
169.922
20
-103.937
11
169.922
21
-104.534
0
LINE
8
BLACK
6
CONTINUOUS
10
169.922
20
-104.534
11
168.622
21
-104.534
0
LINE
8
BLACK
6
CONTINUOUS
10
168.622
20
-104.534
11
168.622
21
-102.934
0
LINE
8
BLACK
6
CONTINUOUS
10
168.622
20
-102.934
11
169.922
21
-102.934
0
LINE
8
BLACK
6
CONTINUOUS
10
169.922
20
-102.934
11
169.922
21
-103.53
0
LINE
8
BLACK
6
CONTINUOUS
10
169.922
20
-100.99
11
173.894
21
-100.99
0
LINE
8
BLACK
6
CONTINUOUS
10
173.894
20
-100.99
11
173.903
21
-100.957
0
LINE
8
BLACK
6
CONTINUOUS
10
173.903
20
-100.957
11
173.977
21
-100.817
0
LINE
8
BLACK
6
CONTINUOUS
10
173.977
20
-100.817
11
174.082
21
-100.698
0
LINE
8
BLACK
6
CONTINUOUS
10
174.082
20
-100.698
11
174.213
21
-100.608
0
LINE
8
BLACK
6
CONTINUOUS
10
174.213
20
-100.608
11
174.362
21
-100.552
0
LINE
8
BLACK
6
CONTINUOUS
10
174.362
20
-100.552
11
174.519
21
-100.533
0
LINE
8
BLACK
6
CONTINUOUS
10
174.519
20
-100.533
11
175.84
21
-100.533
0
LINE
8
BLACK
6
CONTINUOUS
10
175.84
20
-100.533
11
175.847
21
-100.533
0
LINE
8
BLACK
6
CONTINUOUS
10
175.847
20
-100.533
11
176.004
21
-100.554
0
LINE
8
BLACK
6
CONTINUOUS
10
176.004
20
-100.554
11
176.152
21
-100.612
0
LINE
8
BLACK
6
CONTINUOUS
10
176.152
20
-100.612
11
176.282
21
-100.703
0
LINE
8
BLACK
6
CONTINUOUS
10
176.282
20
-100.703
11
176.386
21
-100.822
0
LINE
8
BLACK
6
CONTINUOUS
10
176.386
20
-100.822
11
176.459
21
-100.963
0
LINE
8
BLACK
6
CONTINUOUS
10
176.459
20
-100.963
11
176.496
21
-101.118
0
LINE
8
BLACK
6
CONTINUOUS
10
176.496
20
-101.118
11
176.495
21
-101.276
0
LINE
8
BLACK
6
CONTINUOUS
10
176.495
20
-101.276
11
176.457
21
-101.43
0
LINE
8
BLACK
6
CONTINUOUS
10
176.457
20
-101.43
11
176.382
21
-101.57
0
LINE
8
BLACK
6
CONTINUOUS
10
176.382
20
-101.57
11
176.277
21
-101.689
0
LINE
8
BLACK
6
CONTINUOUS
10
176.277
20
-101.689
11
176.146
21
-101.779
0
LINE
8
BLACK
6
CONTINUOUS
10
176.146
20
-101.779
11
175.998
21
-101.835
0
LINE
8
BLACK
6
CONTINUOUS
10
175.998
20
-101.835
11
175.84
21
-101.854
0
LINE
8
BLACK
6
CONTINUOUS
10
175.84
20
-101.854
11
174.519
21
-101.854
0
LINE
8
BLACK
6
CONTINUOUS
10
174.519
20
-101.854
11
174.512
21
-101.854
0
LINE
8
BLACK
6
CONTINUOUS
10
174.512
20
-101.854
11
174.355
21
-101.833
0
LINE
8
BLACK
6
CONTINUOUS
10
174.355
20
-101.833
11
174.207
21
-101.776
0
LINE
8
BLACK
6
CONTINUOUS
10
174.207
20
-101.776
11
174.077
21
-101.684
0
LINE
8
BLACK
6
CONTINUOUS
10
174.077
20
-101.684
11
173.973
21
-101.565
0
LINE
8
BLACK
6
CONTINUOUS
10
173.973
20
-101.565
11
173.9
21
-101.424
0
LINE
8
BLACK
6
CONTINUOUS
10
173.9
20
-101.424
11
173.894
21
-101.397
0
LINE
8
BLACK
6
CONTINUOUS
10
173.894
20
-101.397
11
169.922
21
-101.397
0
LINE
8
BLACK
6
CONTINUOUS
10
169.922
20
-101.397
11
169.922
21
-101.994
0
LINE
8
BLACK
6
CONTINUOUS
10
169.922
20
-101.994
11
168.622
21
-101.994
0
LINE
8
BLACK
6
CONTINUOUS
10
168.622
20
-101.994
11
168.622
21
-100.394
0
LINE
8
BLACK
6
CONTINUOUS
10
168.622
20
-100.394
11
169.922
21
-100.394
0
LINE
8
BLACK
6
CONTINUOUS
10
169.922
20
-100.394
11
169.922
21
-100.99
0
LINE
8
BLACK
6
CONTINUOUS
10
148.543
20
-93.378
11
148.577
21
-93.3818
0
LINE
8
BLACK
6
CONTINUOUS
10
148.577
20
-93.3818
11
148.587
21
-93.388
0
LINE
8
BLACK
6
CONTINUOUS
10
148.587
20
-93.388
11
148.598
21
-93.3907
0
LINE
8
BLACK
6
CONTINUOUS
10
148.598
20
-93.3907
11
148.625
21
-93.4119
0
LINE
8
BLACK
6
CONTINUOUS
10
148.625
20
-93.4119
11
148.653
21
-93.4299
0
LINE
8
BLACK
6
CONTINUOUS
10
148.653
20
-93.4299
11
149.924
21
-94.7002
0
LINE
8
BLACK
6
CONTINUOUS
10
149.924
20
-94.7002
11
149.942
21
-94.7289
0
LINE
8
BLACK
6
CONTINUOUS
10
149.942
20
-94.7289
11
149.963
21
-94.7555
0
LINE
8
BLACK
6
CONTINUOUS
10
149.963
20
-94.7555
11
149.965
21
-94.7669
0
LINE
8
BLACK
6
CONTINUOUS
10
149.965
20
-94.7669
11
149.972
21
-94.7768
0
LINE
8
BLACK
6
CONTINUOUS
10
149.972
20
-94.7768
11
149.975
21
-94.8105
0
LINE
8
BLACK
6
CONTINUOUS
10
149.975
20
-94.8105
11
149.983
21
-94.8436
0
LINE
8
BLACK
6
CONTINUOUS
10
149.983
20
-94.8436
11
149.983
21
-100.695
0
LINE
8
BLACK
6
CONTINUOUS
10
149.983
20
-100.695
11
150.108
21
-100.696
0
LINE
8
BLACK
6
CONTINUOUS
10
150.108
20
-100.696
11
150.245
21
-100.737
0
LINE
8
BLACK
6
CONTINUOUS
10
150.245
20
-100.737
11
150.364
21
-100.814
0
LINE
8
BLACK
6
CONTINUOUS
10
150.364
20
-100.814
11
150.458
21
-100.922
0
LINE
8
BLACK
6
CONTINUOUS
10
150.458
20
-100.922
11
150.517
21
-101.052
0
LINE
8
BLACK
6
CONTINUOUS
10
150.517
20
-101.052
11
150.537
21
-101.194
0
LINE
8
BLACK
6
CONTINUOUS
10
150.537
20
-101.194
11
150.537
21
-101.206
0
LINE
8
BLACK
6
CONTINUOUS
10
150.537
20
-101.206
11
150.513
21
-101.347
0
LINE
8
BLACK
6
CONTINUOUS
10
150.513
20
-101.347
11
150.451
21
-101.475
0
LINE
8
BLACK
6
CONTINUOUS
10
150.451
20
-101.475
11
150.355
21
-101.581
0
LINE
8
BLACK
6
CONTINUOUS
10
150.355
20
-101.581
11
150.233
21
-101.655
0
LINE
8
BLACK
6
CONTINUOUS
10
150.233
20
-101.655
11
150.096
21
-101.693
0
LINE
8
BLACK
6
CONTINUOUS
10
150.096
20
-101.693
11
149.953
21
-101.69
0
LINE
8
BLACK
6
CONTINUOUS
10
149.953
20
-101.69
11
149.817
21
-101.648
0
LINE
8
BLACK
6
CONTINUOUS
10
149.817
20
-101.648
11
149.698
21
-101.569
0
LINE
8
BLACK
6
CONTINUOUS
10
149.698
20
-101.569
11
149.606
21
-101.46
0
LINE
8
BLACK
6
CONTINUOUS
10
149.606
20
-101.46
11
149.549
21
-101.329
0
LINE
8
BLACK
6
CONTINUOUS
10
149.549
20
-101.329
11
149.53
21
-101.187
0
LINE
8
BLACK
6
CONTINUOUS
10
149.53
20
-101.187
11
149.552
21
-101.046
0
LINE
8
BLACK
6
CONTINUOUS
10
149.552
20
-101.046
11
149.585
21
-100.978
0
LINE
8
BLACK
6
CONTINUOUS
10
149.585
20
-100.978
11
149.584
21
-100.973
0
LINE
8
BLACK
6
CONTINUOUS
10
149.584
20
-100.973
11
149.576
21
-100.94
0
LINE
8
BLACK
6
CONTINUOUS
10
149.576
20
-100.94
11
149.576
21
-94.9278
0
LINE
8
BLACK
6
CONTINUOUS
10
149.576
20
-94.9278
11
148.425
21
-93.7768
0
LINE
8
BLACK
6
CONTINUOUS
10
148.425
20
-93.7768
11
142.244
21
-93.7768
0
LINE
8
BLACK
6
CONTINUOUS
10
142.244
20
-93.7768
11
142.109
21
-93.9118
0
LINE
8
BLACK
6
CONTINUOUS
10
142.109
20
-93.9118
11
142.109
21
-95.2756
0
LINE
8
BLACK
6
CONTINUOUS
10
142.109
20
-95.2756
11
142.706
21
-95.2756
0
LINE
8
BLACK
6
CONTINUOUS
10
142.706
20
-95.2756
11
142.706
21
-96.5756
0
LINE
8
BLACK
6
CONTINUOUS
10
142.706
20
-96.5756
11
141.106
21
-96.5756
0
LINE
8
BLACK
6
CONTINUOUS
10
141.106
20
-96.5756
11
141.106
21
-95.2756
0
LINE
8
BLACK
6
CONTINUOUS
10
141.106
20
-95.2756
11
141.702
21
-95.2756
0
LINE
8
BLACK
6
CONTINUOUS
10
141.702
20
-95.2756
11
141.702
21
-93.8272
0
LINE
8
BLACK
6
CONTINUOUS
10
141.702
20
-93.8272
11
141.71
21
-93.7942
0
LINE
8
BLACK
6
CONTINUOUS
10
141.71
20
-93.7942
11
141.714
21
-93.7604
0
LINE
8
BLACK
6
CONTINUOUS
10
141.714
20
-93.7604
11
141.72
21
-93.7505
0
LINE
8
BLACK
6
CONTINUOUS
10
141.72
20
-93.7505
11
141.723
21
-93.7392
0
LINE
8
BLACK
6
CONTINUOUS
10
141.723
20
-93.7392
11
141.744
21
-93.7127
0
LINE
8
BLACK
6
CONTINUOUS
10
141.744
20
-93.7127
11
141.762
21
-93.6839
0
LINE
8
BLACK
6
CONTINUOUS
10
141.762
20
-93.6839
11
142.016
21
-93.4297
0
LINE
8
BLACK
6
CONTINUOUS
10
142.016
20
-93.4297
11
142.045
21
-93.4117
0
LINE
8
BLACK
6
CONTINUOUS
10
142.045
20
-93.4117
11
142.071
21
-93.3905
0
LINE
8
BLACK
6
CONTINUOUS
10
142.071
20
-93.3905
11
142.083
21
-93.3879
0
LINE
8
BLACK
6
CONTINUOUS
10
142.083
20
-93.3879
11
142.093
21
-93.3817
0
LINE
8
BLACK
6
CONTINUOUS
10
142.093
20
-93.3817
11
142.127
21
-93.3779
0
LINE
8
BLACK
6
CONTINUOUS
10
142.127
20
-93.3779
11
142.16
21
-93.3704
0
LINE
8
BLACK
6
CONTINUOUS
10
142.16
20
-93.3704
11
148.51
21
-93.3704
0
LINE
8
BLACK
6
CONTINUOUS
10
148.51
20
-93.3704
11
148.543
21
-93.378
0
LINE
8
BLACK
6
CONTINUOUS
10
169.922
20
-98.4504
11
173.894
21
-98.4504
0
LINE
8
BLACK
6
CONTINUOUS
10
173.894
20
-98.4504
11
173.903
21
-98.4169
0
LINE
8
BLACK
6
CONTINUOUS
10
173.903
20
-98.4169
11
173.977
21
-98.2767
0
LINE
8
BLACK
6
CONTINUOUS
10
173.977
20
-98.2767
11
174.082
21
-98.1582
0
LINE
8
BLACK
6
CONTINUOUS
10
174.082
20
-98.1582
11
174.213
21
-98.0684
0
LINE
8
BLACK
6
CONTINUOUS
10
174.213
20
-98.0684
11
174.362
21
-98.0123
0
LINE
8
BLACK
6
CONTINUOUS
10
174.362
20
-98.0123
11
174.519
21
-97.9932
0
LINE
8
BLACK
6
CONTINUOUS
10
174.519
20
-97.9932
11
175.84
21
-97.9932
0
LINE
8
BLACK
6
CONTINUOUS
10
175.84
20
-97.9932
11
175.847
21
-97.9932
0
LINE
8
BLACK
6
CONTINUOUS
10
175.847
20
-97.9932
11
176.004
21
-98.0139
0
LINE
8
BLACK
6
CONTINUOUS
10
176.004
20
-98.0139
11
176.152
21
-98.0716
0
LINE
8
BLACK
6
CONTINUOUS
10
176.152
20
-98.0716
11
176.282
21
-98.1628
0
LINE
8
BLACK
6
CONTINUOUS
10
176.282
20
-98.1628
11
176.386
21
-98.2824
0
LINE
8
BLACK
6
CONTINUOUS
10
176.386
20
-98.2824
11
176.459
21
-98.4234
0
LINE
8
BLACK
6
CONTINUOUS
10
176.459
20
-98.4234
11
176.496
21
-98.5777
0
LINE
8
BLACK
6
CONTINUOUS
10
176.496
20
-98.5777
11
176.495
21
-98.7364
0
LINE
8
BLACK
6
CONTINUOUS
10
176.495
20
-98.7364
11
176.457
21
-98.8903
0
LINE
8
BLACK
6
CONTINUOUS
10
176.457
20
-98.8903
11
176.382
21
-99.0305
0
LINE
8
BLACK
6
CONTINUOUS
10
176.382
20
-99.0305
11
176.277
21
-99.149
0
LINE
8
BLACK
6
CONTINUOUS
10
176.277
20
-99.149
11
176.146
21
-99.2388
0
LINE
8
BLACK
6
CONTINUOUS
10
176.146
20
-99.2388
11
175.998
21
-99.2949
0
LINE
8
BLACK
6
CONTINUOUS
10
175.998
20
-99.2949
11
175.84
21
-99.314
0
LINE
8
BLACK
6
CONTINUOUS
10
175.84
20
-99.314
11
174.519
21
-99.314
0
LINE
8
BLACK
6
CONTINUOUS
10
174.519
20
-99.314
11
174.512
21
-99.314
0
LINE
8
BLACK
6
CONTINUOUS
10
174.512
20
-99.314
11
174.355
21
-99.2933
0
LINE
8
BLACK
6
CONTINUOUS
10
174.355
20
-99.2933
11
174.207
21
-99.2356
0
LINE
8
BLACK
6
CONTINUOUS
10
174.207
20
-99.2356
11
174.077
21
-99.1444
0
LINE
8
BLACK
6
CONTINUOUS
10
174.077
20
-99.1444
11
173.973
21
-99.0248
0
LINE
8
BLACK
6
CONTINUOUS
10
173.973
20
-99.0248
11
173.9
21
-98.8838
0
LINE
8
BLACK
6
CONTINUOUS
10
173.9
20
-98.8838
11
173.894
21
-98.8568
0
LINE
8
BLACK
6
CONTINUOUS
10
173.894
20
-98.8568
11
169.922
21
-98.8568
0
LINE
8
BLACK
6
CONTINUOUS
10
169.922
20
-98.8568
11
169.922
21
-99.4536
0
LINE
8
BLACK
6
CONTINUOUS
10
169.922
20
-99.4536
11
168.622
21
-99.4536
0
LINE
8
BLACK
6
CONTINUOUS
10
168.622
20
-99.4536
11
168.622
21
-97.8536
0
LINE
8
BLACK
6
CONTINUOUS
10
168.622
20
-97.8536
11
169.922
21
-97.8536
0
LINE
8
BLACK
6
CONTINUOUS
10
169.922
20
-97.8536
11
169.922
21
-98.4504
0
LINE
8
BLACK
6
CONTINUOUS
10
151.083
20
-92.108
11
151.117
21
-92.1118
0
LINE
8
BLACK
6
CONTINUOUS
10
151.117
20
-92.1118
11
151.127
21
-92.118
0
LINE
8
BLACK
6
CONTINUOUS
10
151.127
20
-92.118
11
151.138
21
-92.1207
0
LINE
8
BLACK
6
CONTINUOUS
10
151.138
20
-92.1207
11
151.165
21
-92.1419
0
LINE
8
BLACK
6
CONTINUOUS
10
151.165
20
-92.1419
11
151.193
21
-92.1599
0
LINE
8
BLACK
6
CONTINUOUS
10
151.193
20
-92.1599
11
154.242
21
-95.2082
0
LINE
8
BLACK
6
CONTINUOUS
10
154.242
20
-95.2082
11
154.26
21
-95.2369
0
LINE
8
BLACK
6
CONTINUOUS
10
154.26
20
-95.2369
11
154.281
21
-95.2635
0
LINE
8
BLACK
6
CONTINUOUS
10
154.281
20
-95.2635
11
154.283
21
-95.2749
0
LINE
8
BLACK
6
CONTINUOUS
10
154.283
20
-95.2749
11
154.29
21
-95.2848
0
LINE
8
BLACK
6
CONTINUOUS
10
154.29
20
-95.2848
11
154.293
21
-95.3185
0
LINE
8
BLACK
6
CONTINUOUS
10
154.293
20
-95.3185
11
154.301
21
-95.3516
0
LINE
8
BLACK
6
CONTINUOUS
10
154.301
20
-95.3516
11
154.301
21
-98.1945
0
LINE
8
BLACK
6
CONTINUOUS
10
154.301
20
-98.1945
11
154.309
21
-98.1968
0
LINE
8
BLACK
6
CONTINUOUS
10
154.309
20
-98.1968
11
154.428
21
-98.2744
0
LINE
8
BLACK
6
CONTINUOUS
10
154.428
20
-98.2744
11
154.522
21
-98.3825
0
LINE
8
BLACK
6
CONTINUOUS
10
154.522
20
-98.3825
11
154.581
21
-98.5124
0
LINE
8
BLACK
6
CONTINUOUS
10
154.581
20
-98.5124
11
154.601
21
-98.6536
0
LINE
8
BLACK
6
CONTINUOUS
10
154.601
20
-98.6536
11
154.601
21
-98.6659
0
LINE
8
BLACK
6
CONTINUOUS
10
154.601
20
-98.6659
11
154.577
21
-98.8066
0
LINE
8
BLACK
6
CONTINUOUS
10
154.577
20
-98.8066
11
154.515
21
-98.935
0
LINE
8
BLACK
6
CONTINUOUS
10
154.515
20
-98.935
11
154.419
21
-99.0408
0
LINE
8
BLACK
6
CONTINUOUS
10
154.419
20
-99.0408
11
154.297
21
-99.1154
0
LINE
8
BLACK
6
CONTINUOUS
10
154.297
20
-99.1154
11
154.16
21
-99.1529
0
LINE
8
BLACK
6
CONTINUOUS
10
154.16
20
-99.1529
11
154.017
21
-99.1503
0
LINE
8
BLACK
6
CONTINUOUS
10
154.017
20
-99.1503
11
153.881
21
-99.1078
0
LINE
8
BLACK
6
CONTINUOUS
10
153.881
20
-99.1078
11
153.762
21
-99.0287
0
LINE
8
BLACK
6
CONTINUOUS
10
153.762
20
-99.0287
11
153.67
21
-98.9195
0
LINE
8
BLACK
6
CONTINUOUS
10
153.67
20
-98.9195
11
153.613
21
-98.7889
0
LINE
8
BLACK
6
CONTINUOUS
10
153.613
20
-98.7889
11
153.594
21
-98.6475
0
LINE
8
BLACK
6
CONTINUOUS
10
153.594
20
-98.6475
11
153.616
21
-98.5065
0
LINE
8
BLACK
6
CONTINUOUS
10
153.616
20
-98.5065
11
153.677
21
-98.3773
0
LINE
8
BLACK
6
CONTINUOUS
10
153.677
20
-98.3773
11
153.771
21
-98.2704
0
LINE
8
BLACK
6
CONTINUOUS
10
153.771
20
-98.2704
11
153.892
21
-98.1943
0
LINE
8
BLACK
6
CONTINUOUS
10
153.892
20
-98.1943
11
153.894
21
-98.1936
0
LINE
8
BLACK
6
CONTINUOUS
10
153.894
20
-98.1936
11
153.894
21
-95.4358
0
LINE
8
BLACK
6
CONTINUOUS
10
153.894
20
-95.4358
11
150.965
21
-92.5068
0
LINE
8
BLACK
6
CONTINUOUS
10
150.965
20
-92.5068
11
139.704
21
-92.5068
0
LINE
8
BLACK
6
CONTINUOUS
10
139.704
20
-92.5068
11
138.045
21
-94.1658
0
LINE
8
BLACK
6
CONTINUOUS
10
138.045
20
-94.1658
11
138.045
21
-95.2756
0
LINE
8
BLACK
6
CONTINUOUS
10
138.045
20
-95.2756
11
138.642
21
-95.2756
0
LINE
8
BLACK
6
CONTINUOUS
10
138.642
20
-95.2756
11
138.642
21
-96.5756
0
LINE
8
BLACK
6
CONTINUOUS
10
138.642
20
-96.5756
11
137.042
21
-96.5756
0
LINE
8
BLACK
6
CONTINUOUS
10
137.042
20
-96.5756
11
137.042
21
-95.2756
0
LINE
8
BLACK
6
CONTINUOUS
10
137.042
20
-95.2756
11
137.638
21
-95.2756
0
LINE
8
BLACK
6
CONTINUOUS
10
137.638
20
-95.2756
11
137.638
21
-94.0812
0
LINE
8
BLACK
6
CONTINUOUS
10
137.638
20
-94.0812
11
137.646
21
-94.0482
0
LINE
8
BLACK
6
CONTINUOUS
10
137.646
20
-94.0482
11
137.65
21
-94.0144
0
LINE
8
BLACK
6
CONTINUOUS
10
137.65
20
-94.0144
11
137.656
21
-94.0045
0
LINE
8
BLACK
6
CONTINUOUS
10
137.656
20
-94.0045
11
137.659
21
-93.9932
0
LINE
8
BLACK
6
CONTINUOUS
10
137.659
20
-93.9932
11
137.68
21
-93.9667
0
LINE
8
BLACK
6
CONTINUOUS
10
137.68
20
-93.9667
11
137.698
21
-93.9379
0
LINE
8
BLACK
6
CONTINUOUS
10
137.698
20
-93.9379
11
139.476
21
-92.1597
0
LINE
8
BLACK
6
CONTINUOUS
10
139.476
20
-92.1597
11
139.505
21
-92.1417
0
LINE
8
BLACK
6
CONTINUOUS
10
139.505
20
-92.1417
11
139.531
21
-92.1205
0
LINE
8
BLACK
6
CONTINUOUS
10
139.531
20
-92.1205
11
139.543
21
-92.1179
0
LINE
8
BLACK
6
CONTINUOUS
10
139.543
20
-92.1179
11
139.553
21
-92.1117
0
LINE
8
BLACK
6
CONTINUOUS
10
139.553
20
-92.1117
11
139.587
21
-92.1079
0
LINE
8
BLACK
6
CONTINUOUS
10
139.587
20
-92.1079
11
139.62
21
-92.1004
0
LINE
8
BLACK
6
CONTINUOUS
10
139.62
20
-92.1004
11
151.05
21
-92.1004
0
LINE
8
BLACK
6
CONTINUOUS
10
151.05
20
-92.1004
11
151.083
21
-92.108
0
LINE
8
BLACK
6
CONTINUOUS
10
169.922
20
-95.9104
11
173.894
21
-95.9104
0
LINE
8
BLACK
6
CONTINUOUS
10
173.894
20
-95.9104
11
173.903
21
-95.8769
0
LINE
8
BLACK
6
CONTINUOUS
10
173.903
20
-95.8769
11
173.977
21
-95.7367
0
LINE
8
BLACK
6
CONTINUOUS
10
173.977
20
-95.7367
11
174.082
21
-95.6182
0
LINE
8
BLACK
6
CONTINUOUS
10
174.082
20
-95.6182
11
174.213
21
-95.5284
0
LINE
8
BLACK
6
CONTINUOUS
10
174.213
20
-95.5284
11
174.362
21
-95.4723
0
LINE
8
BLACK
6
CONTINUOUS
10
174.362
20
-95.4723
11
174.519
21
-95.4532
0
LINE
8
BLACK
6
CONTINUOUS
10
174.519
20
-95.4532
11
175.84
21
-95.4532
0
LINE
8
BLACK
6
CONTINUOUS
10
175.84
20
-95.4532
11
175.847
21
-95.4532
0
LINE
8
BLACK
6
CONTINUOUS
10
175.847
20
-95.4532
11
176.004
21
-95.4739
0
LINE
8
BLACK
6
CONTINUOUS
10
176.004
20
-95.4739
11
176.152
21
-95.5316
0
LINE
8
BLACK
6
CONTINUOUS
10
176.152
20
-95.5316
11
176.282
21
-95.6228
0
LINE
8
BLACK
6
CONTINUOUS
10
176.282
20
-95.6228
11
176.386
21
-95.7424
0
LINE
8
BLACK
6
CONTINUOUS
10
176.386
20
-95.7424
11
176.459
21
-95.8834
0
LINE
8
BLACK
6
CONTINUOUS
10
176.459
20
-95.8834
11
176.496
21
-96.0377
0
LINE
8
BLACK
6
CONTINUOUS
10
176.496
20
-96.0377
11
176.495
21
-96.1964
0
LINE
8
BLACK
6
CONTINUOUS
10
176.495
20
-96.1964
11
176.457
21
-96.3503
0
LINE
8
BLACK
6
CONTINUOUS
10
176.457
20
-96.3503
11
176.382
21
-96.4905
0
LINE
8
BLACK
6
CONTINUOUS
10
176.382
20
-96.4905
11
176.277
21
-96.609
0
LINE
8
BLACK
6
CONTINUOUS
10
176.277
20
-96.609
11
176.146
21
-96.6988
0
LINE
8
BLACK
6
CONTINUOUS
10
176.146
20
-96.6988
11
175.998
21
-96.7549
0
LINE
8
BLACK
6
CONTINUOUS
10
175.998
20
-96.7549
11
175.84
21
-96.774
0
LINE
8
BLACK
6
CONTINUOUS
10
175.84
20
-96.774
11
174.519
21
-96.774
0
LINE
8
BLACK
6
CONTINUOUS
10
174.519
20
-96.774
11
174.512
21
-96.774
0
LINE
8
BLACK
6
CONTINUOUS
10
174.512
20
-96.774
11
174.355
21
-96.7533
0
LINE
8
BLACK
6
CONTINUOUS
10
174.355
20
-96.7533
11
174.207
21
-96.6956
0
LINE
8
BLACK
6
CONTINUOUS
10
174.207
20
-96.6956
11
174.077
21
-96.6044
0
LINE
8
BLACK
6
CONTINUOUS
10
174.077
20
-96.6044
11
173.973
21
-96.4848
0
LINE
8
BLACK
6
CONTINUOUS
10
173.973
20
-96.4848
11
173.9
21
-96.3438
0
LINE
8
BLACK
6
CONTINUOUS
10
173.9
20
-96.3438
11
173.894
21
-96.3168
0
LINE
8
BLACK
6
CONTINUOUS
10
173.894
20
-96.3168
11
169.922
21
-96.3168
0
LINE
8
BLACK
6
CONTINUOUS
10
169.922
20
-96.3168
11
169.922
21
-96.9136
0
LINE
8
BLACK
6
CONTINUOUS
10
169.922
20
-96.9136
11
168.622
21
-96.9136
0
LINE
8
BLACK
6
CONTINUOUS
10
168.622
20
-96.9136
11
168.622
21
-95.3136
0
LINE
8
BLACK
6
CONTINUOUS
10
168.622
20
-95.3136
11
169.922
21
-95.3136
0
LINE
8
BLACK
6
CONTINUOUS
10
169.922
20
-95.3136
11
169.922
21
-95.9104
0
LINE
8
BLACK
6
CONTINUOUS
10
144.738
20
-95.7224
11
147.688
21
-95.7224
0
LINE
8
BLACK
6
CONTINUOUS
10
147.688
20
-95.7224
11
147.796
21
-95.6543
0
LINE
8
BLACK
6
CONTINUOUS
10
147.796
20
-95.6543
11
147.933
21
-95.6151
0
LINE
8
BLACK
6
CONTINUOUS
10
147.933
20
-95.6151
11
148.076
21
-95.6159
0
LINE
8
BLACK
6
CONTINUOUS
10
148.076
20
-95.6159
11
148.213
21
-95.6568
0
LINE
8
BLACK
6
CONTINUOUS
10
148.213
20
-95.6568
11
148.332
21
-95.7344
0
LINE
8
BLACK
6
CONTINUOUS
10
148.332
20
-95.7344
11
148.426
21
-95.8425
0
LINE
8
BLACK
6
CONTINUOUS
10
148.426
20
-95.8425
11
148.485
21
-95.9724
0
LINE
8
BLACK
6
CONTINUOUS
10
148.485
20
-95.9724
11
148.505
21
-96.1136
0
LINE
8
BLACK
6
CONTINUOUS
10
148.505
20
-96.1136
11
148.505
21
-96.1259
0
LINE
8
BLACK
6
CONTINUOUS
10
148.505
20
-96.1259
11
148.481
21
-96.2666
0
LINE
8
BLACK
6
CONTINUOUS
10
148.481
20
-96.2666
11
148.419
21
-96.395
0
LINE
8
BLACK
6
CONTINUOUS
10
148.419
20
-96.395
11
148.323
21
-96.5008
0
LINE
8
BLACK
6
CONTINUOUS
10
148.323
20
-96.5008
11
148.201
21
-96.5754
0
LINE
8
BLACK
6
CONTINUOUS
10
148.201
20
-96.5754
11
148.064
21
-96.6129
0
LINE
8
BLACK
6
CONTINUOUS
10
148.064
20
-96.6129
11
147.921
21
-96.6103
0
LINE
8
BLACK
6
CONTINUOUS
10
147.921
20
-96.6103
11
147.785
21
-96.5678
0
LINE
8
BLACK
6
CONTINUOUS
10
147.785
20
-96.5678
11
147.666
21
-96.4887
0
LINE
8
BLACK
6
CONTINUOUS
10
147.666
20
-96.4887
11
147.574
21
-96.3795
0
LINE
8
BLACK
6
CONTINUOUS
10
147.574
20
-96.3795
11
147.517
21
-96.2489
0
LINE
8
BLACK
6
CONTINUOUS
10
147.517
20
-96.2489
11
147.501
21
-96.1288
0
LINE
8
BLACK
6
CONTINUOUS
10
147.501
20
-96.1288
11
144.738
21
-96.1288
0
LINE
8
BLACK
6
CONTINUOUS
10
144.738
20
-96.1288
11
144.738
21
-96.5756
0
LINE
8
BLACK
6
CONTINUOUS
10
144.738
20
-96.5756
11
143.138
21
-96.5756
0
LINE
8
BLACK
6
CONTINUOUS
10
143.138
20
-96.5756
11
143.138
21
-95.2756
0
LINE
8
BLACK
6
CONTINUOUS
10
143.138
20
-95.2756
11
144.738
21
-95.2756
0
LINE
8
BLACK
6
CONTINUOUS
10
144.738
20
-95.2756
11
144.738
21
-95.7224
0
CIRCLE
8
BLACK
10
148.002
20
-96.1136
40
0.3
0
CIRCLE
8
BLACK
10
154.098
20
-98.6536
40
0.3
0
CIRCLE
8
BLACK
10
150.034
20
-101.194
40
0.3
0
CIRCLE
8
BLACK
10
152.066
20
-103.734
40
0.3
0
CIRCLE
8
BLACK
10
157.908
20
-106.274
40
0.3
0
CIRCLE
8
BLACK
10
159.686
20
-108.814
40
0.3
  0
ENDSEC
  0
EOF
