  0
SECTION
  2
HEADER
  9
$ANGBASE
  50
0.0
  9
$ANGDIR
  70
1
  9
$MEASUREMENT
  70
1
  0
ENDSEC
  0
SECTION
  2
TABLES
  0
TABLE
  2
LTYPE
  70
4
  0
LTYPE
  5
40F
  2
CONTINUOUS
  70
0
  3
Solid line
  72
65
  73
0
  40
0.0
  0
LTYPE
  5
410
  2
DASHDOT
 70
0
  3
Dash Dot ____ _ ____ _
 72
65
 73
4
 40
2.0
 49
1.25
 49
-0.25
 49
0.25
 49
-0.25
  0
LTYPE
  5
411
  2
DASHED
 70
0
  3
Dashed __ __ __ __ __
 72
65
 73
2
 40
0.75
 49
0.5
 49
-0.25
  0
LTYPE
  5
43B
  2
DOTTED
 70
0
  3
Dotted .  .  .  .
 72
65
 73
2
 40
0.2
 49
0.0
 49
-0.2
  0
ENDTAB
  0
TABLE
  2
STYLE
  70
4
  0
STYLE
  2
KICAD
  70
0
  40
0
  41
1
  42
1
  50
0
  71
0
  3
isocp.shx
  0
STYLE
  2
KICADB
  70
0
  40
0
  41
1
  42
1
  50
0
  71
0
  3
isocp.shx
  0
STYLE
  2
KICADI
  70
0
  40
0
  41
1
  42
1
  50
15
  71
0
  3
isocp.shx
  0
STYLE
  2
KICADBI
  70
0
  40
0
  41
1
  42
1
  50
15
  71
0
  3
isocp.shx
  0
ENDTAB
  0
TABLE
  2
LAYER
  70
1
  0
LAYER
  2
BLACK
  70
0
  62
7
  6
CONTINUOUS
  0
ENDTAB
  0
ENDSEC
  0
SECTION
  2
ENTITIES
0
LINE
8
BLACK
6
CONTINUOUS
10
128.202
20
-103.775
11
128.35
21
-103.845
0
LINE
8
BLACK
6
CONTINUOUS
10
128.35
20
-103.845
11
128.476
21
-103.949
0
LINE
8
BLACK
6
CONTINUOUS
10
128.476
20
-103.949
11
128.573
21
-104.082
0
LINE
8
BLACK
6
CONTINUOUS
10
128.573
20
-104.082
11
128.633
21
-104.234
0
LINE
8
BLACK
6
CONTINUOUS
10
128.633
20
-104.234
11
128.654
21
-104.397
0
LINE
8
BLACK
6
CONTINUOUS
10
128.654
20
-104.397
11
128.654
21
-105.705
0
LINE
8
BLACK
6
CONTINUOUS
10
128.654
20
-105.705
11
128.648
21
-105.787
0
LINE
8
BLACK
6
CONTINUOUS
10
128.648
20
-105.787
11
128.608
21
-105.946
0
LINE
8
BLACK
6
CONTINUOUS
10
128.608
20
-105.946
11
128.529
21
-106.09
0
LINE
8
BLACK
6
CONTINUOUS
10
128.529
20
-106.09
11
128.416
21
-106.209
0
LINE
8
BLACK
6
CONTINUOUS
10
128.416
20
-106.209
11
128.342
21
-106.256
0
LINE
8
BLACK
6
CONTINUOUS
10
128.342
20
-106.256
11
128.342
21
-113.487
0
LINE
8
BLACK
6
CONTINUOUS
10
128.342
20
-113.487
11
174.003
21
-113.487
0
LINE
8
BLACK
6
CONTINUOUS
10
174.003
20
-113.487
11
174.082
21
-113.398
0
LINE
8
BLACK
6
CONTINUOUS
10
174.082
20
-113.398
11
174.213
21
-113.308
0
LINE
8
BLACK
6
CONTINUOUS
10
174.213
20
-113.308
11
174.362
21
-113.252
0
LINE
8
BLACK
6
CONTINUOUS
10
174.362
20
-113.252
11
174.519
21
-113.233
0
LINE
8
BLACK
6
CONTINUOUS
10
174.519
20
-113.233
11
175.84
21
-113.233
0
LINE
8
BLACK
6
CONTINUOUS
10
175.84
20
-113.233
11
175.847
21
-113.233
0
LINE
8
BLACK
6
CONTINUOUS
10
175.847
20
-113.233
11
176.004
21
-113.254
0
LINE
8
BLACK
6
CONTINUOUS
10
176.004
20
-113.254
11
176.152
21
-113.312
0
LINE
8
BLACK
6
CONTINUOUS
10
176.152
20
-113.312
11
176.282
21
-113.403
0
LINE
8
BLACK
6
CONTINUOUS
10
176.282
20
-113.403
11
176.386
21
-113.522
0
LINE
8
BLACK
6
CONTINUOUS
10
176.386
20
-113.522
11
176.459
21
-113.663
0
LINE
8
BLACK
6
CONTINUOUS
10
176.459
20
-113.663
11
176.496
21
-113.818
0
LINE
8
BLACK
6
CONTINUOUS
10
176.496
20
-113.818
11
176.495
21
-113.976
0
LINE
8
BLACK
6
CONTINUOUS
10
176.495
20
-113.976
11
176.457
21
-114.13
0
LINE
8
BLACK
6
CONTINUOUS
10
176.457
20
-114.13
11
176.382
21
-114.27
0
LINE
8
BLACK
6
CONTINUOUS
10
176.382
20
-114.27
11
176.277
21
-114.389
0
LINE
8
BLACK
6
CONTINUOUS
10
176.277
20
-114.389
11
176.146
21
-114.479
0
LINE
8
BLACK
6
CONTINUOUS
10
176.146
20
-114.479
11
175.998
21
-114.535
0
LINE
8
BLACK
6
CONTINUOUS
10
175.998
20
-114.535
11
175.84
21
-114.554
0
LINE
8
BLACK
6
CONTINUOUS
10
175.84
20
-114.554
11
174.519
21
-114.554
0
LINE
8
BLACK
6
CONTINUOUS
10
174.519
20
-114.554
11
174.512
21
-114.554
0
LINE
8
BLACK
6
CONTINUOUS
10
174.512
20
-114.554
11
174.355
21
-114.533
0
LINE
8
BLACK
6
CONTINUOUS
10
174.355
20
-114.533
11
174.207
21
-114.476
0
LINE
8
BLACK
6
CONTINUOUS
10
174.207
20
-114.476
11
174.077
21
-114.384
0
LINE
8
BLACK
6
CONTINUOUS
10
174.077
20
-114.384
11
174.004
21
-114.3
0
LINE
8
BLACK
6
CONTINUOUS
10
174.004
20
-114.3
11
127.936
21
-114.3
0
LINE
8
BLACK
6
CONTINUOUS
10
127.936
20
-114.3
11
127.81
21
-114.28
0
LINE
8
BLACK
6
CONTINUOUS
10
127.81
20
-114.28
11
127.697
21
-114.222
0
LINE
8
BLACK
6
CONTINUOUS
10
127.697
20
-114.222
11
127.607
21
-114.132
0
LINE
8
BLACK
6
CONTINUOUS
10
127.607
20
-114.132
11
127.549
21
-114.019
0
LINE
8
BLACK
6
CONTINUOUS
10
127.549
20
-114.019
11
127.529
21
-113.894
0
LINE
8
BLACK
6
CONTINUOUS
10
127.529
20
-113.894
11
127.529
21
-106.158
0
LINE
8
BLACK
6
CONTINUOUS
10
127.529
20
-106.158
11
127.523
21
-106.153
0
LINE
8
BLACK
6
CONTINUOUS
10
127.523
20
-106.153
11
127.427
21
-106.02
0
LINE
8
BLACK
6
CONTINUOUS
10
127.427
20
-106.02
11
127.366
21
-105.868
0
LINE
8
BLACK
6
CONTINUOUS
10
127.366
20
-105.868
11
127.346
21
-105.705
0
LINE
8
BLACK
6
CONTINUOUS
10
127.346
20
-105.705
11
127.346
21
-104.397
0
LINE
8
BLACK
6
CONTINUOUS
10
127.346
20
-104.397
11
127.351
21
-104.315
0
LINE
8
BLACK
6
CONTINUOUS
10
127.351
20
-104.315
11
127.392
21
-104.156
0
LINE
8
BLACK
6
CONTINUOUS
10
127.392
20
-104.156
11
127.471
21
-104.013
0
LINE
8
BLACK
6
CONTINUOUS
10
127.471
20
-104.013
11
127.583
21
-103.893
0
LINE
8
BLACK
6
CONTINUOUS
10
127.583
20
-103.893
11
127.721
21
-103.805
0
LINE
8
BLACK
6
CONTINUOUS
10
127.721
20
-103.805
11
127.877
21
-103.755
0
LINE
8
BLACK
6
CONTINUOUS
10
127.877
20
-103.755
11
128.041
21
-103.744
0
LINE
8
BLACK
6
CONTINUOUS
10
128.041
20
-103.744
11
128.202
21
-103.775
0
LINE
8
BLACK
6
CONTINUOUS
10
175.847
20
-110.693
11
176.004
21
-110.714
0
LINE
8
BLACK
6
CONTINUOUS
10
176.004
20
-110.714
11
176.152
21
-110.772
0
LINE
8
BLACK
6
CONTINUOUS
10
176.152
20
-110.772
11
176.282
21
-110.863
0
LINE
8
BLACK
6
CONTINUOUS
10
176.282
20
-110.863
11
176.386
21
-110.982
0
LINE
8
BLACK
6
CONTINUOUS
10
176.386
20
-110.982
11
176.459
21
-111.123
0
LINE
8
BLACK
6
CONTINUOUS
10
176.459
20
-111.123
11
176.496
21
-111.278
0
LINE
8
BLACK
6
CONTINUOUS
10
176.496
20
-111.278
11
176.495
21
-111.436
0
LINE
8
BLACK
6
CONTINUOUS
10
176.495
20
-111.436
11
176.457
21
-111.59
0
LINE
8
BLACK
6
CONTINUOUS
10
176.457
20
-111.59
11
176.382
21
-111.73
0
LINE
8
BLACK
6
CONTINUOUS
10
176.382
20
-111.73
11
176.277
21
-111.849
0
LINE
8
BLACK
6
CONTINUOUS
10
176.277
20
-111.849
11
176.146
21
-111.939
0
LINE
8
BLACK
6
CONTINUOUS
10
176.146
20
-111.939
11
175.998
21
-111.995
0
LINE
8
BLACK
6
CONTINUOUS
10
175.998
20
-111.995
11
175.84
21
-112.014
0
LINE
8
BLACK
6
CONTINUOUS
10
175.84
20
-112.014
11
174.519
21
-112.014
0
LINE
8
BLACK
6
CONTINUOUS
10
174.519
20
-112.014
11
174.512
21
-112.014
0
LINE
8
BLACK
6
CONTINUOUS
10
174.512
20
-112.014
11
174.355
21
-111.993
0
LINE
8
BLACK
6
CONTINUOUS
10
174.355
20
-111.993
11
174.207
21
-111.936
0
LINE
8
BLACK
6
CONTINUOUS
10
174.207
20
-111.936
11
174.077
21
-111.844
0
LINE
8
BLACK
6
CONTINUOUS
10
174.077
20
-111.844
11
173.973
21
-111.725
0
LINE
8
BLACK
6
CONTINUOUS
10
173.973
20
-111.725
11
173.9
21
-111.584
0
LINE
8
BLACK
6
CONTINUOUS
10
173.9
20
-111.584
11
173.863
21
-111.43
0
LINE
8
BLACK
6
CONTINUOUS
10
173.863
20
-111.43
11
173.864
21
-111.271
0
LINE
8
BLACK
6
CONTINUOUS
10
173.864
20
-111.271
11
173.903
21
-111.117
0
LINE
8
BLACK
6
CONTINUOUS
10
173.903
20
-111.117
11
173.977
21
-110.977
0
LINE
8
BLACK
6
CONTINUOUS
10
173.977
20
-110.977
11
174.082
21
-110.858
0
LINE
8
BLACK
6
CONTINUOUS
10
174.082
20
-110.858
11
174.213
21
-110.768
0
LINE
8
BLACK
6
CONTINUOUS
10
174.213
20
-110.768
11
174.362
21
-110.712
0
LINE
8
BLACK
6
CONTINUOUS
10
174.362
20
-110.712
11
174.519
21
-110.693
0
LINE
8
BLACK
6
CONTINUOUS
10
174.519
20
-110.693
11
175.84
21
-110.693
0
LINE
8
BLACK
6
CONTINUOUS
10
175.84
20
-110.693
11
175.847
21
-110.693
0
LINE
8
BLACK
6
CONTINUOUS
10
175.847
20
-108.153
11
176.004
21
-108.174
0
LINE
8
BLACK
6
CONTINUOUS
10
176.004
20
-108.174
11
176.152
21
-108.232
0
LINE
8
BLACK
6
CONTINUOUS
10
176.152
20
-108.232
11
176.282
21
-108.323
0
LINE
8
BLACK
6
CONTINUOUS
10
176.282
20
-108.323
11
176.386
21
-108.442
0
LINE
8
BLACK
6
CONTINUOUS
10
176.386
20
-108.442
11
176.459
21
-108.583
0
LINE
8
BLACK
6
CONTINUOUS
10
176.459
20
-108.583
11
176.496
21
-108.738
0
LINE
8
BLACK
6
CONTINUOUS
10
176.496
20
-108.738
11
176.495
21
-108.896
0
LINE
8
BLACK
6
CONTINUOUS
10
176.495
20
-108.896
11
176.457
21
-109.05
0
LINE
8
BLACK
6
CONTINUOUS
10
176.457
20
-109.05
11
176.382
21
-109.19
0
LINE
8
BLACK
6
CONTINUOUS
10
176.382
20
-109.19
11
176.277
21
-109.309
0
LINE
8
BLACK
6
CONTINUOUS
10
176.277
20
-109.309
11
176.146
21
-109.399
0
LINE
8
BLACK
6
CONTINUOUS
10
176.146
20
-109.399
11
175.998
21
-109.455
0
LINE
8
BLACK
6
CONTINUOUS
10
175.998
20
-109.455
11
175.84
21
-109.474
0
LINE
8
BLACK
6
CONTINUOUS
10
175.84
20
-109.474
11
174.519
21
-109.474
0
LINE
8
BLACK
6
CONTINUOUS
10
174.519
20
-109.474
11
174.512
21
-109.474
0
LINE
8
BLACK
6
CONTINUOUS
10
174.512
20
-109.474
11
174.355
21
-109.453
0
LINE
8
BLACK
6
CONTINUOUS
10
174.355
20
-109.453
11
174.207
21
-109.396
0
LINE
8
BLACK
6
CONTINUOUS
10
174.207
20
-109.396
11
174.077
21
-109.304
0
LINE
8
BLACK
6
CONTINUOUS
10
174.077
20
-109.304
11
173.973
21
-109.185
0
LINE
8
BLACK
6
CONTINUOUS
10
173.973
20
-109.185
11
173.9
21
-109.044
0
LINE
8
BLACK
6
CONTINUOUS
10
173.9
20
-109.044
11
173.894
21
-109.017
0
LINE
8
BLACK
6
CONTINUOUS
10
173.894
20
-109.017
11
160.141
21
-109.017
0
LINE
8
BLACK
6
CONTINUOUS
10
160.141
20
-109.017
11
160.103
21
-109.095
0
LINE
8
BLACK
6
CONTINUOUS
10
160.103
20
-109.095
11
160.007
21
-109.201
0
LINE
8
BLACK
6
CONTINUOUS
10
160.007
20
-109.201
11
159.885
21
-109.275
0
LINE
8
BLACK
6
CONTINUOUS
10
159.885
20
-109.275
11
159.748
21
-109.313
0
LINE
8
BLACK
6
CONTINUOUS
10
159.748
20
-109.313
11
159.605
21
-109.31
0
LINE
8
BLACK
6
CONTINUOUS
10
159.605
20
-109.31
11
159.469
21
-109.268
0
LINE
8
BLACK
6
CONTINUOUS
10
159.469
20
-109.268
11
159.35
21
-109.189
0
LINE
8
BLACK
6
CONTINUOUS
10
159.35
20
-109.189
11
159.258
21
-109.08
0
LINE
8
BLACK
6
CONTINUOUS
10
159.258
20
-109.08
11
159.201
21
-108.949
0
LINE
8
BLACK
6
CONTINUOUS
10
159.201
20
-108.949
11
159.182
21
-108.807
0
LINE
8
BLACK
6
CONTINUOUS
10
159.182
20
-108.807
11
159.204
21
-108.666
0
LINE
8
BLACK
6
CONTINUOUS
10
159.204
20
-108.666
11
159.265
21
-108.537
0
LINE
8
BLACK
6
CONTINUOUS
10
159.265
20
-108.537
11
159.359
21
-108.43
0
LINE
8
BLACK
6
CONTINUOUS
10
159.359
20
-108.43
11
159.48
21
-108.354
0
LINE
8
BLACK
6
CONTINUOUS
10
159.48
20
-108.354
11
159.617
21
-108.315
0
LINE
8
BLACK
6
CONTINUOUS
10
159.617
20
-108.315
11
159.76
21
-108.316
0
LINE
8
BLACK
6
CONTINUOUS
10
159.76
20
-108.316
11
159.897
21
-108.357
0
LINE
8
BLACK
6
CONTINUOUS
10
159.897
20
-108.357
11
160.016
21
-108.434
0
LINE
8
BLACK
6
CONTINUOUS
10
160.016
20
-108.434
11
160.11
21
-108.542
0
LINE
8
BLACK
6
CONTINUOUS
10
160.11
20
-108.542
11
160.14
21
-108.61
0
LINE
8
BLACK
6
CONTINUOUS
10
160.14
20
-108.61
11
173.894
21
-108.61
0
LINE
8
BLACK
6
CONTINUOUS
10
173.894
20
-108.61
11
173.903
21
-108.577
0
LINE
8
BLACK
6
CONTINUOUS
10
173.903
20
-108.577
11
173.977
21
-108.437
0
LINE
8
BLACK
6
CONTINUOUS
10
173.977
20
-108.437
11
174.082
21
-108.318
0
LINE
8
BLACK
6
CONTINUOUS
10
174.082
20
-108.318
11
174.213
21
-108.228
0
LINE
8
BLACK
6
CONTINUOUS
10
174.213
20
-108.228
11
174.362
21
-108.172
0
LINE
8
BLACK
6
CONTINUOUS
10
174.362
20
-108.172
11
174.519
21
-108.153
0
LINE
8
BLACK
6
CONTINUOUS
10
174.519
20
-108.153
11
175.84
21
-108.153
0
LINE
8
BLACK
6
CONTINUOUS
10
175.84
20
-108.153
11
175.847
21
-108.153
0
LINE
8
BLACK
6
CONTINUOUS
10
175.847
20
-105.613
11
176.004
21
-105.634
0
LINE
8
BLACK
6
CONTINUOUS
10
176.004
20
-105.634
11
176.152
21
-105.692
0
LINE
8
BLACK
6
CONTINUOUS
10
176.152
20
-105.692
11
176.282
21
-105.783
0
LINE
8
BLACK
6
CONTINUOUS
10
176.282
20
-105.783
11
176.386
21
-105.902
0
LINE
8
BLACK
6
CONTINUOUS
10
176.386
20
-105.902
11
176.459
21
-106.043
0
LINE
8
BLACK
6
CONTINUOUS
10
176.459
20
-106.043
11
176.496
21
-106.198
0
LINE
8
BLACK
6
CONTINUOUS
10
176.496
20
-106.198
11
176.495
21
-106.356
0
LINE
8
BLACK
6
CONTINUOUS
10
176.495
20
-106.356
11
176.457
21
-106.51
0
LINE
8
BLACK
6
CONTINUOUS
10
176.457
20
-106.51
11
176.382
21
-106.65
0
LINE
8
BLACK
6
CONTINUOUS
10
176.382
20
-106.65
11
176.277
21
-106.769
0
LINE
8
BLACK
6
CONTINUOUS
10
176.277
20
-106.769
11
176.146
21
-106.859
0
LINE
8
BLACK
6
CONTINUOUS
10
176.146
20
-106.859
11
175.998
21
-106.915
0
LINE
8
BLACK
6
CONTINUOUS
10
175.998
20
-106.915
11
175.84
21
-106.934
0
LINE
8
BLACK
6
CONTINUOUS
10
175.84
20
-106.934
11
174.519
21
-106.934
0
LINE
8
BLACK
6
CONTINUOUS
10
174.519
20
-106.934
11
174.512
21
-106.934
0
LINE
8
BLACK
6
CONTINUOUS
10
174.512
20
-106.934
11
174.355
21
-106.913
0
LINE
8
BLACK
6
CONTINUOUS
10
174.355
20
-106.913
11
174.207
21
-106.856
0
LINE
8
BLACK
6
CONTINUOUS
10
174.207
20
-106.856
11
174.077
21
-106.764
0
LINE
8
BLACK
6
CONTINUOUS
10
174.077
20
-106.764
11
173.973
21
-106.645
0
LINE
8
BLACK
6
CONTINUOUS
10
173.973
20
-106.645
11
173.9
21
-106.504
0
LINE
8
BLACK
6
CONTINUOUS
10
173.9
20
-106.504
11
173.894
21
-106.477
0
LINE
8
BLACK
6
CONTINUOUS
10
173.894
20
-106.477
11
158.363
21
-106.477
0
LINE
8
BLACK
6
CONTINUOUS
10
158.363
20
-106.477
11
158.325
21
-106.555
0
LINE
8
BLACK
6
CONTINUOUS
10
158.325
20
-106.555
11
158.229
21
-106.661
0
LINE
8
BLACK
6
CONTINUOUS
10
158.229
20
-106.661
11
158.107
21
-106.735
0
LINE
8
BLACK
6
CONTINUOUS
10
158.107
20
-106.735
11
157.97
21
-106.773
0
LINE
8
BLACK
6
CONTINUOUS
10
157.97
20
-106.773
11
157.827
21
-106.77
0
LINE
8
BLACK
6
CONTINUOUS
10
157.827
20
-106.77
11
157.691
21
-106.728
0
LINE
8
BLACK
6
CONTINUOUS
10
157.691
20
-106.728
11
157.572
21
-106.649
0
LINE
8
BLACK
6
CONTINUOUS
10
157.572
20
-106.649
11
157.48
21
-106.54
0
LINE
8
BLACK
6
CONTINUOUS
10
157.48
20
-106.54
11
157.423
21
-106.409
0
LINE
8
BLACK
6
CONTINUOUS
10
157.423
20
-106.409
11
157.404
21
-106.267
0
LINE
8
BLACK
6
CONTINUOUS
10
157.404
20
-106.267
11
157.426
21
-106.126
0
LINE
8
BLACK
6
CONTINUOUS
10
157.426
20
-106.126
11
157.487
21
-105.997
0
LINE
8
BLACK
6
CONTINUOUS
10
157.487
20
-105.997
11
157.581
21
-105.89
0
LINE
8
BLACK
6
CONTINUOUS
10
157.581
20
-105.89
11
157.702
21
-105.814
0
LINE
8
BLACK
6
CONTINUOUS
10
157.702
20
-105.814
11
157.839
21
-105.775
0
LINE
8
BLACK
6
CONTINUOUS
10
157.839
20
-105.775
11
157.982
21
-105.776
0
LINE
8
BLACK
6
CONTINUOUS
10
157.982
20
-105.776
11
158.119
21
-105.817
0
LINE
8
BLACK
6
CONTINUOUS
10
158.119
20
-105.817
11
158.238
21
-105.894
0
LINE
8
BLACK
6
CONTINUOUS
10
158.238
20
-105.894
11
158.332
21
-106.002
0
LINE
8
BLACK
6
CONTINUOUS
10
158.332
20
-106.002
11
158.362
21
-106.07
0
LINE
8
BLACK
6
CONTINUOUS
10
158.362
20
-106.07
11
173.894
21
-106.07
0
LINE
8
BLACK
6
CONTINUOUS
10
173.894
20
-106.07
11
173.903
21
-106.037
0
LINE
8
BLACK
6
CONTINUOUS
10
173.903
20
-106.037
11
173.977
21
-105.897
0
LINE
8
BLACK
6
CONTINUOUS
10
173.977
20
-105.897
11
174.082
21
-105.778
0
LINE
8
BLACK
6
CONTINUOUS
10
174.082
20
-105.778
11
174.213
21
-105.688
0
LINE
8
BLACK
6
CONTINUOUS
10
174.213
20
-105.688
11
174.362
21
-105.632
0
LINE
8
BLACK
6
CONTINUOUS
10
174.362
20
-105.632
11
174.519
21
-105.613
0
LINE
8
BLACK
6
CONTINUOUS
10
174.519
20
-105.613
11
175.84
21
-105.613
0
LINE
8
BLACK
6
CONTINUOUS
10
175.84
20
-105.613
11
175.847
21
-105.613
0
LINE
8
BLACK
6
CONTINUOUS
10
136.202
20
-103.775
11
136.35
21
-103.845
0
LINE
8
BLACK
6
CONTINUOUS
10
136.35
20
-103.845
11
136.476
21
-103.949
0
LINE
8
BLACK
6
CONTINUOUS
10
136.476
20
-103.949
11
136.573
21
-104.082
0
LINE
8
BLACK
6
CONTINUOUS
10
136.573
20
-104.082
11
136.633
21
-104.234
0
LINE
8
BLACK
6
CONTINUOUS
10
136.633
20
-104.234
11
136.654
21
-104.397
0
LINE
8
BLACK
6
CONTINUOUS
10
136.654
20
-104.397
11
136.654
21
-105.705
0
LINE
8
BLACK
6
CONTINUOUS
10
136.654
20
-105.705
11
136.648
21
-105.787
0
LINE
8
BLACK
6
CONTINUOUS
10
136.648
20
-105.787
11
136.608
21
-105.946
0
LINE
8
BLACK
6
CONTINUOUS
10
136.608
20
-105.946
11
136.529
21
-106.09
0
LINE
8
BLACK
6
CONTINUOUS
10
136.529
20
-106.09
11
136.416
21
-106.209
0
LINE
8
BLACK
6
CONTINUOUS
10
136.416
20
-106.209
11
136.278
21
-106.297
0
LINE
8
BLACK
6
CONTINUOUS
10
136.278
20
-106.297
11
136.122
21
-106.348
0
LINE
8
BLACK
6
CONTINUOUS
10
136.122
20
-106.348
11
135.959
21
-106.358
0
LINE
8
BLACK
6
CONTINUOUS
10
135.959
20
-106.358
11
135.798
21
-106.327
0
LINE
8
BLACK
6
CONTINUOUS
10
135.798
20
-106.327
11
135.649
21
-106.257
0
LINE
8
BLACK
6
CONTINUOUS
10
135.649
20
-106.257
11
135.523
21
-106.153
0
LINE
8
BLACK
6
CONTINUOUS
10
135.523
20
-106.153
11
135.427
21
-106.02
0
LINE
8
BLACK
6
CONTINUOUS
10
135.427
20
-106.02
11
135.366
21
-105.868
0
LINE
8
BLACK
6
CONTINUOUS
10
135.366
20
-105.868
11
135.346
21
-105.705
0
LINE
8
BLACK
6
CONTINUOUS
10
135.346
20
-105.705
11
135.346
21
-104.397
0
LINE
8
BLACK
6
CONTINUOUS
10
135.346
20
-104.397
11
135.351
21
-104.315
0
LINE
8
BLACK
6
CONTINUOUS
10
135.351
20
-104.315
11
135.392
21
-104.156
0
LINE
8
BLACK
6
CONTINUOUS
10
135.392
20
-104.156
11
135.471
21
-104.013
0
LINE
8
BLACK
6
CONTINUOUS
10
135.471
20
-104.013
11
135.583
21
-103.893
0
LINE
8
BLACK
6
CONTINUOUS
10
135.583
20
-103.893
11
135.721
21
-103.805
0
LINE
8
BLACK
6
CONTINUOUS
10
135.721
20
-103.805
11
135.877
21
-103.755
0
LINE
8
BLACK
6
CONTINUOUS
10
135.877
20
-103.755
11
136.041
21
-103.744
0
LINE
8
BLACK
6
CONTINUOUS
10
136.041
20
-103.744
11
136.202
21
-103.775
0
LINE
8
BLACK
6
CONTINUOUS
10
146.202
20
-103.775
11
146.35
21
-103.845
0
LINE
8
BLACK
6
CONTINUOUS
10
146.35
20
-103.845
11
146.476
21
-103.949
0
LINE
8
BLACK
6
CONTINUOUS
10
146.476
20
-103.949
11
146.573
21
-104.082
0
LINE
8
BLACK
6
CONTINUOUS
10
146.573
20
-104.082
11
146.633
21
-104.234
0
LINE
8
BLACK
6
CONTINUOUS
10
146.633
20
-104.234
11
146.654
21
-104.397
0
LINE
8
BLACK
6
CONTINUOUS
10
146.654
20
-104.397
11
146.654
21
-105.705
0
LINE
8
BLACK
6
CONTINUOUS
10
146.654
20
-105.705
11
146.648
21
-105.787
0
LINE
8
BLACK
6
CONTINUOUS
10
146.648
20
-105.787
11
146.608
21
-105.946
0
LINE
8
BLACK
6
CONTINUOUS
10
146.608
20
-105.946
11
146.529
21
-106.09
0
LINE
8
BLACK
6
CONTINUOUS
10
146.529
20
-106.09
11
146.416
21
-106.209
0
LINE
8
BLACK
6
CONTINUOUS
10
146.416
20
-106.209
11
146.278
21
-106.297
0
LINE
8
BLACK
6
CONTINUOUS
10
146.278
20
-106.297
11
146.122
21
-106.348
0
LINE
8
BLACK
6
CONTINUOUS
10
146.122
20
-106.348
11
145.959
21
-106.358
0
LINE
8
BLACK
6
CONTINUOUS
10
145.959
20
-106.358
11
145.798
21
-106.327
0
LINE
8
BLACK
6
CONTINUOUS
10
145.798
20
-106.327
11
145.649
21
-106.257
0
LINE
8
BLACK
6
CONTINUOUS
10
145.649
20
-106.257
11
145.523
21
-106.153
0
LINE
8
BLACK
6
CONTINUOUS
10
145.523
20
-106.153
11
145.427
21
-106.02
0
LINE
8
BLACK
6
CONTINUOUS
10
145.427
20
-106.02
11
145.366
21
-105.868
0
LINE
8
BLACK
6
CONTINUOUS
10
145.366
20
-105.868
11
145.346
21
-105.705
0
LINE
8
BLACK
6
CONTINUOUS
10
145.346
20
-105.705
11
145.346
21
-104.397
0
LINE
8
BLACK
6
CONTINUOUS
10
145.346
20
-104.397
11
145.351
21
-104.315
0
LINE
8
BLACK
6
CONTINUOUS
10
145.351
20
-104.315
11
145.392
21
-104.156
0
LINE
8
BLACK
6
CONTINUOUS
10
145.392
20
-104.156
11
145.471
21
-104.013
0
LINE
8
BLACK
6
CONTINUOUS
10
145.471
20
-104.013
11
145.583
21
-103.893
0
LINE
8
BLACK
6
CONTINUOUS
10
145.583
20
-103.893
11
145.721
21
-103.805
0
LINE
8
BLACK
6
CONTINUOUS
10
145.721
20
-103.805
11
145.877
21
-103.755
0
LINE
8
BLACK
6
CONTINUOUS
10
145.877
20
-103.755
11
146.041
21
-103.744
0
LINE
8
BLACK
6
CONTINUOUS
10
146.041
20
-103.744
11
146.202
21
-103.775
0
LINE
8
BLACK
6
CONTINUOUS
10
144.202
20
-103.775
11
144.35
21
-103.845
0
LINE
8
BLACK
6
CONTINUOUS
10
144.35
20
-103.845
11
144.476
21
-103.949
0
LINE
8
BLACK
6
CONTINUOUS
10
144.476
20
-103.949
11
144.573
21
-104.082
0
LINE
8
BLACK
6
CONTINUOUS
10
144.573
20
-104.082
11
144.633
21
-104.234
0
LINE
8
BLACK
6
CONTINUOUS
10
144.633
20
-104.234
11
144.654
21
-104.397
0
LINE
8
BLACK
6
CONTINUOUS
10
144.654
20
-104.397
11
144.654
21
-105.705
0
LINE
8
BLACK
6
CONTINUOUS
10
144.654
20
-105.705
11
144.648
21
-105.787
0
LINE
8
BLACK
6
CONTINUOUS
10
144.648
20
-105.787
11
144.608
21
-105.946
0
LINE
8
BLACK
6
CONTINUOUS
10
144.608
20
-105.946
11
144.529
21
-106.09
0
LINE
8
BLACK
6
CONTINUOUS
10
144.529
20
-106.09
11
144.416
21
-106.209
0
LINE
8
BLACK
6
CONTINUOUS
10
144.416
20
-106.209
11
144.278
21
-106.297
0
LINE
8
BLACK
6
CONTINUOUS
10
144.278
20
-106.297
11
144.122
21
-106.348
0
LINE
8
BLACK
6
CONTINUOUS
10
144.122
20
-106.348
11
143.959
21
-106.358
0
LINE
8
BLACK
6
CONTINUOUS
10
143.959
20
-106.358
11
143.798
21
-106.327
0
LINE
8
BLACK
6
CONTINUOUS
10
143.798
20
-106.327
11
143.649
21
-106.257
0
LINE
8
BLACK
6
CONTINUOUS
10
143.649
20
-106.257
11
143.523
21
-106.153
0
LINE
8
BLACK
6
CONTINUOUS
10
143.523
20
-106.153
11
143.427
21
-106.02
0
LINE
8
BLACK
6
CONTINUOUS
10
143.427
20
-106.02
11
143.366
21
-105.868
0
LINE
8
BLACK
6
CONTINUOUS
10
143.366
20
-105.868
11
143.346
21
-105.705
0
LINE
8
BLACK
6
CONTINUOUS
10
143.346
20
-105.705
11
143.346
21
-104.397
0
LINE
8
BLACK
6
CONTINUOUS
10
143.346
20
-104.397
11
143.351
21
-104.315
0
LINE
8
BLACK
6
CONTINUOUS
10
143.351
20
-104.315
11
143.392
21
-104.156
0
LINE
8
BLACK
6
CONTINUOUS
10
143.392
20
-104.156
11
143.471
21
-104.013
0
LINE
8
BLACK
6
CONTINUOUS
10
143.471
20
-104.013
11
143.583
21
-103.893
0
LINE
8
BLACK
6
CONTINUOUS
10
143.583
20
-103.893
11
143.721
21
-103.805
0
LINE
8
BLACK
6
CONTINUOUS
10
143.721
20
-103.805
11
143.877
21
-103.755
0
LINE
8
BLACK
6
CONTINUOUS
10
143.877
20
-103.755
11
144.041
21
-103.744
0
LINE
8
BLACK
6
CONTINUOUS
10
144.041
20
-103.744
11
144.202
21
-103.775
0
LINE
8
BLACK
6
CONTINUOUS
10
142.202
20
-103.775
11
142.35
21
-103.845
0
LINE
8
BLACK
6
CONTINUOUS
10
142.35
20
-103.845
11
142.476
21
-103.949
0
LINE
8
BLACK
6
CONTINUOUS
10
142.476
20
-103.949
11
142.573
21
-104.082
0
LINE
8
BLACK
6
CONTINUOUS
10
142.573
20
-104.082
11
142.633
21
-104.234
0
LINE
8
BLACK
6
CONTINUOUS
10
142.633
20
-104.234
11
142.654
21
-104.397
0
LINE
8
BLACK
6
CONTINUOUS
10
142.654
20
-104.397
11
142.654
21
-105.705
0
LINE
8
BLACK
6
CONTINUOUS
10
142.654
20
-105.705
11
142.648
21
-105.787
0
LINE
8
BLACK
6
CONTINUOUS
10
142.648
20
-105.787
11
142.608
21
-105.946
0
LINE
8
BLACK
6
CONTINUOUS
10
142.608
20
-105.946
11
142.529
21
-106.09
0
LINE
8
BLACK
6
CONTINUOUS
10
142.529
20
-106.09
11
142.416
21
-106.209
0
LINE
8
BLACK
6
CONTINUOUS
10
142.416
20
-106.209
11
142.278
21
-106.297
0
LINE
8
BLACK
6
CONTINUOUS
10
142.278
20
-106.297
11
142.122
21
-106.348
0
LINE
8
BLACK
6
CONTINUOUS
10
142.122
20
-106.348
11
141.959
21
-106.358
0
LINE
8
BLACK
6
CONTINUOUS
10
141.959
20
-106.358
11
141.798
21
-106.327
0
LINE
8
BLACK
6
CONTINUOUS
10
141.798
20
-106.327
11
141.649
21
-106.257
0
LINE
8
BLACK
6
CONTINUOUS
10
141.649
20
-106.257
11
141.523
21
-106.153
0
LINE
8
BLACK
6
CONTINUOUS
10
141.523
20
-106.153
11
141.427
21
-106.02
0
LINE
8
BLACK
6
CONTINUOUS
10
141.427
20
-106.02
11
141.366
21
-105.868
0
LINE
8
BLACK
6
CONTINUOUS
10
141.366
20
-105.868
11
141.346
21
-105.705
0
LINE
8
BLACK
6
CONTINUOUS
10
141.346
20
-105.705
11
141.346
21
-104.397
0
LINE
8
BLACK
6
CONTINUOUS
10
141.346
20
-104.397
11
141.351
21
-104.315
0
LINE
8
BLACK
6
CONTINUOUS
10
141.351
20
-104.315
11
141.392
21
-104.156
0
LINE
8
BLACK
6
CONTINUOUS
10
141.392
20
-104.156
11
141.471
21
-104.013
0
LINE
8
BLACK
6
CONTINUOUS
10
141.471
20
-104.013
11
141.583
21
-103.893
0
LINE
8
BLACK
6
CONTINUOUS
10
141.583
20
-103.893
11
141.721
21
-103.805
0
LINE
8
BLACK
6
CONTINUOUS
10
141.721
20
-103.805
11
141.877
21
-103.755
0
LINE
8
BLACK
6
CONTINUOUS
10
141.877
20
-103.755
11
142.041
21
-103.744
0
LINE
8
BLACK
6
CONTINUOUS
10
142.041
20
-103.744
11
142.202
21
-103.775
0
LINE
8
BLACK
6
CONTINUOUS
10
140.202
20
-103.775
11
140.35
21
-103.845
0
LINE
8
BLACK
6
CONTINUOUS
10
140.35
20
-103.845
11
140.476
21
-103.949
0
LINE
8
BLACK
6
CONTINUOUS
10
140.476
20
-103.949
11
140.573
21
-104.082
0
LINE
8
BLACK
6
CONTINUOUS
10
140.573
20
-104.082
11
140.633
21
-104.234
0
LINE
8
BLACK
6
CONTINUOUS
10
140.633
20
-104.234
11
140.654
21
-104.397
0
LINE
8
BLACK
6
CONTINUOUS
10
140.654
20
-104.397
11
140.654
21
-105.705
0
LINE
8
BLACK
6
CONTINUOUS
10
140.654
20
-105.705
11
140.648
21
-105.787
0
LINE
8
BLACK
6
CONTINUOUS
10
140.648
20
-105.787
11
140.608
21
-105.946
0
LINE
8
BLACK
6
CONTINUOUS
10
140.608
20
-105.946
11
140.529
21
-106.09
0
LINE
8
BLACK
6
CONTINUOUS
10
140.529
20
-106.09
11
140.416
21
-106.209
0
LINE
8
BLACK
6
CONTINUOUS
10
140.416
20
-106.209
11
140.278
21
-106.297
0
LINE
8
BLACK
6
CONTINUOUS
10
140.278
20
-106.297
11
140.122
21
-106.348
0
LINE
8
BLACK
6
CONTINUOUS
10
140.122
20
-106.348
11
139.959
21
-106.358
0
LINE
8
BLACK
6
CONTINUOUS
10
139.959
20
-106.358
11
139.798
21
-106.327
0
LINE
8
BLACK
6
CONTINUOUS
10
139.798
20
-106.327
11
139.649
21
-106.257
0
LINE
8
BLACK
6
CONTINUOUS
10
139.649
20
-106.257
11
139.523
21
-106.153
0
LINE
8
BLACK
6
CONTINUOUS
10
139.523
20
-106.153
11
139.427
21
-106.02
0
LINE
8
BLACK
6
CONTINUOUS
10
139.427
20
-106.02
11
139.366
21
-105.868
0
LINE
8
BLACK
6
CONTINUOUS
10
139.366
20
-105.868
11
139.346
21
-105.705
0
LINE
8
BLACK
6
CONTINUOUS
10
139.346
20
-105.705
11
139.346
21
-104.397
0
LINE
8
BLACK
6
CONTINUOUS
10
139.346
20
-104.397
11
139.351
21
-104.315
0
LINE
8
BLACK
6
CONTINUOUS
10
139.351
20
-104.315
11
139.392
21
-104.156
0
LINE
8
BLACK
6
CONTINUOUS
10
139.392
20
-104.156
11
139.471
21
-104.013
0
LINE
8
BLACK
6
CONTINUOUS
10
139.471
20
-104.013
11
139.583
21
-103.893
0
LINE
8
BLACK
6
CONTINUOUS
10
139.583
20
-103.893
11
139.721
21
-103.805
0
LINE
8
BLACK
6
CONTINUOUS
10
139.721
20
-103.805
11
139.877
21
-103.755
0
LINE
8
BLACK
6
CONTINUOUS
10
139.877
20
-103.755
11
140.041
21
-103.744
0
LINE
8
BLACK
6
CONTINUOUS
10
140.041
20
-103.744
11
140.202
21
-103.775
0
LINE
8
BLACK
6
CONTINUOUS
10
138.202
20
-103.775
11
138.35
21
-103.845
0
LINE
8
BLACK
6
CONTINUOUS
10
138.35
20
-103.845
11
138.476
21
-103.949
0
LINE
8
BLACK
6
CONTINUOUS
10
138.476
20
-103.949
11
138.573
21
-104.082
0
LINE
8
BLACK
6
CONTINUOUS
10
138.573
20
-104.082
11
138.633
21
-104.234
0
LINE
8
BLACK
6
CONTINUOUS
10
138.633
20
-104.234
11
138.654
21
-104.397
0
LINE
8
BLACK
6
CONTINUOUS
10
138.654
20
-104.397
11
138.654
21
-105.705
0
LINE
8
BLACK
6
CONTINUOUS
10
138.654
20
-105.705
11
138.648
21
-105.787
0
LINE
8
BLACK
6
CONTINUOUS
10
138.648
20
-105.787
11
138.608
21
-105.946
0
LINE
8
BLACK
6
CONTINUOUS
10
138.608
20
-105.946
11
138.529
21
-106.09
0
LINE
8
BLACK
6
CONTINUOUS
10
138.529
20
-106.09
11
138.416
21
-106.209
0
LINE
8
BLACK
6
CONTINUOUS
10
138.416
20
-106.209
11
138.278
21
-106.297
0
LINE
8
BLACK
6
CONTINUOUS
10
138.278
20
-106.297
11
138.122
21
-106.348
0
LINE
8
BLACK
6
CONTINUOUS
10
138.122
20
-106.348
11
137.959
21
-106.358
0
LINE
8
BLACK
6
CONTINUOUS
10
137.959
20
-106.358
11
137.798
21
-106.327
0
LINE
8
BLACK
6
CONTINUOUS
10
137.798
20
-106.327
11
137.649
21
-106.257
0
LINE
8
BLACK
6
CONTINUOUS
10
137.649
20
-106.257
11
137.523
21
-106.153
0
LINE
8
BLACK
6
CONTINUOUS
10
137.523
20
-106.153
11
137.427
21
-106.02
0
LINE
8
BLACK
6
CONTINUOUS
10
137.427
20
-106.02
11
137.366
21
-105.868
0
LINE
8
BLACK
6
CONTINUOUS
10
137.366
20
-105.868
11
137.346
21
-105.705
0
LINE
8
BLACK
6
CONTINUOUS
10
137.346
20
-105.705
11
137.346
21
-104.397
0
LINE
8
BLACK
6
CONTINUOUS
10
137.346
20
-104.397
11
137.351
21
-104.315
0
LINE
8
BLACK
6
CONTINUOUS
10
137.351
20
-104.315
11
137.392
21
-104.156
0
LINE
8
BLACK
6
CONTINUOUS
10
137.392
20
-104.156
11
137.471
21
-104.013
0
LINE
8
BLACK
6
CONTINUOUS
10
137.471
20
-104.013
11
137.583
21
-103.893
0
LINE
8
BLACK
6
CONTINUOUS
10
137.583
20
-103.893
11
137.721
21
-103.805
0
LINE
8
BLACK
6
CONTINUOUS
10
137.721
20
-103.805
11
137.877
21
-103.755
0
LINE
8
BLACK
6
CONTINUOUS
10
137.877
20
-103.755
11
138.041
21
-103.744
0
LINE
8
BLACK
6
CONTINUOUS
10
138.041
20
-103.744
11
138.202
21
-103.775
0
LINE
8
BLACK
6
CONTINUOUS
10
130.202
20
-103.775
11
130.35
21
-103.845
0
LINE
8
BLACK
6
CONTINUOUS
10
130.35
20
-103.845
11
130.476
21
-103.949
0
LINE
8
BLACK
6
CONTINUOUS
10
130.476
20
-103.949
11
130.573
21
-104.082
0
LINE
8
BLACK
6
CONTINUOUS
10
130.573
20
-104.082
11
130.633
21
-104.234
0
LINE
8
BLACK
6
CONTINUOUS
10
130.633
20
-104.234
11
130.654
21
-104.397
0
LINE
8
BLACK
6
CONTINUOUS
10
130.654
20
-104.397
11
130.654
21
-105.705
0
LINE
8
BLACK
6
CONTINUOUS
10
130.654
20
-105.705
11
130.648
21
-105.787
0
LINE
8
BLACK
6
CONTINUOUS
10
130.648
20
-105.787
11
130.608
21
-105.946
0
LINE
8
BLACK
6
CONTINUOUS
10
130.608
20
-105.946
11
130.529
21
-106.09
0
LINE
8
BLACK
6
CONTINUOUS
10
130.529
20
-106.09
11
130.416
21
-106.209
0
LINE
8
BLACK
6
CONTINUOUS
10
130.416
20
-106.209
11
130.278
21
-106.297
0
LINE
8
BLACK
6
CONTINUOUS
10
130.278
20
-106.297
11
130.122
21
-106.348
0
LINE
8
BLACK
6
CONTINUOUS
10
130.122
20
-106.348
11
129.959
21
-106.358
0
LINE
8
BLACK
6
CONTINUOUS
10
129.959
20
-106.358
11
129.798
21
-106.327
0
LINE
8
BLACK
6
CONTINUOUS
10
129.798
20
-106.327
11
129.649
21
-106.257
0
LINE
8
BLACK
6
CONTINUOUS
10
129.649
20
-106.257
11
129.523
21
-106.153
0
LINE
8
BLACK
6
CONTINUOUS
10
129.523
20
-106.153
11
129.427
21
-106.02
0
LINE
8
BLACK
6
CONTINUOUS
10
129.427
20
-106.02
11
129.366
21
-105.868
0
LINE
8
BLACK
6
CONTINUOUS
10
129.366
20
-105.868
11
129.346
21
-105.705
0
LINE
8
BLACK
6
CONTINUOUS
10
129.346
20
-105.705
11
129.346
21
-104.397
0
LINE
8
BLACK
6
CONTINUOUS
10
129.346
20
-104.397
11
129.351
21
-104.315
0
LINE
8
BLACK
6
CONTINUOUS
10
129.351
20
-104.315
11
129.392
21
-104.156
0
LINE
8
BLACK
6
CONTINUOUS
10
129.392
20
-104.156
11
129.471
21
-104.013
0
LINE
8
BLACK
6
CONTINUOUS
10
129.471
20
-104.013
11
129.583
21
-103.893
0
LINE
8
BLACK
6
CONTINUOUS
10
129.583
20
-103.893
11
129.721
21
-103.805
0
LINE
8
BLACK
6
CONTINUOUS
10
129.721
20
-103.805
11
129.877
21
-103.755
0
LINE
8
BLACK
6
CONTINUOUS
10
129.877
20
-103.755
11
130.041
21
-103.744
0
LINE
8
BLACK
6
CONTINUOUS
10
130.041
20
-103.744
11
130.202
21
-103.775
0
LINE
8
BLACK
6
CONTINUOUS
10
132.202
20
-103.775
11
132.35
21
-103.845
0
LINE
8
BLACK
6
CONTINUOUS
10
132.35
20
-103.845
11
132.476
21
-103.949
0
LINE
8
BLACK
6
CONTINUOUS
10
132.476
20
-103.949
11
132.573
21
-104.082
0
LINE
8
BLACK
6
CONTINUOUS
10
132.573
20
-104.082
11
132.633
21
-104.234
0
LINE
8
BLACK
6
CONTINUOUS
10
132.633
20
-104.234
11
132.654
21
-104.397
0
LINE
8
BLACK
6
CONTINUOUS
10
132.654
20
-104.397
11
132.654
21
-105.705
0
LINE
8
BLACK
6
CONTINUOUS
10
132.654
20
-105.705
11
132.648
21
-105.787
0
LINE
8
BLACK
6
CONTINUOUS
10
132.648
20
-105.787
11
132.608
21
-105.946
0
LINE
8
BLACK
6
CONTINUOUS
10
132.608
20
-105.946
11
132.529
21
-106.09
0
LINE
8
BLACK
6
CONTINUOUS
10
132.529
20
-106.09
11
132.416
21
-106.209
0
LINE
8
BLACK
6
CONTINUOUS
10
132.416
20
-106.209
11
132.278
21
-106.297
0
LINE
8
BLACK
6
CONTINUOUS
10
132.278
20
-106.297
11
132.122
21
-106.348
0
LINE
8
BLACK
6
CONTINUOUS
10
132.122
20
-106.348
11
131.959
21
-106.358
0
LINE
8
BLACK
6
CONTINUOUS
10
131.959
20
-106.358
11
131.798
21
-106.327
0
LINE
8
BLACK
6
CONTINUOUS
10
131.798
20
-106.327
11
131.649
21
-106.257
0
LINE
8
BLACK
6
CONTINUOUS
10
131.649
20
-106.257
11
131.523
21
-106.153
0
LINE
8
BLACK
6
CONTINUOUS
10
131.523
20
-106.153
11
131.427
21
-106.02
0
LINE
8
BLACK
6
CONTINUOUS
10
131.427
20
-106.02
11
131.366
21
-105.868
0
LINE
8
BLACK
6
CONTINUOUS
10
131.366
20
-105.868
11
131.346
21
-105.705
0
LINE
8
BLACK
6
CONTINUOUS
10
131.346
20
-105.705
11
131.346
21
-104.397
0
LINE
8
BLACK
6
CONTINUOUS
10
131.346
20
-104.397
11
131.351
21
-104.315
0
LINE
8
BLACK
6
CONTINUOUS
10
131.351
20
-104.315
11
131.392
21
-104.156
0
LINE
8
BLACK
6
CONTINUOUS
10
131.392
20
-104.156
11
131.471
21
-104.013
0
LINE
8
BLACK
6
CONTINUOUS
10
131.471
20
-104.013
11
131.583
21
-103.893
0
LINE
8
BLACK
6
CONTINUOUS
10
131.583
20
-103.893
11
131.721
21
-103.805
0
LINE
8
BLACK
6
CONTINUOUS
10
131.721
20
-103.805
11
131.877
21
-103.755
0
LINE
8
BLACK
6
CONTINUOUS
10
131.877
20
-103.755
11
132.041
21
-103.744
0
LINE
8
BLACK
6
CONTINUOUS
10
132.041
20
-103.744
11
132.202
21
-103.775
0
LINE
8
BLACK
6
CONTINUOUS
10
134.202
20
-103.775
11
134.35
21
-103.845
0
LINE
8
BLACK
6
CONTINUOUS
10
134.35
20
-103.845
11
134.476
21
-103.949
0
LINE
8
BLACK
6
CONTINUOUS
10
134.476
20
-103.949
11
134.573
21
-104.082
0
LINE
8
BLACK
6
CONTINUOUS
10
134.573
20
-104.082
11
134.633
21
-104.234
0
LINE
8
BLACK
6
CONTINUOUS
10
134.633
20
-104.234
11
134.654
21
-104.397
0
LINE
8
BLACK
6
CONTINUOUS
10
134.654
20
-104.397
11
134.654
21
-105.705
0
LINE
8
BLACK
6
CONTINUOUS
10
134.654
20
-105.705
11
134.648
21
-105.787
0
LINE
8
BLACK
6
CONTINUOUS
10
134.648
20
-105.787
11
134.608
21
-105.946
0
LINE
8
BLACK
6
CONTINUOUS
10
134.608
20
-105.946
11
134.529
21
-106.09
0
LINE
8
BLACK
6
CONTINUOUS
10
134.529
20
-106.09
11
134.416
21
-106.209
0
LINE
8
BLACK
6
CONTINUOUS
10
134.416
20
-106.209
11
134.278
21
-106.297
0
LINE
8
BLACK
6
CONTINUOUS
10
134.278
20
-106.297
11
134.122
21
-106.348
0
LINE
8
BLACK
6
CONTINUOUS
10
134.122
20
-106.348
11
133.959
21
-106.358
0
LINE
8
BLACK
6
CONTINUOUS
10
133.959
20
-106.358
11
133.798
21
-106.327
0
LINE
8
BLACK
6
CONTINUOUS
10
133.798
20
-106.327
11
133.649
21
-106.257
0
LINE
8
BLACK
6
CONTINUOUS
10
133.649
20
-106.257
11
133.523
21
-106.153
0
LINE
8
BLACK
6
CONTINUOUS
10
133.523
20
-106.153
11
133.427
21
-106.02
0
LINE
8
BLACK
6
CONTINUOUS
10
133.427
20
-106.02
11
133.366
21
-105.868
0
LINE
8
BLACK
6
CONTINUOUS
10
133.366
20
-105.868
11
133.346
21
-105.705
0
LINE
8
BLACK
6
CONTINUOUS
10
133.346
20
-105.705
11
133.346
21
-104.397
0
LINE
8
BLACK
6
CONTINUOUS
10
133.346
20
-104.397
11
133.351
21
-104.315
0
LINE
8
BLACK
6
CONTINUOUS
10
133.351
20
-104.315
11
133.392
21
-104.156
0
LINE
8
BLACK
6
CONTINUOUS
10
133.392
20
-104.156
11
133.471
21
-104.013
0
LINE
8
BLACK
6
CONTINUOUS
10
133.471
20
-104.013
11
133.583
21
-103.893
0
LINE
8
BLACK
6
CONTINUOUS
10
133.583
20
-103.893
11
133.721
21
-103.805
0
LINE
8
BLACK
6
CONTINUOUS
10
133.721
20
-103.805
11
133.877
21
-103.755
0
LINE
8
BLACK
6
CONTINUOUS
10
133.877
20
-103.755
11
134.041
21
-103.744
0
LINE
8
BLACK
6
CONTINUOUS
10
134.041
20
-103.744
11
134.202
21
-103.775
0
LINE
8
BLACK
6
CONTINUOUS
10
175.847
20
-103.073
11
176.004
21
-103.094
0
LINE
8
BLACK
6
CONTINUOUS
10
176.004
20
-103.094
11
176.152
21
-103.152
0
LINE
8
BLACK
6
CONTINUOUS
10
176.152
20
-103.152
11
176.282
21
-103.243
0
LINE
8
BLACK
6
CONTINUOUS
10
176.282
20
-103.243
11
176.386
21
-103.362
0
LINE
8
BLACK
6
CONTINUOUS
10
176.386
20
-103.362
11
176.459
21
-103.503
0
LINE
8
BLACK
6
CONTINUOUS
10
176.459
20
-103.503
11
176.496
21
-103.658
0
LINE
8
BLACK
6
CONTINUOUS
10
176.496
20
-103.658
11
176.495
21
-103.816
0
LINE
8
BLACK
6
CONTINUOUS
10
176.495
20
-103.816
11
176.457
21
-103.97
0
LINE
8
BLACK
6
CONTINUOUS
10
176.457
20
-103.97
11
176.382
21
-104.11
0
LINE
8
BLACK
6
CONTINUOUS
10
176.382
20
-104.11
11
176.277
21
-104.229
0
LINE
8
BLACK
6
CONTINUOUS
10
176.277
20
-104.229
11
176.146
21
-104.319
0
LINE
8
BLACK
6
CONTINUOUS
10
176.146
20
-104.319
11
175.998
21
-104.375
0
LINE
8
BLACK
6
CONTINUOUS
10
175.998
20
-104.375
11
175.84
21
-104.394
0
LINE
8
BLACK
6
CONTINUOUS
10
175.84
20
-104.394
11
174.519
21
-104.394
0
LINE
8
BLACK
6
CONTINUOUS
10
174.519
20
-104.394
11
174.512
21
-104.394
0
LINE
8
BLACK
6
CONTINUOUS
10
174.512
20
-104.394
11
174.355
21
-104.373
0
LINE
8
BLACK
6
CONTINUOUS
10
174.355
20
-104.373
11
174.207
21
-104.316
0
LINE
8
BLACK
6
CONTINUOUS
10
174.207
20
-104.316
11
174.077
21
-104.224
0
LINE
8
BLACK
6
CONTINUOUS
10
174.077
20
-104.224
11
173.973
21
-104.105
0
LINE
8
BLACK
6
CONTINUOUS
10
173.973
20
-104.105
11
173.9
21
-103.964
0
LINE
8
BLACK
6
CONTINUOUS
10
173.9
20
-103.964
11
173.894
21
-103.937
0
LINE
8
BLACK
6
CONTINUOUS
10
173.894
20
-103.937
11
152.521
21
-103.937
0
LINE
8
BLACK
6
CONTINUOUS
10
152.521
20
-103.937
11
152.483
21
-104.015
0
LINE
8
BLACK
6
CONTINUOUS
10
152.483
20
-104.015
11
152.387
21
-104.121
0
LINE
8
BLACK
6
CONTINUOUS
10
152.387
20
-104.121
11
152.265
21
-104.195
0
LINE
8
BLACK
6
CONTINUOUS
10
152.265
20
-104.195
11
152.128
21
-104.233
0
LINE
8
BLACK
6
CONTINUOUS
10
152.128
20
-104.233
11
151.985
21
-104.23
0
LINE
8
BLACK
6
CONTINUOUS
10
151.985
20
-104.23
11
151.849
21
-104.188
0
LINE
8
BLACK
6
CONTINUOUS
10
151.849
20
-104.188
11
151.73
21
-104.109
0
LINE
8
BLACK
6
CONTINUOUS
10
151.73
20
-104.109
11
151.638
21
-104
0
LINE
8
BLACK
6
CONTINUOUS
10
151.638
20
-104
11
151.581
21
-103.869
0
LINE
8
BLACK
6
CONTINUOUS
10
151.581
20
-103.869
11
151.562
21
-103.727
0
LINE
8
BLACK
6
CONTINUOUS
10
151.562
20
-103.727
11
151.584
21
-103.586
0
LINE
8
BLACK
6
CONTINUOUS
10
151.584
20
-103.586
11
151.645
21
-103.457
0
LINE
8
BLACK
6
CONTINUOUS
10
151.645
20
-103.457
11
151.739
21
-103.35
0
LINE
8
BLACK
6
CONTINUOUS
10
151.739
20
-103.35
11
151.86
21
-103.274
0
LINE
8
BLACK
6
CONTINUOUS
10
151.86
20
-103.274
11
151.997
21
-103.235
0
LINE
8
BLACK
6
CONTINUOUS
10
151.997
20
-103.235
11
152.14
21
-103.236
0
LINE
8
BLACK
6
CONTINUOUS
10
152.14
20
-103.236
11
152.277
21
-103.277
0
LINE
8
BLACK
6
CONTINUOUS
10
152.277
20
-103.277
11
152.396
21
-103.354
0
LINE
8
BLACK
6
CONTINUOUS
10
152.396
20
-103.354
11
152.49
21
-103.462
0
LINE
8
BLACK
6
CONTINUOUS
10
152.49
20
-103.462
11
152.52
21
-103.53
0
LINE
8
BLACK
6
CONTINUOUS
10
152.52
20
-103.53
11
173.894
21
-103.53
0
LINE
8
BLACK
6
CONTINUOUS
10
173.894
20
-103.53
11
173.903
21
-103.497
0
LINE
8
BLACK
6
CONTINUOUS
10
173.903
20
-103.497
11
173.977
21
-103.357
0
LINE
8
BLACK
6
CONTINUOUS
10
173.977
20
-103.357
11
174.082
21
-103.238
0
LINE
8
BLACK
6
CONTINUOUS
10
174.082
20
-103.238
11
174.213
21
-103.148
0
LINE
8
BLACK
6
CONTINUOUS
10
174.213
20
-103.148
11
174.362
21
-103.092
0
LINE
8
BLACK
6
CONTINUOUS
10
174.362
20
-103.092
11
174.519
21
-103.073
0
LINE
8
BLACK
6
CONTINUOUS
10
174.519
20
-103.073
11
175.84
21
-103.073
0
LINE
8
BLACK
6
CONTINUOUS
10
175.84
20
-103.073
11
175.847
21
-103.073
0
LINE
8
BLACK
6
CONTINUOUS
10
175.847
20
-100.533
11
176.004
21
-100.554
0
LINE
8
BLACK
6
CONTINUOUS
10
176.004
20
-100.554
11
176.152
21
-100.612
0
LINE
8
BLACK
6
CONTINUOUS
10
176.152
20
-100.612
11
176.282
21
-100.703
0
LINE
8
BLACK
6
CONTINUOUS
10
176.282
20
-100.703
11
176.386
21
-100.822
0
LINE
8
BLACK
6
CONTINUOUS
10
176.386
20
-100.822
11
176.459
21
-100.963
0
LINE
8
BLACK
6
CONTINUOUS
10
176.459
20
-100.963
11
176.496
21
-101.118
0
LINE
8
BLACK
6
CONTINUOUS
10
176.496
20
-101.118
11
176.495
21
-101.276
0
LINE
8
BLACK
6
CONTINUOUS
10
176.495
20
-101.276
11
176.457
21
-101.43
0
LINE
8
BLACK
6
CONTINUOUS
10
176.457
20
-101.43
11
176.382
21
-101.57
0
LINE
8
BLACK
6
CONTINUOUS
10
176.382
20
-101.57
11
176.277
21
-101.689
0
LINE
8
BLACK
6
CONTINUOUS
10
176.277
20
-101.689
11
176.146
21
-101.779
0
LINE
8
BLACK
6
CONTINUOUS
10
176.146
20
-101.779
11
175.998
21
-101.835
0
LINE
8
BLACK
6
CONTINUOUS
10
175.998
20
-101.835
11
175.84
21
-101.854
0
LINE
8
BLACK
6
CONTINUOUS
10
175.84
20
-101.854
11
174.519
21
-101.854
0
LINE
8
BLACK
6
CONTINUOUS
10
174.519
20
-101.854
11
174.512
21
-101.854
0
LINE
8
BLACK
6
CONTINUOUS
10
174.512
20
-101.854
11
174.355
21
-101.833
0
LINE
8
BLACK
6
CONTINUOUS
10
174.355
20
-101.833
11
174.207
21
-101.776
0
LINE
8
BLACK
6
CONTINUOUS
10
174.207
20
-101.776
11
174.077
21
-101.684
0
LINE
8
BLACK
6
CONTINUOUS
10
174.077
20
-101.684
11
173.973
21
-101.565
0
LINE
8
BLACK
6
CONTINUOUS
10
173.973
20
-101.565
11
173.9
21
-101.424
0
LINE
8
BLACK
6
CONTINUOUS
10
173.9
20
-101.424
11
173.894
21
-101.397
0
LINE
8
BLACK
6
CONTINUOUS
10
173.894
20
-101.397
11
150.489
21
-101.397
0
LINE
8
BLACK
6
CONTINUOUS
10
150.489
20
-101.397
11
150.451
21
-101.475
0
LINE
8
BLACK
6
CONTINUOUS
10
150.451
20
-101.475
11
150.355
21
-101.581
0
LINE
8
BLACK
6
CONTINUOUS
10
150.355
20
-101.581
11
150.233
21
-101.655
0
LINE
8
BLACK
6
CONTINUOUS
10
150.233
20
-101.655
11
150.096
21
-101.693
0
LINE
8
BLACK
6
CONTINUOUS
10
150.096
20
-101.693
11
149.953
21
-101.69
0
LINE
8
BLACK
6
CONTINUOUS
10
149.953
20
-101.69
11
149.817
21
-101.648
0
LINE
8
BLACK
6
CONTINUOUS
10
149.817
20
-101.648
11
149.698
21
-101.569
0
LINE
8
BLACK
6
CONTINUOUS
10
149.698
20
-101.569
11
149.606
21
-101.46
0
LINE
8
BLACK
6
CONTINUOUS
10
149.606
20
-101.46
11
149.549
21
-101.329
0
LINE
8
BLACK
6
CONTINUOUS
10
149.549
20
-101.329
11
149.53
21
-101.187
0
LINE
8
BLACK
6
CONTINUOUS
10
149.53
20
-101.187
11
149.552
21
-101.046
0
LINE
8
BLACK
6
CONTINUOUS
10
149.552
20
-101.046
11
149.613
21
-100.917
0
LINE
8
BLACK
6
CONTINUOUS
10
149.613
20
-100.917
11
149.707
21
-100.81
0
LINE
8
BLACK
6
CONTINUOUS
10
149.707
20
-100.81
11
149.828
21
-100.734
0
LINE
8
BLACK
6
CONTINUOUS
10
149.828
20
-100.734
11
149.965
21
-100.695
0
LINE
8
BLACK
6
CONTINUOUS
10
149.965
20
-100.695
11
150.108
21
-100.696
0
LINE
8
BLACK
6
CONTINUOUS
10
150.108
20
-100.696
11
150.245
21
-100.737
0
LINE
8
BLACK
6
CONTINUOUS
10
150.245
20
-100.737
11
150.364
21
-100.814
0
LINE
8
BLACK
6
CONTINUOUS
10
150.364
20
-100.814
11
150.458
21
-100.922
0
LINE
8
BLACK
6
CONTINUOUS
10
150.458
20
-100.922
11
150.488
21
-100.99
0
LINE
8
BLACK
6
CONTINUOUS
10
150.488
20
-100.99
11
173.894
21
-100.99
0
LINE
8
BLACK
6
CONTINUOUS
10
173.894
20
-100.99
11
173.903
21
-100.957
0
LINE
8
BLACK
6
CONTINUOUS
10
173.903
20
-100.957
11
173.977
21
-100.817
0
LINE
8
BLACK
6
CONTINUOUS
10
173.977
20
-100.817
11
174.082
21
-100.698
0
LINE
8
BLACK
6
CONTINUOUS
10
174.082
20
-100.698
11
174.213
21
-100.608
0
LINE
8
BLACK
6
CONTINUOUS
10
174.213
20
-100.608
11
174.362
21
-100.552
0
LINE
8
BLACK
6
CONTINUOUS
10
174.362
20
-100.552
11
174.519
21
-100.533
0
LINE
8
BLACK
6
CONTINUOUS
10
174.519
20
-100.533
11
175.84
21
-100.533
0
LINE
8
BLACK
6
CONTINUOUS
10
175.84
20
-100.533
11
175.847
21
-100.533
0
LINE
8
BLACK
6
CONTINUOUS
10
175.847
20
-97.9932
11
176.004
21
-98.0139
0
LINE
8
BLACK
6
CONTINUOUS
10
176.004
20
-98.0139
11
176.152
21
-98.0716
0
LINE
8
BLACK
6
CONTINUOUS
10
176.152
20
-98.0716
11
176.282
21
-98.1628
0
LINE
8
BLACK
6
CONTINUOUS
10
176.282
20
-98.1628
11
176.386
21
-98.2824
0
LINE
8
BLACK
6
CONTINUOUS
10
176.386
20
-98.2824
11
176.459
21
-98.4234
0
LINE
8
BLACK
6
CONTINUOUS
10
176.459
20
-98.4234
11
176.496
21
-98.5777
0
LINE
8
BLACK
6
CONTINUOUS
10
176.496
20
-98.5777
11
176.495
21
-98.7364
0
LINE
8
BLACK
6
CONTINUOUS
10
176.495
20
-98.7364
11
176.457
21
-98.8903
0
LINE
8
BLACK
6
CONTINUOUS
10
176.457
20
-98.8903
11
176.382
21
-99.0305
0
LINE
8
BLACK
6
CONTINUOUS
10
176.382
20
-99.0305
11
176.277
21
-99.149
0
LINE
8
BLACK
6
CONTINUOUS
10
176.277
20
-99.149
11
176.146
21
-99.2388
0
LINE
8
BLACK
6
CONTINUOUS
10
176.146
20
-99.2388
11
175.998
21
-99.2949
0
LINE
8
BLACK
6
CONTINUOUS
10
175.998
20
-99.2949
11
175.84
21
-99.314
0
LINE
8
BLACK
6
CONTINUOUS
10
175.84
20
-99.314
11
174.519
21
-99.314
0
LINE
8
BLACK
6
CONTINUOUS
10
174.519
20
-99.314
11
174.512
21
-99.314
0
LINE
8
BLACK
6
CONTINUOUS
10
174.512
20
-99.314
11
174.355
21
-99.2933
0
LINE
8
BLACK
6
CONTINUOUS
10
174.355
20
-99.2933
11
174.207
21
-99.2356
0
LINE
8
BLACK
6
CONTINUOUS
10
174.207
20
-99.2356
11
174.077
21
-99.1444
0
LINE
8
BLACK
6
CONTINUOUS
10
174.077
20
-99.1444
11
173.973
21
-99.0248
0
LINE
8
BLACK
6
CONTINUOUS
10
173.973
20
-99.0248
11
173.9
21
-98.8838
0
LINE
8
BLACK
6
CONTINUOUS
10
173.9
20
-98.8838
11
173.894
21
-98.8568
0
LINE
8
BLACK
6
CONTINUOUS
10
173.894
20
-98.8568
11
154.553
21
-98.8568
0
LINE
8
BLACK
6
CONTINUOUS
10
154.553
20
-98.8568
11
154.515
21
-98.935
0
LINE
8
BLACK
6
CONTINUOUS
10
154.515
20
-98.935
11
154.419
21
-99.0408
0
LINE
8
BLACK
6
CONTINUOUS
10
154.419
20
-99.0408
11
154.297
21
-99.1154
0
LINE
8
BLACK
6
CONTINUOUS
10
154.297
20
-99.1154
11
154.16
21
-99.1529
0
LINE
8
BLACK
6
CONTINUOUS
10
154.16
20
-99.1529
11
154.017
21
-99.1503
0
LINE
8
BLACK
6
CONTINUOUS
10
154.017
20
-99.1503
11
153.881
21
-99.1078
0
LINE
8
BLACK
6
CONTINUOUS
10
153.881
20
-99.1078
11
153.762
21
-99.0287
0
LINE
8
BLACK
6
CONTINUOUS
10
153.762
20
-99.0287
11
153.67
21
-98.9195
0
LINE
8
BLACK
6
CONTINUOUS
10
153.67
20
-98.9195
11
153.613
21
-98.7889
0
LINE
8
BLACK
6
CONTINUOUS
10
153.613
20
-98.7889
11
153.594
21
-98.6475
0
LINE
8
BLACK
6
CONTINUOUS
10
153.594
20
-98.6475
11
153.616
21
-98.5065
0
LINE
8
BLACK
6
CONTINUOUS
10
153.616
20
-98.5065
11
153.677
21
-98.3773
0
LINE
8
BLACK
6
CONTINUOUS
10
153.677
20
-98.3773
11
153.771
21
-98.2704
0
LINE
8
BLACK
6
CONTINUOUS
10
153.771
20
-98.2704
11
153.892
21
-98.1943
0
LINE
8
BLACK
6
CONTINUOUS
10
153.892
20
-98.1943
11
154.029
21
-98.1551
0
LINE
8
BLACK
6
CONTINUOUS
10
154.029
20
-98.1551
11
154.172
21
-98.1559
0
LINE
8
BLACK
6
CONTINUOUS
10
154.172
20
-98.1559
11
154.309
21
-98.1968
0
LINE
8
BLACK
6
CONTINUOUS
10
154.309
20
-98.1968
11
154.428
21
-98.2744
0
LINE
8
BLACK
6
CONTINUOUS
10
154.428
20
-98.2744
11
154.522
21
-98.3825
0
LINE
8
BLACK
6
CONTINUOUS
10
154.522
20
-98.3825
11
154.552
21
-98.4504
0
LINE
8
BLACK
6
CONTINUOUS
10
154.552
20
-98.4504
11
173.894
21
-98.4504
0
LINE
8
BLACK
6
CONTINUOUS
10
173.894
20
-98.4504
11
173.903
21
-98.4169
0
LINE
8
BLACK
6
CONTINUOUS
10
173.903
20
-98.4169
11
173.977
21
-98.2767
0
LINE
8
BLACK
6
CONTINUOUS
10
173.977
20
-98.2767
11
174.082
21
-98.1582
0
LINE
8
BLACK
6
CONTINUOUS
10
174.082
20
-98.1582
11
174.213
21
-98.0684
0
LINE
8
BLACK
6
CONTINUOUS
10
174.213
20
-98.0684
11
174.362
21
-98.0123
0
LINE
8
BLACK
6
CONTINUOUS
10
174.362
20
-98.0123
11
174.519
21
-97.9932
0
LINE
8
BLACK
6
CONTINUOUS
10
174.519
20
-97.9932
11
175.84
21
-97.9932
0
LINE
8
BLACK
6
CONTINUOUS
10
175.84
20
-97.9932
11
175.847
21
-97.9932
0
LINE
8
BLACK
6
CONTINUOUS
10
175.847
20
-95.4532
11
176.004
21
-95.4739
0
LINE
8
BLACK
6
CONTINUOUS
10
176.004
20
-95.4739
11
176.152
21
-95.5316
0
LINE
8
BLACK
6
CONTINUOUS
10
176.152
20
-95.5316
11
176.282
21
-95.6228
0
LINE
8
BLACK
6
CONTINUOUS
10
176.282
20
-95.6228
11
176.386
21
-95.7424
0
LINE
8
BLACK
6
CONTINUOUS
10
176.386
20
-95.7424
11
176.459
21
-95.8834
0
LINE
8
BLACK
6
CONTINUOUS
10
176.459
20
-95.8834
11
176.496
21
-96.0377
0
LINE
8
BLACK
6
CONTINUOUS
10
176.496
20
-96.0377
11
176.495
21
-96.1964
0
LINE
8
BLACK
6
CONTINUOUS
10
176.495
20
-96.1964
11
176.457
21
-96.3503
0
LINE
8
BLACK
6
CONTINUOUS
10
176.457
20
-96.3503
11
176.382
21
-96.4905
0
LINE
8
BLACK
6
CONTINUOUS
10
176.382
20
-96.4905
11
176.277
21
-96.609
0
LINE
8
BLACK
6
CONTINUOUS
10
176.277
20
-96.609
11
176.146
21
-96.6988
0
LINE
8
BLACK
6
CONTINUOUS
10
176.146
20
-96.6988
11
175.998
21
-96.7549
0
LINE
8
BLACK
6
CONTINUOUS
10
175.998
20
-96.7549
11
175.84
21
-96.774
0
LINE
8
BLACK
6
CONTINUOUS
10
175.84
20
-96.774
11
174.519
21
-96.774
0
LINE
8
BLACK
6
CONTINUOUS
10
174.519
20
-96.774
11
174.512
21
-96.774
0
LINE
8
BLACK
6
CONTINUOUS
10
174.512
20
-96.774
11
174.355
21
-96.7533
0
LINE
8
BLACK
6
CONTINUOUS
10
174.355
20
-96.7533
11
174.207
21
-96.6956
0
LINE
8
BLACK
6
CONTINUOUS
10
174.207
20
-96.6956
11
174.077
21
-96.6044
0
LINE
8
BLACK
6
CONTINUOUS
10
174.077
20
-96.6044
11
173.973
21
-96.4848
0
LINE
8
BLACK
6
CONTINUOUS
10
173.973
20
-96.4848
11
173.9
21
-96.3438
0
LINE
8
BLACK
6
CONTINUOUS
10
173.9
20
-96.3438
11
173.894
21
-96.3168
0
LINE
8
BLACK
6
CONTINUOUS
10
173.894
20
-96.3168
11
148.457
21
-96.3168
0
LINE
8
BLACK
6
CONTINUOUS
10
148.457
20
-96.3168
11
148.419
21
-96.395
0
LINE
8
BLACK
6
CONTINUOUS
10
148.419
20
-96.395
11
148.323
21
-96.5008
0
LINE
8
BLACK
6
CONTINUOUS
10
148.323
20
-96.5008
11
148.201
21
-96.5754
0
LINE
8
BLACK
6
CONTINUOUS
10
148.201
20
-96.5754
11
148.064
21
-96.6129
0
LINE
8
BLACK
6
CONTINUOUS
10
148.064
20
-96.6129
11
147.921
21
-96.6103
0
LINE
8
BLACK
6
CONTINUOUS
10
147.921
20
-96.6103
11
147.785
21
-96.5678
0
LINE
8
BLACK
6
CONTINUOUS
10
147.785
20
-96.5678
11
147.666
21
-96.4887
0
LINE
8
BLACK
6
CONTINUOUS
10
147.666
20
-96.4887
11
147.574
21
-96.3795
0
LINE
8
BLACK
6
CONTINUOUS
10
147.574
20
-96.3795
11
147.517
21
-96.2489
0
LINE
8
BLACK
6
CONTINUOUS
10
147.517
20
-96.2489
11
147.498
21
-96.1075
0
LINE
8
BLACK
6
CONTINUOUS
10
147.498
20
-96.1075
11
147.52
21
-95.9665
0
LINE
8
BLACK
6
CONTINUOUS
10
147.52
20
-95.9665
11
147.581
21
-95.8373
0
LINE
8
BLACK
6
CONTINUOUS
10
147.581
20
-95.8373
11
147.675
21
-95.7304
0
LINE
8
BLACK
6
CONTINUOUS
10
147.675
20
-95.7304
11
147.796
21
-95.6543
0
LINE
8
BLACK
6
CONTINUOUS
10
147.796
20
-95.6543
11
147.933
21
-95.6151
0
LINE
8
BLACK
6
CONTINUOUS
10
147.933
20
-95.6151
11
148.076
21
-95.6159
0
LINE
8
BLACK
6
CONTINUOUS
10
148.076
20
-95.6159
11
148.213
21
-95.6568
0
LINE
8
BLACK
6
CONTINUOUS
10
148.213
20
-95.6568
11
148.332
21
-95.7344
0
LINE
8
BLACK
6
CONTINUOUS
10
148.332
20
-95.7344
11
148.426
21
-95.8425
0
LINE
8
BLACK
6
CONTINUOUS
10
148.426
20
-95.8425
11
148.456
21
-95.9104
0
LINE
8
BLACK
6
CONTINUOUS
10
148.456
20
-95.9104
11
173.894
21
-95.9104
0
LINE
8
BLACK
6
CONTINUOUS
10
173.894
20
-95.9104
11
173.903
21
-95.8769
0
LINE
8
BLACK
6
CONTINUOUS
10
173.903
20
-95.8769
11
173.977
21
-95.7367
0
LINE
8
BLACK
6
CONTINUOUS
10
173.977
20
-95.7367
11
174.082
21
-95.6182
0
LINE
8
BLACK
6
CONTINUOUS
10
174.082
20
-95.6182
11
174.213
21
-95.5284
0
LINE
8
BLACK
6
CONTINUOUS
10
174.213
20
-95.5284
11
174.362
21
-95.4723
0
LINE
8
BLACK
6
CONTINUOUS
10
174.362
20
-95.4723
11
174.519
21
-95.4532
0
LINE
8
BLACK
6
CONTINUOUS
10
174.519
20
-95.4532
11
175.84
21
-95.4532
0
LINE
8
BLACK
6
CONTINUOUS
10
175.84
20
-95.4532
11
175.847
21
-95.4532
0
CIRCLE
8
BLACK
10
148.002
20
-96.1136
40
0.3
0
CIRCLE
8
BLACK
10
154.098
20
-98.6536
40
0.3
0
CIRCLE
8
BLACK
10
150.034
20
-101.194
40
0.3
0
CIRCLE
8
BLACK
10
152.066
20
-103.734
40
0.3
0
CIRCLE
8
BLACK
10
157.908
20
-106.274
40
0.3
0
CIRCLE
8
BLACK
10
159.686
20
-108.814
40
0.3
  0
ENDSEC
  0
EOF
